<svg width="515" height="95" viewBox="0 0 515 95" fill="none" xmlns="http://www.w3.org/2000/svg">
<circle cx="171.914" cy="47.4609" r="46.8281" stroke="#10B981" stroke-width="1.26562"/>
<circle cx="467.227" cy="47.4609" r="46.8281" stroke="#F59E0B" stroke-width="1.26562"/>
<path d="M124.453 47.25L118.125 43.5965V50.9035L124.453 47.25ZM0 47.25V47.8828H118.758V47.25V46.6172H0V47.25Z" fill="#10B981"/>
<path d="M419.766 47.25L413.438 43.5965V50.9035L419.766 47.25ZM219.375 47.25V47.8828L414.07 47.8828V47.25V46.6172L219.375 46.6172V47.25Z" fill="#10B981"/>
<path d="M154.265 58.6534H156.863V72.8689C156.863 73.761 156.701 74.5141 156.377 75.1281C156.058 75.7421 155.583 76.2085 154.951 76.5271C154.326 76.8457 153.553 77.005 152.631 77.005C152.539 77.005 152.452 77.005 152.371 77.005C152.284 77.005 152.194 77.0021 152.101 76.9963V74.7632C152.183 74.7632 152.255 74.7632 152.319 74.7632C152.377 74.7632 152.443 74.7632 152.519 74.7632C153.133 74.7632 153.576 74.5981 153.848 74.2679C154.126 73.9435 154.265 73.4714 154.265 72.8515V58.6534ZM155.551 56.5941C155.099 56.5941 154.711 56.4435 154.387 56.1422C154.068 55.8352 153.909 55.4703 153.909 55.0474C153.909 54.6187 154.068 54.2538 154.387 53.9526C154.711 53.6455 155.099 53.492 155.551 53.492C156.003 53.492 156.388 53.6455 156.707 53.9526C157.031 54.2538 157.193 54.6187 157.193 55.0474C157.193 55.4703 157.031 55.8352 156.707 56.1422C156.388 56.4435 156.003 56.5941 155.551 56.5941ZM166.2 61.5643V59.2877H177.331V61.5643H166.2ZM166.2 66.9168V64.6403H177.331V66.9168H166.2ZM187.645 54.2045V72H184.951V56.8982H184.847L180.589 59.6787V57.1067L185.03 54.2045H187.645Z" fill="#10B981"/>
<path d="M454.415 72V58.6534H457.013V72H454.415ZM455.727 56.5941C455.276 56.5941 454.887 56.4435 454.563 56.1422C454.244 55.8352 454.085 55.4703 454.085 55.0474C454.085 54.6187 454.244 54.2538 454.563 53.9526C454.887 53.6455 455.276 53.492 455.727 53.492C456.179 53.492 456.564 53.6455 456.883 53.9526C457.207 54.2538 457.37 54.6187 457.37 55.0474C457.37 55.4703 457.207 55.8352 456.883 56.1422C456.564 56.4435 456.179 56.5941 455.727 56.5941ZM460.609 63.4585V61.1733H471.74V63.4585H460.609ZM460.609 68.8111V66.5258H471.74V68.8111H460.609ZM475.302 72V70.0536L481.324 63.8148C481.967 63.137 482.497 62.5433 482.914 62.0335C483.337 61.5179 483.653 61.0285 483.861 60.565C484.07 60.1016 484.174 59.6092 484.174 59.0879C484.174 58.497 484.035 57.9872 483.757 57.5586C483.479 57.1241 483.099 56.791 482.619 56.5593C482.138 56.3218 481.596 56.2031 480.994 56.2031C480.357 56.2031 479.8 56.3334 479.325 56.5941C478.85 56.8547 478.485 57.2226 478.231 57.6976C477.976 58.1726 477.848 58.7287 477.848 59.3659H475.285C475.285 58.2827 475.534 57.3355 476.032 56.5246C476.53 55.7136 477.214 55.085 478.083 54.639C478.952 54.1872 479.939 53.9612 481.046 53.9612C482.164 53.9612 483.149 54.1843 484 54.6303C484.858 55.0706 485.527 55.673 486.007 56.4377C486.488 57.1965 486.729 58.0539 486.729 59.0097C486.729 59.67 486.604 60.3159 486.355 60.9474C486.112 61.5788 485.686 62.2826 485.078 63.0588C484.469 63.8293 483.624 64.7648 482.54 65.8654L479.004 69.567V69.6974H487.015V72H475.302Z" fill="#F59E0B"/>
<path d="M28.2629 33.3715C26.4492 33.3715 24.8871 32.984 23.5768 32.209C22.2744 31.426 21.2676 30.3273 20.5565 28.9131C19.8534 27.4909 19.5018 25.8249 19.5018 23.9153C19.5018 22.0297 19.8534 20.3677 20.5565 18.9295C21.2676 17.4913 22.2584 16.3687 23.5288 15.5617C24.8072 14.7547 26.3014 14.3512 28.0112 14.3512C29.0499 14.3512 30.0567 14.523 31.0315 14.8666C32.0063 15.2101 32.8812 15.7495 33.6562 16.4846C34.4313 17.2196 35.0425 18.1744 35.4899 19.349C35.9374 20.5155 36.1611 21.9338 36.1611 23.6037V24.8741H21.5273V22.1895H32.6495C32.6495 21.2466 32.4577 20.4117 32.0742 19.6846C31.6907 18.9495 31.1513 18.3702 30.4562 17.9467C29.7691 17.5233 28.9621 17.3115 28.0352 17.3115C27.0285 17.3115 26.1496 17.5592 25.3985 18.0546C24.6554 18.542 24.0801 19.1812 23.6726 19.9722C23.2731 20.7552 23.0734 21.6062 23.0734 22.525V24.6224C23.0734 25.8529 23.2891 26.8996 23.7206 27.7625C24.16 28.6254 24.7713 29.2846 25.5543 29.7401C26.3373 30.1875 27.2522 30.4112 28.2989 30.4112C28.978 30.4112 29.5973 30.3153 30.1566 30.1236C30.7159 29.9238 31.1993 29.6282 31.6068 29.2367C32.0143 28.8452 32.3259 28.3618 32.5416 27.7865L35.9334 28.3977C35.6617 29.3965 35.1743 30.2714 34.4712 31.0225C33.7761 31.7655 32.9012 32.3448 31.8465 32.7603C30.7998 33.1678 29.6053 33.3715 28.2629 33.3715ZM41.5247 14.5909L45.5876 21.758L49.6865 14.5909H53.6056L47.8648 23.7955L53.6536 33H49.7344L45.5876 26.1206L41.4528 33H37.5216L43.2505 23.7955L37.5936 14.5909H41.5247ZM64.8659 14.5909V17.4673H54.8104V14.5909H64.8659ZM57.507 10.1804H61.0906V27.5947C61.0906 28.2899 61.1944 28.8132 61.4022 29.1648C61.6099 29.5083 61.8776 29.7441 62.2052 29.8719C62.5408 29.9917 62.9043 30.0517 63.2958 30.0517C63.5835 30.0517 63.8351 30.0317 64.0509 29.9917C64.2666 29.9518 64.4344 29.9198 64.5542 29.8959L65.2014 32.8562C64.9937 32.9361 64.6981 33.016 64.3145 33.0959C63.931 33.1838 63.4516 33.2317 62.8763 33.2397C61.9335 33.2557 61.0546 33.0879 60.2396 32.7363C59.4246 32.3848 58.7654 31.8414 58.2621 31.1064C57.7587 30.3713 57.507 29.4484 57.507 28.3378V10.1804ZM78.0377 21.0748V24.179H67.1553V21.0748H78.0377ZM81.8013 33V14.5909H85.3848V33H81.8013ZM83.611 11.7504C82.9878 11.7504 82.4524 11.5427 82.005 11.1272C81.5656 10.7037 81.3458 10.2004 81.3458 9.6171C81.3458 9.02583 81.5656 8.52246 82.005 8.10698C82.4524 7.6835 82.9878 7.47177 83.611 7.47177C84.2342 7.47177 84.7656 7.6835 85.205 8.10698C85.6525 8.52246 85.8762 9.02583 85.8762 9.6171C85.8762 10.2004 85.6525 10.7037 85.205 11.1272C84.7656 11.5427 84.2342 11.7504 83.611 11.7504ZM92.7768 22.0696V33H89.1933V14.5909H92.633V17.5872H92.8607C93.2842 16.6124 93.9474 15.8294 94.8503 15.2381C95.7611 14.6468 96.9077 14.3512 98.29 14.3512C99.5444 14.3512 100.643 14.6149 101.586 15.1422C102.529 15.6616 103.26 16.4366 103.779 17.4673C104.299 18.498 104.558 19.7725 104.558 21.2906V33H100.975V21.722C100.975 20.3877 100.627 19.345 99.9319 18.5939C99.2368 17.8349 98.282 17.4553 97.0675 17.4553C96.2365 17.4553 95.4975 17.6351 94.8503 17.9947C94.2111 18.3542 93.7037 18.8816 93.3282 19.5767C92.9606 20.2638 92.7768 21.0948 92.7768 22.0696Z" fill="#10B981"/>
<path d="M307.654 33V14.5909H311.094V17.5872H311.321C311.705 16.5724 312.332 15.7814 313.203 15.2141C314.074 14.6388 315.117 14.3512 316.331 14.3512C317.562 14.3512 318.592 14.6388 319.423 15.2141C320.262 15.7894 320.882 16.5804 321.281 17.5872H321.473C321.912 16.6044 322.611 15.8214 323.57 15.2381C324.529 14.6468 325.672 14.3512 326.998 14.3512C328.668 14.3512 330.03 14.8746 331.085 15.9213C332.148 16.968 332.679 18.546 332.679 20.6554V33H329.095V20.9909C329.095 19.7445 328.756 18.8416 328.077 18.2823C327.397 17.723 326.586 17.4434 325.644 17.4434C324.477 17.4434 323.57 17.8029 322.923 18.522C322.276 19.2331 321.952 20.148 321.952 21.2666V33H318.381V20.7632C318.381 19.7645 318.069 18.9615 317.446 18.3542C316.823 17.747 316.012 17.4434 315.013 17.4434C314.334 17.4434 313.706 17.6231 313.131 17.9827C312.564 18.3343 312.104 18.8256 311.753 19.4569C311.409 20.0881 311.238 20.8192 311.238 21.6501V33H307.654ZM344.383 8.45454V33H340.667V12.1699H340.523L334.651 16.0051V12.4576L340.775 8.45454H344.383Z" fill="#10B981"/>
<path d="M440.048 26.6426V23.4545H459.045V26.6426H451.386V48H447.695V26.6426H440.048ZM463.057 29.5909L467.12 36.758L471.219 29.5909H475.138L469.397 38.7955L475.186 48H471.267L467.12 41.1206L462.985 48H459.054L464.783 38.7955L459.126 29.5909H463.057ZM477.757 48V45.3153L486.063 36.71C486.949 35.7752 487.681 34.9562 488.256 34.2531C488.839 33.542 489.275 32.8668 489.562 32.2276C489.85 31.5884 489.994 30.9093 489.994 30.1902C489.994 29.3752 489.802 28.6721 489.418 28.0808C489.035 27.4815 488.512 27.0221 487.848 26.7025C487.185 26.3749 486.438 26.2111 485.607 26.2111C484.728 26.2111 483.961 26.3909 483.306 26.7504C482.651 27.11 482.147 27.6174 481.796 28.2725C481.444 28.9277 481.269 29.6948 481.269 30.5737H477.733C477.733 29.0795 478.076 27.7732 478.764 26.6546C479.451 25.536 480.394 24.669 481.592 24.0538C482.791 23.4306 484.153 23.119 485.679 23.119C487.221 23.119 488.579 23.4266 489.754 24.0418C490.936 24.6491 491.859 25.48 492.523 26.5347C493.186 27.5814 493.517 28.7639 493.517 30.0823C493.517 30.9932 493.345 31.8841 493.002 32.755C492.666 33.6259 492.079 34.5967 491.24 35.6673C490.401 36.73 489.235 38.0204 487.74 39.5385L482.863 44.6442V44.824H493.913V48H477.757Z" fill="#F59E0B"/>
<path d="M145.421 23.6426V20.4545H164.418V23.6426H156.759V45H153.068V23.6426H145.421ZM168.43 26.5909L172.493 33.758L176.592 26.5909H180.511L174.77 35.7955L180.559 45H176.64L172.493 38.1206L168.358 45H164.427L170.156 35.7955L164.499 26.5909H168.43ZM192.442 20.4545V45H188.727V24.1699H188.583L182.71 28.0051V24.4576L188.835 20.4545H192.442Z" fill="#10B981"/>
</svg>
