<svg width="959" height="365" viewBox="0 0 959 365" fill="none" xmlns="http://www.w3.org/2000/svg">
<circle cx="391.312" cy="48.1875" r="41.625" stroke="#F59E0B" stroke-width="1.125"/>
<circle cx="653.812" cy="48.1875" r="41.625" stroke="#EC4899" stroke-width="1.125"/>
<path d="M110.625 184.5L105 181.252V187.748L110.625 184.5ZM0 184.5V185.062H105.562V184.5V183.938H0V184.5Z" fill="#10B981"/>
<path d="M611.625 48L606 44.7524V51.2476L611.625 48ZM433.5 48V48.5625L606.563 48.5625V48V47.4375L433.5 47.4375V48Z" fill="#F59E0B"/>
<circle cx="916.312" cy="48.1875" r="41.625" stroke="#0EA5E9" stroke-width="1.125"/>
<path d="M874.125 48L868.5 44.7524V51.2476L874.125 48ZM696 48V48.5625L869.063 48.5625V48V47.4375L696 47.4375V48Z" fill="#EC4899"/>
<path d="M25.1226 171.83C23.5104 171.83 22.1219 171.486 20.9571 170.797C19.7994 170.101 18.9046 169.124 18.2725 167.867C17.6475 166.603 17.335 165.122 17.335 163.425C17.335 161.749 17.6475 160.271 18.2725 158.993C18.9046 157.714 19.7852 156.717 20.9145 155.999C22.0509 155.282 23.379 154.923 24.8989 154.923C25.8222 154.923 26.7171 155.076 27.5835 155.381C28.45 155.687 29.2277 156.166 29.9166 156.82C30.6056 157.473 31.1489 158.322 31.5466 159.366C31.9443 160.403 32.1432 161.663 32.1432 163.148V164.277H19.1354V161.891H29.0218C29.0218 161.053 28.8513 160.31 28.5104 159.664C28.1695 159.011 27.6901 158.496 27.0722 158.119C26.4614 157.743 25.7441 157.555 24.9202 157.555C24.0253 157.555 23.2441 157.775 22.5764 158.215C21.9159 158.648 21.4046 159.217 21.0423 159.92C20.6872 160.616 20.5097 161.372 20.5097 162.189V164.053C20.5097 165.147 20.7014 166.077 21.085 166.844C21.4756 167.612 22.0189 168.197 22.7149 168.602C23.411 169 24.2242 169.199 25.1546 169.199C25.7583 169.199 26.3087 169.114 26.8058 168.943C27.303 168.766 27.7327 168.503 28.0949 168.155C28.4571 167.807 28.7341 167.377 28.9259 166.866L31.9408 167.409C31.6993 168.297 31.2661 169.075 30.6411 169.742C30.0232 170.403 29.2455 170.918 28.308 171.287C27.3776 171.649 26.3158 171.83 25.1226 171.83ZM36.9108 155.136L40.5223 161.507L44.1658 155.136H47.6495L42.5465 163.318L47.6921 171.5H44.2084L40.5223 165.385L36.8469 171.5H33.3526L38.4449 163.318L33.4165 155.136H36.9108ZM57.6585 155.136V157.693H48.7203V155.136H57.6585ZM51.1173 151.216H54.3027V166.695C54.3027 167.313 54.395 167.778 54.5797 168.091C54.7644 168.396 55.0023 168.606 55.2935 168.719C55.5918 168.826 55.9149 168.879 56.2629 168.879C56.5186 168.879 56.7423 168.862 56.9341 168.826C57.1259 168.79 57.275 168.762 57.3816 168.741L57.9568 171.372C57.7722 171.443 57.5094 171.514 57.1685 171.585C56.8276 171.663 56.4014 171.706 55.8901 171.713C55.052 171.727 54.2708 171.578 53.5463 171.266C52.8219 170.953 52.236 170.47 51.7885 169.817C51.3411 169.163 51.1173 168.343 51.1173 167.356V151.216ZM69.3668 160.9V163.659H59.6936V160.9H69.3668ZM72.7122 171.5V155.136H75.8976V171.5H72.7122ZM74.3209 152.612C73.7669 152.612 73.2911 152.427 72.8933 152.058C72.5027 151.681 72.3074 151.234 72.3074 150.715C72.3074 150.19 72.5027 149.742 72.8933 149.373C73.2911 148.996 73.7669 148.808 74.3209 148.808C74.8749 148.808 75.3472 148.996 75.7378 149.373C76.1355 149.742 76.3344 150.19 76.3344 150.715C76.3344 151.234 76.1355 151.681 75.7378 152.058C75.3472 152.427 74.8749 152.612 74.3209 152.612ZM82.4683 161.784V171.5H79.2829V155.136H82.3405V157.8H82.5429C82.9193 156.933 83.5088 156.237 84.3113 155.712C85.121 155.186 86.1402 154.923 87.3689 154.923C88.4839 154.923 89.4605 155.158 90.2986 155.626C91.1366 156.088 91.7865 156.777 92.2481 157.693C92.7098 158.609 92.9406 159.742 92.9406 161.092V171.5H89.7552V161.475C89.7552 160.289 89.4463 159.362 88.8284 158.695C88.2105 158.02 87.3618 157.683 86.2822 157.683C85.5436 157.683 84.8866 157.842 84.3113 158.162C83.7432 158.482 83.2922 158.95 82.9584 159.568C82.6317 160.179 82.4683 160.918 82.4683 161.784Z" fill="#10B981"/>
<path d="M506.722 35V18.6364H509.78V21.2997H509.982C510.323 20.3977 510.88 19.6946 511.655 19.1903C512.429 18.679 513.356 18.4233 514.435 18.4233C515.529 18.4233 516.445 18.679 517.184 19.1903C517.929 19.7017 518.48 20.4048 518.835 21.2997H519.005C519.396 20.4261 520.017 19.7301 520.87 19.2116C521.722 18.6861 522.738 18.4233 523.917 18.4233C525.401 18.4233 526.612 18.8885 527.549 19.8189C528.494 20.7493 528.966 22.152 528.966 24.027V35H525.781V24.3253C525.781 23.2173 525.479 22.4148 524.875 21.9176C524.272 21.4205 523.551 21.1719 522.713 21.1719C521.676 21.1719 520.87 21.4915 520.294 22.1307C519.719 22.7628 519.432 23.576 519.432 24.5703V35H516.257V24.1229C516.257 23.2351 515.98 22.5213 515.426 21.9815C514.872 21.4418 514.151 21.1719 513.263 21.1719C512.659 21.1719 512.102 21.3317 511.591 21.6513C511.086 21.9638 510.678 22.4006 510.365 22.9616C510.06 23.5227 509.907 24.1726 509.907 24.9112V35H506.722ZM532.293 35V32.6136L539.676 24.9645C540.464 24.1335 541.114 23.4055 541.625 22.7805C542.144 22.1484 542.531 21.5483 542.787 20.9801C543.042 20.4119 543.17 19.8082 543.17 19.169C543.17 18.4446 543 17.8196 542.659 17.294C542.318 16.7614 541.853 16.353 541.263 16.0689C540.674 15.7777 540.01 15.6321 539.271 15.6321C538.49 15.6321 537.808 15.7919 537.226 16.1115C536.643 16.4311 536.196 16.8821 535.883 17.4645C535.571 18.0469 535.415 18.7287 535.415 19.5099H532.272C532.272 18.1818 532.577 17.0206 533.188 16.0263C533.799 15.032 534.637 14.2614 535.702 13.7145C536.767 13.1605 537.978 12.8835 539.335 12.8835C540.706 12.8835 541.913 13.157 542.957 13.7038C544.008 14.2436 544.829 14.9822 545.418 15.9197C546.008 16.8501 546.302 17.9013 546.302 19.0732C546.302 19.8828 546.15 20.6747 545.844 21.4489C545.546 22.223 545.024 23.0859 544.278 24.0376C543.532 24.9822 542.495 26.1293 541.167 27.4787L536.831 32.017V32.1768H546.654V35H532.293ZM552.572 13.1818V15.2273C552.572 15.831 552.458 16.4666 552.231 17.1342C552.011 17.7947 551.698 18.4304 551.294 19.0412C550.889 19.652 550.413 20.1776 549.866 20.6179L548.289 19.4886C548.708 18.8778 549.071 18.228 549.376 17.5391C549.689 16.8501 549.845 16.0902 549.845 15.2592V13.1818H552.572Z" fill="#F59E0B"/>
<path d="M284.345 35V18.6364H287.403V21.2997H287.605C287.946 20.3977 288.504 19.6946 289.278 19.1903C290.052 18.679 290.979 18.4233 292.058 18.4233C293.152 18.4233 294.068 18.679 294.807 19.1903C295.553 19.7017 296.103 20.4048 296.458 21.2997H296.629C297.019 20.4261 297.641 19.7301 298.493 19.2116C299.345 18.6861 300.361 18.4233 301.54 18.4233C303.024 18.4233 304.235 18.8885 305.173 19.8189C306.117 20.7493 306.59 22.152 306.59 24.027V35H303.404V24.3253C303.404 23.2173 303.102 22.4148 302.499 21.9176C301.895 21.4205 301.174 21.1719 300.336 21.1719C299.299 21.1719 298.493 21.4915 297.918 22.1307C297.342 22.7628 297.055 23.576 297.055 24.5703V35H293.88V24.1229C293.88 23.2351 293.603 22.5213 293.049 21.9815C292.495 21.4418 291.774 21.1719 290.886 21.1719C290.283 21.1719 289.725 21.3317 289.214 21.6513C288.71 21.9638 288.301 22.4006 287.989 22.9616C287.683 23.5227 287.531 24.1726 287.531 24.9112V35H284.345ZM316.993 13.1818V35H313.69V16.4844H313.562L308.342 19.8935V16.7401L313.786 13.1818H316.993Z" fill="#10B981"/>
<path d="M279.775 63.6818V79.5H277.465V63.6818H279.775ZM287.767 67.6364V69.4901H281.287V67.6364H287.767ZM283.025 64.794H285.334V76.0166C285.334 76.4646 285.401 76.8018 285.535 77.0284C285.669 77.2498 285.841 77.4017 286.052 77.4841C286.269 77.5613 286.503 77.6 286.755 77.6C286.941 77.6 287.103 77.5871 287.242 77.5613C287.381 77.5356 287.489 77.515 287.566 77.4996L287.983 79.4073C287.849 79.4588 287.659 79.5103 287.412 79.5618C287.165 79.6184 286.856 79.6493 286.485 79.6545C285.877 79.6648 285.311 79.5566 284.786 79.3301C284.26 79.1035 283.836 78.7534 283.511 78.2797C283.187 77.8059 283.025 77.2112 283.025 76.4955V64.794ZM295.514 70.2238V68.2002H305.408V70.2238H295.514ZM295.514 74.9816V72.958H305.408V74.9816H295.514ZM319.68 63.6818V79.5H317.286V66.0762H317.193L313.408 68.5478V66.2615L317.355 63.6818H319.68ZM328.814 79.7626C327.593 79.7575 326.551 79.4356 325.685 78.7971C324.82 78.1586 324.159 77.2292 323.7 76.0089C323.242 74.7885 323.013 73.3184 323.013 71.5986C323.013 69.884 323.242 68.419 323.7 67.2038C324.164 65.9886 324.828 65.0618 325.693 64.4233C326.563 63.7848 327.604 63.4656 328.814 63.4656C330.024 63.4656 331.061 63.7874 331.926 64.431C332.791 65.0695 333.453 65.9964 333.911 67.2116C334.375 68.4216 334.606 69.884 334.606 71.5986C334.606 73.3236 334.377 74.7963 333.919 76.0166C333.461 77.2318 332.799 78.1612 331.934 78.8049C331.069 79.4434 330.029 79.7626 328.814 79.7626ZM328.814 77.7004C329.885 77.7004 330.721 77.1777 331.324 76.1325C331.931 75.0872 332.235 73.5759 332.235 71.5986C332.235 70.2856 332.096 69.176 331.818 68.2697C331.545 67.3583 331.151 66.6683 330.636 66.1998C330.127 65.726 329.519 65.4892 328.814 65.4892C327.748 65.4892 326.911 66.0144 326.303 67.0648C325.696 68.1152 325.389 69.6265 325.384 71.5986C325.384 72.9168 325.521 74.0316 325.794 74.943C326.072 75.8493 326.466 76.5367 326.975 77.0052C327.485 77.4687 328.098 77.7004 328.814 77.7004ZM342.201 79.7626C340.981 79.7575 339.938 79.4356 339.073 78.7971C338.208 78.1586 337.546 77.2292 337.088 76.0089C336.63 74.7885 336.4 73.3184 336.4 71.5986C336.4 69.884 336.63 68.419 337.088 67.2038C337.551 65.9886 338.215 65.0618 339.081 64.4233C339.951 63.7848 340.991 63.4656 342.201 63.4656C343.411 63.4656 344.448 63.7874 345.314 64.431C346.179 65.0695 346.84 65.9964 347.299 67.2116C347.762 68.4216 347.994 69.884 347.994 71.5986C347.994 73.3236 347.765 74.7963 347.306 76.0166C346.848 77.2318 346.186 78.1612 345.321 78.8049C344.456 79.4434 343.416 79.7626 342.201 79.7626ZM342.201 77.7004C343.272 77.7004 344.109 77.1777 344.711 76.1325C345.319 75.0872 345.622 73.5759 345.622 71.5986C345.622 70.2856 345.483 69.176 345.205 68.2697C344.933 67.3583 344.539 66.6683 344.024 66.1998C343.514 65.726 342.906 65.4892 342.201 65.4892C341.135 65.4892 340.298 66.0144 339.691 67.0648C339.083 68.1152 338.777 69.6265 338.772 71.5986C338.772 72.9168 338.908 74.0316 339.181 74.943C339.459 75.8493 339.853 76.5367 340.363 77.0052C340.872 77.4687 341.485 77.7004 342.201 77.7004Z" fill="#10B981"/>
<path d="M498.03 61.4318V77.25H495.72V61.4318H498.03ZM506.022 65.3864V67.2401H499.542V65.3864H506.022ZM501.279 62.544H503.589V73.7666C503.589 74.2146 503.656 74.5518 503.79 74.7784C503.924 74.9998 504.096 75.1517 504.307 75.2341C504.523 75.3113 504.758 75.35 505.01 75.35C505.195 75.35 505.358 75.3371 505.497 75.3113C505.636 75.2856 505.744 75.265 505.821 75.2496L506.238 77.1573C506.104 77.2088 505.914 77.2603 505.667 77.3118C505.419 77.3684 505.11 77.3993 504.74 77.4045C504.132 77.4148 503.566 77.3066 503.04 77.0801C502.515 76.8535 502.09 76.5034 501.766 76.0297C501.442 75.5559 501.279 74.9612 501.279 74.2455V62.544ZM513.769 67.9738V65.9502H523.663V67.9738H513.769ZM513.769 72.7316V70.708H523.663V72.7316H513.769ZM537.935 61.4318V77.25H535.541V63.8262H535.448L531.663 66.2978V64.0115L535.61 61.4318H537.935ZM547.068 77.5126C545.848 77.5075 544.805 77.1856 543.94 76.5471C543.075 75.9086 542.414 74.9792 541.955 73.7589C541.497 72.5385 541.268 71.0684 541.268 69.3486C541.268 67.634 541.497 66.169 541.955 64.9538C542.419 63.7386 543.083 62.8118 543.948 62.1733C544.818 61.5348 545.858 61.2156 547.068 61.2156C548.278 61.2156 549.316 61.5374 550.181 62.181C551.046 62.8195 551.708 63.7464 552.166 64.9616C552.629 66.1716 552.861 67.634 552.861 69.3486C552.861 71.0736 552.632 72.5463 552.174 73.7666C551.715 74.9818 551.054 75.9112 550.189 76.5549C549.324 77.1934 548.284 77.5126 547.068 77.5126ZM547.068 75.4504C548.139 75.4504 548.976 74.9277 549.579 73.8825C550.186 72.8372 550.49 71.3259 550.49 69.3486C550.49 68.0356 550.351 66.926 550.073 66.0197C549.8 65.1083 549.406 64.4183 548.891 63.9498C548.381 63.476 547.774 63.2392 547.068 63.2392C546.002 63.2392 545.166 63.7644 544.558 64.8148C543.951 65.8652 543.644 67.3765 543.639 69.3486C543.639 70.6668 543.775 71.7816 544.048 72.693C544.326 73.5993 544.72 74.2867 545.23 74.7552C545.74 75.2187 546.353 75.4504 547.068 75.4504ZM560.95 61.4318V77.25H558.556V63.8262H558.463L554.678 66.2978V64.0115L558.625 61.4318H560.95Z" fill="#F59E0B"/>
<path d="M752.375 61.1818V77H750.066V61.1818H752.375ZM760.367 65.1364V66.9901H753.887V65.1364H760.367ZM755.625 62.294H757.935V73.5166C757.935 73.9646 758.001 74.3018 758.135 74.5284C758.269 74.7498 758.442 74.9017 758.653 74.9841C758.869 75.0613 759.103 75.1 759.356 75.1C759.541 75.1 759.703 75.0871 759.842 75.0613C759.981 75.0356 760.089 75.015 760.167 74.9996L760.584 76.9073C760.45 76.9588 760.259 77.0103 760.012 77.0618C759.765 77.1184 759.456 77.1493 759.085 77.1545C758.478 77.1648 757.911 77.0566 757.386 76.8301C756.861 76.6035 756.436 76.2534 756.112 75.7797C755.787 75.3059 755.625 74.7112 755.625 73.9955V62.294ZM768.115 67.7238V65.7002H778.009V67.7238H768.115ZM768.115 72.4816V70.458H778.009V72.4816H768.115ZM792.281 61.1818V77H789.886V63.5762H789.794L786.009 66.0478V63.7615L789.956 61.1818H792.281ZM801.414 77.2626C800.194 77.2575 799.151 76.9356 798.286 76.2971C797.421 75.6586 796.759 74.7292 796.301 73.5089C795.843 72.2885 795.614 70.8184 795.614 69.0986C795.614 67.384 795.843 65.919 796.301 64.7038C796.764 63.4886 797.429 62.5618 798.294 61.9233C799.164 61.2848 800.204 60.9656 801.414 60.9656C802.624 60.9656 803.662 61.2874 804.527 61.931C805.392 62.5695 806.053 63.4964 806.512 64.7116C806.975 65.9216 807.207 67.384 807.207 69.0986C807.207 70.8236 806.978 72.2963 806.519 73.5166C806.061 74.7318 805.399 75.6612 804.534 76.3049C803.669 76.9434 802.629 77.2626 801.414 77.2626ZM801.414 75.2004C802.485 75.2004 803.322 74.6777 803.924 73.6325C804.532 72.5872 804.836 71.0759 804.836 69.0986C804.836 67.7856 804.697 66.676 804.419 65.7697C804.146 64.8583 803.752 64.1683 803.237 63.6998C802.727 63.226 802.119 62.9892 801.414 62.9892C800.348 62.9892 799.511 63.5144 798.904 64.5648C798.296 65.6152 797.99 67.1265 797.985 69.0986C797.985 70.4168 798.121 71.5316 798.394 72.443C798.672 73.3493 799.066 74.0367 799.576 74.5052C800.086 74.9687 800.698 75.2004 801.414 75.2004ZM809.294 77V75.2699L814.647 69.7243C815.218 69.1218 815.69 68.594 816.06 68.1409C816.436 67.6826 816.717 67.2475 816.902 66.8356C817.088 66.4237 817.18 65.986 817.18 65.5225C817.18 64.9973 817.057 64.5442 816.81 64.1632C816.562 63.777 816.225 63.4809 815.798 63.2749C815.37 63.0638 814.889 62.9583 814.353 62.9583C813.787 62.9583 813.293 63.0741 812.87 63.3058C812.448 63.5376 812.124 63.8645 811.897 64.2868C811.671 64.709 811.557 65.2033 811.557 65.7697H809.279C809.279 64.8068 809.5 63.9649 809.943 63.2441C810.386 62.5232 810.994 61.9645 811.766 61.568C812.538 61.1664 813.416 60.9656 814.4 60.9656C815.394 60.9656 816.269 61.1638 817.026 61.5603C817.788 61.9516 818.383 62.4871 818.81 63.1668C819.237 63.8414 819.451 64.6034 819.451 65.453C819.451 66.04 819.34 66.6142 819.119 67.1754C818.903 67.7367 818.524 68.3623 817.984 69.0523C817.443 69.7371 816.691 70.5687 815.728 71.5471L812.585 74.8374V74.9532H819.706V77H809.294Z" fill="#EC4899"/>
<path d="M752.035 195.182V211H749.726V195.182H752.035ZM760.028 199.136V200.99H753.547V199.136H760.028ZM755.285 196.294H757.595V207.517C757.595 207.965 757.662 208.302 757.795 208.528C757.929 208.75 758.102 208.902 758.313 208.984C758.529 209.061 758.764 209.1 759.016 209.1C759.201 209.1 759.363 209.087 759.502 209.061C759.641 209.036 759.75 209.015 759.827 209L760.244 210.907C760.11 210.959 759.92 211.01 759.672 211.062C759.425 211.118 759.116 211.149 758.746 211.154C758.138 211.165 757.572 211.057 757.046 210.83C756.521 210.604 756.096 210.253 755.772 209.78C755.447 209.306 755.285 208.711 755.285 207.995V196.294ZM767.775 201.724V199.7H777.669V201.724H767.775ZM767.775 206.482V204.458H777.669V206.482H767.775ZM791.941 195.182V211H789.546V197.576H789.454L785.669 200.048V197.762L789.616 195.182H791.941ZM801.074 211.263C799.854 211.257 798.811 210.936 797.946 210.297C797.081 209.659 796.419 208.729 795.961 207.509C795.503 206.289 795.274 204.818 795.274 203.099C795.274 201.384 795.503 199.919 795.961 198.704C796.425 197.489 797.089 196.562 797.954 195.923C798.824 195.285 799.864 194.966 801.074 194.966C802.284 194.966 803.322 195.287 804.187 195.931C805.052 196.57 805.714 197.496 806.172 198.712C806.635 199.922 806.867 201.384 806.867 203.099C806.867 204.824 806.638 206.296 806.18 207.517C805.721 208.732 805.06 209.661 804.195 210.305C803.33 210.943 802.289 211.263 801.074 211.263ZM801.074 209.2C802.145 209.2 802.982 208.678 803.584 207.632C804.192 206.587 804.496 205.076 804.496 203.099C804.496 201.786 804.357 200.676 804.079 199.77C803.806 198.858 803.412 198.168 802.897 197.7C802.387 197.226 801.78 196.989 801.074 196.989C800.008 196.989 799.172 197.514 798.564 198.565C797.956 199.615 797.65 201.127 797.645 203.099C797.645 204.417 797.781 205.532 798.054 206.443C798.332 207.349 798.726 208.037 799.236 208.505C799.746 208.969 800.358 209.2 801.074 209.2ZM814.462 211.216C813.401 211.216 812.453 211.033 811.619 210.668C810.79 210.302 810.134 209.795 809.65 209.146C809.171 208.492 808.913 207.735 808.877 206.876H811.303C811.333 207.344 811.49 207.751 811.774 208.096C812.062 208.436 812.438 208.698 812.901 208.884C813.365 209.069 813.88 209.162 814.446 209.162C815.069 209.162 815.62 209.054 816.099 208.837C816.583 208.621 816.961 208.32 817.234 207.934C817.507 207.542 817.644 207.092 817.644 206.582C817.644 206.052 817.507 205.586 817.234 205.184C816.967 204.777 816.573 204.458 816.053 204.226C815.538 203.995 814.915 203.879 814.183 203.879H812.847V201.932H814.183C814.77 201.932 815.285 201.827 815.728 201.616C816.176 201.405 816.526 201.111 816.779 200.735C817.031 200.354 817.157 199.909 817.157 199.399C817.157 198.91 817.046 198.485 816.825 198.125C816.609 197.759 816.3 197.473 815.898 197.267C815.502 197.061 815.033 196.958 814.492 196.958C813.977 196.958 813.496 197.054 813.048 197.244C812.605 197.429 812.245 197.697 811.967 198.047C811.689 198.392 811.539 198.807 811.519 199.291H809.209C809.235 198.436 809.487 197.684 809.966 197.036C810.45 196.387 811.089 195.88 811.882 195.514C812.675 195.148 813.555 194.966 814.523 194.966C815.538 194.966 816.413 195.164 817.149 195.56C817.891 195.952 818.462 196.474 818.864 197.128C819.271 197.782 819.472 198.498 819.466 199.275C819.472 200.161 819.224 200.913 818.725 201.531C818.231 202.149 817.572 202.563 816.748 202.774V202.898C817.798 203.057 818.612 203.475 819.188 204.149C819.77 204.824 820.059 205.66 820.053 206.659C820.059 207.529 819.817 208.31 819.327 209C818.843 209.69 818.182 210.233 817.342 210.629C816.503 211.021 815.543 211.216 814.462 211.216Z" fill="#EC4899"/>
<path d="M751.929 329.182V345H749.62V329.182H751.929ZM759.921 333.136V334.99H753.441V333.136H759.921ZM755.179 330.294H757.488V341.517C757.488 341.965 757.555 342.302 757.689 342.528C757.823 342.75 757.996 342.902 758.207 342.984C758.423 343.061 758.657 343.1 758.91 343.1C759.095 343.1 759.257 343.087 759.396 343.061C759.535 343.036 759.643 343.015 759.721 343L760.138 344.907C760.004 344.959 759.813 345.01 759.566 345.062C759.319 345.118 759.01 345.149 758.639 345.154C758.032 345.165 757.465 345.057 756.94 344.83C756.415 344.604 755.99 344.253 755.666 343.78C755.341 343.306 755.179 342.711 755.179 341.995V330.294ZM767.669 335.724V333.7H777.563V335.724H767.669ZM767.669 340.482V338.458H777.563V340.482H767.669ZM791.835 329.182V345H789.44V331.576H789.348L785.563 334.048V331.762L789.51 329.182H791.835ZM800.968 345.263C799.748 345.257 798.705 344.936 797.84 344.297C796.975 343.659 796.313 342.729 795.855 341.509C795.397 340.289 795.167 338.818 795.167 337.099C795.167 335.384 795.397 333.919 795.855 332.704C796.318 331.489 796.983 330.562 797.848 329.923C798.718 329.285 799.758 328.966 800.968 328.966C802.178 328.966 803.216 329.287 804.081 329.931C804.946 330.57 805.607 331.496 806.066 332.712C806.529 333.922 806.761 335.384 806.761 337.099C806.761 338.824 806.532 340.296 806.073 341.517C805.615 342.732 804.953 343.661 804.088 344.305C803.223 344.943 802.183 345.263 800.968 345.263ZM800.968 343.2C802.039 343.2 802.876 342.678 803.478 341.632C804.086 340.587 804.39 339.076 804.39 337.099C804.39 335.786 804.251 334.676 803.973 333.77C803.7 332.858 803.306 332.168 802.791 331.7C802.281 331.226 801.673 330.989 800.968 330.989C799.902 330.989 799.065 331.514 798.458 332.565C797.85 333.615 797.544 335.127 797.539 337.099C797.539 338.417 797.675 339.532 797.948 340.443C798.226 341.349 798.62 342.037 799.13 342.505C799.64 342.969 800.252 343.2 800.968 343.2ZM808.516 341.911V339.98L815.352 329.182H816.873V332.024H815.908L811.019 339.763V339.887H820.388V341.911H808.516ZM816.016 345V341.324L816.031 340.443V329.182H818.294V345H816.016Z" fill="#EC4899"/>
<path d="M496.375 195.182V211H494.066V195.182H496.375ZM504.367 199.136V200.99H497.887V199.136H504.367ZM499.625 196.294H501.935V207.517C501.935 207.965 502.001 208.302 502.135 208.528C502.269 208.75 502.442 208.902 502.653 208.984C502.869 209.061 503.103 209.1 503.356 209.1C503.541 209.1 503.703 209.087 503.842 209.061C503.981 209.036 504.089 209.015 504.167 209L504.584 210.907C504.45 210.959 504.259 211.01 504.012 211.062C503.765 211.118 503.456 211.149 503.085 211.154C502.478 211.165 501.911 211.057 501.386 210.83C500.861 210.604 500.436 210.253 500.112 209.78C499.787 209.306 499.625 208.711 499.625 207.995V196.294ZM512.115 201.724V199.7H522.009V201.724H512.115ZM512.115 206.482V204.458H522.009V206.482H512.115ZM536.281 195.182V211H533.886V197.576H533.794L530.009 200.048V197.762L533.956 195.182H536.281ZM545.414 211.263C544.194 211.257 543.151 210.936 542.286 210.297C541.421 209.659 540.759 208.729 540.301 207.509C539.843 206.289 539.614 204.818 539.614 203.099C539.614 201.384 539.843 199.919 540.301 198.704C540.764 197.489 541.429 196.562 542.294 195.923C543.164 195.285 544.204 194.966 545.414 194.966C546.624 194.966 547.662 195.287 548.527 195.931C549.392 196.57 550.053 197.496 550.512 198.712C550.975 199.922 551.207 201.384 551.207 203.099C551.207 204.824 550.978 206.296 550.519 207.517C550.061 208.732 549.399 209.661 548.534 210.305C547.669 210.943 546.629 211.263 545.414 211.263ZM545.414 209.2C546.485 209.2 547.322 208.678 547.924 207.632C548.532 206.587 548.836 205.076 548.836 203.099C548.836 201.786 548.697 200.676 548.419 199.77C548.146 198.858 547.752 198.168 547.237 197.7C546.727 197.226 546.119 196.989 545.414 196.989C544.348 196.989 543.511 197.514 542.904 198.565C542.296 199.615 541.99 201.127 541.985 203.099C541.985 204.417 542.121 205.532 542.394 206.443C542.672 207.349 543.066 208.037 543.576 208.505C544.086 208.969 544.698 209.2 545.414 209.2ZM553.294 211V209.27L558.647 203.724C559.218 203.122 559.69 202.594 560.06 202.141C560.436 201.683 560.717 201.248 560.902 200.836C561.088 200.424 561.18 199.986 561.18 199.523C561.18 198.997 561.057 198.544 560.81 198.163C560.562 197.777 560.225 197.481 559.798 197.275C559.37 197.064 558.889 196.958 558.353 196.958C557.787 196.958 557.293 197.074 556.87 197.306C556.448 197.538 556.124 197.865 555.897 198.287C555.671 198.709 555.557 199.203 555.557 199.77H553.279C553.279 198.807 553.5 197.965 553.943 197.244C554.386 196.523 554.994 195.964 555.766 195.568C556.538 195.166 557.416 194.966 558.4 194.966C559.394 194.966 560.269 195.164 561.026 195.56C561.788 195.952 562.383 196.487 562.81 197.167C563.237 197.841 563.451 198.603 563.451 199.453C563.451 200.04 563.34 200.614 563.119 201.175C562.903 201.737 562.524 202.362 561.984 203.052C561.443 203.737 560.691 204.569 559.728 205.547L556.585 208.837V208.953H563.706V211H553.294Z" fill="#F59E0B"/>
<path d="M496.035 332.182V348H493.726V332.182H496.035ZM504.028 336.136V337.99H497.547V336.136H504.028ZM499.285 333.294H501.595V344.517C501.595 344.965 501.662 345.302 501.795 345.528C501.929 345.75 502.102 345.902 502.313 345.984C502.529 346.061 502.764 346.1 503.016 346.1C503.201 346.1 503.363 346.087 503.502 346.061C503.641 346.036 503.75 346.015 503.827 346L504.244 347.907C504.11 347.959 503.92 348.01 503.672 348.062C503.425 348.118 503.116 348.149 502.746 348.154C502.138 348.165 501.572 348.057 501.046 347.83C500.521 347.604 500.096 347.253 499.772 346.78C499.447 346.306 499.285 345.711 499.285 344.995V333.294ZM511.775 338.724V336.7H521.669V338.724H511.775ZM511.775 343.482V341.458H521.669V343.482H511.775ZM535.941 332.182V348H533.546V334.576H533.454L529.669 337.048V334.762L533.616 332.182H535.941ZM545.074 348.263C543.854 348.257 542.811 347.936 541.946 347.297C541.081 346.659 540.419 345.729 539.961 344.509C539.503 343.289 539.274 341.818 539.274 340.099C539.274 338.384 539.503 336.919 539.961 335.704C540.425 334.489 541.089 333.562 541.954 332.923C542.824 332.285 543.864 331.966 545.074 331.966C546.284 331.966 547.322 332.287 548.187 332.931C549.052 333.57 549.714 334.496 550.172 335.712C550.635 336.922 550.867 338.384 550.867 340.099C550.867 341.824 550.638 343.296 550.18 344.517C549.721 345.732 549.06 346.661 548.195 347.305C547.33 347.943 546.289 348.263 545.074 348.263ZM545.074 346.2C546.145 346.2 546.982 345.678 547.584 344.632C548.192 343.587 548.496 342.076 548.496 340.099C548.496 338.786 548.357 337.676 548.079 336.77C547.806 335.858 547.412 335.168 546.897 334.7C546.387 334.226 545.78 333.989 545.074 333.989C544.008 333.989 543.172 334.514 542.564 335.565C541.956 336.615 541.65 338.127 541.645 340.099C541.645 341.417 541.781 342.532 542.054 343.443C542.332 344.349 542.726 345.037 543.236 345.505C543.746 345.969 544.358 346.2 545.074 346.2ZM558.462 348.216C557.401 348.216 556.453 348.033 555.619 347.668C554.79 347.302 554.134 346.795 553.65 346.146C553.171 345.492 552.913 344.735 552.877 343.876H555.303C555.333 344.344 555.49 344.751 555.774 345.096C556.062 345.436 556.438 345.698 556.901 345.884C557.365 346.069 557.88 346.162 558.446 346.162C559.069 346.162 559.62 346.054 560.099 345.837C560.583 345.621 560.961 345.32 561.234 344.934C561.507 344.542 561.644 344.092 561.644 343.582C561.644 343.052 561.507 342.586 561.234 342.184C560.967 341.777 560.573 341.458 560.053 341.226C559.538 340.995 558.915 340.879 558.183 340.879H556.847V338.932H558.183C558.77 338.932 559.285 338.827 559.728 338.616C560.176 338.405 560.526 338.111 560.779 337.735C561.031 337.354 561.157 336.909 561.157 336.399C561.157 335.91 561.046 335.485 560.825 335.125C560.609 334.759 560.3 334.473 559.898 334.267C559.502 334.061 559.033 333.958 558.492 333.958C557.977 333.958 557.496 334.054 557.048 334.244C556.605 334.429 556.245 334.697 555.967 335.047C555.689 335.392 555.539 335.807 555.519 336.291H553.209C553.235 335.436 553.487 334.684 553.966 334.036C554.45 333.387 555.089 332.88 555.882 332.514C556.675 332.148 557.555 331.966 558.523 331.966C559.538 331.966 560.413 332.164 561.149 332.56C561.891 332.952 562.462 333.474 562.864 334.128C563.271 334.782 563.472 335.498 563.466 336.275C563.472 337.161 563.224 337.913 562.725 338.531C562.231 339.149 561.572 339.563 560.748 339.774V339.898C561.798 340.057 562.612 340.475 563.188 341.149C563.77 341.824 564.059 342.66 564.053 343.659C564.059 344.529 563.817 345.31 563.327 346C562.843 346.69 562.182 347.233 561.342 347.629C560.503 348.021 559.543 348.216 558.462 348.216Z" fill="#F59E0B"/>
<path d="M281.655 194.557V210.375H279.345V194.557H281.655ZM289.647 198.511V200.365H283.167V198.511H289.647ZM284.904 195.669H287.214V206.892C287.214 207.34 287.281 207.677 287.415 207.903C287.549 208.125 287.721 208.277 287.932 208.359C288.148 208.436 288.383 208.475 288.635 208.475C288.82 208.475 288.983 208.462 289.122 208.436C289.261 208.411 289.369 208.39 289.446 208.375L289.863 210.282C289.729 210.334 289.539 210.385 289.292 210.437C289.044 210.493 288.735 210.524 288.365 210.529C287.757 210.54 287.191 210.432 286.665 210.205C286.14 209.979 285.715 209.628 285.391 209.155C285.067 208.681 284.904 208.086 284.904 207.37V195.669ZM297.394 201.099V199.075H307.288V201.099H297.394ZM297.394 205.857V203.833H307.288V205.857H297.394ZM321.56 194.557V210.375H319.166V196.951H319.073L315.288 199.423V197.137L319.235 194.557H321.56ZM330.693 210.638C329.473 210.632 328.43 210.311 327.565 209.672C326.7 209.034 326.039 208.104 325.58 206.884C325.122 205.664 324.893 204.193 324.893 202.474C324.893 200.759 325.122 199.294 325.58 198.079C326.044 196.864 326.708 195.937 327.573 195.298C328.443 194.66 329.483 194.341 330.693 194.341C331.903 194.341 332.941 194.662 333.806 195.306C334.671 195.945 335.333 196.871 335.791 198.087C336.254 199.297 336.486 200.759 336.486 202.474C336.486 204.199 336.257 205.671 335.799 206.892C335.34 208.107 334.679 209.036 333.814 209.68C332.949 210.318 331.909 210.638 330.693 210.638ZM330.693 208.575C331.764 208.575 332.601 208.053 333.204 207.007C333.811 205.962 334.115 204.451 334.115 202.474C334.115 201.161 333.976 200.051 333.698 199.145C333.425 198.233 333.031 197.543 332.516 197.075C332.006 196.601 331.399 196.364 330.693 196.364C329.627 196.364 328.791 196.889 328.183 197.94C327.576 198.99 327.269 200.502 327.264 202.474C327.264 203.792 327.4 204.907 327.673 205.818C327.951 206.724 328.345 207.412 328.855 207.88C329.365 208.344 329.978 208.575 330.693 208.575ZM344.575 194.557V210.375H342.181V196.951H342.088L338.303 199.423V197.137L342.25 194.557H344.575Z" fill="#10B981"/>
<path d="M280.125 331.057V346.875H277.816V331.057H280.125ZM288.117 335.011V336.865H281.637V335.011H288.117ZM283.375 332.169H285.685V343.392C285.685 343.84 285.751 344.177 285.885 344.403C286.019 344.625 286.192 344.777 286.403 344.859C286.619 344.936 286.853 344.975 287.106 344.975C287.291 344.975 287.453 344.962 287.592 344.936C287.731 344.911 287.839 344.89 287.917 344.875L288.334 346.782C288.2 346.834 288.009 346.885 287.762 346.937C287.515 346.993 287.206 347.024 286.835 347.029C286.228 347.04 285.661 346.932 285.136 346.705C284.611 346.479 284.186 346.128 283.862 345.655C283.537 345.181 283.375 344.586 283.375 343.87V332.169ZM295.865 337.599V335.575H305.759V337.599H295.865ZM295.865 342.357V340.333H305.759V342.357H295.865ZM320.031 331.057V346.875H317.636V333.451H317.544L313.759 335.923V333.637L317.706 331.057H320.031ZM329.164 347.138C327.944 347.132 326.901 346.811 326.036 346.172C325.171 345.534 324.509 344.604 324.051 343.384C323.593 342.164 323.364 340.693 323.364 338.974C323.364 337.259 323.593 335.794 324.051 334.579C324.514 333.364 325.179 332.437 326.044 331.798C326.914 331.16 327.954 330.841 329.164 330.841C330.374 330.841 331.412 331.162 332.277 331.806C333.142 332.445 333.803 333.371 334.262 334.587C334.725 335.797 334.957 337.259 334.957 338.974C334.957 340.699 334.728 342.171 334.269 343.392C333.811 344.607 333.149 345.536 332.284 346.18C331.419 346.818 330.379 347.138 329.164 347.138ZM329.164 345.075C330.235 345.075 331.072 344.553 331.674 343.507C332.282 342.462 332.586 340.951 332.586 338.974C332.586 337.661 332.447 336.551 332.169 335.645C331.896 334.733 331.502 334.043 330.987 333.575C330.477 333.101 329.869 332.864 329.164 332.864C328.098 332.864 327.261 333.389 326.654 334.44C326.046 335.49 325.74 337.002 325.735 338.974C325.735 340.292 325.871 341.407 326.144 342.318C326.422 343.224 326.816 343.912 327.326 344.38C327.836 344.844 328.448 345.075 329.164 345.075ZM337.044 346.875V345.145L342.397 339.599C342.968 338.997 343.44 338.469 343.81 338.016C344.186 337.558 344.467 337.123 344.652 336.711C344.838 336.299 344.93 335.861 344.93 335.398C344.93 334.872 344.807 334.419 344.56 334.038C344.312 333.652 343.975 333.356 343.548 333.15C343.12 332.939 342.639 332.833 342.103 332.833C341.537 332.833 341.043 332.949 340.62 333.181C340.198 333.413 339.874 333.74 339.647 334.162C339.421 334.584 339.307 335.078 339.307 335.645H337.029C337.029 334.682 337.25 333.84 337.693 333.119C338.136 332.398 338.744 331.839 339.516 331.443C340.288 331.041 341.166 330.841 342.15 330.841C343.144 330.841 344.019 331.039 344.776 331.435C345.538 331.827 346.133 332.362 346.56 333.042C346.987 333.716 347.201 334.478 347.201 335.328C347.201 335.915 347.09 336.489 346.869 337.05C346.653 337.612 346.274 338.237 345.734 338.927C345.193 339.612 344.441 340.444 343.478 341.422L340.335 344.712V344.828H347.456V346.875H337.044Z" fill="#10B981"/>
<path d="M286.792 303.5V287.136H289.849V289.8H290.051C290.392 288.898 290.95 288.195 291.724 287.69C292.498 287.179 293.425 286.923 294.505 286.923C295.598 286.923 296.515 287.179 297.253 287.69C297.999 288.202 298.549 288.905 298.904 289.8H299.075C299.466 288.926 300.087 288.23 300.939 287.712C301.792 287.186 302.807 286.923 303.986 286.923C305.471 286.923 306.681 287.388 307.619 288.319C308.564 289.249 309.036 290.652 309.036 292.527V303.5H305.85V292.825C305.85 291.717 305.549 290.915 304.945 290.418C304.341 289.92 303.62 289.672 302.782 289.672C301.745 289.672 300.939 289.991 300.364 290.631C299.789 291.263 299.501 292.076 299.501 293.07V303.5H296.326V292.623C296.326 291.735 296.049 291.021 295.495 290.482C294.941 289.942 294.221 289.672 293.333 289.672C292.729 289.672 292.172 289.832 291.66 290.151C291.156 290.464 290.747 290.901 290.435 291.462C290.13 292.023 289.977 292.673 289.977 293.411V303.5H286.792ZM319.958 303.798C318.495 303.798 317.189 303.546 316.038 303.042C314.895 302.538 313.989 301.838 313.321 300.943C312.661 300.041 312.306 298.997 312.256 297.811H315.601C315.644 298.457 315.86 299.018 316.251 299.494C316.649 299.963 317.167 300.325 317.806 300.581C318.446 300.837 319.156 300.964 319.937 300.964C320.797 300.964 321.556 300.815 322.217 300.517C322.885 300.219 323.407 299.803 323.783 299.271C324.159 298.731 324.348 298.109 324.348 297.406C324.348 296.675 324.159 296.032 323.783 295.478C323.414 294.917 322.87 294.477 322.153 294.157C321.443 293.837 320.583 293.678 319.575 293.678H317.732V290.993H319.575C320.385 290.993 321.095 290.847 321.706 290.556C322.324 290.265 322.806 289.86 323.154 289.342C323.503 288.816 323.677 288.202 323.677 287.499C323.677 286.824 323.524 286.238 323.218 285.741C322.92 285.237 322.494 284.842 321.94 284.558C321.393 284.274 320.747 284.132 320.001 284.132C319.291 284.132 318.627 284.263 318.009 284.526C317.398 284.782 316.901 285.151 316.517 285.634C316.134 286.11 315.928 286.682 315.9 287.349H312.714C312.75 286.17 313.098 285.134 313.758 284.239C314.426 283.344 315.306 282.644 316.4 282.14C317.494 281.636 318.708 281.384 320.044 281.384C321.443 281.384 322.65 281.657 323.666 282.204C324.689 282.744 325.477 283.464 326.031 284.366C326.592 285.268 326.869 286.256 326.862 287.328C326.869 288.55 326.528 289.587 325.839 290.439C325.157 291.291 324.248 291.863 323.112 292.154V292.325C324.561 292.545 325.683 293.12 326.478 294.05C327.281 294.981 327.679 296.135 327.672 297.513C327.679 298.713 327.345 299.789 326.67 300.741C326.003 301.692 325.09 302.442 323.932 302.989C322.775 303.528 321.45 303.798 319.958 303.798Z" fill="#10B981"/>
<path d="M283.135 171.5V155.136H286.193V157.8H286.395C286.736 156.898 287.294 156.195 288.068 155.69C288.842 155.179 289.769 154.923 290.848 154.923C291.942 154.923 292.858 155.179 293.597 155.69C294.343 156.202 294.893 156.905 295.248 157.8H295.419C295.809 156.926 296.431 156.23 297.283 155.712C298.135 155.186 299.151 154.923 300.33 154.923C301.814 154.923 303.025 155.388 303.963 156.319C304.907 157.249 305.38 158.652 305.38 160.527V171.5H302.194V160.825C302.194 159.717 301.892 158.915 301.289 158.418C300.685 157.92 299.964 157.672 299.126 157.672C298.089 157.672 297.283 157.991 296.708 158.631C296.132 159.263 295.845 160.076 295.845 161.07V171.5H292.67V160.623C292.67 159.735 292.393 159.021 291.839 158.482C291.285 157.942 290.564 157.672 289.676 157.672C289.073 157.672 288.515 157.832 288.004 158.151C287.5 158.464 287.091 158.901 286.779 159.462C286.473 160.023 286.321 160.673 286.321 161.411V171.5H283.135ZM308.706 171.5V169.114L316.089 161.464C316.878 160.634 317.527 159.906 318.039 159.281C318.557 158.648 318.944 158.048 319.2 157.48C319.456 156.912 319.583 156.308 319.583 155.669C319.583 154.945 319.413 154.32 319.072 153.794C318.731 153.261 318.266 152.853 317.677 152.569C317.087 152.278 316.423 152.132 315.684 152.132C314.903 152.132 314.221 152.292 313.639 152.612C313.056 152.931 312.609 153.382 312.297 153.964C311.984 154.547 311.828 155.229 311.828 156.01H308.685C308.685 154.682 308.99 153.521 309.601 152.526C310.212 151.532 311.05 150.761 312.115 150.214C313.181 149.661 314.392 149.384 315.748 149.384C317.119 149.384 318.326 149.657 319.37 150.204C320.422 150.744 321.242 151.482 321.831 152.42C322.421 153.35 322.716 154.401 322.716 155.573C322.716 156.383 322.563 157.175 322.257 157.949C321.959 158.723 321.437 159.586 320.691 160.538C319.946 161.482 318.909 162.629 317.581 163.979L313.245 168.517V168.677H323.067V171.5H308.706Z" fill="#10B981"/>
<path d="M759.84 29V12.6364H762.897V15.2997H763.1C763.441 14.3977 763.998 13.6946 764.772 13.1903C765.547 12.679 766.473 12.4233 767.553 12.4233C768.647 12.4233 769.563 12.679 770.302 13.1903C771.047 13.7017 771.598 14.4048 771.953 15.2997H772.123C772.514 14.4261 773.135 13.7301 773.988 13.2116C774.84 12.6861 775.856 12.4233 777.035 12.4233C778.519 12.4233 779.73 12.8885 780.667 13.8189C781.612 14.7493 782.084 16.152 782.084 18.027V29H778.899V18.3253C778.899 17.2173 778.597 16.4148 777.993 15.9176C777.39 15.4205 776.669 15.1719 775.831 15.1719C774.794 15.1719 773.988 15.4915 773.412 16.1307C772.837 16.7628 772.549 17.576 772.549 18.5703V29H769.375V18.1229C769.375 17.2351 769.098 16.5213 768.544 15.9815C767.99 15.4418 767.269 15.1719 766.381 15.1719C765.777 15.1719 765.22 15.3317 764.709 15.6513C764.204 15.9638 763.796 16.4006 763.483 16.9616C763.178 17.5227 763.025 18.1726 763.025 18.9112V29H759.84ZM793.007 29.2983C791.544 29.2983 790.237 29.0462 789.086 28.5419C787.943 28.0376 787.037 27.3381 786.37 26.4432C785.709 25.5412 785.354 24.4972 785.304 23.3111H788.65C788.692 23.9574 788.909 24.5185 789.3 24.9943C789.697 25.4631 790.216 25.8253 790.855 26.081C791.494 26.3366 792.204 26.4645 792.986 26.4645C793.845 26.4645 794.605 26.3153 795.265 26.017C795.933 25.7187 796.455 25.3033 796.831 24.7706C797.208 24.2308 797.396 23.6094 797.396 22.9062C797.396 22.1747 797.208 21.532 796.831 20.978C796.462 20.4169 795.919 19.9766 795.202 19.657C794.491 19.3374 793.632 19.1776 792.623 19.1776H790.78V16.4929H792.623C793.433 16.4929 794.143 16.3473 794.754 16.0561C795.372 15.7649 795.855 15.3601 796.203 14.8416C796.551 14.3161 796.725 13.7017 796.725 12.9986C796.725 12.3239 796.572 11.7379 796.267 11.2408C795.969 10.7365 795.542 10.3423 794.988 10.0582C794.442 9.77415 793.795 9.6321 793.05 9.6321C792.339 9.6321 791.675 9.76349 791.057 10.0263C790.447 10.282 789.949 10.6513 789.566 11.1342C789.182 11.6101 788.976 12.1818 788.948 12.8494H785.763C785.798 11.6705 786.146 10.6335 786.807 9.73864C787.474 8.84375 788.355 8.14418 789.449 7.63991C790.542 7.13565 791.757 6.88352 793.092 6.88352C794.491 6.88352 795.699 7.15696 796.714 7.70383C797.737 8.24361 798.525 8.96449 799.079 9.86648C799.64 10.7685 799.917 11.7557 799.91 12.8281C799.917 14.0497 799.577 15.0866 798.888 15.9389C798.206 16.7912 797.297 17.3629 796.16 17.6541V17.8246C797.609 18.0447 798.731 18.62 799.527 19.5504C800.329 20.4808 800.727 21.6349 800.72 23.0128C800.727 24.2131 800.393 25.2891 799.719 26.2408C799.051 27.1925 798.138 27.9418 796.981 28.4886C795.823 29.0284 794.498 29.2983 793.007 29.2983ZM806.628 7.18182V9.22727C806.628 9.83097 806.514 10.4666 806.287 11.1342C806.066 11.7947 805.754 12.4304 805.349 13.0412C804.944 13.652 804.468 14.1776 803.922 14.6179L802.345 13.4886C802.764 12.8778 803.126 12.228 803.431 11.5391C803.744 10.8501 803.9 10.0902 803.9 9.25923V7.18182H806.628ZM811.704 7.18182V9.22727C811.704 9.83097 811.59 10.4666 811.363 11.1342C811.143 11.7947 810.83 12.4304 810.426 13.0412C810.021 13.652 809.545 14.1776 808.998 14.6179L807.421 13.4886C807.84 12.8778 808.203 12.228 808.508 11.5391C808.821 10.8501 808.977 10.0902 808.977 9.25923V7.18182H811.704Z" fill="#EC4899"/>
<path d="M630.378 37.5469V35.0909H645.013V37.5469H639.113V54H636.269V37.5469H630.378ZM648.104 39.8182L651.233 45.3395L654.391 39.8182H657.41L652.988 46.9091L657.447 54H654.428L651.233 48.7003L648.048 54H645.02L649.433 46.9091L645.075 39.8182H648.104ZM666.011 54.2585C664.743 54.2585 663.61 54.04 662.613 53.603C661.622 53.166 660.837 52.5597 660.259 51.7841C659.686 51.0024 659.379 50.0975 659.336 49.0696H662.235C662.272 49.6297 662.459 50.116 662.798 50.5284C663.143 50.9347 663.592 51.2486 664.146 51.4702C664.7 51.6918 665.315 51.8026 665.993 51.8026C666.737 51.8026 667.396 51.6733 667.968 51.4148C668.547 51.1562 668.999 50.7962 669.326 50.3345C669.652 49.8667 669.815 49.3281 669.815 48.7188C669.815 48.0848 669.652 47.5277 669.326 47.0476C669.006 46.5613 668.535 46.1797 667.913 45.9027C667.297 45.6257 666.553 45.4872 665.679 45.4872H664.081V43.1605H665.679C666.38 43.1605 666.996 43.0343 667.525 42.782C668.061 42.5296 668.479 42.1787 668.781 41.7294C669.083 41.2739 669.233 40.7415 669.233 40.1321C669.233 39.5473 669.101 39.0395 668.836 38.6087C668.578 38.1716 668.208 37.83 667.728 37.5838C667.254 37.3376 666.694 37.2145 666.048 37.2145C665.432 37.2145 664.857 37.3284 664.321 37.5561C663.792 37.7777 663.361 38.0978 663.029 38.5163C662.696 38.9287 662.518 39.4242 662.493 40.0028H659.733C659.763 38.9811 660.065 38.0824 660.637 37.3068C661.216 36.5312 661.979 35.925 662.927 35.4879C663.875 35.0509 664.928 34.8324 666.085 34.8324C667.297 34.8324 668.344 35.0694 669.224 35.5433C670.11 36.0111 670.794 36.6359 671.274 37.4176C671.76 38.1993 672 39.0549 671.994 39.9844C672 41.0431 671.705 41.9418 671.108 42.6804C670.517 43.419 669.729 43.9145 668.744 44.1669V44.3146C670 44.5054 670.972 45.004 671.662 45.8104C672.357 46.6167 672.702 47.617 672.696 48.8111C672.702 49.8513 672.413 50.7839 671.828 51.6087C671.249 52.4335 670.458 53.0829 669.455 53.5568C668.452 54.0246 667.304 54.2585 666.011 54.2585ZM677.816 35.0909V36.8636C677.816 37.3868 677.717 37.9377 677.52 38.5163C677.329 39.0888 677.058 39.6397 676.708 40.169C676.357 40.6984 675.944 41.1539 675.47 41.5355L674.104 40.5568C674.467 40.0275 674.781 39.4643 675.046 38.8672C675.316 38.2701 675.452 37.6115 675.452 36.8913V35.0909H677.816Z" fill="#EC4899"/>
<path d="M369.984 37.5469V35.0909H384.619V37.5469H378.719V54H375.875V37.5469H369.984ZM387.71 39.8182L390.84 45.3395L393.997 39.8182H397.016L392.594 46.9091L397.053 54H394.034L390.84 48.7003L387.654 54H384.626L389.039 46.9091L384.681 39.8182H387.71ZM399.034 54V51.9318L405.432 45.3026C406.116 44.5824 406.679 43.9515 407.122 43.4098C407.571 42.862 407.907 42.3419 408.128 41.8494C408.35 41.357 408.461 40.8338 408.461 40.2798C408.461 39.652 408.313 39.1103 408.018 38.6548C407.722 38.1932 407.319 37.8393 406.808 37.593C406.297 37.3407 405.722 37.2145 405.082 37.2145C404.405 37.2145 403.814 37.353 403.309 37.63C402.804 37.907 402.416 38.2978 402.146 38.8026C401.875 39.3073 401.739 39.8982 401.739 40.5753H399.016C399.016 39.4242 399.28 38.4179 399.81 37.5561C400.339 36.6944 401.065 36.0265 401.989 35.5526C402.912 35.0724 403.961 34.8324 405.137 34.8324C406.325 34.8324 407.371 35.0694 408.276 35.5433C409.187 36.0111 409.898 36.6513 410.409 37.4638C410.92 38.2701 411.175 39.1811 411.175 40.1967C411.175 40.8984 411.043 41.5848 410.778 42.2557C410.52 42.9266 410.067 43.6745 409.421 44.4993C408.775 45.3179 407.876 46.312 406.725 47.4815L402.967 51.4148V51.5533H411.48V54H399.034Z" fill="#F59E0B"/>
<path d="M369.578 175.547V173.091H384.212V175.547H378.313V192H375.469V175.547H369.578ZM387.303 177.818L390.433 183.339L393.591 177.818H396.61L392.188 184.909L396.647 192H393.628L390.433 186.7L387.248 192H384.22L388.633 184.909L384.275 177.818H387.303ZM405.211 192.259C403.943 192.259 402.81 192.04 401.813 191.603C400.822 191.166 400.037 190.56 399.459 189.784C398.886 189.002 398.579 188.098 398.535 187.07H401.435C401.472 187.63 401.659 188.116 401.998 188.528C402.342 188.935 402.792 189.249 403.346 189.47C403.9 189.692 404.515 189.803 405.192 189.803C405.937 189.803 406.596 189.673 407.168 189.415C407.747 189.156 408.199 188.796 408.525 188.335C408.852 187.867 409.015 187.328 409.015 186.719C409.015 186.085 408.852 185.528 408.525 185.048C408.205 184.561 407.735 184.18 407.113 183.903C406.497 183.626 405.753 183.487 404.878 183.487H403.281V181.161H404.878C405.58 181.161 406.196 181.034 406.725 180.782C407.261 180.53 407.679 180.179 407.981 179.729C408.282 179.274 408.433 178.741 408.433 178.132C408.433 177.547 408.301 177.04 408.036 176.609C407.778 176.172 407.408 175.83 406.928 175.584C406.454 175.338 405.894 175.214 405.248 175.214C404.632 175.214 404.057 175.328 403.521 175.556C402.992 175.778 402.561 176.098 402.229 176.516C401.896 176.929 401.718 177.424 401.693 178.003H398.932C398.963 176.981 399.265 176.082 399.837 175.307C400.416 174.531 401.179 173.925 402.127 173.488C403.075 173.051 404.128 172.832 405.285 172.832C406.497 172.832 407.544 173.069 408.424 173.543C409.31 174.011 409.994 174.636 410.474 175.418C410.96 176.199 411.2 177.055 411.194 177.984C411.2 179.043 410.905 179.942 410.307 180.68C409.717 181.419 408.929 181.915 407.944 182.167V182.315C409.199 182.505 410.172 183.004 410.861 183.81C411.557 184.617 411.902 185.617 411.896 186.811C411.902 187.851 411.612 188.784 411.028 189.609C410.449 190.433 409.658 191.083 408.655 191.557C407.651 192.025 406.503 192.259 405.211 192.259Z" fill="#F59E0B"/>
<path d="M892.751 37.5469V35.0909H907.386V37.5469H901.486V54H898.642V37.5469H892.751ZM910.477 39.8182L913.607 45.3395L916.764 39.8182H919.783L915.361 46.9091L919.82 54H916.801L913.607 48.7003L910.421 54H907.393L911.806 46.9091L907.448 39.8182H910.477ZM921.404 50.3068V47.9986L929.575 35.0909H931.394V38.4886H930.24L924.395 47.7401V47.8878H935.595V50.3068H921.404ZM930.369 54V49.6051L930.388 48.5526V35.0909H933.093V54H930.369ZM940.442 35.0909V36.8636C940.442 37.3868 940.344 37.9377 940.147 38.5163C939.956 39.0888 939.685 39.6397 939.335 40.169C938.984 40.6984 938.571 41.1539 938.097 41.5355L936.731 40.5568C937.094 40.0275 937.408 39.4643 937.673 38.8672C937.943 38.2701 938.079 37.6115 938.079 36.8913V35.0909H940.442Z" fill="#0EA5E9"/>
<circle cx="391.312" cy="184.688" r="41.625" stroke="#F59E0B" stroke-width="1.125"/>
<circle cx="653.812" cy="184.688" r="41.625" stroke="#EC4899" stroke-width="1.125"/>
<path d="M611.625 184.5L606 181.252V187.748L611.625 184.5ZM433.5 184.5V185.062L606.563 185.062V184.5V183.937L433.5 183.938V184.5Z" fill="#F59E0B"/>
<path d="M349.125 48L343.5 44.7524V51.2476L349.125 48ZM269.25 48V48.5625L344.063 48.5625V48V47.4375L269.25 47.4375V48Z" fill="#10B981"/>
<path d="M349.125 316.5L343.5 313.252V319.748L349.125 316.5ZM269.25 316.5V317.062H344.063V316.5V315.938H269.25V316.5Z" fill="#10B981"/>
<path d="M349.125 182.25L343.5 179.002V185.498L349.125 182.25ZM269.25 182.25V182.812L344.062 182.812V182.25V181.687L269.25 181.688V182.25Z" fill="#10B981"/>
<circle cx="916.312" cy="184.688" r="41.625" stroke="#0EA5E9" stroke-width="1.125"/>
<path d="M874.125 184.5L868.5 181.252V187.748L874.125 184.5ZM696 184.5V185.062L869.063 185.062V184.5V183.937L696 183.938V184.5Z" fill="#EC4899"/>
<path d="M506.253 171.5V155.136H509.311V157.8H509.513C509.854 156.898 510.412 156.195 511.186 155.69C511.96 155.179 512.887 154.923 513.966 154.923C515.06 154.923 515.976 155.179 516.715 155.69C517.461 156.202 518.011 156.905 518.366 157.8H518.537C518.927 156.926 519.549 156.23 520.401 155.712C521.253 155.186 522.269 154.923 523.448 154.923C524.932 154.923 526.143 155.388 527.081 156.319C528.025 157.249 528.498 158.652 528.498 160.527V171.5H525.312V160.825C525.312 159.717 525.01 158.915 524.407 158.418C523.803 157.92 523.082 157.672 522.244 157.672C521.207 157.672 520.401 157.991 519.826 158.631C519.25 159.263 518.963 160.076 518.963 161.07V171.5H515.788V160.623C515.788 159.735 515.511 159.021 514.957 158.482C514.403 157.942 513.682 157.672 512.794 157.672C512.191 157.672 511.633 157.832 511.122 158.151C510.618 158.464 510.209 158.901 509.897 159.462C509.591 160.023 509.439 160.673 509.439 161.411V171.5H506.253ZM539.42 171.798C537.957 171.798 536.65 171.546 535.5 171.042C534.356 170.538 533.451 169.838 532.783 168.943C532.123 168.041 531.767 166.997 531.718 165.811H535.063C535.106 166.457 535.322 167.018 535.713 167.494C536.111 167.963 536.629 168.325 537.268 168.581C537.907 168.837 538.618 168.964 539.399 168.964C540.258 168.964 541.018 168.815 541.679 168.517C542.346 168.219 542.868 167.803 543.245 167.271C543.621 166.731 543.809 166.109 543.809 165.406C543.809 164.675 543.621 164.032 543.245 163.478C542.875 162.917 542.332 162.477 541.615 162.157C540.905 161.837 540.045 161.678 539.037 161.678H537.194V158.993H539.037C539.846 158.993 540.557 158.847 541.167 158.556C541.785 158.265 542.268 157.86 542.616 157.342C542.964 156.816 543.138 156.202 543.138 155.499C543.138 154.824 542.986 154.238 542.68 153.741C542.382 153.237 541.956 152.842 541.402 152.558C540.855 152.274 540.209 152.132 539.463 152.132C538.753 152.132 538.089 152.263 537.471 152.526C536.86 152.782 536.363 153.151 535.979 153.634C535.596 154.11 535.39 154.682 535.361 155.349H532.176C532.211 154.17 532.559 153.134 533.22 152.239C533.888 151.344 534.768 150.644 535.862 150.14C536.956 149.636 538.17 149.384 539.505 149.384C540.905 149.384 542.112 149.657 543.128 150.204C544.15 150.744 544.939 151.464 545.493 152.366C546.054 153.268 546.331 154.256 546.324 155.328C546.331 156.55 545.99 157.587 545.301 158.439C544.619 159.291 543.71 159.863 542.574 160.154V160.325C544.022 160.545 545.145 161.12 545.94 162.05C546.743 162.981 547.14 164.135 547.133 165.513C547.14 166.713 546.807 167.789 546.132 168.741C545.464 169.692 544.552 170.442 543.394 170.989C542.236 171.528 540.912 171.798 539.42 171.798ZM553.041 149.682V151.727C553.041 152.331 552.927 152.967 552.7 153.634C552.48 154.295 552.167 154.93 551.762 155.541C551.358 156.152 550.882 156.678 550.335 157.118L548.758 155.989C549.177 155.378 549.539 154.728 549.845 154.039C550.157 153.35 550.314 152.59 550.314 151.759V149.682H553.041Z" fill="#F59E0B"/>
<path d="M759.693 165.5V149.136H762.751V151.8H762.953C763.294 150.898 763.852 150.195 764.626 149.69C765.4 149.179 766.327 148.923 767.407 148.923C768.5 148.923 769.416 149.179 770.155 149.69C770.901 150.202 771.451 150.905 771.806 151.8H771.977C772.367 150.926 772.989 150.23 773.841 149.712C774.693 149.186 775.709 148.923 776.888 148.923C778.372 148.923 779.583 149.388 780.521 150.319C781.466 151.249 781.938 152.652 781.938 154.527V165.5H778.752V154.825C778.752 153.717 778.451 152.915 777.847 152.418C777.243 151.92 776.522 151.672 775.684 151.672C774.647 151.672 773.841 151.991 773.266 152.631C772.691 153.263 772.403 154.076 772.403 155.07V165.5H769.228V154.623C769.228 153.735 768.951 153.021 768.397 152.482C767.843 151.942 767.122 151.672 766.235 151.672C765.631 151.672 765.073 151.832 764.562 152.151C764.058 152.464 763.649 152.901 763.337 153.462C763.032 154.023 762.879 154.673 762.879 155.411V165.5H759.693ZM784.806 161.239V158.575L794.235 143.682H796.333V147.602H795.002L788.258 158.277V158.447H801.181V161.239H784.806ZM795.151 165.5V160.429L795.172 159.214V143.682H798.294V165.5H795.151ZM806.774 143.682V145.727C806.774 146.331 806.66 146.967 806.433 147.634C806.213 148.295 805.9 148.93 805.496 149.541C805.091 150.152 804.615 150.678 804.068 151.118L802.491 149.989C802.91 149.378 803.273 148.728 803.578 148.039C803.89 147.35 804.047 146.59 804.047 145.759V143.682H806.774ZM811.851 143.682V145.727C811.851 146.331 811.737 146.967 811.51 147.634C811.289 148.295 810.977 148.93 810.572 149.541C810.167 150.152 809.691 150.678 809.145 151.118L807.568 149.989C807.987 149.378 808.349 148.728 808.655 148.039C808.967 147.35 809.123 146.59 809.123 145.759V143.682H811.851Z" fill="#EC4899"/>
<path d="M630.251 175.547V173.091H644.886V175.547H638.986V192H636.142V175.547H630.251ZM647.977 177.818L651.107 183.339L654.264 177.818H657.283L652.861 184.909L657.32 192H654.301L651.107 186.7L647.921 192H644.893L649.306 184.909L644.948 177.818H647.977ZM658.904 188.307V185.999L667.075 173.091H668.894V176.489H667.74L661.895 185.74V185.888H673.095V188.307H658.904ZM667.869 192V187.605L667.888 186.553V173.091H670.593V192H667.869ZM677.942 173.091V174.864C677.942 175.387 677.844 175.938 677.647 176.516C677.456 177.089 677.185 177.64 676.835 178.169C676.484 178.698 676.071 179.154 675.597 179.536L674.231 178.557C674.594 178.027 674.908 177.464 675.173 176.867C675.443 176.27 675.579 175.612 675.579 174.891V173.091H677.942Z" fill="#EC4899"/>
<path d="M892.696 175.547V173.091H907.33V175.547H901.43V192H898.586V175.547H892.696ZM910.421 177.818L913.551 183.339L916.709 177.818H919.728L915.305 184.909L919.765 192H916.745L913.551 186.7L910.365 192H907.337L911.75 184.909L907.392 177.818H910.421ZM927.987 192.259C926.83 192.259 925.789 192.037 924.866 191.594C923.949 191.144 923.216 190.529 922.669 189.747C922.121 188.965 921.828 188.073 921.791 187.07H924.561C924.629 187.882 924.989 188.55 925.642 189.073C926.294 189.596 927.076 189.858 927.987 189.858C928.713 189.858 929.356 189.692 929.916 189.359C930.483 189.021 930.926 188.556 931.246 187.965C931.572 187.374 931.735 186.7 931.735 185.943C931.735 185.174 931.569 184.487 931.237 183.884C930.904 183.281 930.446 182.807 929.861 182.462C929.282 182.118 928.618 181.942 927.867 181.936C927.294 181.936 926.719 182.035 926.14 182.232C925.562 182.429 925.094 182.687 924.737 183.007L922.124 182.619L923.186 173.091H933.582V175.538H925.559L924.958 180.828H925.069C925.438 180.471 925.928 180.173 926.537 179.933C927.153 179.692 927.811 179.572 928.513 179.572C929.664 179.572 930.689 179.846 931.588 180.394C932.492 180.942 933.203 181.69 933.72 182.638C934.244 183.58 934.502 184.663 934.496 185.888C934.502 187.113 934.225 188.205 933.665 189.165C933.111 190.126 932.342 190.883 931.357 191.437C930.378 191.985 929.255 192.259 927.987 192.259ZM939.498 173.091V174.864C939.498 175.387 939.4 175.938 939.203 176.516C939.012 177.089 938.741 177.64 938.39 178.169C938.039 178.698 937.627 179.154 937.153 179.536L935.787 178.557C936.15 178.027 936.464 177.464 936.728 176.867C936.999 176.27 937.135 175.612 937.135 174.891V173.091H939.498Z" fill="#0EA5E9"/>
<circle cx="391.312" cy="316.688" r="41.625" stroke="#F59E0B" stroke-width="1.125"/>
<circle cx="152.812" cy="182.438" r="41.625" stroke="#10B981" stroke-width="1.125"/>
<circle cx="653.812" cy="316.688" r="41.625" stroke="#EC4899" stroke-width="1.125"/>
<path d="M611.625 316.5L606 313.252V319.748L611.625 316.5ZM433.5 316.5V317.062L606.563 317.062V316.5V315.937L433.5 315.938V316.5Z" fill="#F59E0B"/>
<circle cx="916.312" cy="316.688" r="41.625" stroke="#0EA5E9" stroke-width="1.125"/>
<path d="M874.125 316.5L868.5 313.252V319.748L874.125 316.5ZM696 316.5V317.062L869.063 317.062V316.5V315.937L696 315.938V316.5Z" fill="#EC4899"/>
<path d="M506.107 303.5V287.136H509.164V289.8H509.367C509.708 288.898 510.265 288.195 511.039 287.69C511.813 287.179 512.74 286.923 513.82 286.923C514.914 286.923 515.83 287.179 516.568 287.69C517.314 288.202 517.865 288.905 518.22 289.8H518.39C518.781 288.926 519.402 288.23 520.254 287.712C521.107 287.186 522.122 286.923 523.301 286.923C524.786 286.923 525.997 287.388 526.934 288.319C527.879 289.249 528.351 290.652 528.351 292.527V303.5H525.166V292.825C525.166 291.717 524.864 290.915 524.26 290.418C523.656 289.92 522.936 289.672 522.098 289.672C521.061 289.672 520.254 289.991 519.679 290.631C519.104 291.263 518.816 292.076 518.816 293.07V303.5H515.642V292.623C515.642 291.735 515.365 291.021 514.811 290.482C514.257 289.942 513.536 289.672 512.648 289.672C512.044 289.672 511.487 289.832 510.975 290.151C510.471 290.464 510.063 290.901 509.75 291.462C509.445 292.023 509.292 292.673 509.292 293.411V303.5H506.107ZM531.22 299.239V296.575L540.648 281.682H542.747V285.602H541.415L534.671 296.277V296.447H547.594V299.239H531.22ZM541.564 303.5V298.429L541.585 297.214V281.682H544.707V303.5H541.564ZM553.187 281.682V283.727C553.187 284.331 553.074 284.967 552.846 285.634C552.626 286.295 552.314 286.93 551.909 287.541C551.504 288.152 551.028 288.678 550.481 289.118L548.905 287.989C549.324 287.378 549.686 286.728 549.991 286.039C550.304 285.35 550.46 284.59 550.46 283.759V281.682H553.187Z" fill="#F59E0B"/>
<path d="M765.283 297.5V281.136H768.34V283.8H768.543C768.884 282.898 769.441 282.195 770.215 281.69C770.989 281.179 771.916 280.923 772.996 280.923C774.09 280.923 775.006 281.179 775.744 281.69C776.49 282.202 777.041 282.905 777.396 283.8H777.566C777.957 282.926 778.578 282.23 779.43 281.712C780.283 281.186 781.298 280.923 782.477 280.923C783.962 280.923 785.173 281.388 786.11 282.319C787.055 283.249 787.527 284.652 787.527 286.527V297.5H784.342V286.825C784.342 285.717 784.04 284.915 783.436 284.418C782.832 283.92 782.112 283.672 781.274 283.672C780.237 283.672 779.43 283.991 778.855 284.631C778.28 285.263 777.992 286.076 777.992 287.07V297.5H774.818V286.623C774.818 285.735 774.541 285.021 773.987 284.482C773.433 283.942 772.712 283.672 771.824 283.672C771.22 283.672 770.663 283.832 770.151 284.151C769.647 284.464 769.239 284.901 768.926 285.462C768.621 286.023 768.468 286.673 768.468 287.411V297.5H765.283ZM798.056 297.798C796.72 297.798 795.52 297.543 794.455 297.031C793.396 296.513 792.551 295.803 791.919 294.901C791.287 293.999 790.95 292.969 790.907 291.811H794.103C794.181 292.749 794.597 293.519 795.35 294.123C796.102 294.727 797.004 295.028 798.056 295.028C798.894 295.028 799.636 294.837 800.282 294.453C800.935 294.062 801.447 293.526 801.816 292.844C802.193 292.163 802.381 291.385 802.381 290.511C802.381 289.624 802.189 288.832 801.806 288.136C801.422 287.44 800.893 286.893 800.218 286.495C799.551 286.097 798.783 285.895 797.917 285.888C797.257 285.888 796.592 286.001 795.925 286.229C795.257 286.456 794.717 286.754 794.306 287.124L791.291 286.676L792.516 275.682H804.511V278.505H795.254L794.561 284.609H794.689C795.115 284.197 795.68 283.853 796.383 283.576C797.093 283.299 797.853 283.161 798.663 283.161C799.991 283.161 801.173 283.477 802.21 284.109C803.254 284.741 804.075 285.604 804.671 286.697C805.275 287.784 805.573 289.034 805.566 290.447C805.573 291.861 805.254 293.121 804.607 294.229C803.968 295.337 803.08 296.211 801.944 296.85C800.815 297.482 799.519 297.798 798.056 297.798Z" fill="#EC4899"/>
<path d="M632.896 306.547V304.091H647.53V306.547H641.63V323H638.786V306.547H632.896ZM650.621 308.818L653.751 314.339L656.908 308.818H659.928L655.505 315.909L659.964 323H656.945L653.751 317.7L650.565 323H647.537L651.95 315.909L647.592 308.818H650.621ZM668.187 323.259C667.029 323.259 665.989 323.037 665.066 322.594C664.149 322.144 663.416 321.529 662.868 320.747C662.321 319.965 662.028 319.073 661.991 318.07H664.761C664.829 318.882 665.189 319.55 665.841 320.073C666.494 320.596 667.276 320.858 668.187 320.858C668.913 320.858 669.556 320.692 670.116 320.359C670.683 320.021 671.126 319.556 671.446 318.965C671.772 318.374 671.935 317.7 671.935 316.943C671.935 316.174 671.769 315.487 671.437 314.884C671.104 314.281 670.646 313.807 670.061 313.462C669.482 313.118 668.818 312.942 668.067 312.936C667.494 312.936 666.919 313.035 666.34 313.232C665.761 313.429 665.294 313.687 664.937 314.007L662.324 313.619L663.385 304.091H673.782V306.538H665.758L665.158 311.828H665.269C665.638 311.471 666.128 311.173 666.737 310.933C667.353 310.692 668.011 310.572 668.713 310.572C669.864 310.572 670.889 310.846 671.787 311.394C672.692 311.942 673.403 312.69 673.92 313.638C674.443 314.58 674.702 315.663 674.696 316.888C674.702 318.113 674.425 319.205 673.865 320.165C673.311 321.126 672.541 321.883 671.557 322.437C670.578 322.985 669.455 323.259 668.187 323.259Z" fill="#EC4899"/>
<path d="M369.451 306.547V304.091H384.085V306.547H378.186V323H375.342V306.547H369.451ZM387.176 308.818L390.306 314.339L393.464 308.818H396.483L392.061 315.909L396.52 323H393.501L390.306 317.7L387.121 323H384.093L388.506 315.909L384.148 308.818H387.176ZM398.104 319.307V316.999L406.275 304.091H408.094V307.489H406.94L401.095 316.74V316.888H412.295V319.307H398.104ZM407.069 323V318.605L407.087 317.553V304.091H409.793V323H407.069Z" fill="#F59E0B"/>
<path d="M133.813 174.547V172.091H148.447V174.547H142.547V191H139.703V174.547H133.813ZM151.538 176.818L154.668 182.339L157.825 176.818H160.845L156.422 183.909L160.881 191H157.862L154.668 185.7L151.482 191H148.454L152.867 183.909L148.509 176.818H151.538ZM170.036 172.091V191H167.174V174.953H167.063L162.539 177.908V175.175L167.257 172.091H170.036Z" fill="#10B981"/>
<path d="M894.692 307.547V305.091H909.327V307.547H903.427V324H900.583V307.547H894.692ZM912.418 309.818L915.548 315.339L918.705 309.818H921.724L917.302 316.909L921.761 324H918.742L915.548 318.7L912.362 324H909.334L913.747 316.909L909.389 309.818H912.418ZM930.344 324.259C929.5 324.246 928.669 324.092 927.851 323.797C927.038 323.501 926.3 323.009 925.635 322.32C924.97 321.63 924.438 320.704 924.037 319.54C923.644 318.377 923.447 316.924 923.447 315.183C923.447 313.533 923.61 312.068 923.936 310.788C924.268 309.507 924.745 308.427 925.367 307.547C925.989 306.661 926.74 305.987 927.62 305.525C928.5 305.063 929.488 304.832 930.584 304.832C931.71 304.832 932.71 305.054 933.584 305.497C934.458 305.94 935.166 306.553 935.708 307.335C936.256 308.116 936.604 309.006 936.751 310.003H933.935C933.744 309.215 933.366 308.572 932.8 308.073C932.233 307.575 931.495 307.325 930.584 307.325C929.199 307.325 928.118 307.929 927.343 309.135C926.573 310.341 926.186 312.019 926.18 314.167H926.318C926.644 313.631 927.044 313.176 927.518 312.8C927.998 312.419 928.534 312.126 929.125 311.923C929.722 311.714 930.35 311.609 931.008 311.609C932.104 311.609 933.095 311.877 933.981 312.413C934.874 312.942 935.585 313.674 936.114 314.61C936.644 315.546 936.908 316.617 936.908 317.823C936.908 319.03 936.634 320.122 936.086 321.101C935.545 322.08 934.782 322.855 933.797 323.428C932.812 323.994 931.661 324.271 930.344 324.259ZM930.334 321.858C931.061 321.858 931.71 321.679 932.283 321.322C932.855 320.965 933.307 320.485 933.64 319.882C933.972 319.279 934.138 318.605 934.138 317.86C934.138 317.134 933.975 316.472 933.649 315.875C933.329 315.278 932.886 314.804 932.319 314.453C931.759 314.102 931.119 313.927 930.399 313.927C929.851 313.927 929.343 314.031 928.876 314.241C928.414 314.45 928.008 314.739 927.657 315.109C927.306 315.478 927.029 315.903 926.826 316.383C926.629 316.857 926.53 317.358 926.53 317.888C926.53 318.596 926.693 319.251 927.02 319.854C927.352 320.458 927.805 320.944 928.377 321.313C928.956 321.676 929.608 321.858 930.334 321.858Z" fill="#0EA5E9"/>
<line x1="269.812" y1="48" x2="269.812" y2="316.5" stroke="#10B981" stroke-width="1.125"/>
<path d="M195.188 182.25H269.438" stroke="#10B981" stroke-width="1.125"/>
</svg>
