<svg width="1057" height="359" viewBox="0 0 1057 359" fill="none" xmlns="http://www.w3.org/2000/svg">
<circle cx="489.188" cy="42.1875" r="41.625" stroke="#F59E0B" stroke-width="1.125"/>
<circle cx="751.688" cy="42.1875" r="41.625" stroke="#EC4899" stroke-width="1.125"/>
<path d="M110.625 178.5L105 175.252V181.748L110.625 178.5ZM0 178.5V179.062H105.562V178.5V177.938H0V178.5Z" fill="#10B981"/>
<path d="M709.5 42L703.875 38.7524V45.2476L709.5 42ZM531.375 42V42.5625L704.438 42.5625V42V41.4375L531.375 41.4375V42Z" fill="#F59E0B"/>
<circle cx="1014.19" cy="42.1875" r="41.625" stroke="#0EA5E9" stroke-width="1.125"/>
<path d="M972 42L966.375 38.7524V45.2476L972 42ZM793.875 42V42.5625L966.938 42.5625V42V41.4375L793.875 41.4375V42Z" fill="#EC4899"/>
<path d="M25.1226 165.83C23.5104 165.83 22.1219 165.486 20.9571 164.797C19.7994 164.101 18.9046 163.124 18.2725 161.867C17.6475 160.603 17.335 159.122 17.335 157.425C17.335 155.749 17.6475 154.271 18.2725 152.993C18.9046 151.714 19.7852 150.717 20.9145 149.999C22.0509 149.282 23.379 148.923 24.8989 148.923C25.8222 148.923 26.7171 149.076 27.5835 149.381C28.45 149.687 29.2277 150.166 29.9166 150.82C30.6056 151.473 31.1489 152.322 31.5466 153.366C31.9443 154.403 32.1432 155.663 32.1432 157.148V158.277H19.1354V155.891H29.0218C29.0218 155.053 28.8513 154.31 28.5104 153.664C28.1695 153.011 27.6901 152.496 27.0722 152.119C26.4614 151.743 25.7441 151.555 24.9202 151.555C24.0253 151.555 23.2441 151.775 22.5764 152.215C21.9159 152.648 21.4046 153.217 21.0423 153.92C20.6872 154.616 20.5097 155.372 20.5097 156.189V158.053C20.5097 159.147 20.7014 160.077 21.085 160.844C21.4756 161.612 22.0189 162.197 22.7149 162.602C23.411 163 24.2242 163.199 25.1546 163.199C25.7583 163.199 26.3087 163.114 26.8058 162.943C27.303 162.766 27.7327 162.503 28.0949 162.155C28.4571 161.807 28.7341 161.377 28.9259 160.866L31.9408 161.409C31.6993 162.297 31.2661 163.075 30.6411 163.742C30.0232 164.403 29.2455 164.918 28.308 165.287C27.3776 165.649 26.3158 165.83 25.1226 165.83ZM36.9108 149.136L40.5223 155.507L44.1658 149.136H47.6495L42.5465 157.318L47.6921 165.5H44.2084L40.5223 159.385L36.8469 165.5H33.3526L38.4449 157.318L33.4165 149.136H36.9108ZM57.6585 149.136V151.693H48.7203V149.136H57.6585ZM51.1173 145.216H54.3027V160.695C54.3027 161.313 54.395 161.778 54.5797 162.091C54.7644 162.396 55.0023 162.606 55.2935 162.719C55.5918 162.826 55.9149 162.879 56.2629 162.879C56.5186 162.879 56.7423 162.862 56.9341 162.826C57.1259 162.79 57.275 162.762 57.3816 162.741L57.9568 165.372C57.7722 165.443 57.5094 165.514 57.1685 165.585C56.8276 165.663 56.4014 165.706 55.8901 165.713C55.052 165.727 54.2708 165.578 53.5463 165.266C52.8219 164.953 52.236 164.47 51.7885 163.817C51.3411 163.163 51.1173 162.343 51.1173 161.356V145.216ZM69.3668 154.9V157.659H59.6936V154.9H69.3668ZM72.7122 165.5V149.136H75.8976V165.5H72.7122ZM74.3209 146.612C73.7669 146.612 73.2911 146.427 72.8933 146.058C72.5027 145.681 72.3074 145.234 72.3074 144.715C72.3074 144.19 72.5027 143.742 72.8933 143.373C73.2911 142.996 73.7669 142.808 74.3209 142.808C74.8749 142.808 75.3472 142.996 75.7378 143.373C76.1355 143.742 76.3344 144.19 76.3344 144.715C76.3344 145.234 76.1355 145.681 75.7378 146.058C75.3472 146.427 74.8749 146.612 74.3209 146.612ZM82.4683 155.784V165.5H79.2829V149.136H82.3405V151.8H82.5429C82.9193 150.933 83.5088 150.237 84.3113 149.712C85.121 149.186 86.1402 148.923 87.3689 148.923C88.4839 148.923 89.4605 149.158 90.2986 149.626C91.1366 150.088 91.7865 150.777 92.2481 151.693C92.7098 152.609 92.9406 153.742 92.9406 155.092V165.5H89.7552V155.475C89.7552 154.289 89.4463 153.362 88.8284 152.695C88.2105 152.02 87.3618 151.683 86.2822 151.683C85.5436 151.683 84.8866 151.842 84.3113 152.162C83.7432 152.482 83.2922 152.95 82.9584 153.568C82.6317 154.179 82.4683 154.918 82.4683 155.784Z" fill="#10B981"/>
<path d="M597.722 29V12.6364H600.78V15.2997H600.982C601.323 14.3977 601.88 13.6946 602.655 13.1903C603.429 12.679 604.356 12.4233 605.435 12.4233C606.529 12.4233 607.445 12.679 608.184 13.1903C608.929 13.7017 609.48 14.4048 609.835 15.2997H610.005C610.396 14.4261 611.017 13.7301 611.87 13.2116C612.722 12.6861 613.738 12.4233 614.917 12.4233C616.401 12.4233 617.612 12.8885 618.549 13.8189C619.494 14.7493 619.966 16.152 619.966 18.027V29H616.781V18.3253C616.781 17.2173 616.479 16.4148 615.875 15.9176C615.272 15.4205 614.551 15.1719 613.713 15.1719C612.676 15.1719 611.87 15.4915 611.294 16.1307C610.719 16.7628 610.432 17.576 610.432 18.5703V29H607.257V18.1229C607.257 17.2351 606.98 16.5213 606.426 15.9815C605.872 15.4418 605.151 15.1719 604.263 15.1719C603.659 15.1719 603.102 15.3317 602.591 15.6513C602.086 15.9638 601.678 16.4006 601.365 16.9616C601.06 17.5227 600.907 18.1726 600.907 18.9112V29H597.722ZM623.293 29V26.6136L630.676 18.9645C631.464 18.1335 632.114 17.4055 632.625 16.7805C633.144 16.1484 633.531 15.5483 633.787 14.9801C634.042 14.4119 634.17 13.8082 634.17 13.169C634.17 12.4446 634 11.8196 633.659 11.294C633.318 10.7614 632.853 10.353 632.263 10.0689C631.674 9.7777 631.01 9.6321 630.271 9.6321C629.49 9.6321 628.808 9.7919 628.226 10.1115C627.643 10.4311 627.196 10.8821 626.883 11.4645C626.571 12.0469 626.415 12.7287 626.415 13.5099H623.272C623.272 12.1818 623.577 11.0206 624.188 10.0263C624.799 9.03196 625.637 8.26136 626.702 7.71449C627.767 7.16051 628.978 6.88352 630.335 6.88352C631.706 6.88352 632.913 7.15696 633.957 7.70383C635.008 8.24361 635.829 8.98224 636.418 9.91974C637.008 10.8501 637.302 11.9013 637.302 13.0732C637.302 13.8828 637.15 14.6747 636.844 15.4489C636.546 16.223 636.024 17.0859 635.278 18.0376C634.532 18.9822 633.495 20.1293 632.167 21.4787L627.831 26.017V26.1768H637.654V29H623.293ZM643.572 7.18182V9.22727C643.572 9.83097 643.458 10.4666 643.231 11.1342C643.011 11.7947 642.698 12.4304 642.294 13.0412C641.889 13.652 641.413 14.1776 640.866 14.6179L639.289 13.4886C639.708 12.8778 640.071 12.228 640.376 11.5391C640.689 10.8501 640.845 10.0902 640.845 9.25923V7.18182H643.572Z" fill="#F59E0B"/>
<path d="M337.97 29V12.6364H341.028V15.2997H341.23C341.571 14.3977 342.129 13.6946 342.903 13.1903C343.677 12.679 344.604 12.4233 345.683 12.4233C346.777 12.4233 347.693 12.679 348.432 13.1903C349.178 13.7017 349.728 14.4048 350.083 15.2997H350.254C350.644 14.4261 351.266 13.7301 352.118 13.2116C352.97 12.6861 353.986 12.4233 355.165 12.4233C356.649 12.4233 357.86 12.8885 358.798 13.8189C359.742 14.7493 360.215 16.152 360.215 18.027V29H357.029V18.3253C357.029 17.2173 356.727 16.4148 356.124 15.9176C355.52 15.4205 354.799 15.1719 353.961 15.1719C352.924 15.1719 352.118 15.4915 351.543 16.1307C350.967 16.7628 350.68 17.576 350.68 18.5703V29H347.505V18.1229C347.505 17.2351 347.228 16.5213 346.674 15.9815C346.12 15.4418 345.399 15.1719 344.511 15.1719C343.908 15.1719 343.35 15.3317 342.839 15.6513C342.335 15.9638 341.926 16.4006 341.614 16.9616C341.308 17.5227 341.156 18.1726 341.156 18.9112V29H337.97ZM370.618 7.18182V29H367.315V10.4844H367.187L361.967 13.8935V10.7401L367.411 7.18182H370.618Z" fill="#10B981"/>
<path d="M322.025 55.1818V71H319.715V55.1818H322.025ZM330.017 59.1364V60.9901H323.537V59.1364H330.017ZM325.275 56.294H327.584V67.5166C327.584 67.9646 327.651 68.3018 327.785 68.5284C327.919 68.7498 328.091 68.9017 328.302 68.9841C328.519 69.0613 328.753 69.1 329.005 69.1C329.191 69.1 329.353 69.0871 329.492 69.0613C329.631 69.0356 329.739 69.015 329.816 68.9996L330.233 70.9073C330.099 70.9588 329.909 71.0103 329.662 71.0618C329.415 71.1184 329.106 71.1493 328.735 71.1545C328.127 71.1648 327.561 71.0566 327.036 70.8301C326.51 70.6035 326.086 70.2534 325.761 69.7797C325.437 69.3059 325.275 68.7112 325.275 67.9955V56.294ZM337.764 61.7238V59.7002H347.658V61.7238H337.764ZM337.764 66.4816V64.458H347.658V66.4816H337.764ZM361.93 55.1818V71H359.536V57.5762H359.443L355.658 60.0478V57.7615L359.605 55.1818H361.93ZM371.064 71.2626C369.843 71.2575 368.801 70.9356 367.935 70.2971C367.07 69.6586 366.409 68.7292 365.95 67.5089C365.492 66.2885 365.263 64.8184 365.263 63.0986C365.263 61.384 365.492 59.919 365.95 58.7038C366.414 57.4886 367.078 56.5618 367.943 55.9233C368.813 55.2848 369.854 54.9656 371.064 54.9656C372.274 54.9656 373.311 55.2874 374.176 55.931C375.041 56.5695 375.703 57.4964 376.161 58.7116C376.625 59.9216 376.856 61.384 376.856 63.0986C376.856 64.8236 376.627 66.2963 376.169 67.5166C375.711 68.7318 375.049 69.6612 374.184 70.3049C373.319 70.9434 372.279 71.2626 371.064 71.2626ZM371.064 69.2004C372.135 69.2004 372.971 68.6777 373.574 67.6325C374.181 66.5872 374.485 65.0759 374.485 63.0986C374.485 61.7856 374.346 60.676 374.068 59.7697C373.795 58.8583 373.401 58.1683 372.886 57.6998C372.377 57.226 371.769 56.9892 371.064 56.9892C369.998 56.9892 369.161 57.5144 368.553 58.5648C367.946 59.6152 367.639 61.1265 367.634 63.0986C367.634 64.4168 367.771 65.5316 368.044 66.443C368.322 67.3493 368.716 68.0367 369.225 68.5052C369.735 68.9687 370.348 69.2004 371.064 69.2004ZM384.451 71.2626C383.231 71.2575 382.188 70.9356 381.323 70.2971C380.458 69.6586 379.796 68.7292 379.338 67.5089C378.88 66.2885 378.65 64.8184 378.65 63.0986C378.65 61.384 378.88 59.919 379.338 58.7038C379.801 57.4886 380.465 56.5618 381.331 55.9233C382.201 55.2848 383.241 54.9656 384.451 54.9656C385.661 54.9656 386.698 55.2874 387.564 55.931C388.429 56.5695 389.09 57.4964 389.549 58.7116C390.012 59.9216 390.244 61.384 390.244 63.0986C390.244 64.8236 390.015 66.2963 389.556 67.5166C389.098 68.7318 388.436 69.6612 387.571 70.3049C386.706 70.9434 385.666 71.2626 384.451 71.2626ZM384.451 69.2004C385.522 69.2004 386.359 68.6777 386.961 67.6325C387.569 66.5872 387.872 65.0759 387.872 63.0986C387.872 61.7856 387.733 60.676 387.455 59.7697C387.183 58.8583 386.789 58.1683 386.274 57.6998C385.764 57.226 385.156 56.9892 384.451 56.9892C383.385 56.9892 382.548 57.5144 381.941 58.5648C381.333 59.6152 381.027 61.1265 381.022 63.0986C381.022 64.4168 381.158 65.5316 381.431 66.443C381.709 67.3493 382.103 68.0367 382.613 68.5052C383.122 68.9687 383.735 69.2004 384.451 69.2004Z" fill="#10B981"/>
<path d="M592.905 55.1818V71H590.595V55.1818H592.905ZM600.897 59.1364V60.9901H594.417V59.1364H600.897ZM596.154 56.294H598.464V67.5166C598.464 67.9646 598.531 68.3018 598.665 68.5284C598.799 68.7498 598.971 68.9017 599.182 68.9841C599.398 69.0613 599.633 69.1 599.885 69.1C600.07 69.1 600.233 69.0871 600.372 69.0613C600.511 69.0356 600.619 69.015 600.696 68.9996L601.113 70.9073C600.979 70.9588 600.789 71.0103 600.542 71.0618C600.294 71.1184 599.985 71.1493 599.615 71.1545C599.007 71.1648 598.441 71.0566 597.915 70.8301C597.39 70.6035 596.965 70.2534 596.641 69.7797C596.317 69.3059 596.154 68.7112 596.154 67.9955V56.294ZM608.644 61.7238V59.7002H618.538V61.7238H608.644ZM608.644 66.4816V64.458H618.538V66.4816H608.644ZM632.81 55.1818V71H630.416V57.5762H630.323L626.538 60.0478V57.7615L630.485 55.1818H632.81ZM641.943 71.2626C640.723 71.2575 639.68 70.9356 638.815 70.2971C637.95 69.6586 637.289 68.7292 636.83 67.5089C636.372 66.2885 636.143 64.8184 636.143 63.0986C636.143 61.384 636.372 59.919 636.83 58.7038C637.294 57.4886 637.958 56.5618 638.823 55.9233C639.693 55.2848 640.733 54.9656 641.943 54.9656C643.153 54.9656 644.191 55.2874 645.056 55.931C645.921 56.5695 646.583 57.4964 647.041 58.7116C647.504 59.9216 647.736 61.384 647.736 63.0986C647.736 64.8236 647.507 66.2963 647.049 67.5166C646.59 68.7318 645.929 69.6612 645.064 70.3049C644.199 70.9434 643.159 71.2626 641.943 71.2626ZM641.943 69.2004C643.014 69.2004 643.851 68.6777 644.454 67.6325C645.061 66.5872 645.365 65.0759 645.365 63.0986C645.365 61.7856 645.226 60.676 644.948 59.7697C644.675 58.8583 644.281 58.1683 643.766 57.6998C643.256 57.226 642.649 56.9892 641.943 56.9892C640.877 56.9892 640.041 57.5144 639.433 58.5648C638.826 59.6152 638.519 61.1265 638.514 63.0986C638.514 64.4168 638.65 65.5316 638.923 66.443C639.201 67.3493 639.595 68.0367 640.105 68.5052C640.615 68.9687 641.228 69.2004 641.943 69.2004ZM655.825 55.1818V71H653.431V57.5762H653.338L649.553 60.0478V57.7615L653.5 55.1818H655.825Z" fill="#F59E0B"/>
<path d="M851.375 55.1818V71H849.066V55.1818H851.375ZM859.367 59.1364V60.9901H852.887V59.1364H859.367ZM854.625 56.294H856.935V67.5166C856.935 67.9646 857.001 68.3018 857.135 68.5284C857.269 68.7498 857.442 68.9017 857.653 68.9841C857.869 69.0613 858.103 69.1 858.356 69.1C858.541 69.1 858.703 69.0871 858.842 69.0613C858.981 69.0356 859.089 69.015 859.167 68.9996L859.584 70.9073C859.45 70.9588 859.259 71.0103 859.012 71.0618C858.765 71.1184 858.456 71.1493 858.085 71.1545C857.478 71.1648 856.911 71.0566 856.386 70.8301C855.861 70.6035 855.436 70.2534 855.112 69.7797C854.787 69.3059 854.625 68.7112 854.625 67.9955V56.294ZM867.115 61.7238V59.7002H877.009V61.7238H867.115ZM867.115 66.4816V64.458H877.009V66.4816H867.115ZM891.281 55.1818V71H888.886V57.5762H888.794L885.009 60.0478V57.7615L888.956 55.1818H891.281ZM900.414 71.2626C899.194 71.2575 898.151 70.9356 897.286 70.2971C896.421 69.6586 895.759 68.7292 895.301 67.5089C894.843 66.2885 894.614 64.8184 894.614 63.0986C894.614 61.384 894.843 59.919 895.301 58.7038C895.764 57.4886 896.429 56.5618 897.294 55.9233C898.164 55.2848 899.204 54.9656 900.414 54.9656C901.624 54.9656 902.662 55.2874 903.527 55.931C904.392 56.5695 905.053 57.4964 905.512 58.7116C905.975 59.9216 906.207 61.384 906.207 63.0986C906.207 64.8236 905.978 66.2963 905.519 67.5166C905.061 68.7318 904.399 69.6612 903.534 70.3049C902.669 70.9434 901.629 71.2626 900.414 71.2626ZM900.414 69.2004C901.485 69.2004 902.322 68.6777 902.924 67.6325C903.532 66.5872 903.836 65.0759 903.836 63.0986C903.836 61.7856 903.697 60.676 903.419 59.7697C903.146 58.8583 902.752 58.1683 902.237 57.6998C901.727 57.226 901.119 56.9892 900.414 56.9892C899.348 56.9892 898.511 57.5144 897.904 58.5648C897.296 59.6152 896.99 61.1265 896.985 63.0986C896.985 64.4168 897.121 65.5316 897.394 66.443C897.672 67.3493 898.066 68.0367 898.576 68.5052C899.086 68.9687 899.698 69.2004 900.414 69.2004ZM908.294 71V69.2699L913.647 63.7243C914.218 63.1218 914.69 62.594 915.06 62.1409C915.436 61.6826 915.717 61.2475 915.902 60.8356C916.088 60.4237 916.18 59.986 916.18 59.5225C916.18 58.9973 916.057 58.5442 915.81 58.1632C915.562 57.777 915.225 57.4809 914.798 57.2749C914.37 57.0638 913.889 56.9583 913.353 56.9583C912.787 56.9583 912.293 57.0741 911.87 57.3058C911.448 57.5376 911.124 57.8645 910.897 58.2868C910.671 58.709 910.557 59.2033 910.557 59.7697H908.279C908.279 58.8068 908.5 57.9649 908.943 57.2441C909.386 56.5232 909.994 55.9645 910.766 55.568C911.538 55.1664 912.416 54.9656 913.4 54.9656C914.394 54.9656 915.269 55.1638 916.026 55.5603C916.788 55.9516 917.383 56.4871 917.81 57.1668C918.237 57.8414 918.451 58.6034 918.451 59.453C918.451 60.04 918.34 60.6142 918.119 61.1754C917.903 61.7367 917.524 62.3623 916.984 63.0523C916.443 63.7371 915.691 64.5687 914.728 65.5471L911.585 68.8374V68.9532H918.706V71H908.294Z" fill="#EC4899"/>
<path d="M851.035 189.182V205H848.726V189.182H851.035ZM859.028 193.136V194.99H852.547V193.136H859.028ZM854.285 190.294H856.595V201.517C856.595 201.965 856.662 202.302 856.795 202.528C856.929 202.75 857.102 202.902 857.313 202.984C857.529 203.061 857.764 203.1 858.016 203.1C858.201 203.1 858.363 203.087 858.502 203.061C858.641 203.036 858.75 203.015 858.827 203L859.244 204.907C859.11 204.959 858.92 205.01 858.672 205.062C858.425 205.118 858.116 205.149 857.746 205.154C857.138 205.165 856.572 205.057 856.046 204.83C855.521 204.604 855.096 204.253 854.772 203.78C854.447 203.306 854.285 202.711 854.285 201.995V190.294ZM866.775 195.724V193.7H876.669V195.724H866.775ZM866.775 200.482V198.458H876.669V200.482H866.775ZM890.941 189.182V205H888.546V191.576H888.454L884.669 194.048V191.762L888.616 189.182H890.941ZM900.074 205.263C898.854 205.257 897.811 204.936 896.946 204.297C896.081 203.659 895.419 202.729 894.961 201.509C894.503 200.289 894.274 198.818 894.274 197.099C894.274 195.384 894.503 193.919 894.961 192.704C895.425 191.489 896.089 190.562 896.954 189.923C897.824 189.285 898.864 188.966 900.074 188.966C901.284 188.966 902.322 189.287 903.187 189.931C904.052 190.57 904.714 191.496 905.172 192.712C905.635 193.922 905.867 195.384 905.867 197.099C905.867 198.824 905.638 200.296 905.18 201.517C904.721 202.732 904.06 203.661 903.195 204.305C902.33 204.943 901.289 205.263 900.074 205.263ZM900.074 203.2C901.145 203.2 901.982 202.678 902.584 201.632C903.192 200.587 903.496 199.076 903.496 197.099C903.496 195.786 903.357 194.676 903.079 193.77C902.806 192.858 902.412 192.168 901.897 191.7C901.387 191.226 900.78 190.989 900.074 190.989C899.008 190.989 898.172 191.514 897.564 192.565C896.956 193.615 896.65 195.127 896.645 197.099C896.645 198.417 896.781 199.532 897.054 200.443C897.332 201.349 897.726 202.037 898.236 202.505C898.746 202.969 899.358 203.2 900.074 203.2ZM913.462 205.216C912.401 205.216 911.453 205.033 910.619 204.668C909.79 204.302 909.134 203.795 908.65 203.146C908.171 202.492 907.913 201.735 907.877 200.876H910.303C910.333 201.344 910.49 201.751 910.774 202.096C911.062 202.436 911.438 202.698 911.901 202.884C912.365 203.069 912.88 203.162 913.446 203.162C914.069 203.162 914.62 203.054 915.099 202.837C915.583 202.621 915.961 202.32 916.234 201.934C916.507 201.542 916.644 201.092 916.644 200.582C916.644 200.052 916.507 199.586 916.234 199.184C915.967 198.777 915.573 198.458 915.053 198.226C914.538 197.995 913.915 197.879 913.183 197.879H911.847V195.932H913.183C913.77 195.932 914.285 195.827 914.728 195.616C915.176 195.405 915.526 195.111 915.779 194.735C916.031 194.354 916.157 193.909 916.157 193.399C916.157 192.91 916.046 192.485 915.825 192.125C915.609 191.759 915.3 191.473 914.898 191.267C914.502 191.061 914.033 190.958 913.492 190.958C912.977 190.958 912.496 191.054 912.048 191.244C911.605 191.429 911.245 191.697 910.967 192.047C910.689 192.392 910.539 192.807 910.519 193.291H908.209C908.235 192.436 908.487 191.684 908.966 191.036C909.45 190.387 910.089 189.88 910.882 189.514C911.675 189.148 912.555 188.966 913.523 188.966C914.538 188.966 915.413 189.164 916.149 189.56C916.891 189.952 917.462 190.474 917.864 191.128C918.271 191.782 918.472 192.498 918.466 193.275C918.472 194.161 918.224 194.913 917.725 195.531C917.231 196.149 916.572 196.563 915.748 196.774V196.898C916.798 197.057 917.612 197.475 918.188 198.149C918.77 198.824 919.059 199.66 919.053 200.659C919.059 201.529 918.817 202.31 918.327 203C917.843 203.69 917.182 204.233 916.342 204.629C915.503 205.021 914.543 205.216 913.462 205.216Z" fill="#EC4899"/>
<path d="M850.929 323.182V339H848.62V323.182H850.929ZM858.921 327.136V328.99H852.441V327.136H858.921ZM854.179 324.294H856.488V335.517C856.488 335.965 856.555 336.302 856.689 336.528C856.823 336.75 856.996 336.902 857.207 336.984C857.423 337.061 857.657 337.1 857.91 337.1C858.095 337.1 858.257 337.087 858.396 337.061C858.535 337.036 858.643 337.015 858.721 337L859.138 338.907C859.004 338.959 858.813 339.01 858.566 339.062C858.319 339.118 858.01 339.149 857.639 339.154C857.032 339.165 856.465 339.057 855.94 338.83C855.415 338.604 854.99 338.253 854.666 337.78C854.341 337.306 854.179 336.711 854.179 335.995V324.294ZM866.669 329.724V327.7H876.563V329.724H866.669ZM866.669 334.482V332.458H876.563V334.482H866.669ZM890.835 323.182V339H888.44V325.576H888.348L884.563 328.048V325.762L888.51 323.182H890.835ZM899.968 339.263C898.748 339.257 897.705 338.936 896.84 338.297C895.975 337.659 895.313 336.729 894.855 335.509C894.397 334.289 894.167 332.818 894.167 331.099C894.167 329.384 894.397 327.919 894.855 326.704C895.318 325.489 895.983 324.562 896.848 323.923C897.718 323.285 898.758 322.966 899.968 322.966C901.178 322.966 902.216 323.287 903.081 323.931C903.946 324.57 904.607 325.496 905.066 326.712C905.529 327.922 905.761 329.384 905.761 331.099C905.761 332.824 905.532 334.296 905.073 335.517C904.615 336.732 903.953 337.661 903.088 338.305C902.223 338.943 901.183 339.263 899.968 339.263ZM899.968 337.2C901.039 337.2 901.876 336.678 902.478 335.632C903.086 334.587 903.39 333.076 903.39 331.099C903.39 329.786 903.251 328.676 902.973 327.77C902.7 326.858 902.306 326.168 901.791 325.7C901.281 325.226 900.673 324.989 899.968 324.989C898.902 324.989 898.065 325.514 897.458 326.565C896.85 327.615 896.544 329.127 896.539 331.099C896.539 332.417 896.675 333.532 896.948 334.443C897.226 335.349 897.62 336.037 898.13 336.505C898.64 336.969 899.252 337.2 899.968 337.2ZM907.516 335.911V333.98L914.352 323.182H915.873V326.024H914.908L910.019 333.763V333.887H919.388V335.911H907.516ZM915.016 339V335.324L915.031 334.443V323.182H917.294V339H915.016Z" fill="#EC4899"/>
<path d="M591.375 189.182V205H589.066V189.182H591.375ZM599.367 193.136V194.99H592.887V193.136H599.367ZM594.625 190.294H596.935V201.517C596.935 201.965 597.001 202.302 597.135 202.528C597.269 202.75 597.442 202.902 597.653 202.984C597.869 203.061 598.103 203.1 598.356 203.1C598.541 203.1 598.703 203.087 598.842 203.061C598.981 203.036 599.089 203.015 599.167 203L599.584 204.907C599.45 204.959 599.259 205.01 599.012 205.062C598.765 205.118 598.456 205.149 598.085 205.154C597.478 205.165 596.911 205.057 596.386 204.83C595.861 204.604 595.436 204.253 595.112 203.78C594.787 203.306 594.625 202.711 594.625 201.995V190.294ZM607.115 195.724V193.7H617.009V195.724H607.115ZM607.115 200.482V198.458H617.009V200.482H607.115ZM631.281 189.182V205H628.886V191.576H628.794L625.009 194.048V191.762L628.956 189.182H631.281ZM640.414 205.263C639.194 205.257 638.151 204.936 637.286 204.297C636.421 203.659 635.759 202.729 635.301 201.509C634.843 200.289 634.614 198.818 634.614 197.099C634.614 195.384 634.843 193.919 635.301 192.704C635.764 191.489 636.429 190.562 637.294 189.923C638.164 189.285 639.204 188.966 640.414 188.966C641.624 188.966 642.662 189.287 643.527 189.931C644.392 190.57 645.053 191.496 645.512 192.712C645.975 193.922 646.207 195.384 646.207 197.099C646.207 198.824 645.978 200.296 645.519 201.517C645.061 202.732 644.399 203.661 643.534 204.305C642.669 204.943 641.629 205.263 640.414 205.263ZM640.414 203.2C641.485 203.2 642.322 202.678 642.924 201.632C643.532 200.587 643.836 199.076 643.836 197.099C643.836 195.786 643.697 194.676 643.419 193.77C643.146 192.858 642.752 192.168 642.237 191.7C641.727 191.226 641.119 190.989 640.414 190.989C639.348 190.989 638.511 191.514 637.904 192.565C637.296 193.615 636.99 195.127 636.985 197.099C636.985 198.417 637.121 199.532 637.394 200.443C637.672 201.349 638.066 202.037 638.576 202.505C639.086 202.969 639.698 203.2 640.414 203.2ZM648.294 205V203.27L653.647 197.724C654.218 197.122 654.69 196.594 655.06 196.141C655.436 195.683 655.717 195.248 655.902 194.836C656.088 194.424 656.18 193.986 656.18 193.523C656.18 192.997 656.057 192.544 655.81 192.163C655.562 191.777 655.225 191.481 654.798 191.275C654.37 191.064 653.889 190.958 653.353 190.958C652.787 190.958 652.293 191.074 651.87 191.306C651.448 191.538 651.124 191.865 650.897 192.287C650.671 192.709 650.557 193.203 650.557 193.77H648.279C648.279 192.807 648.5 191.965 648.943 191.244C649.386 190.523 649.994 189.964 650.766 189.568C651.538 189.166 652.416 188.966 653.4 188.966C654.394 188.966 655.269 189.164 656.026 189.56C656.788 189.952 657.383 190.487 657.81 191.167C658.237 191.841 658.451 192.603 658.451 193.453C658.451 194.04 658.34 194.614 658.119 195.175C657.903 195.737 657.524 196.362 656.984 197.052C656.443 197.737 655.691 198.569 654.728 199.547L651.585 202.837V202.953H658.706V205H648.294Z" fill="#F59E0B"/>
<path d="M591.035 326.182V342H588.726V326.182H591.035ZM599.028 330.136V331.99H592.547V330.136H599.028ZM594.285 327.294H596.595V338.517C596.595 338.965 596.662 339.302 596.795 339.528C596.929 339.75 597.102 339.902 597.313 339.984C597.529 340.061 597.764 340.1 598.016 340.1C598.201 340.1 598.363 340.087 598.502 340.061C598.641 340.036 598.75 340.015 598.827 340L599.244 341.907C599.11 341.959 598.92 342.01 598.672 342.062C598.425 342.118 598.116 342.149 597.746 342.154C597.138 342.165 596.572 342.057 596.046 341.83C595.521 341.604 595.096 341.253 594.772 340.78C594.447 340.306 594.285 339.711 594.285 338.995V327.294ZM606.775 332.724V330.7H616.669V332.724H606.775ZM606.775 337.482V335.458H616.669V337.482H606.775ZM630.941 326.182V342H628.546V328.576H628.454L624.669 331.048V328.762L628.616 326.182H630.941ZM640.074 342.263C638.854 342.257 637.811 341.936 636.946 341.297C636.081 340.659 635.419 339.729 634.961 338.509C634.503 337.289 634.274 335.818 634.274 334.099C634.274 332.384 634.503 330.919 634.961 329.704C635.425 328.489 636.089 327.562 636.954 326.923C637.824 326.285 638.864 325.966 640.074 325.966C641.284 325.966 642.322 326.287 643.187 326.931C644.052 327.57 644.714 328.496 645.172 329.712C645.635 330.922 645.867 332.384 645.867 334.099C645.867 335.824 645.638 337.296 645.18 338.517C644.721 339.732 644.06 340.661 643.195 341.305C642.33 341.943 641.289 342.263 640.074 342.263ZM640.074 340.2C641.145 340.2 641.982 339.678 642.584 338.632C643.192 337.587 643.496 336.076 643.496 334.099C643.496 332.786 643.357 331.676 643.079 330.77C642.806 329.858 642.412 329.168 641.897 328.7C641.387 328.226 640.78 327.989 640.074 327.989C639.008 327.989 638.172 328.514 637.564 329.565C636.956 330.615 636.65 332.127 636.645 334.099C636.645 335.417 636.781 336.532 637.054 337.443C637.332 338.349 637.726 339.037 638.236 339.505C638.746 339.969 639.358 340.2 640.074 340.2ZM653.462 342.216C652.401 342.216 651.453 342.033 650.619 341.668C649.79 341.302 649.134 340.795 648.65 340.146C648.171 339.492 647.913 338.735 647.877 337.876H650.303C650.333 338.344 650.49 338.751 650.774 339.096C651.062 339.436 651.438 339.698 651.901 339.884C652.365 340.069 652.88 340.162 653.446 340.162C654.069 340.162 654.62 340.054 655.099 339.837C655.583 339.621 655.961 339.32 656.234 338.934C656.507 338.542 656.644 338.092 656.644 337.582C656.644 337.052 656.507 336.586 656.234 336.184C655.967 335.777 655.573 335.458 655.053 335.226C654.538 334.995 653.915 334.879 653.183 334.879H651.847V332.932H653.183C653.77 332.932 654.285 332.827 654.728 332.616C655.176 332.405 655.526 332.111 655.779 331.735C656.031 331.354 656.157 330.909 656.157 330.399C656.157 329.91 656.046 329.485 655.825 329.125C655.609 328.759 655.3 328.473 654.898 328.267C654.502 328.061 654.033 327.958 653.492 327.958C652.977 327.958 652.496 328.054 652.048 328.244C651.605 328.429 651.245 328.697 650.967 329.047C650.689 329.392 650.539 329.807 650.519 330.291H648.209C648.235 329.436 648.487 328.684 648.966 328.036C649.45 327.387 650.089 326.88 650.882 326.514C651.675 326.148 652.555 325.966 653.523 325.966C654.538 325.966 655.413 326.164 656.149 326.56C656.891 326.952 657.462 327.474 657.864 328.128C658.271 328.782 658.472 329.498 658.466 330.275C658.472 331.161 658.224 331.913 657.725 332.531C657.231 333.149 656.572 333.563 655.748 333.774V333.898C656.798 334.057 657.612 334.475 658.188 335.149C658.77 335.824 659.059 336.66 659.053 337.659C659.059 338.529 658.817 339.31 658.327 340C657.843 340.69 657.182 341.233 656.342 341.629C655.503 342.021 654.543 342.216 653.462 342.216Z" fill="#F59E0B"/>
<path d="M323.905 188.557V204.375H321.595V188.557H323.905ZM331.897 192.511V194.365H325.417V192.511H331.897ZM327.154 189.669H329.464V200.892C329.464 201.34 329.531 201.677 329.665 201.903C329.799 202.125 329.971 202.277 330.182 202.359C330.398 202.436 330.633 202.475 330.885 202.475C331.07 202.475 331.233 202.462 331.372 202.436C331.511 202.411 331.619 202.39 331.696 202.375L332.113 204.282C331.979 204.334 331.789 204.385 331.542 204.437C331.294 204.493 330.985 204.524 330.615 204.529C330.007 204.54 329.441 204.432 328.915 204.205C328.39 203.979 327.965 203.628 327.641 203.155C327.317 202.681 327.154 202.086 327.154 201.37V189.669ZM339.644 195.099V193.075H349.538V195.099H339.644ZM339.644 199.857V197.833H349.538V199.857H339.644ZM363.81 188.557V204.375H361.416V190.951H361.323L357.538 193.423V191.137L361.485 188.557H363.81ZM372.943 204.638C371.723 204.632 370.68 204.311 369.815 203.672C368.95 203.034 368.289 202.104 367.83 200.884C367.372 199.664 367.143 198.193 367.143 196.474C367.143 194.759 367.372 193.294 367.83 192.079C368.294 190.864 368.958 189.937 369.823 189.298C370.693 188.66 371.733 188.341 372.943 188.341C374.153 188.341 375.191 188.662 376.056 189.306C376.921 189.945 377.583 190.871 378.041 192.087C378.504 193.297 378.736 194.759 378.736 196.474C378.736 198.199 378.507 199.671 378.049 200.892C377.59 202.107 376.929 203.036 376.064 203.68C375.199 204.318 374.159 204.638 372.943 204.638ZM372.943 202.575C374.014 202.575 374.851 202.053 375.454 201.007C376.061 199.962 376.365 198.451 376.365 196.474C376.365 195.161 376.226 194.051 375.948 193.145C375.675 192.233 375.281 191.543 374.766 191.075C374.256 190.601 373.649 190.364 372.943 190.364C371.877 190.364 371.041 190.889 370.433 191.94C369.826 192.99 369.519 194.502 369.514 196.474C369.514 197.792 369.65 198.907 369.923 199.818C370.201 200.724 370.595 201.412 371.105 201.88C371.615 202.344 372.228 202.575 372.943 202.575ZM386.825 188.557V204.375H384.431V190.951H384.338L380.553 193.423V191.137L384.5 188.557H386.825Z" fill="#10B981"/>
<path d="M322.375 325.057V340.875H320.066V325.057H322.375ZM330.367 329.011V330.865H323.887V329.011H330.367ZM325.625 326.169H327.935V337.392C327.935 337.84 328.001 338.177 328.135 338.403C328.269 338.625 328.442 338.777 328.653 338.859C328.869 338.936 329.103 338.975 329.356 338.975C329.541 338.975 329.703 338.962 329.842 338.936C329.981 338.911 330.089 338.89 330.167 338.875L330.584 340.782C330.45 340.834 330.259 340.885 330.012 340.937C329.765 340.993 329.456 341.024 329.085 341.029C328.478 341.04 327.911 340.932 327.386 340.705C326.861 340.479 326.436 340.128 326.112 339.655C325.787 339.181 325.625 338.586 325.625 337.87V326.169ZM338.115 331.599V329.575H348.009V331.599H338.115ZM338.115 336.357V334.333H348.009V336.357H338.115ZM362.281 325.057V340.875H359.886V327.451H359.794L356.009 329.923V327.637L359.956 325.057H362.281ZM371.414 341.138C370.194 341.132 369.151 340.811 368.286 340.172C367.421 339.534 366.759 338.604 366.301 337.384C365.843 336.164 365.614 334.693 365.614 332.974C365.614 331.259 365.843 329.794 366.301 328.579C366.764 327.364 367.429 326.437 368.294 325.798C369.164 325.16 370.204 324.841 371.414 324.841C372.624 324.841 373.662 325.162 374.527 325.806C375.392 326.445 376.053 327.371 376.512 328.587C376.975 329.797 377.207 331.259 377.207 332.974C377.207 334.699 376.978 336.171 376.519 337.392C376.061 338.607 375.399 339.536 374.534 340.18C373.669 340.818 372.629 341.138 371.414 341.138ZM371.414 339.075C372.485 339.075 373.322 338.553 373.924 337.507C374.532 336.462 374.836 334.951 374.836 332.974C374.836 331.661 374.697 330.551 374.419 329.645C374.146 328.733 373.752 328.043 373.237 327.575C372.727 327.101 372.119 326.864 371.414 326.864C370.348 326.864 369.511 327.389 368.904 328.44C368.296 329.49 367.99 331.002 367.985 332.974C367.985 334.292 368.121 335.407 368.394 336.318C368.672 337.224 369.066 337.912 369.576 338.38C370.086 338.844 370.698 339.075 371.414 339.075ZM379.294 340.875V339.145L384.647 333.599C385.218 332.997 385.69 332.469 386.06 332.016C386.436 331.558 386.717 331.123 386.902 330.711C387.088 330.299 387.18 329.861 387.18 329.398C387.18 328.872 387.057 328.419 386.81 328.038C386.562 327.652 386.225 327.356 385.798 327.15C385.37 326.939 384.889 326.833 384.353 326.833C383.787 326.833 383.293 326.949 382.87 327.181C382.448 327.413 382.124 327.74 381.897 328.162C381.671 328.584 381.557 329.078 381.557 329.645H379.279C379.279 328.682 379.5 327.84 379.943 327.119C380.386 326.398 380.994 325.839 381.766 325.443C382.538 325.041 383.416 324.841 384.4 324.841C385.394 324.841 386.269 325.039 387.026 325.435C387.788 325.827 388.383 326.362 388.81 327.042C389.237 327.716 389.451 328.478 389.451 329.328C389.451 329.915 389.34 330.489 389.119 331.05C388.903 331.612 388.524 332.237 387.984 332.927C387.443 333.612 386.691 334.444 385.728 335.422L382.585 338.712V338.828H389.706V340.875H379.294Z" fill="#10B981"/>
<path d="M334.792 297.5V281.136H337.849V283.8H338.051C338.392 282.898 338.95 282.195 339.724 281.69C340.498 281.179 341.425 280.923 342.505 280.923C343.598 280.923 344.515 281.179 345.253 281.69C345.999 282.202 346.549 282.905 346.904 283.8H347.075C347.466 282.926 348.087 282.23 348.939 281.712C349.792 281.186 350.807 280.923 351.986 280.923C353.471 280.923 354.681 281.388 355.619 282.319C356.564 283.249 357.036 284.652 357.036 286.527V297.5H353.85V286.825C353.85 285.717 353.549 284.915 352.945 284.418C352.341 283.92 351.62 283.672 350.782 283.672C349.745 283.672 348.939 283.991 348.364 284.631C347.789 285.263 347.501 286.076 347.501 287.07V297.5H344.326V286.623C344.326 285.735 344.049 285.021 343.495 284.482C342.941 283.942 342.221 283.672 341.333 283.672C340.729 283.672 340.172 283.832 339.66 284.151C339.156 284.464 338.747 284.901 338.435 285.462C338.13 286.023 337.977 286.673 337.977 287.411V297.5H334.792ZM367.958 297.798C366.495 297.798 365.189 297.546 364.038 297.042C362.895 296.538 361.989 295.838 361.321 294.943C360.661 294.041 360.306 292.997 360.256 291.811H363.601C363.644 292.457 363.86 293.018 364.251 293.494C364.649 293.963 365.167 294.325 365.806 294.581C366.446 294.837 367.156 294.964 367.937 294.964C368.797 294.964 369.556 294.815 370.217 294.517C370.885 294.219 371.407 293.803 371.783 293.271C372.159 292.731 372.348 292.109 372.348 291.406C372.348 290.675 372.159 290.032 371.783 289.478C371.414 288.917 370.87 288.477 370.153 288.157C369.443 287.837 368.583 287.678 367.575 287.678H365.732V284.993H367.575C368.385 284.993 369.095 284.847 369.706 284.556C370.324 284.265 370.806 283.86 371.154 283.342C371.503 282.816 371.677 282.202 371.677 281.499C371.677 280.824 371.524 280.238 371.218 279.741C370.92 279.237 370.494 278.842 369.94 278.558C369.393 278.274 368.747 278.132 368.001 278.132C367.291 278.132 366.627 278.263 366.009 278.526C365.398 278.782 364.901 279.151 364.517 279.634C364.134 280.11 363.928 280.682 363.9 281.349H360.714C360.75 280.17 361.098 279.134 361.758 278.239C362.426 277.344 363.306 276.644 364.4 276.14C365.494 275.636 366.708 275.384 368.044 275.384C369.443 275.384 370.65 275.657 371.666 276.204C372.689 276.744 373.477 277.464 374.031 278.366C374.592 279.268 374.869 280.256 374.862 281.328C374.869 282.55 374.528 283.587 373.839 284.439C373.157 285.291 372.248 285.863 371.112 286.154V286.325C372.561 286.545 373.683 287.12 374.478 288.05C375.281 288.981 375.679 290.135 375.672 291.513C375.679 292.713 375.345 293.789 374.67 294.741C374.003 295.692 373.09 296.442 371.932 296.989C370.775 297.528 369.45 297.798 367.958 297.798Z" fill="#10B981"/>
<path d="M335.26 165V148.636H338.318V151.3H338.52C338.861 150.398 339.419 149.695 340.193 149.19C340.967 148.679 341.894 148.423 342.973 148.423C344.067 148.423 344.983 148.679 345.722 149.19C346.468 149.702 347.018 150.405 347.373 151.3H347.544C347.934 150.426 348.556 149.73 349.408 149.212C350.26 148.686 351.276 148.423 352.455 148.423C353.939 148.423 355.15 148.888 356.088 149.819C357.032 150.749 357.505 152.152 357.505 154.027V165H354.319V154.325C354.319 153.217 354.017 152.415 353.414 151.918C352.81 151.42 352.089 151.172 351.251 151.172C350.214 151.172 349.408 151.491 348.833 152.131C348.257 152.763 347.97 153.576 347.97 154.57V165H344.795V154.123C344.795 153.235 344.518 152.521 343.964 151.982C343.41 151.442 342.689 151.172 341.801 151.172C341.198 151.172 340.64 151.332 340.129 151.651C339.625 151.964 339.216 152.401 338.904 152.962C338.598 153.523 338.446 154.173 338.446 154.911V165H335.26ZM360.831 165V162.614L368.214 154.964C369.003 154.134 369.652 153.406 370.164 152.781C370.682 152.148 371.069 151.548 371.325 150.98C371.581 150.412 371.708 149.808 371.708 149.169C371.708 148.445 371.538 147.82 371.197 147.294C370.856 146.761 370.391 146.353 369.802 146.069C369.212 145.778 368.548 145.632 367.809 145.632C367.028 145.632 366.346 145.792 365.764 146.112C365.181 146.431 364.734 146.882 364.422 147.464C364.109 148.047 363.953 148.729 363.953 149.51H360.81C360.81 148.182 361.115 147.021 361.726 146.026C362.337 145.032 363.175 144.261 364.24 143.714C365.306 143.161 366.517 142.884 367.873 142.884C369.244 142.884 370.451 143.157 371.495 143.704C372.547 144.244 373.367 144.982 373.956 145.92C374.546 146.85 374.841 147.901 374.841 149.073C374.841 149.883 374.688 150.675 374.382 151.449C374.084 152.223 373.562 153.086 372.816 154.038C372.071 154.982 371.034 156.129 369.706 157.479L365.37 162.017V162.177H375.192V165H360.831Z" fill="#10B981"/>
<path d="M857.715 29V12.6364H860.772V15.2997H860.975C861.316 14.3977 861.873 13.6946 862.647 13.1903C863.422 12.679 864.348 12.4233 865.428 12.4233C866.522 12.4233 867.438 12.679 868.177 13.1903C868.922 13.7017 869.473 14.4048 869.828 15.2997H869.998C870.389 14.4261 871.01 13.7301 871.863 13.2116C872.715 12.6861 873.731 12.4233 874.91 12.4233C876.394 12.4233 877.605 12.8885 878.542 13.8189C879.487 14.7493 879.959 16.152 879.959 18.027V29H876.774V18.3253C876.774 17.2173 876.472 16.4148 875.868 15.9176C875.265 15.4205 874.544 15.1719 873.706 15.1719C872.669 15.1719 871.863 15.4915 871.287 16.1307C870.712 16.7628 870.424 17.576 870.424 18.5703V29H867.25V18.1229C867.25 17.2351 866.973 16.5213 866.419 15.9815C865.865 15.4418 865.144 15.1719 864.256 15.1719C863.652 15.1719 863.095 15.3317 862.584 15.6513C862.079 15.9638 861.671 16.4006 861.358 16.9616C861.053 17.5227 860.9 18.1726 860.9 18.9112V29H857.715ZM890.882 29.2983C889.419 29.2983 888.112 29.0462 886.961 28.5419C885.818 28.0376 884.912 27.3381 884.245 26.4432C883.584 25.5412 883.229 24.4972 883.179 23.3111H886.525C886.567 23.9574 886.784 24.5185 887.175 24.9943C887.572 25.4631 888.091 25.8253 888.73 26.081C889.369 26.3366 890.079 26.4645 890.861 26.4645C891.72 26.4645 892.48 26.3153 893.14 26.017C893.808 25.7187 894.33 25.3033 894.706 24.7706C895.083 24.2308 895.271 23.6094 895.271 22.9062C895.271 22.1747 895.083 21.532 894.706 20.978C894.337 20.4169 893.794 19.9766 893.077 19.657C892.366 19.3374 891.507 19.1776 890.498 19.1776H888.655V16.4929H890.498C891.308 16.4929 892.018 16.3473 892.629 16.0561C893.247 15.7649 893.73 15.3601 894.078 14.8416C894.426 14.3161 894.6 13.7017 894.6 12.9986C894.6 12.3239 894.447 11.7379 894.142 11.2408C893.844 10.7365 893.417 10.3423 892.863 10.0582C892.317 9.77415 891.67 9.6321 890.925 9.6321C890.214 9.6321 889.55 9.76349 888.932 10.0263C888.322 10.282 887.824 10.6513 887.441 11.1342C887.057 11.6101 886.851 12.1818 886.823 12.8494H883.638C883.673 11.6705 884.021 10.6335 884.682 9.73864C885.349 8.84375 886.23 8.14418 887.324 7.63991C888.417 7.13565 889.632 6.88352 890.967 6.88352C892.366 6.88352 893.574 7.15696 894.589 7.70383C895.612 8.24361 896.4 8.96449 896.954 9.86648C897.515 10.7685 897.792 11.7557 897.785 12.8281C897.792 14.0497 897.452 15.0866 896.763 15.9389C896.081 16.7912 895.172 17.3629 894.035 17.6541V17.8246C895.484 18.0447 896.606 18.62 897.402 19.5504C898.204 20.4808 898.602 21.6349 898.595 23.0128C898.602 24.2131 898.268 25.2891 897.594 26.2408C896.926 27.1925 896.013 27.9418 894.856 28.4886C893.698 29.0284 892.373 29.2983 890.882 29.2983ZM904.503 7.18182V9.22727C904.503 9.83097 904.389 10.4666 904.162 11.1342C903.941 11.7947 903.629 12.4304 903.224 13.0412C902.819 13.652 902.343 14.1776 901.797 14.6179L900.22 13.4886C900.639 12.8778 901.001 12.228 901.306 11.5391C901.619 10.8501 901.775 10.0902 901.775 9.25923V7.18182H904.503ZM909.579 7.18182V9.22727C909.579 9.83097 909.465 10.4666 909.238 11.1342C909.018 11.7947 908.705 12.4304 908.301 13.0412C907.896 13.652 907.42 14.1776 906.873 14.6179L905.296 13.4886C905.715 12.8778 906.078 12.228 906.383 11.5391C906.696 10.8501 906.852 10.0902 906.852 9.25923V7.18182H909.579Z" fill="#EC4899"/>
<path d="M728.253 31.5469V29.0909H742.888V31.5469H736.988V48H734.144V31.5469H728.253ZM745.979 33.8182L749.108 39.3395L752.266 33.8182H755.285L750.863 40.9091L755.322 48H752.303L749.108 42.7003L745.923 48H742.895L747.308 40.9091L742.95 33.8182H745.979ZM763.886 48.2585C762.618 48.2585 761.485 48.04 760.488 47.603C759.497 47.166 758.712 46.5597 758.134 45.7841C757.561 45.0024 757.254 44.0975 757.211 43.0696H760.11C760.147 43.6297 760.334 44.116 760.673 44.5284C761.018 44.9347 761.467 45.2486 762.021 45.4702C762.575 45.6918 763.19 45.8026 763.868 45.8026C764.612 45.8026 765.271 45.6733 765.843 45.4148C766.422 45.1562 766.874 44.7962 767.201 44.3345C767.527 43.8667 767.69 43.3281 767.69 42.7188C767.69 42.0848 767.527 41.5277 767.201 41.0476C766.881 40.5613 766.41 40.1797 765.788 39.9027C765.172 39.6257 764.428 39.4872 763.554 39.4872H761.956V37.1605H763.554C764.255 37.1605 764.871 37.0343 765.4 36.782C765.936 36.5296 766.354 36.1787 766.656 35.7294C766.958 35.2739 767.108 34.7415 767.108 34.1321C767.108 33.5473 766.976 33.0395 766.711 32.6087C766.453 32.1716 766.083 31.83 765.603 31.5838C765.129 31.3376 764.569 31.2145 763.923 31.2145C763.307 31.2145 762.732 31.3284 762.196 31.5561C761.667 31.7777 761.236 32.0978 760.904 32.5163C760.571 32.9287 760.393 33.4242 760.368 34.0028H757.608C757.638 32.9811 757.94 32.0824 758.512 31.3068C759.091 30.5312 759.854 29.925 760.802 29.4879C761.75 29.0509 762.803 28.8324 763.96 28.8324C765.172 28.8324 766.219 29.0694 767.099 29.5433C767.985 30.0111 768.669 30.6359 769.149 31.4176C769.635 32.1993 769.875 33.0549 769.869 33.9844C769.875 35.0431 769.58 35.9418 768.983 36.6804C768.392 37.419 767.604 37.9145 766.619 38.1669V38.3146C767.875 38.5054 768.847 39.004 769.537 39.8104C770.232 40.6167 770.577 41.617 770.571 42.8111C770.577 43.8513 770.288 44.7839 769.703 45.6087C769.124 46.4335 768.333 47.0829 767.33 47.5568C766.327 48.0246 765.179 48.2585 763.886 48.2585ZM775.691 29.0909V30.8636C775.691 31.3868 775.592 31.9377 775.395 32.5163C775.204 33.0888 774.933 33.6397 774.583 34.169C774.232 34.6984 773.819 35.1539 773.345 35.5355L771.979 34.5568C772.342 34.0275 772.656 33.4643 772.921 32.8672C773.191 32.2701 773.327 31.6115 773.327 30.8913V29.0909H775.691Z" fill="#EC4899"/>
<path d="M467.859 31.5469V29.0909H482.494V31.5469H476.594V48H473.75V31.5469H467.859ZM485.585 33.8182L488.715 39.3395L491.872 33.8182H494.891L490.469 40.9091L494.928 48H491.909L488.715 42.7003L485.529 48H482.501L486.914 40.9091L482.556 33.8182H485.585ZM496.909 48V45.9318L503.307 39.3026C503.991 38.5824 504.554 37.9515 504.997 37.4098C505.446 36.862 505.782 36.3419 506.003 35.8494C506.225 35.357 506.336 34.8338 506.336 34.2798C506.336 33.652 506.188 33.1103 505.893 32.6548C505.597 32.1932 505.194 31.8393 504.683 31.593C504.172 31.3407 503.597 31.2145 502.957 31.2145C502.28 31.2145 501.689 31.353 501.184 31.63C500.679 31.907 500.291 32.2978 500.021 32.8026C499.75 33.3073 499.614 33.8982 499.614 34.5753H496.891C496.891 33.4242 497.155 32.4179 497.685 31.5561C498.214 30.6944 498.94 30.0265 499.864 29.5526C500.787 29.0724 501.836 28.8324 503.012 28.8324C504.2 28.8324 505.246 29.0694 506.151 29.5433C507.062 30.0111 507.773 30.6513 508.284 31.4638C508.795 32.2701 509.05 33.1811 509.05 34.1967C509.05 34.8984 508.918 35.5848 508.653 36.2557C508.395 36.9266 507.942 37.6745 507.296 38.4993C506.65 39.3179 505.751 40.312 504.6 41.4815L500.842 45.4148V45.5533H509.355V48H496.909Z" fill="#F59E0B"/>
<path d="M467.453 169.547V167.091H482.087V169.547H476.188V186H473.344V169.547H467.453ZM485.178 171.818L488.308 177.339L491.466 171.818H494.485L490.063 178.909L494.522 186H491.503L488.308 180.7L485.123 186H482.095L486.508 178.909L482.15 171.818H485.178ZM503.086 186.259C501.818 186.259 500.685 186.04 499.688 185.603C498.697 185.166 497.912 184.56 497.334 183.784C496.761 183.002 496.454 182.098 496.41 181.07H499.31C499.347 181.63 499.534 182.116 499.873 182.528C500.217 182.935 500.667 183.249 501.221 183.47C501.775 183.692 502.39 183.803 503.067 183.803C503.812 183.803 504.471 183.673 505.043 183.415C505.622 183.156 506.074 182.796 506.4 182.335C506.727 181.867 506.89 181.328 506.89 180.719C506.89 180.085 506.727 179.528 506.4 179.048C506.08 178.561 505.61 178.18 504.988 177.903C504.372 177.626 503.628 177.487 502.753 177.487H501.156V175.161H502.753C503.455 175.161 504.071 175.034 504.6 174.782C505.136 174.53 505.554 174.179 505.856 173.729C506.157 173.274 506.308 172.741 506.308 172.132C506.308 171.547 506.176 171.04 505.911 170.609C505.653 170.172 505.283 169.83 504.803 169.584C504.329 169.338 503.769 169.214 503.123 169.214C502.507 169.214 501.932 169.328 501.396 169.556C500.867 169.778 500.436 170.098 500.104 170.516C499.771 170.929 499.593 171.424 499.568 172.003H496.807C496.838 170.981 497.14 170.082 497.712 169.307C498.291 168.531 499.054 167.925 500.002 167.488C500.95 167.051 502.003 166.832 503.16 166.832C504.372 166.832 505.419 167.069 506.299 167.543C507.185 168.011 507.869 168.636 508.349 169.418C508.835 170.199 509.075 171.055 509.069 171.984C509.075 173.043 508.78 173.942 508.182 174.68C507.592 175.419 506.804 175.915 505.819 176.167V176.315C507.074 176.505 508.047 177.004 508.736 177.81C509.432 178.617 509.777 179.617 509.771 180.811C509.777 181.851 509.487 182.784 508.903 183.609C508.324 184.433 507.533 185.083 506.53 185.557C505.526 186.025 504.378 186.259 503.086 186.259Z" fill="#F59E0B"/>
<path d="M990.626 31.5469V29.0909H1005.26V31.5469H999.361V48H996.517V31.5469H990.626ZM1008.35 33.8182L1011.48 39.3395L1014.64 33.8182H1017.66L1013.24 40.9091L1017.7 48H1014.68L1011.48 42.7003L1008.3 48H1005.27L1009.68 40.9091L1005.32 33.8182H1008.35ZM1019.28 44.3068V41.9986L1027.45 29.0909H1029.27V32.4886H1028.11L1022.27 41.7401V41.8878H1033.47V44.3068H1019.28ZM1028.24 48V43.6051L1028.26 42.5526V29.0909H1030.97V48H1028.24ZM1038.32 29.0909V30.8636C1038.32 31.3868 1038.22 31.9377 1038.02 32.5163C1037.83 33.0888 1037.56 33.6397 1037.21 34.169C1036.86 34.6984 1036.45 35.1539 1035.97 35.5355L1034.61 34.5568C1034.97 34.0275 1035.28 33.4643 1035.55 32.8672C1035.82 32.2701 1035.95 31.6115 1035.95 30.8913V29.0909H1038.32Z" fill="#0EA5E9"/>
<circle cx="489.188" cy="178.688" r="41.625" stroke="#F59E0B" stroke-width="1.125"/>
<circle cx="751.688" cy="178.688" r="41.625" stroke="#EC4899" stroke-width="1.125"/>
<path d="M709.5 176.25L703.875 173.002V179.498L709.5 176.25ZM531.375 176.25V176.812L704.438 176.812V176.25V175.687L531.375 175.688V176.25Z" fill="#F59E0B"/>
<path d="M447.37 42L441.745 38.7524V45.2476L447.37 42ZM269.25 42V42.5625L442.307 42.5625V42V41.4375L269.25 41.4375V42Z" fill="#10B981"/>
<path d="M447.37 310.5L441.745 307.252V313.748L447.37 310.5ZM269.25 310.5V311.062L442.307 311.062V310.5V309.937L269.25 309.938V310.5Z" fill="#10B981"/>
<path d="M447.37 176.25L441.745 173.002V179.498L447.37 176.25ZM269.25 176.25V176.812L442.307 176.812V176.25V175.687L269.25 175.688V176.25Z" fill="#10B981"/>
<circle cx="1014.19" cy="178.688" r="41.625" stroke="#0EA5E9" stroke-width="1.125"/>
<path d="M972 176.25L966.375 173.002V179.498L972 176.25ZM793.875 176.25V176.812L966.938 176.812V176.25V175.687L793.875 175.688V176.25Z" fill="#EC4899"/>
<path d="M597.253 165V148.636H600.311V151.3H600.513C600.854 150.398 601.412 149.695 602.186 149.19C602.96 148.679 603.887 148.423 604.966 148.423C606.06 148.423 606.976 148.679 607.715 149.19C608.461 149.702 609.011 150.405 609.366 151.3H609.537C609.927 150.426 610.549 149.73 611.401 149.212C612.253 148.686 613.269 148.423 614.448 148.423C615.932 148.423 617.143 148.888 618.081 149.819C619.025 150.749 619.498 152.152 619.498 154.027V165H616.312V154.325C616.312 153.217 616.01 152.415 615.407 151.918C614.803 151.42 614.082 151.172 613.244 151.172C612.207 151.172 611.401 151.491 610.826 152.131C610.25 152.763 609.963 153.576 609.963 154.57V165H606.788V154.123C606.788 153.235 606.511 152.521 605.957 151.982C605.403 151.442 604.682 151.172 603.794 151.172C603.191 151.172 602.633 151.332 602.122 151.651C601.618 151.964 601.209 152.401 600.897 152.962C600.591 153.523 600.439 154.173 600.439 154.911V165H597.253ZM630.42 165.298C628.957 165.298 627.65 165.046 626.5 164.542C625.356 164.038 624.451 163.338 623.783 162.443C623.123 161.541 622.767 160.497 622.718 159.311H626.063C626.106 159.957 626.322 160.518 626.713 160.994C627.111 161.463 627.629 161.825 628.268 162.081C628.907 162.337 629.618 162.464 630.399 162.464C631.258 162.464 632.018 162.315 632.679 162.017C633.346 161.719 633.868 161.303 634.245 160.771C634.621 160.231 634.809 159.609 634.809 158.906C634.809 158.175 634.621 157.532 634.245 156.978C633.875 156.417 633.332 155.977 632.615 155.657C631.905 155.337 631.045 155.178 630.037 155.178H628.194V152.493H630.037C630.846 152.493 631.557 152.347 632.167 152.056C632.785 151.765 633.268 151.36 633.616 150.842C633.964 150.316 634.138 149.702 634.138 148.999C634.138 148.324 633.986 147.738 633.68 147.241C633.382 146.737 632.956 146.342 632.402 146.058C631.855 145.774 631.209 145.632 630.463 145.632C629.753 145.632 629.089 145.763 628.471 146.026C627.86 146.282 627.363 146.651 626.979 147.134C626.596 147.61 626.39 148.182 626.361 148.849H623.176C623.211 147.67 623.559 146.634 624.22 145.739C624.888 144.844 625.768 144.144 626.862 143.64C627.956 143.136 629.17 142.884 630.505 142.884C631.905 142.884 633.112 143.157 634.128 143.704C635.15 144.244 635.939 144.964 636.493 145.866C637.054 146.768 637.331 147.756 637.324 148.828C637.331 150.05 636.99 151.087 636.301 151.939C635.619 152.791 634.71 153.363 633.574 153.654V153.825C635.022 154.045 636.145 154.62 636.94 155.55C637.743 156.481 638.14 157.635 638.133 159.013C638.14 160.213 637.807 161.289 637.132 162.241C636.464 163.192 635.552 163.942 634.394 164.489C633.236 165.028 631.912 165.298 630.42 165.298ZM644.041 143.182V145.227C644.041 145.831 643.927 146.467 643.7 147.134C643.48 147.795 643.167 148.43 642.762 149.041C642.358 149.652 641.882 150.178 641.335 150.618L639.758 149.489C640.177 148.878 640.539 148.228 640.845 147.539C641.157 146.85 641.314 146.09 641.314 145.259V143.182H644.041Z" fill="#F59E0B"/>
<path d="M860.107 165V148.636H863.164V151.3H863.367C863.708 150.398 864.265 149.695 865.039 149.19C865.813 148.679 866.74 148.423 867.82 148.423C868.914 148.423 869.83 148.679 870.568 149.19C871.314 149.702 871.865 150.405 872.22 151.3H872.39C872.781 150.426 873.402 149.73 874.254 149.212C875.107 148.686 876.122 148.423 877.301 148.423C878.786 148.423 879.997 148.888 880.934 149.819C881.879 150.749 882.351 152.152 882.351 154.027V165H879.166V154.325C879.166 153.217 878.864 152.415 878.26 151.918C877.656 151.42 876.936 151.172 876.098 151.172C875.061 151.172 874.254 151.491 873.679 152.131C873.104 152.763 872.816 153.576 872.816 154.57V165H869.642V154.123C869.642 153.235 869.365 152.521 868.811 151.982C868.257 151.442 867.536 151.172 866.648 151.172C866.044 151.172 865.487 151.332 864.975 151.651C864.471 151.964 864.063 152.401 863.75 152.962C863.445 153.523 863.292 154.173 863.292 154.911V165H860.107ZM885.22 160.739V158.075L894.648 143.182H896.747V147.102H895.415L888.671 157.777V157.947H901.594V160.739H885.22ZM895.564 165V159.929L895.585 158.714V143.182H898.707V165H895.564ZM907.187 143.182V145.227C907.187 145.831 907.074 146.467 906.846 147.134C906.626 147.795 906.314 148.43 905.909 149.041C905.504 149.652 905.028 150.178 904.481 150.618L902.905 149.489C903.324 148.878 903.686 148.228 903.991 147.539C904.304 146.85 904.46 146.09 904.46 145.259V143.182H907.187Z" fill="#EC4899"/>
<path d="M728.126 169.547V167.091H742.761V169.547H736.861V186H734.017V169.547H728.126ZM745.852 171.818L748.982 177.339L752.139 171.818H755.158L750.736 178.909L755.195 186H752.176L748.982 180.7L745.796 186H742.768L747.181 178.909L742.823 171.818H745.852ZM756.779 182.307V179.999L764.95 167.091H766.769V170.489H765.615L759.77 179.74V179.888H770.97V182.307H756.779ZM765.744 186V181.605L765.763 180.553V167.091H768.468V186H765.744ZM775.817 167.091V168.864C775.817 169.387 775.719 169.938 775.522 170.516C775.331 171.089 775.06 171.64 774.71 172.169C774.359 172.698 773.946 173.154 773.472 173.536L772.106 172.557C772.469 172.027 772.783 171.464 773.048 170.867C773.318 170.27 773.454 169.612 773.454 168.891V167.091H775.817Z" fill="#EC4899"/>
<path d="M990.571 169.547V167.091H1005.2V169.547H999.305V186H996.461V169.547H990.571ZM1008.3 171.818L1011.43 177.339L1014.58 171.818H1017.6L1013.18 178.909L1017.64 186H1014.62L1011.43 180.7L1008.24 186H1005.21L1009.63 178.909L1005.27 171.818H1008.3ZM1025.86 186.259C1024.7 186.259 1023.66 186.037 1022.74 185.594C1021.82 185.144 1021.09 184.529 1020.54 183.747C1020 182.965 1019.7 182.073 1019.67 181.07H1022.44C1022.5 181.882 1022.86 182.55 1023.52 183.073C1024.17 183.596 1024.95 183.858 1025.86 183.858C1026.59 183.858 1027.23 183.692 1027.79 183.359C1028.36 183.021 1028.8 182.556 1029.12 181.965C1029.45 181.374 1029.61 180.7 1029.61 179.943C1029.61 179.174 1029.44 178.487 1029.11 177.884C1028.78 177.281 1028.32 176.807 1027.74 176.462C1027.16 176.118 1026.49 175.942 1025.74 175.936C1025.17 175.936 1024.59 176.035 1024.02 176.232C1023.44 176.429 1022.97 176.687 1022.61 177.007L1020 176.619L1021.06 167.091H1031.46V169.538H1023.43L1022.83 174.828H1022.94C1023.31 174.471 1023.8 174.173 1024.41 173.933C1025.03 173.692 1025.69 173.572 1026.39 173.572C1027.54 173.572 1028.56 173.846 1029.46 174.394C1030.37 174.942 1031.08 175.69 1031.6 176.638C1032.12 177.58 1032.38 178.663 1032.37 179.888C1032.38 181.113 1032.1 182.205 1031.54 183.165C1030.99 184.126 1030.22 184.883 1029.23 185.437C1028.25 185.985 1027.13 186.259 1025.86 186.259ZM1037.37 167.091V168.864C1037.37 169.387 1037.27 169.938 1037.08 170.516C1036.89 171.089 1036.62 171.64 1036.27 172.169C1035.91 172.698 1035.5 173.154 1035.03 173.536L1033.66 172.557C1034.02 172.027 1034.34 171.464 1034.6 170.867C1034.87 170.27 1035.01 169.612 1035.01 168.891V167.091H1037.37Z" fill="#0EA5E9"/>
<circle cx="489.188" cy="310.688" r="41.625" stroke="#F59E0B" stroke-width="1.125"/>
<circle cx="152.812" cy="176.438" r="41.625" stroke="#10B981" stroke-width="1.125"/>
<circle cx="751.688" cy="310.688" r="41.625" stroke="#EC4899" stroke-width="1.125"/>
<path d="M709.5 310.5L703.875 307.252V313.748L709.5 310.5ZM531.375 310.5V311.062L704.438 311.062V310.5V309.937L531.375 309.938V310.5Z" fill="#F59E0B"/>
<circle cx="1014.19" cy="310.688" r="41.625" stroke="#0EA5E9" stroke-width="1.125"/>
<path d="M972 310.5L966.375 307.252V313.748L972 310.5ZM793.875 310.5V311.062L966.938 311.062V310.5V309.937L793.875 309.938V310.5Z" fill="#EC4899"/>
<path d="M599.645 297V280.636H602.703V283.3H602.905C603.246 282.398 603.803 281.695 604.578 281.19C605.352 280.679 606.279 280.423 607.358 280.423C608.452 280.423 609.368 280.679 610.107 281.19C610.852 281.702 611.403 282.405 611.758 283.3H611.928C612.319 282.426 612.941 281.73 613.793 281.212C614.645 280.686 615.661 280.423 616.84 280.423C618.324 280.423 619.535 280.888 620.472 281.819C621.417 282.749 621.889 284.152 621.889 286.027V297H618.704V286.325C618.704 285.217 618.402 284.415 617.798 283.918C617.195 283.42 616.474 283.172 615.636 283.172C614.599 283.172 613.793 283.491 613.217 284.131C612.642 284.763 612.355 285.576 612.355 286.57V297H609.18V286.123C609.18 285.235 608.903 284.521 608.349 283.982C607.795 283.442 607.074 283.172 606.186 283.172C605.583 283.172 605.025 283.332 604.514 283.651C604.009 283.964 603.601 284.401 603.289 284.962C602.983 285.523 602.83 286.173 602.83 286.911V297H599.645ZM624.758 292.739V290.075L634.186 275.182H636.285V279.102H634.953L628.21 289.777V289.947H641.132V292.739H624.758ZM635.102 297V291.929L635.124 290.714V275.182H638.245V297H635.102Z" fill="#F59E0B"/>
<path d="M863.158 297V280.636H866.215V283.3H866.418C866.759 282.398 867.316 281.695 868.09 281.19C868.864 280.679 869.791 280.423 870.871 280.423C871.965 280.423 872.881 280.679 873.619 281.19C874.365 281.702 874.916 282.405 875.271 283.3H875.441C875.832 282.426 876.453 281.73 877.305 281.212C878.158 280.686 879.173 280.423 880.352 280.423C881.837 280.423 883.048 280.888 883.985 281.819C884.93 282.749 885.402 284.152 885.402 286.027V297H882.217V286.325C882.217 285.217 881.915 284.415 881.311 283.918C880.707 283.42 879.987 283.172 879.149 283.172C878.112 283.172 877.305 283.491 876.73 284.131C876.155 284.763 875.867 285.576 875.867 286.57V297H872.693V286.123C872.693 285.235 872.416 284.521 871.862 283.982C871.308 283.442 870.587 283.172 869.699 283.172C869.095 283.172 868.538 283.332 868.026 283.651C867.522 283.964 867.114 284.401 866.801 284.962C866.496 285.523 866.343 286.173 866.343 286.911V297H863.158ZM895.931 297.298C894.595 297.298 893.395 297.043 892.33 296.531C891.271 296.013 890.426 295.303 889.794 294.401C889.162 293.499 888.825 292.469 888.782 291.311H891.978C892.056 292.249 892.472 293.019 893.225 293.623C893.977 294.227 894.879 294.528 895.931 294.528C896.769 294.528 897.511 294.337 898.157 293.953C898.81 293.562 899.322 293.026 899.691 292.344C900.068 291.663 900.256 290.885 900.256 290.011C900.256 289.124 900.064 288.332 899.681 287.636C899.297 286.94 898.768 286.393 898.093 285.995C897.426 285.597 896.658 285.395 895.792 285.388C895.132 285.388 894.467 285.501 893.8 285.729C893.132 285.956 892.592 286.254 892.181 286.624L889.166 286.176L890.391 275.182H902.386V278.005H893.129L892.436 284.109H892.564C892.99 283.697 893.555 283.353 894.258 283.076C894.968 282.799 895.728 282.661 896.538 282.661C897.866 282.661 899.048 282.977 900.085 283.609C901.129 284.241 901.95 285.104 902.546 286.197C903.15 287.284 903.448 288.534 903.441 289.947C903.448 291.361 903.129 292.621 902.482 293.729C901.843 294.837 900.955 295.711 899.819 296.35C898.69 296.982 897.394 297.298 895.931 297.298Z" fill="#EC4899"/>
<path d="M730.771 300.547V298.091H745.405V300.547H739.505V317H736.661V300.547H730.771ZM748.496 302.818L751.626 308.339L754.783 302.818H757.803L753.38 309.909L757.839 317H754.82L751.626 311.7L748.44 317H745.412L749.825 309.909L745.467 302.818H748.496ZM766.062 317.259C764.904 317.259 763.864 317.037 762.941 316.594C762.024 316.144 761.291 315.529 760.743 314.747C760.196 313.965 759.903 313.073 759.866 312.07H762.636C762.704 312.882 763.064 313.55 763.716 314.073C764.369 314.596 765.151 314.858 766.062 314.858C766.788 314.858 767.431 314.692 767.991 314.359C768.558 314.021 769.001 313.556 769.321 312.965C769.647 312.374 769.81 311.7 769.81 310.943C769.81 310.174 769.644 309.487 769.312 308.884C768.979 308.281 768.521 307.807 767.936 307.462C767.357 307.118 766.693 306.942 765.942 306.936C765.369 306.936 764.794 307.035 764.215 307.232C763.636 307.429 763.169 307.687 762.812 308.007L760.199 307.619L761.26 298.091H771.657V300.538H763.633L763.033 305.828H763.144C763.513 305.471 764.003 305.173 764.612 304.933C765.228 304.692 765.886 304.572 766.588 304.572C767.739 304.572 768.764 304.846 769.662 305.394C770.567 305.942 771.278 306.69 771.795 307.638C772.318 308.58 772.577 309.663 772.571 310.888C772.577 312.113 772.3 313.205 771.74 314.165C771.186 315.126 770.416 315.883 769.432 316.437C768.453 316.985 767.33 317.259 766.062 317.259Z" fill="#EC4899"/>
<path d="M467.326 300.547V298.091H481.96V300.547H476.061V317H473.217V300.547H467.326ZM485.051 302.818L488.181 308.339L491.339 302.818H494.358L489.936 309.909L494.395 317H491.376L488.181 311.7L484.996 317H481.968L486.381 309.909L482.023 302.818H485.051ZM495.979 313.307V310.999L504.15 298.091H505.969V301.489H504.815L498.97 310.74V310.888H510.17V313.307H495.979ZM504.944 317V312.605L504.962 311.553V298.091H507.668V317H504.944Z" fill="#F59E0B"/>
<path d="M133.813 168.547V166.091H148.447V168.547H142.547V185H139.703V168.547H133.813ZM151.538 170.818L154.668 176.339L157.825 170.818H160.845L156.422 177.909L160.881 185H157.862L154.668 179.7L151.482 185H148.454L152.867 177.909L148.509 170.818H151.538ZM170.036 166.091V185H167.174V168.953H167.063L162.539 171.908V169.175L167.257 166.091H170.036Z" fill="#10B981"/>
<path d="M992.567 301.547V299.091H1007.2V301.547H1001.3V318H998.458V301.547H992.567ZM1010.29 303.818L1013.42 309.339L1016.58 303.818H1019.6L1015.18 310.909L1019.64 318H1016.62L1013.42 312.7L1010.24 318H1007.21L1011.62 310.909L1007.26 303.818H1010.29ZM1028.22 318.259C1027.38 318.246 1026.54 318.092 1025.73 317.797C1024.91 317.501 1024.17 317.009 1023.51 316.32C1022.85 315.63 1022.31 314.704 1021.91 313.54C1021.52 312.377 1021.32 310.924 1021.32 309.183C1021.32 307.533 1021.48 306.068 1021.81 304.788C1022.14 303.507 1022.62 302.427 1023.24 301.547C1023.86 300.661 1024.61 299.987 1025.49 299.525C1026.38 299.063 1027.36 298.832 1028.46 298.832C1029.59 298.832 1030.59 299.054 1031.46 299.497C1032.33 299.94 1033.04 300.553 1033.58 301.335C1034.13 302.116 1034.48 303.006 1034.63 304.003H1031.81C1031.62 303.215 1031.24 302.572 1030.67 302.073C1030.11 301.575 1029.37 301.325 1028.46 301.325C1027.07 301.325 1025.99 301.929 1025.22 303.135C1024.45 304.341 1024.06 306.019 1024.05 308.167H1024.19C1024.52 307.631 1024.92 307.176 1025.39 306.8C1025.87 306.419 1026.41 306.126 1027 305.923C1027.6 305.714 1028.22 305.609 1028.88 305.609C1029.98 305.609 1030.97 305.877 1031.86 306.413C1032.75 306.942 1033.46 307.674 1033.99 308.61C1034.52 309.546 1034.78 310.617 1034.78 311.823C1034.78 313.03 1034.51 314.122 1033.96 315.101C1033.42 316.08 1032.66 316.855 1031.67 317.428C1030.69 317.994 1029.54 318.271 1028.22 318.259ZM1028.21 315.858C1028.94 315.858 1029.59 315.679 1030.16 315.322C1030.73 314.965 1031.18 314.485 1031.51 313.882C1031.85 313.279 1032.01 312.605 1032.01 311.86C1032.01 311.134 1031.85 310.472 1031.52 309.875C1031.2 309.278 1030.76 308.804 1030.19 308.453C1029.63 308.102 1028.99 307.927 1028.27 307.927C1027.73 307.927 1027.22 308.031 1026.75 308.241C1026.29 308.45 1025.88 308.739 1025.53 309.109C1025.18 309.478 1024.9 309.903 1024.7 310.383C1024.5 310.857 1024.41 311.358 1024.41 311.888C1024.41 312.596 1024.57 313.251 1024.89 313.854C1025.23 314.458 1025.68 314.944 1026.25 315.313C1026.83 315.676 1027.48 315.858 1028.21 315.858Z" fill="#0EA5E9"/>
<line x1="269.812" y1="42" x2="269.812" y2="310.5" stroke="#10B981" stroke-width="1.125"/>
<path d="M195.188 176.25H269.438" stroke="#10B981" stroke-width="1.125"/>
</svg>
