<svg xmlns="http://www.w3.org/2000/svg" xmlns:xlink="http://www.w3.org/1999/xlink" xmlns:lucid="lucid" width="1142" height="254.44"><g transform="translate(-79 -263)" lucid:page-tab-id="2OJXW9C82kGP"><path d="M477.25 304.98h-72.88l-.82.06-.77.18-.73.3-.67.42-.6.5-.5.6-.42.68-.3.73-.2.76-.05.84v68l-.07 1.05-.26 1.06-.42 1-.57.94-.7.83-.84.7-.94.6-1 .4-1.07.26-1.06.08h-33.04v-1.96h32.97l.82-.06.77-.18.7-.3.7-.42.58-.5.52-.6.4-.68.3-.73.2-.76.06-.84v-68l.08-1.05.26-1.06.42-1 .57-.94.7-.83.83-.7.94-.6 1-.4 1.07-.26 1.06-.08h72.95zm85.76 0h-47.07v-1.96H563z" stroke="#3a414a" stroke-width=".05" fill="#3a414a"/><path d="M359.36 384.98h-1.1l.07-.97-.03-.98h1.06z" fill="#3a414a"/><path stroke="#3a414a" stroke-width=".05" fill="#3a414a"/><path d="M577 304l-13 7.5v-15z" fill="#3a414a"/><path d="M578.95 304l-15.92 9.2v-18.4zm-13.97 5.8l10.07-5.8-10.07-5.8z" stroke="#3a414a" stroke-width=".05" fill="#3a414a"/><use xlink:href="#a" transform="matrix(1,0,0,1,477.2542602588194,285.1783854166667) translate(0 30.138888888888893)"/><path d="M357.33 384c0 22.1-17.9 40-40 40s-40-17.9-40-40 17.9-40 40-40 40 17.9 40 40z" stroke="#3a414a" stroke-width="2" fill-opacity="0"/><use xlink:href="#b" transform="matrix(1,0,0,1,282.3333333333335,349) translate(11.11219618055555 45.45138888888889)"/><path d="M660 304c0 22.1-17.9 40-40 40s-40-17.9-40-40 17.9-40 40-40 40 17.9 40 40z" stroke="#3a414a" stroke-width="2" fill-opacity="0"/><use xlink:href="#c" transform="matrix(1,0,0,1,585,269) translate(7.952473958333329 45.45138888888889)"/><path d="M135.75 384.98H81v-1.96h54.75zm124.6 0h-39.77v-1.96h39.76z" stroke="#3a414a" stroke-width=".05" fill="#3a414a"/><path d="M81.03 384.98H80v-1.96h1.03z" stroke="#3a414a" stroke-width=".05" fill="#3a414a"/><path d="M274.33 384l-13 7.5v-15z" fill="#3a414a"/><path d="M276.28 384l-15.9 9.2v-18.4zm-13.96 5.8l10.06-5.8-10.06-5.8z" stroke="#3a414a" stroke-width=".05" fill="#3a414a"/><use xlink:href="#d" transform="matrix(1,0,0,1,135.75316036237808,365.1783854166667) translate(0 30.138888888888893)"/><path d="M393.43 383.1l1.06.26 1 .42.94.58.83.7.7.84.58.93.42 1 .26 1.08.08 1.06v68l.07.83.2.75.3.73.4.67.5.6.6.5.68.43.73.3.77.18.82.06h71.32v1.96h-71.4l-1.06-.1-1.06-.24-1-.42-.95-.58-.83-.7-.7-.84-.58-.93-.42-1-.26-1.08-.08-1.06v-68l-.07-.83-.2-.75-.3-.73-.4-.67-.5-.6-.6-.5-.7-.43-.7-.3-.78-.18-.82-.06h-32.97v-1.96h33.04zM563 463.03v1.96h-41.08v-1.96z" stroke="#3a414a" stroke-width=".05" fill="#3a414a"/><path d="M359.36 384.98h-1.1l.07-.97-.03-.98h1.06z" fill="#3a414a"/><path stroke="#3a414a" stroke-width=".05" fill="#3a414a"/><path d="M577 464l-13 7.5v-15z" fill="#3a414a"/><path d="M578.95 464l-15.92 9.2v-18.4zm-13.97 5.8l10.07-5.8-10.07-5.8z" stroke="#3a414a" stroke-width=".05" fill="#3a414a"/><use xlink:href="#e" transform="matrix(1,0,0,1,475.6907276338576,445.1783854166667) translate(0 30.138888888888893)"/><path d="M660 464c0 22.1-17.9 40-40 40s-40-17.9-40-40 17.9-40 40-40 40 17.9 40 40z" stroke="#3a414a" stroke-width="2" fill-opacity="0"/><use xlink:href="#f" transform="matrix(1,0,0,1,585,429) translate(7.83094618055555 45.45138888888889)"/><path d="M940 304c0 22.1-17.9 40-40 40s-40-17.9-40-40 17.9-40 40-40 40 17.9 40 40z" stroke="#3a414a" stroke-width="2" fill-opacity="0"/><use xlink:href="#g" transform="matrix(1,0,0,1,865,269) translate(3.1673177083333286 45.45138888888889)"/><path d="M732.22 304.98H662v-1.96h70.22zm110.8 0h-55.24v-1.96H843z" stroke="#3a414a" stroke-width=".05" fill="#3a414a"/><path d="M662.03 304.98h-1.1l.07-.97-.03-.98h1.06z" fill="#3a414a"/><path stroke="#3a414a" stroke-width=".05" fill="#3a414a"/><path d="M857 304l-13 7.5v-15z" fill="#3a414a"/><path d="M858.95 304l-15.92 9.2v-18.4zm-13.97 5.8l10.07-5.8-10.07-5.8z" stroke="#3a414a" stroke-width=".05" fill="#3a414a"/><use xlink:href="#h" transform="matrix(1,0,0,1,732.2233072916666,285.1783854166667) translate(0 30.138888888888893)"/><path d="M940 464c0 22.1-17.9 40-40 40s-40-17.9-40-40 17.9-40 40-40 40 17.9 40 40z" stroke="#3a414a" stroke-width="2" fill-opacity="0"/><use xlink:href="#i" transform="matrix(1,0,0,1,865,429) translate(7.390407986111107 45.45138888888889)"/><path d="M736.76 464.98H662v-1.96h74.76zm106.25 0h-59.76v-1.96H843z" stroke="#3a414a" stroke-width=".05" fill="#3a414a"/><path d="M662.03 464.98h-1.1l.07-.97-.03-.98h1.06z" fill="#3a414a"/><path stroke="#3a414a" stroke-width=".05" fill="#3a414a"/><path d="M857 464l-13 7.5v-15z" fill="#3a414a"/><path d="M858.95 464l-15.92 9.2v-18.4zm-13.97 5.8l10.07-5.8-10.07-5.8z" stroke="#3a414a" stroke-width=".05" fill="#3a414a"/><use xlink:href="#j" transform="matrix(1,0,0,1,736.7654079861111,445.1783854166667) translate(0 30.138888888888893)"/><path d="M1220 304c0 22.1-17.9 40-40 40s-40-17.9-40-40 17.9-40 40-40 40 17.9 40 40z" stroke="#3a414a" stroke-width="2" fill-opacity="0"/><use xlink:href="#k" transform="matrix(1,0,0,1,1145,269) translate(2.7267795138888857 45.45138888888889)"/><path d="M1012.1 304.98H942v-1.96h70.1zm110.9 0h-55.1v-1.96h55.1z" stroke="#3a414a" stroke-width=".05" fill="#3a414a"/><path d="M942.03 304.98h-1.1l.07-.97-.03-.98h1.06z" fill="#3a414a"/><path stroke="#3a414a" stroke-width=".05" fill="#3a414a"/><path d="M1137 304l-13 7.5v-15z" fill="#3a414a"/><path d="M1138.95 304l-15.92 9.2v-18.4zm-13.97 5.8l10.07-5.8-10.07-5.8z" stroke="#3a414a" stroke-width=".05" fill="#3a414a"/><use xlink:href="#l" transform="matrix(1,0,0,1,1012.1017795138889,285.1783854166667) translate(0 30.138888888888893)"/><path d="M1220 464c0 22.1-17.9 40-40 40s-40-17.9-40-40 17.9-40 40-40 40 17.9 40 40z" stroke="#3a414a" stroke-width="2" fill-opacity="0"/><use xlink:href="#m" transform="matrix(1,0,0,1,1145,429) translate(7.9828559027777715 45.45138888888889)"/><path d="M1016.33 464.98H942v-1.96h74.33zm106.68 0h-59.33v-1.96H1123z" stroke="#3a414a" stroke-width=".05" fill="#3a414a"/><path d="M942.03 464.98h-1.1l.07-.97-.03-.98h1.06z" fill="#3a414a"/><path stroke="#3a414a" stroke-width=".05" fill="#3a414a"/><path d="M1137 464l-13 7.5v-15z" fill="#3a414a"/><path d="M1138.95 464l-15.92 9.2v-18.4zm-13.97 5.8l10.07-5.8-10.07-5.8z" stroke="#3a414a" stroke-width=".05" fill="#3a414a"/><use xlink:href="#n" transform="matrix(1,0,0,1,1016.3248697916666,445.1783854166667) translate(0 30.138888888888893)"/><path d="M441.43 475.8a6 6 0 0 1 6-6H553.2a6 6 0 0 1 6 6v35.64a6 6 0 0 1-6 6H447.42a6 6 0 0 1-6-6z" fill="none"/><use xlink:href="#o" transform="matrix(1,0,0,1,446.42795138888886,474.79078125) translate(0.12521701388888573 30.317274305555557)"/><use xlink:href="#p" transform="matrix(1,0,0,1,446.42795138888886,474.79078125) translate(27.043619791666664 30.317274305555557)"/><use xlink:href="#q" transform="matrix(1,0,0,1,446.42795138888886,474.79078125) translate(56.37738715277778 30.317274305555557)"/><path d="M441.38 315.8a6 6 0 0 1 6-6h99.2a6 6 0 0 1 6 6v35.64a6 6 0 0 1-6 6h-99.2a6 6 0 0 1-6-6z" fill="none"/><use xlink:href="#o" transform="matrix(1,0,0,1,446.3747829861111,314.79078125) translate(0.40646701388888573 30.317274305555557)"/><use xlink:href="#p" transform="matrix(1,0,0,1,446.3747829861111,314.79078125) translate(27.324869791666664 30.317274305555557)"/><use xlink:href="#r" transform="matrix(1,0,0,1,446.3747829861111,314.79078125) translate(56.65863715277778 30.317274305555557)"/><path d="M700.52 315.8a6 6 0 0 1 6-6h105.52a6 6 0 0 1 6 6v35.64a6 6 0 0 1-6 6H706.52a6 6 0 0 1-6-6z" fill="none"/><use xlink:href="#o" transform="matrix(1,0,0,1,705.5201736111111,314.79078125) translate(0.2467447916666572 30.317274305555557)"/><use xlink:href="#p" transform="matrix(1,0,0,1,705.5201736111111,314.79078125) translate(27.165147569444436 30.317274305555557)"/><use xlink:href="#s" transform="matrix(1,0,0,1,705.5201736111111,314.79078125) translate(56.49891493055555 30.317274305555557)"/><path d="M981.12 315.8a6 6 0 0 1 6-6h105.76a6 6 0 0 1 6 6v35.64a6 6 0 0 1-6 6H987.12a6 6 0 0 1-6-6z" fill="none"/><g><use xlink:href="#o" transform="matrix(1,0,0,1,986.1202170138889,314.79078125) translate(0.12521701388888573 30.317274305555557)"/><use xlink:href="#p" transform="matrix(1,0,0,1,986.1202170138889,314.79078125) translate(27.043619791666664 30.317274305555557)"/><use xlink:href="#q" transform="matrix(1,0,0,1,986.1202170138889,314.79078125) translate(56.37738715277778 30.317274305555557)"/></g><path d="M700.68 475.8a6 6 0 0 1 6-6h106.64a6 6 0 0 1 6 6v35.64a6 6 0 0 1-6 6H706.68a6 6 0 0 1-6-6z" fill="none"/><g><use xlink:href="#o" transform="matrix(1,0,0,1,705.6796788194445,474.79078125) translate(0.18467881944444287 30.317274305555557)"/><use xlink:href="#p" transform="matrix(1,0,0,1,705.6796788194445,474.79078125) translate(27.10308159722222 30.317274305555557)"/><use xlink:href="#t" transform="matrix(1,0,0,1,705.6796788194445,474.79078125) translate(56.436848958333336 30.317274305555557)"/></g><path d="M981.17 475.8a6 6 0 0 1 6-6h105.46a6 6 0 0 1 6 6v35.64a6 6 0 0 1-6 6H987.17a6 6 0 0 1-6-6z" fill="none"/><g><use xlink:href="#o" transform="matrix(1,0,0,1,986.1733854166667,474.79078125) translate(0.27712673611110006 30.317274305555557)"/><use xlink:href="#p" transform="matrix(1,0,0,1,986.1733854166667,474.79078125) translate(27.19552951388888 30.317274305555557)"/><use xlink:href="#u" transform="matrix(1,0,0,1,986.1733854166667,474.79078125) translate(56.52929687499999 30.317274305555557)"/></g><defs><path fill="#3a414a" d="M158 0v-1118h175l1 205c55-151 181-225 313-225 147 0 245 90 285 228 53-141 190-228 352-228 194 0 352 125 352 384V0h-181v-749c0-161-105-225-225-225-151 0-243 103-243 244V0H807v-767c0-124-93-207-219-207-131 0-250 92-250 270V0H158" id="v"/><path fill="#3a414a" d="M653-1490V0H466v-1314h-10L96-1047v-204l324-239h233" id="w"/><g id="a"><use transform="matrix(0.015190972222222224,0,0,0.015190972222222224,0,0)" xlink:href="#v"/><use transform="matrix(0.015190972222222224,0,0,0.015190972222222224,26.022135416666668,0)" xlink:href="#w"/></g><path fill="#3a414a" d="M98-1322v-168h1126v168H757V0H567v-1322H98" id="x"/><path fill="#3a414a" d="M65 0l393-574-370-544h210c88 136 192 297 267 435 67-142 176-302 264-435h206L661-564 1053 0H844c-94-144-206-310-287-458C484-308 366-142 273 0H65" id="y"/><g id="b"><use transform="matrix(0.015190972222222224,0,0,0.015190972222222224,0,0)" xlink:href="#x"/><use transform="matrix(0.015190972222222224,0,0,0.015190972222222224,18.138020833333336,0)" xlink:href="#y"/><use transform="matrix(0.015190972222222224,0,0,0.015190972222222224,35.121527777777786,0)" xlink:href="#w"/></g><path fill="#3a414a" d="M154 0v-137l495-537c165-179 249-281 249-418 0-156-121-253-280-253-170 0-278 110-278 278H158c0-264 200-443 465-443 266 0 455 183 455 416 0 161-73 288-336 568L416-179v12h687V0H154" id="z"/><g id="c"><use transform="matrix(0.015190972222222224,0,0,0.015190972222222224,0,0)" xlink:href="#x"/><use transform="matrix(0.015190972222222224,0,0,0.015190972222222224,18.138020833333336,0)" xlink:href="#y"/><use transform="matrix(0.015190972222222224,0,0,0.015190972222222224,35.121527777777786,0)" xlink:href="#z"/></g><path fill="#3a414a" d="M628 24c-324 0-524-230-524-574 0-343 198-582 503-582 237 0 487 146 487 559v75H286c9 234 145 362 343 362 132 0 231-58 273-172l174 48C1024-91 857 24 628 24zM287-650h624c-17-190-120-322-304-322-192 0-309 151-320 322" id="A"/><path fill="#3a414a" d="M598-1118v154H368v674c0 100 37 144 132 144 23 0 62-6 92-12L629-6c-37 13-88 20-134 20-193 0-307-107-307-290v-688H20v-154h168v-266h180v266h230" id="B"/><path fill="#3a414a" d="M798-719v166H144v-166h654" id="C"/><path fill="#3a414a" d="M158 0v-1118h180V0H158zm91-1301c-68 0-125-53-125-119s57-119 125-119c69 0 126 53 126 119s-57 119-126 119" id="D"/><path fill="#3a414a" d="M338-670V0H158v-1118h173l1 207c72-158 192-221 342-221 226 0 378 139 378 422V0H872v-695c0-172-96-275-252-275-161 0-282 109-282 300" id="E"/><g id="d"><use transform="matrix(0.015190972222222224,0,0,0.015190972222222224,0,0)" xlink:href="#A"/><use transform="matrix(0.015190972222222224,0,0,0.015190972222222224,17.439236111111114,0)" xlink:href="#y"/><use transform="matrix(0.015190972222222224,0,0,0.015190972222222224,35.03038194444445,0)" xlink:href="#B"/><use transform="matrix(0.015190972222222224,0,0,0.015190972222222224,44.60069444444446,0)" xlink:href="#C"/><use transform="matrix(0.015190972222222224,0,0,0.015190972222222224,58.91059027777779,0)" xlink:href="#D"/><use transform="matrix(0.015190972222222224,0,0,0.015190972222222224,66.44531250000001,0)" xlink:href="#E"/></g><g id="e"><use transform="matrix(0.015190972222222224,0,0,0.015190972222222224,0,0)" xlink:href="#v"/><use transform="matrix(0.015190972222222224,0,0,0.015190972222222224,27.252604166666668,0)" xlink:href="#z"/></g><path fill="#3a414a" d="M635 20c-292 0-500-160-510-396h192c11 142 145 229 315 229 187 0 323-105 323-260 0-161-125-274-346-274H488v-165h121c174 0 294-100 294-254 0-148-104-245-266-245-152 0-291 85-297 230H157c8-234 222-395 484-395 278 0 448 188 448 400 0 168-95 291-247 336v12c190 31 301 169 301 357 0 244-216 425-508 425" id="F"/><g id="f"><use transform="matrix(0.015190972222222224,0,0,0.015190972222222224,0,0)" xlink:href="#x"/><use transform="matrix(0.015190972222222224,0,0,0.015190972222222224,18.138020833333336,0)" xlink:href="#y"/><use transform="matrix(0.015190972222222224,0,0,0.015190972222222224,35.121527777777786,0)" xlink:href="#F"/></g><path fill="#3a414a" d="M232-923l-22-567h194l-22 567H232" id="G"/><g id="g"><use transform="matrix(0.015190972222222224,0,0,0.015190972222222224,0,0)" xlink:href="#x"/><use transform="matrix(0.015190972222222224,0,0,0.015190972222222224,18.138020833333336,0)" xlink:href="#y"/><use transform="matrix(0.015190972222222224,0,0,0.015190972222222224,35.121527777777786,0)" xlink:href="#F"/><use transform="matrix(0.015190972222222224,0,0,0.015190972222222224,54.3381076388889,0)" xlink:href="#G"/></g><g id="h"><use transform="matrix(0.015190972222222224,0,0,0.015190972222222224,0,0)" xlink:href="#v"/><use transform="matrix(0.015190972222222224,0,0,0.015190972222222224,27.252604166666668,0)" xlink:href="#z"/><use transform="matrix(0.015190972222222224,0,0,0.015190972222222224,46.22612847222223,0)" xlink:href="#G"/></g><path fill="#3a414a" d="M120-303v-155l652-1032h231v1020h202v167h-202V0H821v-303H120zm702-167v-782h-12L323-482v12h499" id="H"/><g id="i"><use transform="matrix(0.015190972222222224,0,0,0.015190972222222224,0,0)" xlink:href="#x"/><use transform="matrix(0.015190972222222224,0,0,0.015190972222222224,18.138020833333336,0)" xlink:href="#y"/><use transform="matrix(0.015190972222222224,0,0,0.015190972222222224,35.121527777777786,0)" xlink:href="#H"/></g><g id="j"><use transform="matrix(0.015190972222222224,0,0,0.015190972222222224,0,0)" xlink:href="#v"/><use transform="matrix(0.015190972222222224,0,0,0.015190972222222224,27.252604166666668,0)" xlink:href="#F"/></g><g id="k"><use transform="matrix(0.015190972222222224,0,0,0.015190972222222224,0,0)" xlink:href="#x"/><use transform="matrix(0.015190972222222224,0,0,0.015190972222222224,18.138020833333336,0)" xlink:href="#y"/><use transform="matrix(0.015190972222222224,0,0,0.015190972222222224,35.121527777777786,0)" xlink:href="#H"/><use transform="matrix(0.015190972222222224,0,0,0.015190972222222224,55.219184027777786,0)" xlink:href="#G"/></g><g id="l"><use transform="matrix(0.015190972222222224,0,0,0.015190972222222224,0,0)" xlink:href="#v"/><use transform="matrix(0.015190972222222224,0,0,0.015190972222222224,27.252604166666668,0)" xlink:href="#F"/><use transform="matrix(0.015190972222222224,0,0,0.015190972222222224,46.469184027777786,0)" xlink:href="#G"/></g><path fill="#3a414a" d="M626 20c-262 0-458-168-468-396h184c12 133 134 229 284 229 180 0 311-137 311-326 0-192-136-335-323-335-92 0-196 33-255 78l-178-22 88-738h784v167H429l-51 435h8c61-51 160-87 263-87 273 0 474 211 474 499 0 286-210 496-497 496" id="I"/><g id="m"><use transform="matrix(0.015190972222222224,0,0,0.015190972222222224,0,0)" xlink:href="#x"/><use transform="matrix(0.015190972222222224,0,0,0.015190972222222224,18.138020833333336,0)" xlink:href="#y"/><use transform="matrix(0.015190972222222224,0,0,0.015190972222222224,35.121527777777786,0)" xlink:href="#I"/></g><g id="n"><use transform="matrix(0.015190972222222224,0,0,0.015190972222222224,0,0)" xlink:href="#v"/><use transform="matrix(0.015190972222222224,0,0,0.015190972222222224,27.252604166666668,0)" xlink:href="#H"/></g><path fill="#3a414a" d="M338-1490V0H158v-1490h180" id="J"/><g id="o"><use transform="matrix(0.015190972222222224,0,0,0.015190972222222224,0,0)" xlink:href="#J"/><use transform="matrix(0.015190972222222224,0,0,0.015190972222222224,7.990451388888889,0)" xlink:href="#B"/></g><path fill="#3a414a" d="M226-283v-166h904v166H226zm0-434v-166h904v166H226" id="K"/><use transform="matrix(0.015190972222222224,0,0,0.015190972222222224,0,0)" xlink:href="#K" id="p"/><path fill="#3a414a" d="M646 20c-332 0-524-278-524-764 0-483 194-766 524-766s524 283 524 766c0 485-191 764-524 764zm0-166c218 0 341-220 341-598 0-380-123-601-341-601s-341 222-341 601c0 378 123 598 341 598" id="L"/><g id="q"><use transform="matrix(0.015190972222222224,0,0,0.015190972222222224,0,0)" xlink:href="#w"/><use transform="matrix(0.015190972222222224,0,0,0.015190972222222224,12.654079861111112,0)" xlink:href="#L"/><use transform="matrix(0.015190972222222224,0,0,0.015190972222222224,32.28081597222223,0)" xlink:href="#F"/></g><g id="r"><use transform="matrix(0.015190972222222224,0,0,0.015190972222222224,0,0)" xlink:href="#w"/><use transform="matrix(0.015190972222222224,0,0,0.015190972222222224,12.654079861111112,0)" xlink:href="#L"/><use transform="matrix(0.015190972222222224,0,0,0.015190972222222224,32.28081597222223,0)" xlink:href="#w"/></g><g id="s"><use transform="matrix(0.015190972222222224,0,0,0.015190972222222224,0,0)" xlink:href="#w"/><use transform="matrix(0.015190972222222224,0,0,0.015190972222222224,12.654079861111112,0)" xlink:href="#L"/><use transform="matrix(0.015190972222222224,0,0,0.015190972222222224,32.28081597222223,0)" xlink:href="#z"/></g><g id="t"><use transform="matrix(0.015190972222222224,0,0,0.015190972222222224,0,0)" xlink:href="#w"/><use transform="matrix(0.015190972222222224,0,0,0.015190972222222224,12.654079861111112,0)" xlink:href="#L"/><use transform="matrix(0.015190972222222224,0,0,0.015190972222222224,32.28081597222223,0)" xlink:href="#H"/></g><g id="u"><use transform="matrix(0.015190972222222224,0,0,0.015190972222222224,0,0)" xlink:href="#w"/><use transform="matrix(0.015190972222222224,0,0,0.015190972222222224,12.654079861111112,0)" xlink:href="#L"/><use transform="matrix(0.015190972222222224,0,0,0.015190972222222224,32.28081597222223,0)" xlink:href="#I"/></g></defs></g></svg>