<svg xmlns="http://www.w3.org/2000/svg" xmlns:xlink="http://www.w3.org/1999/xlink" xmlns:lucid="lucid" width="1100.63" height="303.28"><g transform="translate(1 201)" lucid:page-tab-id="2OJXW9C82kGP"><path d="M538.63-160c0 22.1-17.9 40-40 40s-40-17.9-40-40 17.9-40 40-40 40 17.9 40 40z" stroke="#3a414a" stroke-width="2" fill-opacity="0"/><use xlink:href="#a" transform="matrix(1,0,0,1,463.62913194444445,-195) translate(11.816406249999996 45.520833333333336)"/><path d="M818.63-160c0 22.1-17.9 40-40 40s-40-17.9-40-40 17.9-40 40-40 40 17.9 40 40z" stroke="#3a414a" stroke-width="2" fill-opacity="0"/><use xlink:href="#b" transform="matrix(1,0,0,1,743.6291319444445,-195) translate(7.7148437499999964 45.520833333333336)"/><path d="M614.82-159.03h-74.2v-1.94h74.2zm106.82 0h-59.2v-1.94h59.2z" stroke="#3a414a" stroke-width=".05" fill="#3a414a"/><path d="M540.65-159.03h-1.08l.06-.96-.03-.97h1.05z" fill="#3a414a"/><path stroke="#3a414a" stroke-width=".05" fill="#3a414a"/><path d="M735.63-160l-13 7.5v-15z" fill="#3a414a"/><path d="M737.58-160l-15.92 9.2v-18.4zm-13.97 5.8l10.08-5.8-10.07-5.8z" stroke="#3a414a" stroke-width=".05" fill="#3a414a"/><use xlink:href="#c" transform="matrix(1,0,0,1,614.8205381944445,-176.1328125) translate(0 25.833333333333336)"/><path d="M1098.63-160c0 22.1-17.9 40-40 40s-40-17.9-40-40 17.9-40 40-40 40 17.9 40 40z" stroke="#3a414a" stroke-width="2" fill-opacity="0"/><use xlink:href="#d" transform="matrix(1,0,0,1,1023.6291319444445,-195) translate(7.337239583333332 45.520833333333336)"/><path d="M894.72-159.03h-74.1v-1.94h74.1zm106.92 0h-59.1v-1.94h59.1z" stroke="#3a414a" stroke-width=".05" fill="#3a414a"/><path d="M820.65-159.03h-1.08l.06-.96-.03-.97h1.05z" fill="#3a414a"/><path stroke="#3a414a" stroke-width=".05" fill="#3a414a"/><path d="M1015.63-160l-13 7.5v-15z" fill="#3a414a"/><path d="M1017.58-160l-15.92 9.2v-18.4zm-13.97 5.8l10.08-5.8-10.07-5.8z" stroke="#3a414a" stroke-width=".05" fill="#3a414a"/><use xlink:href="#e" transform="matrix(1,0,0,1,894.7163715277778,-176.1328125) translate(0 25.833333333333336)"/><path d="M538.63 40c0 22.1-17.9 40-40 40s-40-17.9-40-40 17.9-40 40-40 40 17.9 40 40z" stroke="#3a414a" stroke-width="2" fill-opacity="0"/><use xlink:href="#f" transform="matrix(1,0,0,1,463.62913194444445,5) translate(11.712239583333329 45.520833333333336)"/><path d="M818.63 40c0 22.1-17.9 40-40 40s-40-17.9-40-40 17.9-40 40-40 40 17.9 40 40z" stroke="#3a414a" stroke-width="2" fill-opacity="0"/><use xlink:href="#g" transform="matrix(1,0,0,1,743.6291319444445,5) translate(11.334635416666664 45.520833333333336)"/><path d="M618.7 40.98h-78.07v-1.95h78.08zm102.94 0h-63.1v-1.95h63.1z" stroke="#3a414a" stroke-width=".05" fill="#3a414a"/><path d="M540.65 40.98h-1.08l.06-.97-.03-.98h1.05z" fill="#3a414a"/><path stroke="#3a414a" stroke-width=".05" fill="#3a414a"/><path d="M735.63 40l-13 7.5v-15z" fill="#3a414a"/><path d="M737.58 40l-15.92 9.2V30.8zm-13.97 5.8L733.7 40l-10.07-5.8z" stroke="#3a414a" stroke-width=".05" fill="#3a414a"/><use xlink:href="#h" transform="matrix(1,0,0,1,618.7137673611111,23.8671875) translate(0 25.833333333333336)"/><path d="M1098.63 40c0 22.1-17.9 40-40 40s-40-17.9-40-40 17.9-40 40-40 40 17.9 40 40z" stroke="#3a414a" stroke-width="2" fill-opacity="0"/><use xlink:href="#i" transform="matrix(1,0,0,1,1023.6291319444445,5) translate(11.842447916666664 45.520833333333336)"/><path d="M898.34 40.98h-77.7v-1.95h77.7zm103.3 0h-62.72v-1.95h62.72z" stroke="#3a414a" stroke-width=".05" fill="#3a414a"/><path d="M820.65 40.98h-1.08l.06-.97-.03-.98h1.05z" fill="#3a414a"/><path stroke="#3a414a" stroke-width=".05" fill="#3a414a"/><path d="M1015.63 40l-13 7.5v-15z" fill="#3a414a"/><path d="M1017.58 40l-15.92 9.2V30.8zm-13.97 5.8l10.08-5.8-10.07-5.8z" stroke="#3a414a" stroke-width=".05" fill="#3a414a"/><use xlink:href="#j" transform="matrix(1,0,0,1,898.3361631944445,23.8671875) translate(0 25.833333333333336)"/><path d="M240-60c0 22.1-17.9 40-40 40s-40-17.9-40-40 17.9-40 40-40 40 17.9 40 40z" stroke="#3a414a" stroke-width="2" fill-opacity="0"/><use xlink:href="#k" transform="matrix(1,0,0,1,165,-95) translate(14.524739583333329 45.520833333333336)"/><path d="M349.03-159.03h-62l-.8.07-.78.18-.73.3-.67.42-.6.5-.5.6-.42.68-.3.73-.2.76-.05.84v88l-.1 1.05-.24 1.06-.42 1-.57.94-.7.83-.85.72-.93.57-1 .42-1.08.25-1.06.08H242v-1.95h32.96l.83-.07.75-.18.73-.3.67-.42.6-.5.5-.6.43-.68.3-.73.18-.76.07-.84v-88l.08-1.05.26-1.06.42-1 .58-.94.7-.83.84-.72.93-.57 1-.42 1.08-.25 1.06-.07h62.07zm92.6 0H382.2v-1.94h59.46z" stroke="#3a414a" stroke-width=".05" fill="#3a414a"/><path d="M242.03-59.02h-1.1L241-60l-.03-.98h1.06z" fill="#3a414a"/><path stroke="#3a414a" stroke-width=".05" fill="#3a414a"/><path d="M455.63-160l-13 7.5v-15z" fill="#3a414a"/><path d="M457.58-160l-15.92 9.2v-18.4zm-13.97 5.8l10.08-5.8-10.07-5.8z" stroke="#3a414a" stroke-width=".05" fill="#3a414a"/><use xlink:href="#l" transform="matrix(1,0,0,1,349.0324247599768,-176.1328125) translate(0 25.833333333333336)"/><path d="M276.1-60.9l1.06.26 1 .42.94.57.83.72.72.83.57.93.42 1 .25 1.08.08 1.06v88l.06.83.18.75.3.73.42.67.5.6.6.5.68.43.73.3.76.18.84.06h62.72v1.95h-62.8l-1.05-.08-1.06-.26-1-.42-.94-.57-.83-.72-.7-.83-.6-.93-.4-1-.26-1.08-.07-1.06v-88l-.07-.83-.18-.75-.3-.73-.42-.67-.5-.6-.6-.5-.68-.43-.73-.3-.76-.18-.84-.06H242v-1.95h33.04zm165.54 99.92v1.95h-52.26v-1.95z" stroke="#3a414a" stroke-width=".05" fill="#3a414a"/><path d="M242.03-59.02h-1.1L241-60l-.03-.98h1.06z" fill="#3a414a"/><path stroke="#3a414a" stroke-width=".05" fill="#3a414a"/><path d="M455.63 40l-13 7.5v-15z" fill="#3a414a"/><path d="M457.58 40l-15.92 9.2V30.8zm-13.97 5.8L453.7 40l-10.07-5.8z" stroke="#3a414a" stroke-width=".05" fill="#3a414a"/><use xlink:href="#m" transform="matrix(1,0,0,1,349.75871945955527,23.8671875) translate(0 25.833333333333336)"/><path d="M29.43-59.02H1v-1.95h28.43zm113.58 0h-40.86v-1.95H143z" stroke="#3a414a" stroke-width=".05" fill="#3a414a"/><path d="M1.03-59.02H0v-1.95h1.03z" stroke="#3a414a" stroke-width=".05" fill="#3a414a"/><path d="M157-60l-13 7.5v-15z" fill="#3a414a"/><path d="M158.95-60l-15.92 9.2v-18.4zm-13.97 5.8l10.07-5.8-10.07-5.8z" stroke="#3a414a" stroke-width=".05" fill="#3a414a"/><use xlink:href="#n" transform="matrix(1,0,0,1,29.43106814289908,-76.1328125) translate(0 25.833333333333336)"/><path d="M320-136.28a6 6 0 0 1 6-6h90.16a6 6 0 0 1 6 6V-106a6 6 0 0 1-6 6H326a6 6 0 0 1-6-6z" fill="none"/><use xlink:href="#o" transform="matrix(1,0,0,1,325,-137.275625) translate(0 26.200520833333336)"/><use xlink:href="#p" transform="matrix(1,0,0,1,325,-137.275625) translate(23.072916666666668 26.200520833333336)"/><use xlink:href="#q" transform="matrix(1,0,0,1,325,-137.275625) translate(48.216145833333336 26.200520833333336)"/><path d="M320 66a6 6 0 0 1 6-6h90.37a6 6 0 0 1 6 6v30.28a6 6 0 0 1-6 6H326a6 6 0 0 1-6-6z" fill="none"/><use xlink:href="#o" transform="matrix(1,0,0,1,325,65) translate(0 26.200520833333336)"/><use xlink:href="#p" transform="matrix(1,0,0,1,325,65) translate(23.072916666666668 26.200520833333336)"/><use xlink:href="#r" transform="matrix(1,0,0,1,325,65) translate(48.216145833333336 26.200520833333336)"/><path d="M587.58 66a6 6 0 0 1 6-6h90.1a6 6 0 0 1 6 6v30.28a6 6 0 0 1-6 6h-90.1a6 6 0 0 1-6-6z" fill="none"/><use xlink:href="#o" transform="matrix(1,0,0,1,592.5759548611111,65) translate(0 26.200520833333336)"/><use xlink:href="#p" transform="matrix(1,0,0,1,592.5759548611111,65) translate(23.072916666666668 26.200520833333336)"/><use xlink:href="#s" transform="matrix(1,0,0,1,592.5759548611111,65) translate(48.216145833333336 26.200520833333336)"/><path d="M868.4 66a6 6 0 0 1 6-6h88.46a6 6 0 0 1 6 6v30.28a6 6 0 0 1-6 6H874.4a6 6 0 0 1-6-6z" fill="none"/><g><use xlink:href="#o" transform="matrix(1,0,0,1,873.3962673611111,65) translate(0 26.200520833333336)"/><use xlink:href="#p" transform="matrix(1,0,0,1,873.3962673611111,65) translate(23.072916666666668 26.200520833333336)"/><use xlink:href="#t" transform="matrix(1,0,0,1,873.3962673611111,65) translate(48.216145833333336 26.200520833333336)"/></g><path d="M587.52-136.28a6 6 0 0 1 6-6h91.13a6 6 0 0 1 6 6V-106a6 6 0 0 1-6 6h-91.13a6 6 0 0 1-6-6z" fill="none"/><g><use xlink:href="#o" transform="matrix(1,0,0,1,592.5238715277778,-137.275625) translate(0 26.200520833333336)"/><use xlink:href="#p" transform="matrix(1,0,0,1,592.5238715277778,-137.275625) translate(23.072916666666668 26.200520833333336)"/><use xlink:href="#u" transform="matrix(1,0,0,1,592.5238715277778,-137.275625) translate(48.216145833333336 26.200520833333336)"/></g><path d="M867.4-136.28a6 6 0 0 1 6-6h90.45a6 6 0 0 1 6 6V-106a6 6 0 0 1-6 6H873.4a6 6 0 0 1-6-6z" fill="none"/><g><use xlink:href="#o" transform="matrix(1,0,0,1,872.4131944444445,-137.275625) translate(0 26.200520833333336)"/><use xlink:href="#p" transform="matrix(1,0,0,1,872.4131944444445,-137.275625) translate(23.072916666666668 26.200520833333336)"/><use xlink:href="#v" transform="matrix(1,0,0,1,872.4131944444445,-137.275625) translate(48.216145833333336 26.200520833333336)"/></g><defs><path fill="#3a414a" d="M98-1322v-168h1126v168H757V0H567v-1322H98" id="w"/><path fill="#3a414a" d="M65 0l393-574-370-544h210c88 136 192 297 267 435 67-142 176-302 264-435h206L661-564 1053 0H844c-94-144-206-310-287-458C484-308 366-142 273 0H65" id="x"/><path fill="#3a414a" d="M154 0v-137l495-537c165-179 249-281 249-418 0-156-121-253-280-253-170 0-278 110-278 278H158c0-264 200-443 465-443 266 0 455 183 455 416 0 161-73 288-336 568L416-179v12h687V0H154" id="y"/><g id="a"><use transform="matrix(0.013020833333333334,0,0,0.013020833333333334,0,0)" xlink:href="#w"/><use transform="matrix(0.013020833333333334,0,0,0.013020833333333334,15.546875,0)" xlink:href="#x"/><use transform="matrix(0.013020833333333334,0,0,0.013020833333333334,30.104166666666675,0)" xlink:href="#y"/></g><path fill="#3a414a" d="M635 20c-292 0-500-160-510-396h192c11 142 145 229 315 229 187 0 323-105 323-260 0-161-125-274-346-274H488v-165h121c174 0 294-100 294-254 0-148-104-245-266-245-152 0-291 85-297 230H157c8-234 222-395 484-395 278 0 448 188 448 400 0 168-95 291-247 336v12c190 31 301 169 301 357 0 244-216 425-508 425" id="z"/><path fill="#3a414a" d="M232-923l-22-567h194l-22 567H232" id="A"/><g id="b"><use transform="matrix(0.013020833333333334,0,0,0.013020833333333334,0,0)" xlink:href="#w"/><use transform="matrix(0.013020833333333334,0,0,0.013020833333333334,15.546875,0)" xlink:href="#x"/><use transform="matrix(0.013020833333333334,0,0,0.013020833333333334,30.104166666666675,0)" xlink:href="#z"/><use transform="matrix(0.013020833333333334,0,0,0.013020833333333334,46.57552083333334,0)" xlink:href="#A"/></g><path fill="#3a414a" d="M158 0v-1118h175l1 205c55-151 181-225 313-225 147 0 245 90 285 228 53-141 190-228 352-228 194 0 352 125 352 384V0h-181v-749c0-161-105-225-225-225-151 0-243 103-243 244V0H807v-767c0-124-93-207-219-207-131 0-250 92-250 270V0H158" id="B"/><g id="c"><use transform="matrix(0.013020833333333334,0,0,0.013020833333333334,0,0)" xlink:href="#B"/><use transform="matrix(0.013020833333333334,0,0,0.013020833333333334,23.359375,0)" xlink:href="#y"/><use transform="matrix(0.013020833333333334,0,0,0.013020833333333334,39.622395833333336,0)" xlink:href="#A"/></g><path fill="#3a414a" d="M120-303v-155l652-1032h231v1020h202v167h-202V0H821v-303H120zm702-167v-782h-12L323-482v12h499" id="C"/><g id="d"><use transform="matrix(0.013020833333333334,0,0,0.013020833333333334,0,0)" xlink:href="#w"/><use transform="matrix(0.013020833333333334,0,0,0.013020833333333334,15.546875,0)" xlink:href="#x"/><use transform="matrix(0.013020833333333334,0,0,0.013020833333333334,30.104166666666675,0)" xlink:href="#C"/><use transform="matrix(0.013020833333333334,0,0,0.013020833333333334,47.33072916666667,0)" xlink:href="#A"/></g><g id="e"><use transform="matrix(0.013020833333333334,0,0,0.013020833333333334,0,0)" xlink:href="#B"/><use transform="matrix(0.013020833333333334,0,0,0.013020833333333334,23.359375,0)" xlink:href="#z"/><use transform="matrix(0.013020833333333334,0,0,0.013020833333333334,39.83072916666667,0)" xlink:href="#A"/></g><g id="f"><use transform="matrix(0.013020833333333334,0,0,0.013020833333333334,0,0)" xlink:href="#w"/><use transform="matrix(0.013020833333333334,0,0,0.013020833333333334,15.546875,0)" xlink:href="#x"/><use transform="matrix(0.013020833333333334,0,0,0.013020833333333334,30.104166666666675,0)" xlink:href="#z"/></g><g id="g"><use transform="matrix(0.013020833333333334,0,0,0.013020833333333334,0,0)" xlink:href="#w"/><use transform="matrix(0.013020833333333334,0,0,0.013020833333333334,15.546875,0)" xlink:href="#x"/><use transform="matrix(0.013020833333333334,0,0,0.013020833333333334,30.104166666666675,0)" xlink:href="#C"/></g><g id="h"><use transform="matrix(0.013020833333333334,0,0,0.013020833333333334,0,0)" xlink:href="#B"/><use transform="matrix(0.013020833333333334,0,0,0.013020833333333334,23.359375,0)" xlink:href="#z"/></g><path fill="#3a414a" d="M626 20c-262 0-458-168-468-396h184c12 133 134 229 284 229 180 0 311-137 311-326 0-192-136-335-323-335-92 0-196 33-255 78l-178-22 88-738h784v167H429l-51 435h8c61-51 160-87 263-87 273 0 474 211 474 499 0 286-210 496-497 496" id="D"/><g id="i"><use transform="matrix(0.013020833333333334,0,0,0.013020833333333334,0,0)" xlink:href="#w"/><use transform="matrix(0.013020833333333334,0,0,0.013020833333333334,15.546875,0)" xlink:href="#x"/><use transform="matrix(0.013020833333333334,0,0,0.013020833333333334,30.104166666666675,0)" xlink:href="#D"/></g><g id="j"><use transform="matrix(0.013020833333333334,0,0,0.013020833333333334,0,0)" xlink:href="#B"/><use transform="matrix(0.013020833333333334,0,0,0.013020833333333334,23.359375,0)" xlink:href="#C"/></g><path fill="#3a414a" d="M653-1490V0H466v-1314h-10L96-1047v-204l324-239h233" id="E"/><g id="k"><use transform="matrix(0.013020833333333334,0,0,0.013020833333333334,0,0)" xlink:href="#w"/><use transform="matrix(0.013020833333333334,0,0,0.013020833333333334,15.546875,0)" xlink:href="#x"/><use transform="matrix(0.013020833333333334,0,0,0.013020833333333334,30.104166666666675,0)" xlink:href="#E"/></g><g id="l"><use transform="matrix(0.013020833333333334,0,0,0.013020833333333334,0,0)" xlink:href="#B"/><use transform="matrix(0.013020833333333334,0,0,0.013020833333333334,22.3046875,0)" xlink:href="#E"/></g><g id="m"><use transform="matrix(0.013020833333333334,0,0,0.013020833333333334,0,0)" xlink:href="#B"/><use transform="matrix(0.013020833333333334,0,0,0.013020833333333334,23.359375,0)" xlink:href="#y"/></g><path fill="#3a414a" d="M628 24c-324 0-524-230-524-574 0-343 198-582 503-582 237 0 487 146 487 559v75H286c9 234 145 362 343 362 132 0 231-58 273-172l174 48C1024-91 857 24 628 24zM287-650h624c-17-190-120-322-304-322-192 0-309 151-320 322" id="F"/><path fill="#3a414a" d="M598-1118v154H368v674c0 100 37 144 132 144 23 0 62-6 92-12L629-6c-37 13-88 20-134 20-193 0-307-107-307-290v-688H20v-154h168v-266h180v266h230" id="G"/><path fill="#3a414a" d="M798-719v166H144v-166h654" id="H"/><path fill="#3a414a" d="M158 0v-1118h180V0H158zm91-1301c-68 0-125-53-125-119s57-119 125-119c69 0 126 53 126 119s-57 119-126 119" id="I"/><path fill="#3a414a" d="M338-670V0H158v-1118h173l1 207c72-158 192-221 342-221 226 0 378 139 378 422V0H872v-695c0-172-96-275-252-275-161 0-282 109-282 300" id="J"/><g id="n"><use transform="matrix(0.013020833333333334,0,0,0.013020833333333334,0,0)" xlink:href="#F"/><use transform="matrix(0.013020833333333334,0,0,0.013020833333333334,14.947916666666668,0)" xlink:href="#x"/><use transform="matrix(0.013020833333333334,0,0,0.013020833333333334,30.026041666666668,0)" xlink:href="#G"/><use transform="matrix(0.013020833333333334,0,0,0.013020833333333334,38.22916666666667,0)" xlink:href="#H"/><use transform="matrix(0.013020833333333334,0,0,0.013020833333333334,50.49479166666667,0)" xlink:href="#I"/><use transform="matrix(0.013020833333333334,0,0,0.013020833333333334,56.953125,0)" xlink:href="#J"/></g><path fill="#3a414a" d="M338-1490V0H158v-1490h180" id="K"/><g id="o"><use transform="matrix(0.013020833333333334,0,0,0.013020833333333334,0,0)" xlink:href="#K"/><use transform="matrix(0.013020833333333334,0,0,0.013020833333333334,6.848958333333334,0)" xlink:href="#G"/></g><path fill="#3a414a" d="M226-283v-166h904v166H226zm0-434v-166h904v166H226" id="L"/><use transform="matrix(0.013020833333333334,0,0,0.013020833333333334,0,0)" xlink:href="#L" id="p"/><path fill="#3a414a" d="M646 20c-332 0-524-278-524-764 0-483 194-766 524-766s524 283 524 766c0 485-191 764-524 764zm0-166c218 0 341-220 341-598 0-380-123-601-341-601s-341 222-341 601c0 378 123 598 341 598" id="M"/><g id="q"><use transform="matrix(0.013020833333333334,0,0,0.013020833333333334,0,0)" xlink:href="#E"/><use transform="matrix(0.013020833333333334,0,0,0.013020833333333334,10.846354166666668,0)" xlink:href="#M"/><use transform="matrix(0.013020833333333334,0,0,0.013020833333333334,27.669270833333336,0)" xlink:href="#y"/></g><g id="r"><use transform="matrix(0.013020833333333334,0,0,0.013020833333333334,0,0)" xlink:href="#E"/><use transform="matrix(0.013020833333333334,0,0,0.013020833333333334,10.846354166666668,0)" xlink:href="#M"/><use transform="matrix(0.013020833333333334,0,0,0.013020833333333334,27.669270833333336,0)" xlink:href="#z"/></g><g id="s"><use transform="matrix(0.013020833333333334,0,0,0.013020833333333334,0,0)" xlink:href="#E"/><use transform="matrix(0.013020833333333334,0,0,0.013020833333333334,10.846354166666668,0)" xlink:href="#M"/><use transform="matrix(0.013020833333333334,0,0,0.013020833333333334,27.669270833333336,0)" xlink:href="#D"/></g><path fill="#3a414a" d="M200 0l662-1311v-12H98v-167h963v177L400 0H200" id="N"/><g id="t"><use transform="matrix(0.013020833333333334,0,0,0.013020833333333334,0,0)" xlink:href="#E"/><use transform="matrix(0.013020833333333334,0,0,0.013020833333333334,10.846354166666668,0)" xlink:href="#M"/><use transform="matrix(0.013020833333333334,0,0,0.013020833333333334,27.1484375,0)" xlink:href="#N"/></g><g id="u"><use transform="matrix(0.013020833333333334,0,0,0.013020833333333334,0,0)" xlink:href="#E"/><use transform="matrix(0.013020833333333334,0,0,0.013020833333333334,10.846354166666668,0)" xlink:href="#M"/><use transform="matrix(0.013020833333333334,0,0,0.013020833333333334,27.669270833333336,0)" xlink:href="#C"/></g><path fill="#3a414a" d="M646 20c-249 0-524-159-524-708 0-524 209-822 547-822 250 0 431 161 467 395H950c-33-129-126-227-281-227-229 0-367 208-367 566h12c80-124 212-198 367-198 255 0 467 205 467 493 0 278-198 501-502 501zm0-167c179 0 318-148 318-334 0-182-133-328-313-328-181 0-322 156-322 330 0 176 134 332 317 332" id="O"/><g id="v"><use transform="matrix(0.013020833333333334,0,0,0.013020833333333334,0,0)" xlink:href="#E"/><use transform="matrix(0.013020833333333334,0,0,0.013020833333333334,10.846354166666668,0)" xlink:href="#M"/><use transform="matrix(0.013020833333333334,0,0,0.013020833333333334,27.669270833333336,0)" xlink:href="#O"/></g></defs></g></svg>