<svg xmlns="http://www.w3.org/2000/svg" xmlns:xlink="http://www.w3.org/1999/xlink" xmlns:lucid="lucid" width="402" height="82"><g transform="translate(1201 146.66080729166669)" lucid:page-tab-id="0_0"><path d="M-1167.77-104.7H-1199v-1.94h31.23zm77.27 0h-22.73v-1.94h22.73z" stroke="#ced4db" stroke-width=".05" fill="#ced4db"/><path d="M-1198.97-104.7h-1.03v-1.94h1.03z" stroke="#ced4db" stroke-width=".05" fill="#ced4db"/><path d="M-1083-105.66l-6.5 3.75v-7.5z" fill="#ced4db"/><path d="M-1081.05-105.66l-9.42 5.44v-10.88zm-7.47 2.06l3.57-2.06-3.57-2.06z" stroke="#ced4db" stroke-width=".05" fill="#ced4db"/><use xlink:href="#a" transform="matrix(1,0,0,1,-1167.7659368598443,-117.76041666666669) translate(0 19.375)"/><path d="M-952.43-104.7H-998v-1.94h45.57zm61.93 0h-37.07v-1.94h37.07z" stroke="#ced4db" stroke-width=".05" fill="#ced4db"/><path d="M-997.97-104.7h-1.1l.07-.95-.03-1h1.06z" fill="#ced4db"/><path stroke="#ced4db" stroke-width=".05" fill="#ced4db"/><path d="M-883-105.66l-6.5 3.75v-7.5z" fill="#ced4db"/><path d="M-881.05-105.66l-9.42 5.44v-10.88zm-7.47 2.06l3.57-2.06-3.57-2.06z" stroke="#ced4db" stroke-width=".05" fill="#ced4db"/><use xlink:href="#b" transform="matrix(1,0,0,1,-952.431640625,-117.76041666666669) translate(0 19.375)"/><path d="M-1000-105.66c0 22.1-17.9 40-40 40s-40-17.9-40-40 17.9-40 40-40 40 17.9 40 40z" stroke="#ced4db" stroke-width="2" fill-opacity="0"/><use xlink:href="#c" transform="matrix(1,0,0,1,-1075,-140.66080729166669) translate(17.94228298611111 30.27777777777778)"/><use xlink:href="#d" transform="matrix(1,0,0,1,-1075,-140.66080729166669) translate(12.023229166666669 57.165798611111114)"/><path d="M-800-105.66c0 22.1-17.9 40-40 40s-40-17.9-40-40 17.9-40 40-40 40 17.9 40 40z" stroke="#ced4db" stroke-width="2" fill-opacity="0"/><use xlink:href="#e" transform="matrix(1,0,0,1,-875,-140.66080729166669) translate(15.685338541666665 30.27777777777778)"/><use xlink:href="#f" transform="matrix(1,0,0,1,-875,-140.66080729166669) translate(10.080954861111115 57.165798611111114)"/><defs><path fill="#ced4db" d="M628 24c-324 0-524-230-524-574 0-343 198-582 503-582 237 0 487 146 487 559v75H286c9 234 145 362 343 362 132 0 231-58 273-172l174 48C1024-91 857 24 628 24zM287-650h624c-17-190-120-322-304-322-192 0-309 151-320 322" id="g"/><path fill="#ced4db" d="M65 0l393-574-370-544h210c88 136 192 297 267 435 67-142 176-302 264-435h206L661-564 1053 0H844c-94-144-206-310-287-458C484-308 366-142 273 0H65" id="h"/><path fill="#ced4db" d="M598-1118v154H368v674c0 100 37 144 132 144 23 0 62-6 92-12L629-6c-37 13-88 20-134 20-193 0-307-107-307-290v-688H20v-154h168v-266h180v266h230" id="i"/><path fill="#ced4db" d="M798-719v166H144v-166h654" id="j"/><path fill="#ced4db" d="M158 0v-1118h180V0H158zm91-1301c-68 0-125-53-125-119s57-119 125-119c69 0 126 53 126 119s-57 119-126 119" id="k"/><path fill="#ced4db" d="M338-670V0H158v-1118h173l1 207c72-158 192-221 342-221 226 0 378 139 378 422V0H872v-695c0-172-96-275-252-275-161 0-282 109-282 300" id="l"/><g id="a"><use transform="matrix(0.009765625,0,0,0.009765625,0,0)" xlink:href="#g"/><use transform="matrix(0.009765625,0,0,0.009765625,11.2109375,0)" xlink:href="#h"/><use transform="matrix(0.009765625,0,0,0.009765625,22.51953125,0)" xlink:href="#i"/><use transform="matrix(0.009765625,0,0,0.009765625,28.671875,0)" xlink:href="#j"/><use transform="matrix(0.009765625,0,0,0.009765625,37.87109375,0)" xlink:href="#k"/><use transform="matrix(0.009765625,0,0,0.009765625,42.71484375,0)" xlink:href="#l"/></g><path fill="#ced4db" d="M158 0v-1118h175l1 205c55-151 181-225 313-225 147 0 245 90 285 228 53-141 190-228 352-228 194 0 352 125 352 384V0h-181v-749c0-161-105-225-225-225-151 0-243 103-243 244V0H807v-767c0-124-93-207-219-207-131 0-250 92-250 270V0H158" id="m"/><path fill="#ced4db" d="M653-1490V0H466v-1314h-10L96-1047v-204l324-239h233" id="n"/><g id="b"><use transform="matrix(0.009765625,0,0,0.009765625,0,0)" xlink:href="#m"/><use transform="matrix(0.009765625,0,0,0.009765625,16.728515625,0)" xlink:href="#n"/></g><path fill="#ced4db" d="M98-1322v-168h1126v168H757V0H567v-1322H98" id="o"/><g id="c"><use transform="matrix(0.010850694444444444,0,0,0.010850694444444444,0,0)" xlink:href="#o"/><use transform="matrix(0.010850694444444444,0,0,0.010850694444444444,12.955729166666666,0)" xlink:href="#h"/><use transform="matrix(0.010850694444444444,0,0,0.010850694444444444,25.08680555555556,0)" xlink:href="#n"/></g><path fill="#ced4db" d="M218-607c0-325 108-727 258-974h175c-155 315-250 682-250 974 0 265 78 531 250 886H476C306-10 218-315 218-607" id="p"/><path fill="#ced4db" d="M157-1118h181V80c1 225-123 350-364 338V252c126 9 184-48 183-172v-1198zm91-183c-68 0-125-53-125-119s57-119 125-119c69 0 126 53 126 119s-57 119-126 119" id="q"/><path fill="#ced4db" d="M226-283v-166h904v166H226zm0-434v-166h904v166H226" id="r"/><path fill="#ced4db" d="M96 279C273-86 346-350 346-607c0-292-95-659-250-974h175c150 246 258 650 258 974 0 297-91 602-258 886H96" id="s"/><g id="d"><use transform="matrix(0.010850694444444444,0,0,0.010850694444444444,0,0)" xlink:href="#p"/><use transform="matrix(0.010850694444444444,0,0,0.010850694444444444,8.734809027777779,0)" xlink:href="#q"/><use transform="matrix(0.010850694444444444,0,0,0.010850694444444444,14.116753472222225,0)" xlink:href="#r"/><use transform="matrix(0.010850694444444444,0,0,0.010850694444444444,28.819444444444443,0)" xlink:href="#n"/><use transform="matrix(0.010850694444444444,0,0,0.010850694444444444,37.858072916666664,0)" xlink:href="#s"/></g><path fill="#ced4db" d="M154 0v-137l495-537c165-179 249-281 249-418 0-156-121-253-280-253-170 0-278 110-278 278H158c0-264 200-443 465-443 266 0 455 183 455 416 0 161-73 288-336 568L416-179v12h687V0H154" id="t"/><g id="e"><use transform="matrix(0.010850694444444444,0,0,0.010850694444444444,0,0)" xlink:href="#o"/><use transform="matrix(0.010850694444444444,0,0,0.010850694444444444,12.955729166666666,0)" xlink:href="#h"/><use transform="matrix(0.010850694444444444,0,0,0.010850694444444444,25.08680555555556,0)" xlink:href="#t"/></g><g id="f"><use transform="matrix(0.010850694444444444,0,0,0.010850694444444444,0,0)" xlink:href="#p"/><use transform="matrix(0.010850694444444444,0,0,0.010850694444444444,8.10546875,0)" xlink:href="#k"/><use transform="matrix(0.010850694444444444,0,0,0.010850694444444444,13.487413194444445,0)" xlink:href="#r"/><use transform="matrix(0.010850694444444444,0,0,0.010850694444444444,28.190104166666664,0)" xlink:href="#t"/><use transform="matrix(0.010850694444444444,0,0,0.010850694444444444,41.74262152777777,0)" xlink:href="#s"/></g></defs></g></svg>