<svg width="516" height="96" viewBox="0 0 516 96" fill="none" xmlns="http://www.w3.org/2000/svg">
<circle cx="172.695" cy="48.2812" r="46.8281" stroke="#FF3737" stroke-width="1.26562"/>
<circle cx="468.008" cy="48.2812" r="46.8281" stroke="#2F9E44" stroke-width="1.26562"/>
<path d="M125.234 48.0703L118.906 44.4168V51.7239L125.234 48.0703ZM0.78125 48.0703V48.7031H119.539V48.0703V47.4375H0.78125V48.0703Z" fill="#DD31E0"/>
<path d="M420.547 48.0703L414.219 44.4168V51.7239L420.547 48.0703ZM220.156 48.0703V48.7031L414.852 48.7031V48.0703V47.4375L220.156 47.4375V48.0703Z" fill="#FF3737"/>
<path d="M147.789 23.7441V20.5561H166.785V23.7441H159.126V45.1016H155.435V23.7441H147.789ZM170.797 26.6925L174.86 33.8596L178.959 26.6925H182.878L177.137 35.897L182.926 45.1016H179.007L174.86 38.2221L170.725 45.1016H166.794L172.523 35.897L166.866 26.6925H170.797ZM194.81 20.5561V45.1016H191.094V24.2715H190.95L185.078 28.1067V24.5591L191.202 20.5561H194.81Z" fill="#FF3737"/>
<path d="M155.328 56.3487H157.926V70.5642C157.926 71.4563 157.763 72.2094 157.439 72.8234C157.12 73.4375 156.645 73.9038 156.014 74.2224C155.388 74.541 154.615 74.7003 153.694 74.7003C153.601 74.7003 153.514 74.7003 153.433 74.7003C153.346 74.7003 153.257 74.6974 153.164 74.6916V72.4585C153.245 72.4585 153.317 72.4585 153.381 72.4585C153.439 72.4585 153.506 72.4585 153.581 72.4585C154.195 72.4585 154.638 72.2934 154.91 71.9632C155.189 71.6388 155.328 71.1667 155.328 70.5469V56.3487ZM156.614 54.2894C156.162 54.2894 155.774 54.1388 155.449 53.8375C155.131 53.5305 154.971 53.1656 154.971 52.7427C154.971 52.314 155.131 51.9491 155.449 51.6479C155.774 51.3409 156.162 51.1873 156.614 51.1873C157.065 51.1873 157.451 51.3409 157.769 51.6479C158.094 51.9491 158.256 52.314 158.256 52.7427C158.256 53.1656 158.094 53.5305 157.769 53.8375C157.451 54.1388 157.065 54.2894 156.614 54.2894ZM167.262 59.2596V56.983H178.393V59.2596H167.262ZM167.262 64.6121V62.3356H178.393V64.6121H167.262ZM188.708 51.8999V69.6953H186.014V54.5935H185.91L181.652 57.374V54.802L186.092 51.8999H188.708Z" fill="#FF3737"/>
<path d="M451.79 69.6953V56.3487H454.388V69.6953H451.79ZM453.102 54.2894C452.651 54.2894 452.262 54.1388 451.938 53.8375C451.619 53.5305 451.46 53.1656 451.46 52.7427C451.46 52.314 451.619 51.9491 451.938 51.6479C452.262 51.3409 452.651 51.1873 453.102 51.1873C453.554 51.1873 453.939 51.3409 454.258 51.6479C454.582 51.9491 454.745 52.314 454.745 52.7427C454.745 53.1656 454.582 53.5305 454.258 53.8375C453.939 54.1388 453.554 54.2894 453.102 54.2894ZM457.984 61.1538V58.8686H469.115V61.1538H457.984ZM457.984 66.5064V64.2211H469.115V66.5064H457.984ZM472.677 69.6953V67.7489L478.699 61.5101C479.342 60.8323 479.872 60.2386 480.289 59.7288C480.712 59.2133 481.028 58.7238 481.236 58.2603C481.445 57.7969 481.549 57.3045 481.549 56.7832C481.549 56.1923 481.41 55.6825 481.132 55.2539C480.854 54.8194 480.474 54.4863 479.994 54.2546C479.513 54.0171 478.971 53.8984 478.369 53.8984C477.732 53.8984 477.175 54.0287 476.7 54.2894C476.225 54.5501 475.86 54.9179 475.606 55.3929C475.351 55.8679 475.223 56.424 475.223 57.0612H472.66C472.66 55.978 472.909 55.0309 473.407 54.2199C473.905 53.4089 474.589 52.7804 475.458 52.3343C476.327 51.8825 477.314 51.6566 478.421 51.6566C479.539 51.6566 480.524 51.8796 481.375 52.3256C482.233 52.7659 482.902 53.3683 483.382 54.133C483.863 54.8918 484.104 55.7492 484.104 56.705C484.104 57.3654 483.979 58.0113 483.73 58.6427C483.487 59.2741 483.061 59.9779 482.453 60.7541C481.844 61.5246 480.999 62.4601 479.915 63.5607L476.379 67.2623V67.3927H484.39V69.6953H472.677Z" fill="#2F9E44"/>
<path d="M29.0442 34.1919C27.2304 34.1919 25.6684 33.8043 24.358 33.0293C23.0556 32.2463 22.0489 31.1476 21.3378 29.7334C20.6346 28.3112 20.2831 26.6452 20.2831 24.7356C20.2831 22.85 20.6346 21.188 21.3378 19.7498C22.0489 18.3116 23.0397 17.189 24.3101 16.382C25.5885 15.575 27.0826 15.1715 28.7925 15.1715C29.8312 15.1715 30.8379 15.3433 31.8127 15.6869C32.7875 16.0305 33.6624 16.5698 34.4375 17.3049C35.2125 18.0399 35.8237 18.9948 36.2712 20.1693C36.7186 21.3358 36.9424 22.7541 36.9424 24.424V25.6944H22.3086V23.0098H33.4307C33.4307 22.0669 33.239 21.232 32.8554 20.5049C32.4719 19.7698 31.9326 19.1905 31.2374 18.767C30.5503 18.3436 29.7433 18.1318 28.8165 18.1318C27.8097 18.1318 26.9308 18.3795 26.1797 18.8749C25.4367 19.3623 24.8614 20.0015 24.4539 20.7925C24.0544 21.5755 23.8546 22.4265 23.8546 23.3453V25.4427C23.8546 26.6732 24.0704 27.7199 24.5018 28.5828C24.9413 29.4458 25.5525 30.1049 26.3355 30.5604C27.1186 31.0078 28.0334 31.2315 29.0801 31.2315C29.7593 31.2315 30.3785 31.1357 30.9378 30.9439C31.4971 30.7441 31.9805 30.4485 32.388 30.057C32.7955 29.6655 33.1071 29.1821 33.3229 28.6068L36.7146 29.218C36.443 30.2168 35.9556 31.0917 35.2525 31.8428C34.5573 32.5858 33.6824 33.1651 32.6277 33.5806C31.581 33.9881 30.3865 34.1919 29.0442 34.1919ZM42.3059 15.4112L46.3689 22.5783L50.4678 15.4112H54.3869L48.646 24.6158L54.4348 33.8203H50.5157L46.3689 26.9409L42.234 33.8203H38.3029L44.0318 24.6158L38.3748 15.4112H42.3059ZM65.6471 15.4112V18.2876H55.5916V15.4112H65.6471ZM58.2883 11.0007H61.8718V28.415C61.8718 29.1102 61.9757 29.6335 62.1834 29.9851C62.3912 30.3287 62.6588 30.5644 62.9864 30.6922C63.322 30.8121 63.6855 30.872 64.0771 30.872C64.3647 30.872 64.6164 30.852 64.8321 30.8121C65.0479 30.7721 65.2156 30.7401 65.3355 30.7162L65.9827 33.6765C65.7749 33.7564 65.4793 33.8363 65.0958 33.9162C64.7123 34.0041 64.2329 34.052 63.6576 34.06C62.7148 34.076 61.8358 33.9082 61.0209 33.5566C60.2059 33.2051 59.5467 32.6618 59.0433 31.9267C58.54 31.1916 58.2883 30.2687 58.2883 29.1581V11.0007ZM78.819 21.8952V24.9993H67.9365V21.8952H78.819ZM82.5825 33.8203V15.4112H86.1661V33.8203H82.5825ZM84.3923 12.5708C83.769 12.5708 83.2337 12.363 82.7863 11.9475C82.3468 11.5241 82.1271 11.0207 82.1271 10.4374C82.1271 9.84615 82.3468 9.34277 82.7863 8.92729C83.2337 8.50382 83.769 8.29208 84.3923 8.29208C85.0155 8.29208 85.5468 8.50382 85.9863 8.92729C86.4337 9.34277 86.6574 9.84615 86.6574 10.4374C86.6574 11.0207 86.4337 11.5241 85.9863 11.9475C85.5468 12.363 85.0155 12.5708 84.3923 12.5708ZM93.5581 22.8899V33.8203H89.9746V15.4112H93.4143V18.4075H93.642C94.0655 17.4327 94.7286 16.6497 95.6315 16.0584C96.5424 15.4672 97.689 15.1715 99.0712 15.1715C100.326 15.1715 101.424 15.4352 102.367 15.9625C103.31 16.4819 104.041 17.2569 104.56 18.2876C105.08 19.3184 105.339 20.5928 105.339 22.1109V33.8203H101.756V22.5423C101.756 21.208 101.408 20.1653 100.713 19.4142C100.018 18.6552 99.0632 18.2757 97.8488 18.2757C97.0178 18.2757 96.2787 18.4554 95.6315 18.815C94.9923 19.1745 94.4849 19.7019 94.1094 20.397C93.7419 21.0842 93.5581 21.9151 93.5581 22.8899Z" fill="#DD31E0"/>
<path d="M308.435 33.8203V15.4112H311.875V18.4075H312.103C312.486 17.3928 313.113 16.6017 313.984 16.0344C314.855 15.4592 315.898 15.1715 317.112 15.1715C318.343 15.1715 319.374 15.4592 320.205 16.0344C321.044 16.6097 321.663 17.4007 322.062 18.4075H322.254C322.694 17.4247 323.393 16.6417 324.351 16.0584C325.31 15.4672 326.453 15.1715 327.779 15.1715C329.449 15.1715 330.811 15.6949 331.866 16.7416C332.929 17.7883 333.46 19.3663 333.46 21.4757V33.8203H329.877V21.8113C329.877 20.5648 329.537 19.6619 328.858 19.1026C328.179 18.5433 327.368 18.2637 326.425 18.2637C325.258 18.2637 324.351 18.6232 323.704 19.3423C323.057 20.0534 322.733 20.9683 322.733 22.0869V33.8203H319.162V21.5835C319.162 20.5848 318.85 19.7818 318.227 19.1745C317.604 18.5673 316.793 18.2637 315.794 18.2637C315.115 18.2637 314.488 18.4434 313.912 18.803C313.345 19.1546 312.886 19.646 312.534 20.2772C312.191 20.9084 312.019 21.6395 312.019 22.4704V33.8203H308.435ZM345.164 9.27486V33.8203H341.448V12.9902H341.305L335.432 16.8255V13.2779L341.556 9.27486H345.164Z" fill="#FF3737"/>
<path d="M440.939 21.7441V18.5561H459.935V21.7441H452.277V43.1016H448.585V21.7441H440.939ZM463.948 24.6925L468.011 31.8596L472.109 24.6925H476.029L470.288 33.897L476.076 43.1016H472.157L468.011 36.2221L463.876 43.1016H459.945L465.673 33.897L460.016 24.6925H463.948ZM478.648 43.1016V40.4169L486.953 31.8116C487.84 30.8768 488.571 30.0578 489.146 29.3547C489.73 28.6436 490.165 27.9684 490.453 27.3292C490.74 26.69 490.884 26.0108 490.884 25.2917C490.884 24.4767 490.693 23.7736 490.309 23.1824C489.925 22.5831 489.402 22.1237 488.739 21.8041C488.076 21.4765 487.329 21.3127 486.498 21.3127C485.619 21.3127 484.852 21.4925 484.197 21.852C483.541 22.2116 483.038 22.7189 482.686 23.3741C482.335 24.0293 482.159 24.7963 482.159 25.6752H478.624C478.624 24.1811 478.967 22.8747 479.654 21.7561C480.341 20.6375 481.284 19.7706 482.483 19.1554C483.681 18.5321 485.044 18.2205 486.57 18.2205C488.112 18.2205 489.47 18.5281 490.645 19.1434C491.827 19.7506 492.75 20.5816 493.413 21.6363C494.076 22.683 494.408 23.8655 494.408 25.1839C494.408 26.0947 494.236 26.9856 493.893 27.8565C493.557 28.7274 492.97 29.6982 492.131 30.7689C491.292 31.8316 490.125 33.122 488.631 34.6401L483.753 39.7457V39.9255H494.803V43.1016H478.648Z" fill="#2F9E44"/>
</svg>
