<svg xmlns="http://www.w3.org/2000/svg" xmlns:xlink="http://www.w3.org/1999/xlink" xmlns:lucid="lucid" width="881" height="250.49"><g transform="translate(-199.5 -290.0090946702061)" lucid:page-tab-id="2OJXW9C82kGP"><path d="M360 480c0 33.14-35.82 60-80 60s-80-26.86-80-60 35.82-60 80-60 80 26.86 80 60z" stroke="#ced4db" fill-opacity="0"/><use xlink:href="#a" transform="matrix(1,0,0,1,200,420) translate(61.528437499999995 65.97222222222223)"/><path d="M720 480c0 33.14-35.82 60-80 60s-80-26.86-80-60 35.82-60 80-60 80 26.86 80 60z" stroke="#ced4db" fill-opacity="0"/><use xlink:href="#b" transform="matrix(1,0,0,1,560,420) translate(54.17166666666666 54.72222222222222)"/><use xlink:href="#c" transform="matrix(1,0,0,1,560,420) translate(50.53451388888888 76.23263888888889)"/><path d="M1080 480c0 33.14-35.82 60-80 60s-80-26.86-80-60 35.82-60 80-60 80 26.86 80 60z" stroke="#ced4db" fill-opacity="0"/><use xlink:href="#d" transform="matrix(1,0,0,1,920,420) translate(50.24805555555555 54.72222222222222)"/><use xlink:href="#e" transform="matrix(1,0,0,1,920,420) translate(52.94336805555555 76.23263888888889)"/><path d="M428.73 480.48H361v-.96h67.73zm114.4 0h-51.86v-.96h51.85z" stroke="#ced4db" stroke-width=".05" fill="#ced4db"/><path d="M361 480.48h-.5v-.87l.5-.08z" fill="#ced4db"/><path stroke="#ced4db" stroke-width=".05" fill="#ced4db"/><path d="M557.88 480l-14.26 4.63v-9.26z" fill="#ced4db"/><path d="M559.42 480l-16.28 5.3v-10.6zm-15.33 3.98l12.25-3.98-12.26-3.98z" stroke="#ced4db" stroke-width=".05" fill="#ced4db"/><use xlink:href="#f" transform="matrix(1,0,0,1,428.7326388888889,469.2447916666667) translate(0 17.22222222222222)"/><use xlink:href="#g" transform="matrix(1,0,0,1,428.7326388888889,469.2447916666667) translate(17.352430555555557 17.22222222222222)"/><path d="M786.93 480.48H721v-.96h65.93zm116.2 0h-50.06v-.96h50.05z" stroke="#ced4db" stroke-width=".05" fill="#ced4db"/><path d="M721 480.48h-.5v-.87l.5-.08z" fill="#ced4db"/><path stroke="#ced4db" stroke-width=".05" fill="#ced4db"/><path d="M917.88 480l-14.26 4.63v-9.26z" fill="#ced4db"/><path d="M919.42 480l-16.28 5.3v-10.6zm-15.33 3.98l12.25-3.98-12.26-3.98z" stroke="#ced4db" stroke-width=".05" fill="#ced4db"/><use xlink:href="#h" transform="matrix(1,0,0,1,786.9270833333334,469.2447916666667) translate(0 17.22222222222222)"/><use xlink:href="#g" transform="matrix(1,0,0,1,786.9270833333334,469.2447916666667) translate(20.963541666666668 17.22222222222222)"/><path d="M709.1 301.78l40.57 3.18 35.96 4.35 31.1 5.1 26.48 5.46 22.4 5.6 18.88 5.6 15.94 5.45 13.5 5.27 11.5 5.04 9.86 4.83 8.47 4.6 7.33 4.4 6.38 4.17 5.58 4 4.9 3.85 4.3 3.7 3.84 3.54 3.4 3.42 3.02 3.33 2.7 3.23 2.42 3.15 2.17 3.08 1.93 3.03 1.73 2.97 1.55 2.92 1.4 2.9 1.22 2.88 1.08 2.86.94 2.85.68 2.38-.92.26-.66-2.35-.94-2.83-1.06-2.82-1.2-2.84-1.38-2.85-1.53-2.9-1.7-2.93-1.93-2.98-2.14-3.05-2.4-3.13-2.67-3.2-3-3.3-3.38-3.4-3.8-3.52-4.3-3.67-4.85-3.8-5.55-4-6.34-4.16-7.3-4.37-8.44-4.57-9.8-4.8-11.47-5.03-13.48-5.25-15.9-5.44-18.85-5.57-22.35-5.6-26.44-5.48-31.06-5.07-35.93-4.34-40.53-3.17-5.3-.2v-.95zm-131.72 1.53l-3.3.16-42.2 3.75-37.83 4.97-32.8 5.7-27.8 6.04-23.33 6.1-19.45 5.98-16.22 5.73-13.56 5.45-11.4 5.14-9.63 4.82-8.17 4.54-7 4.28-6 4.02-5.18 3.8-4.5 3.62-3.94 3.43-3.44 3.27-3.03 3.13-2.66 3-2.37 2.88-2.1 2.8-1.85 2.7-1.65 2.62-1.46 2.56-.34.66-.84-.43.35-.7 1.48-2.6 1.68-2.65 1.88-2.74 2.12-2.8 2.4-2.92 2.7-3.03 3.05-3.15 3.48-3.3 3.96-3.45 4.55-3.63 5.22-3.83 6.03-4.06 7.02-4.3 8.2-4.56 9.67-4.85 11.4-5.15 13.62-5.46 16.25-5.74 19.5-5.98 23.35-6.1 27.86-6.06 32.83-5.7 37.87-4.97 42.25-3.75 3.36-.16z" stroke="#ced4db" stroke-width=".05" fill="#ced4db"/><path d="M1000.5 419.5h-1l-.1-.37.92-.26z" fill="#ced4db"/><path stroke="#ced4db" stroke-width=".05" fill="#ced4db"/><path d="M289.92 406.26L280.57 418l.67-15z" fill="#ced4db"/><path d="M290.7 406.04l-10.67 13.38.77-17.1zm-9.6 10.5l8.04-10.07-7.45-2.8z" stroke="#ced4db" stroke-width=".05" fill="#ced4db"/><g><use xlink:href="#i" transform="matrix(1,0,0,1,577.3844392109237,290.0090946702061) translate(0 17.22222222222222)"/><use xlink:href="#j" transform="matrix(1,0,0,1,577.3844392109237,290.0090946702061) translate(20.703125 17.22222222222222)"/><use xlink:href="#k" transform="matrix(1,0,0,1,577.3844392109237,290.0090946702061) translate(66.84027777777779 17.22222222222222)"/></g><defs><path fill="#ced4db" d="M537 14c-226 0-379-139-379-422v-710h180v695c0 172 97 275 253 275 160 0 281-109 281-300v-670h181V0H879v-209C806-46 684 14 537 14" id="l"/><path fill="#ced4db" d="M538 24C308 24 148-78 108-271l171-41c32 123 123 178 257 178 156 0 256-77 256-169 0-77-54-128-164-154l-186-44c-203-48-300-148-300-305 0-192 176-326 414-326 230 0 351 112 402 269l-163 42c-31-80-94-158-238-158-133 0-233 69-233 162 0 83 57 129 188 160l169 40c203 48 298 149 298 302 0 196-179 339-441 339" id="m"/><path fill="#ced4db" d="M628 24c-324 0-524-230-524-574 0-343 198-582 503-582 237 0 487 146 487 559v75H286c9 234 145 362 343 362 132 0 231-58 273-172l174 48C1024-91 857 24 628 24zM287-650h624c-17-190-120-322-304-322-192 0-309 151-320 322" id="n"/><path fill="#ced4db" d="M158 0v-1118h174v172h12c41-113 157-188 290-188 26 0 70 2 91 3v181c-11-2-60-10-108-10-161 0-279 109-279 260V0H158" id="o"/><g id="a"><use transform="matrix(0.008680555555555556,0,0,0.008680555555555556,0,0)" xlink:href="#l"/><use transform="matrix(0.008680555555555556,0,0,0.008680555555555556,10.512152777777779,0)" xlink:href="#m"/><use transform="matrix(0.008680555555555556,0,0,0.008680555555555556,19.895833333333336,0)" xlink:href="#n"/><use transform="matrix(0.008680555555555556,0,0,0.008680555555555556,30.26041666666667,0)" xlink:href="#o"/></g><path fill="#ced4db" d="M232-923l-22-567h194l-22 567H232" id="p"/><g id="b"><use transform="matrix(0.008680555555555556,0,0,0.008680555555555556,0,0)" xlink:href="#l"/><use transform="matrix(0.008680555555555556,0,0,0.008680555555555556,10.512152777777779,0)" xlink:href="#m"/><use transform="matrix(0.008680555555555556,0,0,0.008680555555555556,19.895833333333336,0)" xlink:href="#n"/><use transform="matrix(0.008680555555555556,0,0,0.008680555555555556,30.26041666666667,0)" xlink:href="#o"/><use transform="matrix(0.008680555555555556,0,0,0.008680555555555556,36.95312500000001,0)" xlink:href="#p"/><use transform="matrix(0.008680555555555556,0,0,0.008680555555555556,42.28298611111112,0)" xlink:href="#m"/></g><path fill="#ced4db" d="M158 0v-1118h175l1 205c55-151 181-225 313-225 147 0 245 90 285 228 53-141 190-228 352-228 194 0 352 125 352 384V0h-181v-749c0-161-105-225-225-225-151 0-243 103-243 244V0H807v-767c0-124-93-207-219-207-131 0-250 92-250 270V0H158" id="q"/><path fill="#ced4db" d="M471 26C259 26 90-98 90-318c0-256 228-303 435-329 202-27 287-16 287-108 0-139-79-219-234-219-161 0-248 86-283 164l-173-57c86-203 278-265 451-265 150 0 419 46 419 395V0H815v-152h-12C765-73 660 26 471 26zm31-159c199 0 310-134 310-271v-155c-30 35-226 55-295 64-131 17-246 59-246 186 0 116 97 176 231 176" id="r"/><path fill="#ced4db" d="M158 0v-1490h180v865h22l478-493h223L593-638 1096 0H865L456-523 338-412V0H158" id="s"/><g id="c"><use transform="matrix(0.008680555555555556,0,0,0.008680555555555556,0,0)" xlink:href="#q"/><use transform="matrix(0.008680555555555556,0,0,0.008680555555555556,15.572916666666668,0)" xlink:href="#r"/><use transform="matrix(0.008680555555555556,0,0,0.008680555555555556,25.555555555555557,0)" xlink:href="#o"/><use transform="matrix(0.008680555555555556,0,0,0.008680555555555556,32.52604166666667,0)" xlink:href="#s"/><use transform="matrix(0.008680555555555556,0,0,0.008680555555555556,41.88368055555556,0)" xlink:href="#n"/><use transform="matrix(0.008680555555555556,0,0,0.008680555555555556,52.24826388888889,0)" xlink:href="#o"/></g><path fill="#ced4db" d="M158 0v-1118h180V0H158zm91-1301c-68 0-125-53-125-119s57-119 125-119c69 0 126 53 126 119s-57 119-126 119" id="t"/><path fill="#ced4db" d="M577 24c-279 0-473-224-473-580 0-354 195-576 474-576 218 0 287 134 324 193h14v-551h180V0H922v-173h-20C865-111 790 24 577 24zm27-161c203 0 314-172 314-421 0-247-108-413-314-413-212 0-317 181-317 413 0 235 108 421 317 421" id="u"/><path fill="#ced4db" d="M613 24c-304 0-509-231-509-576 0-350 205-580 509-580 305 0 511 230 511 580 0 345-206 576-511 576zm0-161c226 0 329-195 329-415 0-222-103-419-329-419-223 0-326 196-326 419 0 220 103 415 326 415" id="v"/><path fill="#ced4db" d="M158 418v-1536h174v179h20c37-59 106-193 324-193 279 0 474 222 474 576 0 356-194 580-473 580-213 0-288-135-325-197h-14v591H158zm492-555c209 0 317-186 317-421 0-232-105-413-317-413-206 0-314 166-314 413 0 249 111 421 314 421" id="w"/><g id="d"><use transform="matrix(0.008680555555555556,0,0,0.008680555555555556,0,0)" xlink:href="#r"/><use transform="matrix(0.008680555555555556,0,0,0.008680555555555556,9.98263888888889,0)" xlink:href="#t"/><use transform="matrix(0.008680555555555556,0,0,0.008680555555555556,14.288194444444445,0)" xlink:href="#o"/><use transform="matrix(0.008680555555555556,0,0,0.008680555555555556,20.68576388888889,0)" xlink:href="#u"/><use transform="matrix(0.008680555555555556,0,0,0.008680555555555556,31.571180555555557,0)" xlink:href="#o"/><use transform="matrix(0.008680555555555556,0,0,0.008680555555555556,37.96875,0)" xlink:href="#v"/><use transform="matrix(0.008680555555555556,0,0,0.008680555555555556,48.62847222222222,0)" xlink:href="#w"/></g><path fill="#ced4db" d="M338-670V0H158v-1118h173l1 207c72-158 192-221 342-221 226 0 378 139 378 422V0H872v-695c0-172-96-275-252-275-161 0-282 109-282 300" id="x"/><path fill="#ced4db" d="M598-1118v154H368v674c0 100 37 144 132 144 23 0 62-6 92-12L629-6c-37 13-88 20-134 20-193 0-307-107-307-290v-688H20v-154h168v-266h180v266h230" id="y"/><g id="e"><use transform="matrix(0.008680555555555556,0,0,0.008680555555555556,0,0)" xlink:href="#w"/><use transform="matrix(0.008680555555555556,0,0,0.008680555555555556,11.059027777777779,0)" xlink:href="#r"/><use transform="matrix(0.008680555555555556,0,0,0.008680555555555556,21.041666666666668,0)" xlink:href="#o"/><use transform="matrix(0.008680555555555556,0,0,0.008680555555555556,27.43923611111111,0)" xlink:href="#n"/><use transform="matrix(0.008680555555555556,0,0,0.008680555555555556,37.80381944444444,0)" xlink:href="#x"/><use transform="matrix(0.008680555555555556,0,0,0.008680555555555556,48.30729166666667,0)" xlink:href="#y"/></g><path fill="#ced4db" d="M653-1490V0H466v-1314h-10L96-1047v-204l324-239h233" id="z"/><path fill="#ced4db" d="M295 13c-75 0-135-60-135-135s60-135 135-135 135 60 135 135S370 13 295 13" id="A"/><g id="f"><use transform="matrix(0.008680555555555556,0,0,0.008680555555555556,0,0)" xlink:href="#z"/><use transform="matrix(0.008680555555555556,0,0,0.008680555555555556,7.230902777777778,0)" xlink:href="#A"/></g><path fill="#ced4db" d="M678-1118v154H420V0H240v-964H20v-154h220v-149c0-194 155-293 318-293 85 0 141 18 168 30l-50 154c-19-6-47-17-97-17-111 0-159 58-159 166v109h258" id="B"/><g id="g"><use transform="matrix(0.008680555555555556,0,0,0.008680555555555556,0,0)" xlink:href="#w"/><use transform="matrix(0.008680555555555556,0,0,0.008680555555555556,10.885416666666668,0)" xlink:href="#o"/><use transform="matrix(0.008680555555555556,0,0,0.008680555555555556,17.282986111111114,0)" xlink:href="#v"/><use transform="matrix(0.008680555555555556,0,0,0.008680555555555556,27.942708333333336,0)" xlink:href="#v"/><use transform="matrix(0.008680555555555556,0,0,0.008680555555555556,38.60243055555556,0)" xlink:href="#B"/></g><path fill="#ced4db" d="M154 0v-137l495-537c165-179 249-281 249-418 0-156-121-253-280-253-170 0-278 110-278 278H158c0-264 200-443 465-443 266 0 455 183 455 416 0 161-73 288-336 568L416-179v12h687V0H154" id="C"/><g id="h"><use transform="matrix(0.008680555555555556,0,0,0.008680555555555556,0,0)" xlink:href="#C"/><use transform="matrix(0.008680555555555556,0,0,0.008680555555555556,10.84201388888889,0)" xlink:href="#A"/></g><path fill="#ced4db" d="M635 20c-292 0-500-160-510-396h192c11 142 145 229 315 229 187 0 323-105 323-260 0-161-125-274-346-274H488v-165h121c174 0 294-100 294-254 0-148-104-245-266-245-152 0-291 85-297 230H157c8-234 222-395 484-395 278 0 448 188 448 400 0 168-95 291-247 336v12c190 31 301 169 301 357 0 244-216 425-508 425" id="D"/><g id="i"><use transform="matrix(0.008680555555555556,0,0,0.008680555555555556,0,0)" xlink:href="#D"/><use transform="matrix(0.008680555555555556,0,0,0.008680555555555556,10.581597222222223,0)" xlink:href="#A"/></g><g id="j"><use transform="matrix(0.008680555555555556,0,0,0.008680555555555556,0,0)" xlink:href="#m"/><use transform="matrix(0.008680555555555556,0,0,0.008680555555555556,9.383680555555555,0)" xlink:href="#n"/><use transform="matrix(0.008680555555555556,0,0,0.008680555555555556,19.74826388888889,0)" xlink:href="#x"/><use transform="matrix(0.008680555555555556,0,0,0.008680555555555556,30.25173611111111,0)" xlink:href="#u"/></g><g id="k"><use transform="matrix(0.008680555555555556,0,0,0.008680555555555556,0,0)" xlink:href="#r"/><use transform="matrix(0.008680555555555556,0,0,0.008680555555555556,9.98263888888889,0)" xlink:href="#t"/><use transform="matrix(0.008680555555555556,0,0,0.008680555555555556,14.288194444444445,0)" xlink:href="#o"/><use transform="matrix(0.008680555555555556,0,0,0.008680555555555556,20.68576388888889,0)" xlink:href="#u"/><use transform="matrix(0.008680555555555556,0,0,0.008680555555555556,31.571180555555557,0)" xlink:href="#o"/><use transform="matrix(0.008680555555555556,0,0,0.008680555555555556,37.96875,0)" xlink:href="#v"/><use transform="matrix(0.008680555555555556,0,0,0.008680555555555556,48.62847222222222,0)" xlink:href="#w"/></g></defs></g></svg>