<svg xmlns="http://www.w3.org/2000/svg" xmlns:xlink="http://www.w3.org/1999/xlink" xmlns:lucid="lucid" width="641" height="275.66"><g transform="translate(2000.5 175.1566232535007)" lucid:page-tab-id="M.wZzVy0bzTW"><path d="M-1840 40c0 33.14-35.82 60-80 60s-80-26.86-80-60 35.82-60 80-60 80 26.86 80 60z" stroke="#3a414a" fill-opacity="0"/><use xlink:href="#a" transform="matrix(1,0,0,1,-2000,-20) translate(61.528437499999995 65.97222222222223)"/><path d="M-1360 40c0 33.14-35.82 60-80 60s-80-26.86-80-60 35.82-60 80-60 80 26.86 80 60z" stroke="#3a414a" fill-opacity="0"/><use xlink:href="#b" transform="matrix(1,0,0,1,-1520,-20) translate(49.05881944444444 54.72222222222222)"/><use xlink:href="#c" transform="matrix(1,0,0,1,-1520,-20) translate(52.94336805555555 76.23263888888889)"/><path d="M-1732.97-160.77l-10.63 1.34-16.4 2.77-15.27 3.25-14.1 3.6-12.92 3.9-11.76 4.1-10.68 4.22-9.68 4.3-8.74 4.35-7.92 4.35-7.15 4.33-6.48 4.3-5.88 4.26-5.32 4.23-4.83 4.17-4.4 4.12-4 4.1-3.64 4.03-3.32 4-3 4-2.77 3.96-2.5 3.97-2.3 3.94-2.06 3.97-1.86 3.97-1.67 3.98-1.5 4.02-1.3 4.07-1.16 4.13-.98 4.18-.83 4.27-.64 4.36-.47 4.46-.3 4.58-.08 4.23h-.94l.08-4.26.3-4.63.47-4.5.63-4.38.83-4.3 1-4.23 1.15-4.17 1.34-4.1 1.5-4.06 1.7-4.02 1.88-4 2.1-4 2.3-3.98 2.52-3.98 2.78-4 3.05-4.03 3.34-4.04 3.68-4.08 4.03-4.1 4.43-4.16 4.87-4.2 5.35-4.25 5.9-4.28 6.5-4.33 7.2-4.35 7.94-4.37 8.78-4.36 9.7-4.32 10.73-4.24 11.82-4.1 12.95-3.9 14.14-3.64 15.33-3.25 16.44-2.77 10.76-1.36zm116.66.4l16.43 2.77 15.32 3.25 14.14 3.63 12.96 3.9 11.8 4.12 10.73 4.24 9.7 4.32 8.8 4.36 7.93 4.36 7.2 4.35 6.5 4.33 5.9 4.28 5.36 4.24 4.86 4.2 4.42 4.15 4.03 4.12 3.68 4.07 3.35 4.04 3.05 4.02 2.77 4 2.54 3.98 2.3 4 2.07 3.98 1.9 4 1.68 4.02 1.5 4.06 1.34 4.1 1.15 4.16 1 4.22.8 4.3.66 4.4.5 4.5.28 4.63.08 4.25-.94.02-.1-4.23-.28-4.6-.47-4.45-.64-4.36-.82-4.26-.97-4.18-1.15-4.12-1.32-4.06-1.5-4.03-1.67-3.97-1.88-3.97-2.07-3.95-2.28-3.94-2.5-3.96-2.76-3.96-3.02-4-3.32-4-3.64-4.05-4-4.1-4.4-4.1-4.84-4.18-5.32-4.22-5.87-4.26-6.5-4.3-7.14-4.33-7.9-4.34-8.77-4.34-9.68-4.3-10.7-4.23-11.76-4.1-12.92-3.9-14.1-3.62-15.3-3.25-16.4-2.77-10.58-1.33v-.96z" stroke="#3a414a" stroke-width=".05" fill="#3a414a"/><path d="M-1439.52-20.48l-.47-.02h-.47l-.02-.5.96-.03z" fill="#3a414a"/><path stroke="#3a414a" stroke-width=".05" fill="#3a414a"/><path d="M-1919.5-21l-.03.52-.46-.02h-.47v-.52z" fill="#3a414a"/><path stroke="#3a414a" stroke-width=".05" fill="#3a414a"/><use xlink:href="#d" transform="matrix(1,0,0,1,-1732.9672866128549,-175.1566232535007) translate(0 17.22222222222222)"/><use xlink:href="#e" transform="matrix(1,0,0,1,-1732.9672866128549,-175.1566232535007) translate(20.963541666666668 17.22222222222222)"/><use xlink:href="#f" transform="matrix(1,0,0,1,-1732.9672866128549,-175.1566232535007) translate(67.10069444444446 17.22222222222222)"/><path d="M-1839 40h81.97" stroke="#3a414a" stroke-linejoin="round" fill="none"/><path d="M-1839 40.48h-.52l.02-.47V39.53h.5zM-1756.53 40.48h-.52v-.95h.52z" stroke="#3a414a" stroke-width=".05" fill="#3a414a"/><path d="M-1602.97 40h66.1" stroke="#3a414a" stroke-linejoin="round" fill="none"/><path d="M-1602.95 40.48h-.52v-.95h.52z" stroke="#3a414a" stroke-width=".05" fill="#3a414a"/><path d="M-1522.12 40l-14.26 4.63v-9.27z" stroke="#3a414a" fill="#3a414a"/><path d="M-1756.53 30.24a6 6 0 0 1 6-6h141.06a6 6 0 0 1 6 6v19.52a6 6 0 0 1-6 6h-141.06a6 6 0 0 1-6-6z" fill="none"/><g><use xlink:href="#g" transform="matrix(1,0,0,1,-1751.5327777777777,29.23979166666667) translate(0.47222222222222854 17.46701388888889)"/><use xlink:href="#h" transform="matrix(1,0,0,1,-1751.5327777777777,29.23979166666667) translate(18.250000000000007 17.46701388888889)"/><use xlink:href="#i" transform="matrix(1,0,0,1,-1751.5327777777777,29.23979166666667) translate(67.57291666666669 17.46701388888889)"/></g><defs><path fill="#3a414a" d="M537 14c-226 0-379-139-379-422v-710h180v695c0 172 97 275 253 275 160 0 281-109 281-300v-670h181V0H879v-209C806-46 684 14 537 14" id="j"/><path fill="#3a414a" d="M538 24C308 24 148-78 108-271l171-41c32 123 123 178 257 178 156 0 256-77 256-169 0-77-54-128-164-154l-186-44c-203-48-300-148-300-305 0-192 176-326 414-326 230 0 351 112 402 269l-163 42c-31-80-94-158-238-158-133 0-233 69-233 162 0 83 57 129 188 160l169 40c203 48 298 149 298 302 0 196-179 339-441 339" id="k"/><path fill="#3a414a" d="M628 24c-324 0-524-230-524-574 0-343 198-582 503-582 237 0 487 146 487 559v75H286c9 234 145 362 343 362 132 0 231-58 273-172l174 48C1024-91 857 24 628 24zM287-650h624c-17-190-120-322-304-322-192 0-309 151-320 322" id="l"/><path fill="#3a414a" d="M158 0v-1118h174v172h12c41-113 157-188 290-188 26 0 70 2 91 3v181c-11-2-60-10-108-10-161 0-279 109-279 260V0H158" id="m"/><g id="a"><use transform="matrix(0.008680555555555556,0,0,0.008680555555555556,0,0)" xlink:href="#j"/><use transform="matrix(0.008680555555555556,0,0,0.008680555555555556,10.512152777777779,0)" xlink:href="#k"/><use transform="matrix(0.008680555555555556,0,0,0.008680555555555556,19.895833333333336,0)" xlink:href="#l"/><use transform="matrix(0.008680555555555556,0,0,0.008680555555555556,30.26041666666667,0)" xlink:href="#m"/></g><path fill="#3a414a" d="M52 0l541-1490h220L1361 0h-200l-149-416H398L254 0H52zm404-582h497c-103-290-145-390-251-756-108 377-145 460-246 756" id="n"/><path fill="#3a414a" d="M158 0v-1118h180V0H158zm91-1301c-68 0-125-53-125-119s57-119 125-119c69 0 126 53 126 119s-57 119-126 119" id="o"/><path fill="#3a414a" d="M577 24c-279 0-473-224-473-580 0-354 195-576 474-576 218 0 287 134 324 193h14v-551h180V0H922v-173h-20C865-111 790 24 577 24zm27-161c203 0 314-172 314-421 0-247-108-413-314-413-212 0-317 181-317 413 0 235 108 421 317 421" id="p"/><path fill="#3a414a" d="M613 24c-304 0-509-231-509-576 0-350 205-580 509-580 305 0 511 230 511 580 0 345-206 576-511 576zm0-161c226 0 329-195 329-415 0-222-103-419-329-419-223 0-326 196-326 419 0 220 103 415 326 415" id="q"/><path fill="#3a414a" d="M158 418v-1536h174v179h20c37-59 106-193 324-193 279 0 474 222 474 576 0 356-194 580-473 580-213 0-288-135-325-197h-14v591H158zm492-555c209 0 317-186 317-421 0-232-105-413-317-413-206 0-314 166-314 413 0 249 111 421 314 421" id="r"/><g id="b"><use transform="matrix(0.008680555555555556,0,0,0.008680555555555556,0,0)" xlink:href="#n"/><use transform="matrix(0.008680555555555556,0,0,0.008680555555555556,12.361111111111112,0)" xlink:href="#o"/><use transform="matrix(0.008680555555555556,0,0,0.008680555555555556,16.666666666666664,0)" xlink:href="#m"/><use transform="matrix(0.008680555555555556,0,0,0.008680555555555556,23.064236111111107,0)" xlink:href="#p"/><use transform="matrix(0.008680555555555556,0,0,0.008680555555555556,33.94965277777777,0)" xlink:href="#m"/><use transform="matrix(0.008680555555555556,0,0,0.008680555555555556,40.34722222222222,0)" xlink:href="#q"/><use transform="matrix(0.008680555555555556,0,0,0.008680555555555556,51.00694444444445,0)" xlink:href="#r"/></g><path fill="#3a414a" d="M471 26C259 26 90-98 90-318c0-256 228-303 435-329 202-27 287-16 287-108 0-139-79-219-234-219-161 0-248 86-283 164l-173-57c86-203 278-265 451-265 150 0 419 46 419 395V0H815v-152h-12C765-73 660 26 471 26zm31-159c199 0 310-134 310-271v-155c-30 35-226 55-295 64-131 17-246 59-246 186 0 116 97 176 231 176" id="s"/><path fill="#3a414a" d="M338-670V0H158v-1118h173l1 207c72-158 192-221 342-221 226 0 378 139 378 422V0H872v-695c0-172-96-275-252-275-161 0-282 109-282 300" id="t"/><path fill="#3a414a" d="M598-1118v154H368v674c0 100 37 144 132 144 23 0 62-6 92-12L629-6c-37 13-88 20-134 20-193 0-307-107-307-290v-688H20v-154h168v-266h180v266h230" id="u"/><g id="c"><use transform="matrix(0.008680555555555556,0,0,0.008680555555555556,0,0)" xlink:href="#r"/><use transform="matrix(0.008680555555555556,0,0,0.008680555555555556,11.059027777777779,0)" xlink:href="#s"/><use transform="matrix(0.008680555555555556,0,0,0.008680555555555556,21.041666666666668,0)" xlink:href="#m"/><use transform="matrix(0.008680555555555556,0,0,0.008680555555555556,27.43923611111111,0)" xlink:href="#l"/><use transform="matrix(0.008680555555555556,0,0,0.008680555555555556,37.80381944444444,0)" xlink:href="#t"/><use transform="matrix(0.008680555555555556,0,0,0.008680555555555556,48.30729166666667,0)" xlink:href="#u"/></g><path fill="#333" d="M154 0v-137l495-537c165-179 249-281 249-418 0-156-121-253-280-253-170 0-278 110-278 278H158c0-264 200-443 465-443 266 0 455 183 455 416 0 161-73 288-336 568L416-179v12h687V0H154" id="v"/><path fill="#333" d="M295 13c-75 0-135-60-135-135s60-135 135-135 135 60 135 135S370 13 295 13" id="w"/><g id="d"><use transform="matrix(0.008680555555555556,0,0,0.008680555555555556,0,0)" xlink:href="#v"/><use transform="matrix(0.008680555555555556,0,0,0.008680555555555556,10.84201388888889,0)" xlink:href="#w"/></g><path fill="#333" d="M538 24C308 24 148-78 108-271l171-41c32 123 123 178 257 178 156 0 256-77 256-169 0-77-54-128-164-154l-186-44c-203-48-300-148-300-305 0-192 176-326 414-326 230 0 351 112 402 269l-163 42c-31-80-94-158-238-158-133 0-233 69-233 162 0 83 57 129 188 160l169 40c203 48 298 149 298 302 0 196-179 339-441 339" id="x"/><path fill="#333" d="M628 24c-324 0-524-230-524-574 0-343 198-582 503-582 237 0 487 146 487 559v75H286c9 234 145 362 343 362 132 0 231-58 273-172l174 48C1024-91 857 24 628 24zM287-650h624c-17-190-120-322-304-322-192 0-309 151-320 322" id="y"/><path fill="#333" d="M338-670V0H158v-1118h173l1 207c72-158 192-221 342-221 226 0 378 139 378 422V0H872v-695c0-172-96-275-252-275-161 0-282 109-282 300" id="z"/><path fill="#333" d="M577 24c-279 0-473-224-473-580 0-354 195-576 474-576 218 0 287 134 324 193h14v-551h180V0H922v-173h-20C865-111 790 24 577 24zm27-161c203 0 314-172 314-421 0-247-108-413-314-413-212 0-317 181-317 413 0 235 108 421 317 421" id="A"/><g id="e"><use transform="matrix(0.008680555555555556,0,0,0.008680555555555556,0,0)" xlink:href="#x"/><use transform="matrix(0.008680555555555556,0,0,0.008680555555555556,9.383680555555555,0)" xlink:href="#y"/><use transform="matrix(0.008680555555555556,0,0,0.008680555555555556,19.74826388888889,0)" xlink:href="#z"/><use transform="matrix(0.008680555555555556,0,0,0.008680555555555556,30.25173611111111,0)" xlink:href="#A"/></g><path fill="#333" d="M158 0v-1118h174v172h12c41-113 157-188 290-188 26 0 70 2 91 3v181c-11-2-60-10-108-10-161 0-279 109-279 260V0H158" id="B"/><path fill="#333" d="M613 24c-304 0-509-231-509-576 0-350 205-580 509-580 305 0 511 230 511 580 0 345-206 576-511 576zm0-161c226 0 329-195 329-415 0-222-103-419-329-419-223 0-326 196-326 419 0 220 103 415 326 415" id="C"/><path fill="#333" d="M158 418v-1536h174v179h20c37-59 106-193 324-193 279 0 474 222 474 576 0 356-194 580-473 580-213 0-288-135-325-197h-14v591H158zm492-555c209 0 317-186 317-421 0-232-105-413-317-413-206 0-314 166-314 413 0 249 111 421 314 421" id="D"/><g id="f"><use transform="matrix(0.008680555555555556,0,0,0.008680555555555556,0,0)" xlink:href="#A"/><use transform="matrix(0.008680555555555556,0,0,0.008680555555555556,10.885416666666668,0)" xlink:href="#B"/><use transform="matrix(0.008680555555555556,0,0,0.008680555555555556,17.282986111111114,0)" xlink:href="#C"/><use transform="matrix(0.008680555555555556,0,0,0.008680555555555556,27.942708333333336,0)" xlink:href="#D"/></g><path fill="#333" d="M653-1490V0H466v-1314h-10L96-1047v-204l324-239h233" id="E"/><g id="g"><use transform="matrix(0.008680555555555556,0,0,0.008680555555555556,0,0)" xlink:href="#E"/><use transform="matrix(0.008680555555555556,0,0,0.008680555555555556,7.230902777777778,0)" xlink:href="#w"/></g><path fill="#333" d="M613 24c-304 0-509-231-509-576 0-350 205-580 509-580 216 0 392 114 453 309l-173 49c-33-115-133-197-280-197-223 0-326 196-326 419 0 220 103 415 326 415 150 0 252-85 285-206l172 49C1010-95 832 24 613 24" id="F"/><path fill="#333" d="M338-1490V0H158v-1490h180" id="G"/><path fill="#333" d="M471 26C259 26 90-98 90-318c0-256 228-303 435-329 202-27 287-16 287-108 0-139-79-219-234-219-161 0-248 86-283 164l-173-57c86-203 278-265 451-265 150 0 419 46 419 395V0H815v-152h-12C765-73 660 26 471 26zm31-159c199 0 310-134 310-271v-155c-30 35-226 55-295 64-131 17-246 59-246 186 0 116 97 176 231 176" id="H"/><path fill="#333" d="M158 0v-1118h180V0H158zm91-1301c-68 0-125-53-125-119s57-119 125-119c69 0 126 53 126 119s-57 119-126 119" id="I"/><path fill="#333" d="M158 0v-1118h175l1 205c55-151 181-225 313-225 147 0 245 90 285 228 53-141 190-228 352-228 194 0 352 125 352 384V0h-181v-749c0-161-105-225-225-225-151 0-243 103-243 244V0H807v-767c0-124-93-207-219-207-131 0-250 92-250 270V0H158" id="J"/><g id="h"><use transform="matrix(0.008680555555555556,0,0,0.008680555555555556,0,0)" xlink:href="#F"/><use transform="matrix(0.008680555555555556,0,0,0.008680555555555556,10.15625,0)" xlink:href="#G"/><use transform="matrix(0.008680555555555556,0,0,0.008680555555555556,14.461805555555555,0)" xlink:href="#H"/><use transform="matrix(0.008680555555555556,0,0,0.008680555555555556,24.444444444444443,0)" xlink:href="#I"/><use transform="matrix(0.008680555555555556,0,0,0.008680555555555556,28.75,0)" xlink:href="#J"/></g><path fill="#333" d="M611 442c-248 0-391-105-460-228l146-94c47 65 117 165 314 165 178 0 307-82 307-266v-224h-17C863-141 792-18 576-18c-268 0-472-195-472-546 0-346 197-568 476-568 216 0 288 133 326 193h17v-179h175V29c0 289-215 413-487 413zm-5-620c203 0 314-146 314-390 0-237-108-403-314-403-213 0-319 180-319 403 0 230 109 390 319 390" id="K"/><g id="i"><use transform="matrix(0.008680555555555556,0,0,0.008680555555555556,0,0)" xlink:href="#J"/><use transform="matrix(0.008680555555555556,0,0,0.008680555555555556,15.572916666666668,0)" xlink:href="#y"/><use transform="matrix(0.008680555555555556,0,0,0.008680555555555556,25.9375,0)" xlink:href="#x"/><use transform="matrix(0.008680555555555556,0,0,0.008680555555555556,35.32118055555556,0)" xlink:href="#x"/><use transform="matrix(0.008680555555555556,0,0,0.008680555555555556,44.704861111111114,0)" xlink:href="#H"/><use transform="matrix(0.008680555555555556,0,0,0.008680555555555556,54.6875,0)" xlink:href="#K"/><use transform="matrix(0.008680555555555556,0,0,0.008680555555555556,65.59027777777777,0)" xlink:href="#y"/></g></defs></g></svg>