<svg xmlns="http://www.w3.org/2000/svg" xmlns:xlink="http://www.w3.org/1999/xlink" xmlns:lucid="lucid" width="1121" height="270.81"><g transform="translate(2000.5 170.31014954725413)" lucid:page-tab-id="M.wZzVy0bzTW"><path d="M-1840 40c0 33.14-35.82 60-80 60s-80-26.86-80-60 35.82-60 80-60 80 26.86 80 60z" stroke="#3a414a" fill-opacity="0"/><use xlink:href="#a" transform="matrix(1,0,0,1,-2000,-20) translate(61.528437499999995 65.97222222222223)"/><path d="M-1360 40c0 33.14-35.82 60-80 60s-80-26.86-80-60 35.82-60 80-60 80 26.86 80 60z" stroke="#3a414a" fill-opacity="0"/><use xlink:href="#b" transform="matrix(1,0,0,1,-1520,-20) translate(54.17166666666666 54.72222222222222)"/><use xlink:href="#c" transform="matrix(1,0,0,1,-1520,-20) translate(50.53451388888888 76.23263888888889)"/><path d="M-1366.73-156l34.6 4.33 36.36 6.1 38.27 8.1 40.25 10.3 42.22 12.68 44.07 15.3 45.56 17.98 46.5 20.63 72.38 36.65 4.44 2.24 1 .43.42.17.22.08.1.03-.28.92-.12-.04-.25-.1-.45-.17-1.04-.45-4.45-2.25-72.37-36.63-46.45-20.6-45.52-17.98-44.02-15.28-42.2-12.7-40.2-10.26-38.23-8.1-36.33-6.1-34.55-4.3-20.4-1.7v-.96zm-126.18-1.16l-24.8 2.24-32.73 4.34-35.73 6.27-39 8.53-42.52 11.2-46 14.2-49 17.4-50.44 20.3-48.02 21.7-37.4 18.75-16.84 9.3-3.35 2.03-.65.44-.53-.8.67-.44 3.37-2.04 16.9-9.32 37.4-18.78 48.06-21.7 50.48-20.33 49.04-17.4 46.04-14.22 42.55-11.2 39.06-8.55 35.76-6.27 32.78-4.34 24.9-2.25z" stroke="#3a414a" stroke-width=".05" fill="#3a414a"/><path d="M-959.26-20.48l-.85.67-.55-.7h.66z" fill="#3a414a"/><path stroke="#3a414a" stroke-width=".05" fill="#3a414a"/><path d="M-1917-20.4l-3-.1h-.53v-.47l3.5-.02z" fill="#3a414a"/><path stroke="#3a414a" stroke-width=".05" fill="#3a414a"/><use xlink:href="#d" transform="matrix(1,0,0,1,-1492.9095956363985,-170.31014954725413) translate(0 17.22222222222222)"/><use xlink:href="#e" transform="matrix(1,0,0,1,-1492.9095956363985,-170.31014954725413) translate(20.703125 17.22222222222222)"/><use xlink:href="#f" transform="matrix(1,0,0,1,-1492.9095956363985,-170.31014954725413) translate(66.84027777777779 17.22222222222222)"/><path d="M-1839 40h90.6" stroke="#3a414a" stroke-linejoin="round" fill="none"/><path d="M-1839 40.48h-.52l.02-.47V39.53h.5zM-1747.9 40.48h-.5v-.95h.5z" stroke="#3a414a" stroke-width=".05" fill="#3a414a"/><path d="M-1611.6 40h74.72" stroke="#3a414a" stroke-linejoin="round" fill="none"/><path d="M-1611.6 40.48h-.5v-.95h.5z" stroke="#3a414a" stroke-width=".05" fill="#3a414a"/><path d="M-1522.12 40l-14.26 4.63v-9.27z" stroke="#3a414a" fill="#3a414a"/><path d="M-1747.9 30.24a6 6 0 0 1 6-6h123.8a6 6 0 0 1 6 6v19.52a6 6 0 0 1-6 6h-123.8a6 6 0 0 1-6-6z" fill="none"/><use xlink:href="#g" transform="matrix(1,0,0,1,-1742.895625,29.23979166666667) translate(0.1093749999999929 17.46701388888889)"/><use xlink:href="#h" transform="matrix(1,0,0,1,-1742.895625,29.23979166666667) translate(17.88715277777777 17.46701388888889)"/><use xlink:href="#i" transform="matrix(1,0,0,1,-1742.895625,29.23979166666667) translate(80.70833333333334 17.46701388888889)"/><path d="M-880 40c0 33.14-35.82 60-80 60s-80-26.86-80-60 35.82-60 80-60 80 26.86 80 60z" stroke="#3a414a" fill-opacity="0"/><use xlink:href="#j" transform="matrix(1,0,0,1,-1040,-20) translate(50.24805555555555 54.72222222222222)"/><use xlink:href="#k" transform="matrix(1,0,0,1,-1040,-20) translate(52.94336805555555 76.23263888888889)"/><path d="M-1359.5 40h89" stroke="#3a414a" stroke-linejoin="round" fill="none"/><path d="M-1359.5 40h-.5" stroke="#3a414a" fill="none"/><path d="M-1270 40.48h-.5v-.95h.5z" stroke="#3a414a" stroke-width=".05" fill="#3a414a"/><path d="M-1130.5 40h73.12" stroke="#3a414a" stroke-linejoin="round" fill="none"/><path d="M-1130.5 40.48h-.5v-.95h.5z" stroke="#3a414a" stroke-width=".05" fill="#3a414a"/><path d="M-1042.62 40l-14.27 4.63.02-9.27z" stroke="#3a414a" fill="#3a414a"/><path d="M-1270 30.24a6 6 0 0 1 6-6h127a6 6 0 0 1 6 6v19.52a6 6 0 0 1-6 6h-127a6 6 0 0 1-6-6z" fill="none"/><g><use xlink:href="#l" transform="matrix(1,0,0,1,-1264.9898852869824,29.239791666666683) translate(0.016493055555542924 17.46701388888889)"/><use xlink:href="#m" transform="matrix(1,0,0,1,-1264.9898852869824,29.239791666666683) translate(20.98003472222221 17.46701388888889)"/><use xlink:href="#i" transform="matrix(1,0,0,1,-1264.9898852869824,29.239791666666683) translate(83.80121527777777 17.46701388888889)"/></g><defs><path fill="#3a414a" d="M537 14c-226 0-379-139-379-422v-710h180v695c0 172 97 275 253 275 160 0 281-109 281-300v-670h181V0H879v-209C806-46 684 14 537 14" id="n"/><path fill="#3a414a" d="M538 24C308 24 148-78 108-271l171-41c32 123 123 178 257 178 156 0 256-77 256-169 0-77-54-128-164-154l-186-44c-203-48-300-148-300-305 0-192 176-326 414-326 230 0 351 112 402 269l-163 42c-31-80-94-158-238-158-133 0-233 69-233 162 0 83 57 129 188 160l169 40c203 48 298 149 298 302 0 196-179 339-441 339" id="o"/><path fill="#3a414a" d="M628 24c-324 0-524-230-524-574 0-343 198-582 503-582 237 0 487 146 487 559v75H286c9 234 145 362 343 362 132 0 231-58 273-172l174 48C1024-91 857 24 628 24zM287-650h624c-17-190-120-322-304-322-192 0-309 151-320 322" id="p"/><path fill="#3a414a" d="M158 0v-1118h174v172h12c41-113 157-188 290-188 26 0 70 2 91 3v181c-11-2-60-10-108-10-161 0-279 109-279 260V0H158" id="q"/><g id="a"><use transform="matrix(0.008680555555555556,0,0,0.008680555555555556,0,0)" xlink:href="#n"/><use transform="matrix(0.008680555555555556,0,0,0.008680555555555556,10.512152777777779,0)" xlink:href="#o"/><use transform="matrix(0.008680555555555556,0,0,0.008680555555555556,19.895833333333336,0)" xlink:href="#p"/><use transform="matrix(0.008680555555555556,0,0,0.008680555555555556,30.26041666666667,0)" xlink:href="#q"/></g><path fill="#3a414a" d="M232-923l-22-567h194l-22 567H232" id="r"/><g id="b"><use transform="matrix(0.008680555555555556,0,0,0.008680555555555556,0,0)" xlink:href="#n"/><use transform="matrix(0.008680555555555556,0,0,0.008680555555555556,10.512152777777779,0)" xlink:href="#o"/><use transform="matrix(0.008680555555555556,0,0,0.008680555555555556,19.895833333333336,0)" xlink:href="#p"/><use transform="matrix(0.008680555555555556,0,0,0.008680555555555556,30.26041666666667,0)" xlink:href="#q"/><use transform="matrix(0.008680555555555556,0,0,0.008680555555555556,36.95312500000001,0)" xlink:href="#r"/><use transform="matrix(0.008680555555555556,0,0,0.008680555555555556,42.28298611111112,0)" xlink:href="#o"/></g><path fill="#3a414a" d="M158 0v-1118h175l1 205c55-151 181-225 313-225 147 0 245 90 285 228 53-141 190-228 352-228 194 0 352 125 352 384V0h-181v-749c0-161-105-225-225-225-151 0-243 103-243 244V0H807v-767c0-124-93-207-219-207-131 0-250 92-250 270V0H158" id="s"/><path fill="#3a414a" d="M471 26C259 26 90-98 90-318c0-256 228-303 435-329 202-27 287-16 287-108 0-139-79-219-234-219-161 0-248 86-283 164l-173-57c86-203 278-265 451-265 150 0 419 46 419 395V0H815v-152h-12C765-73 660 26 471 26zm31-159c199 0 310-134 310-271v-155c-30 35-226 55-295 64-131 17-246 59-246 186 0 116 97 176 231 176" id="t"/><path fill="#3a414a" d="M158 0v-1490h180v865h22l478-493h223L593-638 1096 0H865L456-523 338-412V0H158" id="u"/><g id="c"><use transform="matrix(0.008680555555555556,0,0,0.008680555555555556,0,0)" xlink:href="#s"/><use transform="matrix(0.008680555555555556,0,0,0.008680555555555556,15.572916666666668,0)" xlink:href="#t"/><use transform="matrix(0.008680555555555556,0,0,0.008680555555555556,25.555555555555557,0)" xlink:href="#q"/><use transform="matrix(0.008680555555555556,0,0,0.008680555555555556,32.52604166666667,0)" xlink:href="#u"/><use transform="matrix(0.008680555555555556,0,0,0.008680555555555556,41.88368055555556,0)" xlink:href="#p"/><use transform="matrix(0.008680555555555556,0,0,0.008680555555555556,52.24826388888889,0)" xlink:href="#q"/></g><path fill="#3a414a" d="M635 20c-292 0-500-160-510-396h192c11 142 145 229 315 229 187 0 323-105 323-260 0-161-125-274-346-274H488v-165h121c174 0 294-100 294-254 0-148-104-245-266-245-152 0-291 85-297 230H157c8-234 222-395 484-395 278 0 448 188 448 400 0 168-95 291-247 336v12c190 31 301 169 301 357 0 244-216 425-508 425" id="v"/><path fill="#3a414a" d="M295 13c-75 0-135-60-135-135s60-135 135-135 135 60 135 135S370 13 295 13" id="w"/><g id="d"><use transform="matrix(0.008680555555555556,0,0,0.008680555555555556,0,0)" xlink:href="#v"/><use transform="matrix(0.008680555555555556,0,0,0.008680555555555556,10.581597222222223,0)" xlink:href="#w"/></g><path fill="#3a414a" d="M338-670V0H158v-1118h173l1 207c72-158 192-221 342-221 226 0 378 139 378 422V0H872v-695c0-172-96-275-252-275-161 0-282 109-282 300" id="x"/><path fill="#3a414a" d="M577 24c-279 0-473-224-473-580 0-354 195-576 474-576 218 0 287 134 324 193h14v-551h180V0H922v-173h-20C865-111 790 24 577 24zm27-161c203 0 314-172 314-421 0-247-108-413-314-413-212 0-317 181-317 413 0 235 108 421 317 421" id="y"/><g id="e"><use transform="matrix(0.008680555555555556,0,0,0.008680555555555556,0,0)" xlink:href="#o"/><use transform="matrix(0.008680555555555556,0,0,0.008680555555555556,9.383680555555555,0)" xlink:href="#p"/><use transform="matrix(0.008680555555555556,0,0,0.008680555555555556,19.74826388888889,0)" xlink:href="#x"/><use transform="matrix(0.008680555555555556,0,0,0.008680555555555556,30.25173611111111,0)" xlink:href="#y"/></g><path fill="#3a414a" d="M613 24c-304 0-509-231-509-576 0-350 205-580 509-580 305 0 511 230 511 580 0 345-206 576-511 576zm0-161c226 0 329-195 329-415 0-222-103-419-329-419-223 0-326 196-326 419 0 220 103 415 326 415" id="z"/><path fill="#3a414a" d="M158 418v-1536h174v179h20c37-59 106-193 324-193 279 0 474 222 474 576 0 356-194 580-473 580-213 0-288-135-325-197h-14v591H158zm492-555c209 0 317-186 317-421 0-232-105-413-317-413-206 0-314 166-314 413 0 249 111 421 314 421" id="A"/><g id="f"><use transform="matrix(0.008680555555555556,0,0,0.008680555555555556,0,0)" xlink:href="#y"/><use transform="matrix(0.008680555555555556,0,0,0.008680555555555556,10.885416666666668,0)" xlink:href="#q"/><use transform="matrix(0.008680555555555556,0,0,0.008680555555555556,17.282986111111114,0)" xlink:href="#z"/><use transform="matrix(0.008680555555555556,0,0,0.008680555555555556,27.942708333333336,0)" xlink:href="#A"/></g><path fill="#3a414a" d="M653-1490V0H466v-1314h-10L96-1047v-204l324-239h233" id="B"/><g id="g"><use transform="matrix(0.008680555555555556,0,0,0.008680555555555556,0,0)" xlink:href="#B"/><use transform="matrix(0.008680555555555556,0,0,0.008680555555555556,7.230902777777778,0)" xlink:href="#w"/></g><path fill="#3a414a" d="M180 0v-1490h270l367 940c28 72 75 218 110 339 35-117 81-264 110-339l362-940h271V0h-187c2-448-5-837 7-1287-157 497-311 829-483 1287H842C666-458 514-784 354-1284c12 438 5 843 7 1284H180" id="C"/><path fill="#3a414a" d="M338-1490V0H158v-1490h180" id="D"/><g id="h"><use transform="matrix(0.008680555555555556,0,0,0.008680555555555556,0,0)" xlink:href="#C"/><use transform="matrix(0.008680555555555556,0,0,0.008680555555555556,16.05902777777778,0)" xlink:href="#p"/><use transform="matrix(0.008680555555555556,0,0,0.008680555555555556,26.423611111111118,0)" xlink:href="#q"/><use transform="matrix(0.008680555555555556,0,0,0.008680555555555556,33.39409722222223,0)" xlink:href="#u"/><use transform="matrix(0.008680555555555556,0,0,0.008680555555555556,43.15104166666667,0)" xlink:href="#D"/><use transform="matrix(0.008680555555555556,0,0,0.008680555555555556,47.456597222222236,0)" xlink:href="#p"/></g><path fill="#3a414a" d="M678-1118v154H420V0H240v-964H20v-154h220v-149c0-194 155-293 318-293 85 0 141 18 168 30l-50 154c-19-6-47-17-97-17-111 0-159 58-159 166v109h258" id="E"/><g id="i"><use transform="matrix(0.008680555555555556,0,0,0.008680555555555556,0,0)" xlink:href="#A"/><use transform="matrix(0.008680555555555556,0,0,0.008680555555555556,10.885416666666668,0)" xlink:href="#q"/><use transform="matrix(0.008680555555555556,0,0,0.008680555555555556,17.282986111111114,0)" xlink:href="#z"/><use transform="matrix(0.008680555555555556,0,0,0.008680555555555556,27.942708333333336,0)" xlink:href="#z"/><use transform="matrix(0.008680555555555556,0,0,0.008680555555555556,38.60243055555556,0)" xlink:href="#E"/></g><path fill="#3a414a" d="M158 0v-1118h180V0H158zm91-1301c-68 0-125-53-125-119s57-119 125-119c69 0 126 53 126 119s-57 119-126 119" id="F"/><g id="j"><use transform="matrix(0.008680555555555556,0,0,0.008680555555555556,0,0)" xlink:href="#t"/><use transform="matrix(0.008680555555555556,0,0,0.008680555555555556,9.98263888888889,0)" xlink:href="#F"/><use transform="matrix(0.008680555555555556,0,0,0.008680555555555556,14.288194444444445,0)" xlink:href="#q"/><use transform="matrix(0.008680555555555556,0,0,0.008680555555555556,20.68576388888889,0)" xlink:href="#y"/><use transform="matrix(0.008680555555555556,0,0,0.008680555555555556,31.571180555555557,0)" xlink:href="#q"/><use transform="matrix(0.008680555555555556,0,0,0.008680555555555556,37.96875,0)" xlink:href="#z"/><use transform="matrix(0.008680555555555556,0,0,0.008680555555555556,48.62847222222222,0)" xlink:href="#A"/></g><path fill="#3a414a" d="M598-1118v154H368v674c0 100 37 144 132 144 23 0 62-6 92-12L629-6c-37 13-88 20-134 20-193 0-307-107-307-290v-688H20v-154h168v-266h180v266h230" id="G"/><g id="k"><use transform="matrix(0.008680555555555556,0,0,0.008680555555555556,0,0)" xlink:href="#A"/><use transform="matrix(0.008680555555555556,0,0,0.008680555555555556,11.059027777777779,0)" xlink:href="#t"/><use transform="matrix(0.008680555555555556,0,0,0.008680555555555556,21.041666666666668,0)" xlink:href="#q"/><use transform="matrix(0.008680555555555556,0,0,0.008680555555555556,27.43923611111111,0)" xlink:href="#p"/><use transform="matrix(0.008680555555555556,0,0,0.008680555555555556,37.80381944444444,0)" xlink:href="#x"/><use transform="matrix(0.008680555555555556,0,0,0.008680555555555556,48.30729166666667,0)" xlink:href="#G"/></g><path fill="#3a414a" d="M154 0v-137l495-537c165-179 249-281 249-418 0-156-121-253-280-253-170 0-278 110-278 278H158c0-264 200-443 465-443 266 0 455 183 455 416 0 161-73 288-336 568L416-179v12h687V0H154" id="H"/><g id="l"><use transform="matrix(0.008680555555555556,0,0,0.008680555555555556,0,0)" xlink:href="#H"/><use transform="matrix(0.008680555555555556,0,0,0.008680555555555556,10.84201388888889,0)" xlink:href="#w"/></g><g id="m"><use transform="matrix(0.008680555555555556,0,0,0.008680555555555556,0,0)" xlink:href="#C"/><use transform="matrix(0.008680555555555556,0,0,0.008680555555555556,16.05902777777778,0)" xlink:href="#p"/><use transform="matrix(0.008680555555555556,0,0,0.008680555555555556,26.423611111111118,0)" xlink:href="#q"/><use transform="matrix(0.008680555555555556,0,0,0.008680555555555556,33.39409722222223,0)" xlink:href="#u"/><use transform="matrix(0.008680555555555556,0,0,0.008680555555555556,43.15104166666667,0)" xlink:href="#D"/><use transform="matrix(0.008680555555555556,0,0,0.008680555555555556,47.456597222222236,0)" xlink:href="#p"/></g></defs></g></svg>