<svg width="965" height="221" viewBox="0 0 965 221" fill="none" xmlns="http://www.w3.org/2000/svg">
<path d="M16 24C16 22.4087 16.6321 20.8826 17.7574 19.7574C18.8826 18.6322 20.4087 18 22 18H230C231.591 18 233.117 18.6322 234.243 19.7574C235.368 20.8826 236 22.4087 236 24V201.98C236 203.571 235.368 205.097 234.243 206.223C233.117 207.348 231.591 207.98 230 207.98H22C20.4087 207.98 18.8826 207.348 17.7574 206.223C16.6321 205.097 16 203.571 16 201.98V24Z" stroke="#CED4DB"/>
<path d="M28.5645 51.5279L34.4347 35.3604H36.8218L42.768 51.5279H40.5979L38.9811 47.014H32.3188L30.7563 51.5279H28.5645ZM32.9481 45.2128H38.3409C37.2233 42.0661 36.7676 40.981 35.6174 37.0097C34.4455 41.1004 34.0441 42.001 32.9481 45.2128Z" fill="#CED4DB"/>
<path d="M49.5933 51.7883C46.566 51.7883 44.4609 49.3577 44.4609 45.4949C44.4609 41.6538 46.5768 39.2449 49.6042 39.2449C51.9696 39.2449 52.7183 40.6989 53.1198 41.3391H53.2717V35.3604H55.2248V51.5279H53.3368V49.6507H53.1198C52.7183 50.3235 51.9045 51.7883 49.5933 51.7883ZM49.8863 50.0413C52.089 50.0413 53.2934 48.175 53.2934 45.4732C53.2934 42.7931 52.1215 40.9919 49.8863 40.9919C47.5859 40.9919 46.4466 42.9558 46.4466 45.4732C46.4466 48.0231 47.6185 50.0413 49.8863 50.0413Z" fill="#CED4DB"/>
<path d="M63.1998 51.7883C60.1724 51.7883 58.0674 49.3577 58.0674 45.4949C58.0674 41.6538 60.1833 39.2449 63.2106 39.2449C65.5761 39.2449 66.3248 40.6989 66.7262 41.3391H66.8781V35.3604H68.8313V51.5279H66.9433V49.6507H66.7262C66.3248 50.3235 65.511 51.7883 63.1998 51.7883ZM63.4927 50.0413C65.6954 50.0413 66.8998 48.175 66.8998 45.4732C66.8998 42.7931 65.728 40.9919 63.4927 40.9919C61.1924 40.9919 60.0531 42.9558 60.0531 45.4732C60.0531 48.0231 61.2249 50.0413 63.4927 50.0413Z" fill="#CED4DB"/>
<path d="M72.2598 51.5278V39.3968H74.1478V41.2631H74.278C74.7229 40.0369 75.9816 39.2231 77.4247 39.2231C77.7068 39.2231 78.1842 39.2448 78.4121 39.2557V41.2197C78.2928 41.198 77.7611 41.1112 77.2402 41.1112C75.4933 41.1112 74.2129 42.2939 74.2129 43.9323V51.5278H72.2598Z" fill="#CED4DB"/>
<path d="M85.3567 51.7885C81.841 51.7885 79.6709 49.2929 79.6709 45.5602C79.6709 41.8384 81.8193 39.2451 85.1288 39.2451C87.7004 39.2451 90.4131 40.8293 90.4131 45.3107V46.1245H81.6457C81.7434 48.6635 83.2191 50.0524 85.3675 50.0524C86.7998 50.0524 87.874 49.4231 88.3298 48.1861L90.2178 48.7069C89.6535 50.5407 87.8415 51.7885 85.3567 51.7885ZM81.6566 44.4752H88.4274C88.2429 42.4135 87.1253 40.9812 85.1288 40.9812C83.0455 40.9812 81.7759 42.6197 81.6566 44.4752Z" fill="#CED4DB"/>
<path d="M97.3357 51.7885C94.8401 51.7885 93.1039 50.6817 92.6699 48.5876L94.5254 48.1427C94.8726 49.4773 95.86 50.0741 97.314 50.0741C99.0067 50.0741 100.092 49.2386 100.092 48.2403C100.092 47.4048 99.5059 46.8515 98.3123 46.5693L96.2941 46.0919C94.0914 45.5711 93.0388 44.486 93.0388 42.7824C93.0388 40.6991 94.9486 39.2451 97.531 39.2451C100.027 39.2451 101.34 40.4604 101.893 42.164L100.124 42.6197C99.788 41.7516 99.1044 40.9053 97.5419 40.9053C96.0987 40.9053 95.0137 41.654 95.0137 42.6631C95.0137 43.5637 95.6322 44.0628 97.0536 44.3992L98.8874 44.8332C101.09 45.3541 102.121 46.45 102.121 48.1101C102.121 50.2369 100.179 51.7885 97.3357 51.7885Z" fill="#CED4DB"/>
<path d="M109.066 51.7885C106.571 51.7885 104.834 50.6817 104.4 48.5876L106.256 48.1427C106.603 49.4773 107.59 50.0741 109.044 50.0741C110.737 50.0741 111.822 49.2386 111.822 48.2403C111.822 47.4048 111.236 46.8515 110.043 46.5693L108.025 46.0919C105.822 45.5711 104.769 44.486 104.769 42.7824C104.769 40.6991 106.679 39.2451 109.262 39.2451C111.757 39.2451 113.07 40.4604 113.623 42.164L111.855 42.6197C111.518 41.7516 110.835 40.9053 109.272 40.9053C107.829 40.9053 106.744 41.654 106.744 42.6631C106.744 43.5637 107.363 44.0628 108.784 44.3992L110.618 44.8332C112.821 45.3541 113.851 46.45 113.851 48.1101C113.851 50.2369 111.909 51.7885 109.066 51.7885Z" fill="#CED4DB"/>
<path d="M118.158 51.6688C117.344 51.6688 116.693 51.0178 116.693 50.204C116.693 49.3902 117.344 48.7391 118.158 48.7391C118.972 48.7391 119.623 49.3902 119.623 50.204C119.623 51.0178 118.972 51.6688 118.158 51.6688ZM118.158 42.8906C117.344 42.8906 116.693 42.2396 116.693 41.4258C116.693 40.612 117.344 39.9609 118.158 39.9609C118.972 39.9609 119.623 40.612 119.623 41.4258C119.623 42.2396 118.972 42.8906 118.158 42.8906Z" fill="#CED4DB"/>
<path d="M134.695 35.3599V51.5274H132.666V37.2696H132.558L128.651 40.1667V37.9532L132.167 35.3599H134.695Z" fill="#CED4DB"/>
<path d="M138.319 51.5276V50.0411L143.69 44.2142C145.481 42.272 146.392 41.1652 146.392 39.6787C146.392 37.9859 145.079 36.9334 143.354 36.9334C141.509 36.9334 140.338 38.127 140.338 39.9499H138.363C138.363 37.0853 140.533 35.1431 143.408 35.1431C146.295 35.1431 148.345 37.1287 148.345 39.657C148.345 41.4039 147.553 42.782 144.7 45.8201L141.162 49.5853V49.7155H148.617V51.5276H138.319Z" fill="#CED4DB"/>
<path d="M157.091 51.7446C153.923 51.7446 151.666 50.0085 151.558 47.4478H153.641C153.76 48.9886 155.214 49.9326 157.059 49.9326C159.088 49.9326 160.564 48.7932 160.564 47.1114C160.564 45.3644 159.207 44.1383 156.809 44.1383H155.496V42.3479H156.809C158.697 42.3479 159.999 41.2629 159.999 39.5919C159.999 37.9859 158.871 36.9334 157.113 36.9334C155.464 36.9334 153.956 37.8557 153.891 39.4291H151.905C151.992 36.89 154.314 35.1431 157.157 35.1431C160.173 35.1431 162.018 37.183 162.018 39.4833C162.018 41.3063 160.987 42.6409 159.338 43.1292V43.2594C161.399 43.5958 162.604 45.0932 162.604 47.1331C162.604 49.7807 160.26 51.7446 157.091 51.7446Z" fill="#CED4DB"/>
<path d="M165.229 48.2396V46.5578L172.304 35.3599H174.811V46.4276H177.002V48.2396H174.811V51.5274H172.836V48.2396H165.229ZM172.847 46.4276V37.9423H172.716L167.432 46.2974V46.4276H172.847Z" fill="#CED4DB"/>
<path d="M35.129 84.0754C31.6242 84.0754 29.4433 82.2741 29.2588 79.5615H31.3747C31.5374 81.3952 33.2301 82.2307 35.129 82.2307C37.3209 82.2307 38.9919 81.0806 38.9919 79.3553C39.0461 77.1526 35.8018 76.7728 33.8378 76.1761C31.2445 75.384 29.7145 74.1036 29.7145 71.9551C29.7145 69.2208 32.1451 67.4087 35.2701 67.4087C38.4602 67.4087 40.6846 69.2642 40.7822 71.7056H38.764C38.5795 70.1322 37.1255 69.2316 35.205 69.2316C33.1108 69.2316 31.7219 70.3384 31.7219 71.8575C31.7219 73.5502 33.6208 74.147 34.8035 74.4725L36.4202 74.9174C38.1564 75.3948 40.9992 76.3714 40.9992 79.3879C40.9992 82.0354 38.8617 84.0754 35.129 84.0754Z" fill="#CED4DB"/>
<path d="M48.7463 71.6622V73.3332H46.2507V80.6465C46.2507 81.7316 46.6521 82.209 47.6829 82.209C47.9325 82.209 48.3557 82.1439 48.6812 82.0788L49.0827 83.7281C48.6812 83.8692 48.1278 83.9451 47.6287 83.9451C45.5345 83.9451 44.2975 82.7841 44.2975 80.7984V73.3332H42.4746V71.6622H44.2975V68.7759H46.2507V71.6622H48.7463Z" fill="#CED4DB"/>
<path d="M54.7474 84.0754C52.447 84.0754 50.6133 82.7299 50.6133 80.3427C50.6133 77.5649 53.0872 77.055 55.3333 76.7728C57.5252 76.4799 58.4475 76.5992 58.4475 75.601C58.4475 74.0927 57.5903 73.2247 55.9084 73.2247C54.1615 73.2247 53.2174 74.1578 52.8377 75.0042L50.9605 74.3857C51.8937 72.183 53.977 71.5103 55.8542 71.5103C57.4818 71.5103 60.4006 72.0094 60.4006 75.7963V83.7932H58.48V82.1439H58.3498C57.9375 83.0011 56.7982 84.0754 54.7474 84.0754ZM55.0838 82.3501C57.2431 82.3501 58.4475 80.8961 58.4475 79.4096V77.7277C58.122 78.1075 55.9952 78.3245 55.2465 78.4221C53.8251 78.6066 52.5773 79.0623 52.5773 80.4404C52.5773 81.6991 53.6298 82.3501 55.0838 82.3501Z" fill="#CED4DB"/>
<path d="M68.6037 71.6622V73.3332H66.1081V80.6465C66.1081 81.7316 66.5095 82.209 67.5404 82.209C67.7899 82.209 68.2131 82.1439 68.5386 82.0788L68.9401 83.7281C68.5386 83.8692 67.9852 83.9451 67.4861 83.9451C65.3919 83.9451 64.1549 82.7841 64.1549 80.7984V73.3332H62.332V71.6622H64.1549V68.7759H66.1081V71.6622H68.6037Z" fill="#CED4DB"/>
<path d="M75.211 83.9451C72.7588 83.9451 71.0986 82.4368 71.0986 79.3661V71.6621H73.0518V79.2033C73.0518 81.0697 74.1043 82.1873 75.797 82.1873C77.5331 82.1873 78.846 81.0046 78.846 78.9321V71.6621H80.81V83.7932H78.922V81.5254C78.1299 83.2941 76.8061 83.9451 75.211 83.9451Z" fill="#CED4DB"/>
<path d="M88.3621 84.0537C85.8664 84.0537 84.1303 82.9469 83.6963 80.8527L85.5518 80.4078C85.899 81.7425 86.8864 82.3392 88.3404 82.3392C90.0331 82.3392 91.1182 81.5037 91.1182 80.5055C91.1182 79.67 90.5322 79.1166 89.3386 78.8345L87.3204 78.357C85.1177 77.8362 84.0652 76.7511 84.0652 75.0476C84.0652 72.9642 85.9749 71.5103 88.5574 71.5103C91.0531 71.5103 92.366 72.7255 92.9194 74.4291L91.1507 74.8848C90.8143 74.0168 90.1308 73.1704 88.5683 73.1704C87.1251 73.1704 86.04 73.9191 86.04 74.9282C86.04 75.8288 86.6585 76.328 88.08 76.6643L89.9137 77.0984C92.1164 77.6192 93.1472 78.7151 93.1472 80.3753C93.1472 82.502 91.205 84.0537 88.3621 84.0537Z" fill="#CED4DB"/>
<path d="M97.4551 83.9345C96.6413 83.9345 95.9902 83.2834 95.9902 82.4696C95.9902 81.6558 96.6413 81.0048 97.4551 81.0048C98.2689 81.0048 98.9199 81.6558 98.9199 82.4696C98.9199 83.2834 98.2689 83.9345 97.4551 83.9345ZM97.4551 75.1562C96.6413 75.1562 95.9902 74.5052 95.9902 73.6914C95.9902 72.8776 96.6413 72.2266 97.4551 72.2266C98.2689 72.2266 98.9199 72.8776 98.9199 73.6914C98.9199 74.5052 98.2689 75.1562 97.4551 75.1562Z" fill="#CED4DB"/>
<path d="M110.574 76.5233V83.7932H108.621V71.6622H110.498L110.509 73.9083C111.29 72.1938 112.592 71.5103 114.22 71.5103C116.672 71.5103 118.322 73.0185 118.322 76.0892V83.7932H116.368V76.252C116.368 74.3857 115.327 73.2681 113.634 73.2681C111.887 73.2681 110.574 74.4508 110.574 76.5233Z" fill="#CED4DB"/>
<path d="M126.687 84.0537C123.388 84.0537 121.164 81.5471 121.164 77.8037C121.164 74.0059 123.388 71.5103 126.687 71.5103C129.997 71.5103 132.232 74.0059 132.232 77.8037C132.232 81.5471 129.997 84.0537 126.687 84.0537ZM126.687 82.3067C129.139 82.3067 130.257 80.1908 130.257 77.8037C130.257 75.3948 129.139 73.2572 126.687 73.2572C124.267 73.2572 123.15 75.384 123.15 77.8037C123.15 80.1908 124.267 82.3067 126.687 82.3067Z" fill="#CED4DB"/>
<path d="M137.028 76.5233V83.7932H135.075V71.6622H136.952L136.963 73.9083C137.744 72.1938 139.047 71.5103 140.674 71.5103C143.126 71.5103 144.776 73.0185 144.776 76.0892V83.7932H142.823V76.252C142.823 74.3857 141.781 73.2681 140.088 73.2681C138.341 73.2681 137.028 74.4508 137.028 76.5233Z" fill="#CED4DB"/>
<path d="M153.304 84.0537C149.788 84.0537 147.618 81.558 147.618 77.8254C147.618 74.1036 149.767 71.5103 153.076 71.5103C155.648 71.5103 158.36 73.0945 158.36 77.5758V78.3896H149.593C149.691 80.9287 151.166 82.3175 153.315 82.3175C154.747 82.3175 155.821 81.6882 156.277 80.4512L158.165 80.9721C157.601 82.8058 155.789 84.0537 153.304 84.0537ZM149.604 76.7403H156.375C156.19 74.6787 155.073 73.2464 153.076 73.2464C150.993 73.2464 149.723 74.8848 149.604 76.7403Z" fill="#CED4DB"/>
<path d="M159.652 83.7937L163.917 77.5654L159.902 71.6626H162.181C163.135 73.1383 164.264 74.8853 165.078 76.3826C165.805 74.8419 166.987 73.1057 167.942 71.6626H170.178L166.119 77.6739L170.373 83.7937H168.105C167.085 82.2312 165.87 80.43 164.991 78.8241C164.199 80.4517 162.918 82.2529 161.909 83.7937H159.652Z" fill="#CED4DB"/>
<path d="M172.792 83.7935V71.6624H174.745V83.7935H172.792ZM173.779 69.6767C173.041 69.6767 172.423 69.1016 172.423 68.3855C172.423 67.6693 173.041 67.0942 173.779 67.0942C174.528 67.0942 175.146 67.6693 175.146 68.3855C175.146 69.1016 174.528 69.6767 173.779 69.6767Z" fill="#CED4DB"/>
<path d="M182.298 84.0537C179.802 84.0537 178.066 82.9469 177.632 80.8527L179.487 80.4078C179.835 81.7425 180.822 82.3392 182.276 82.3392C183.969 82.3392 185.054 81.5037 185.054 80.5055C185.054 79.67 184.468 79.1166 183.274 78.8345L181.256 78.357C179.053 77.8362 178.001 76.7511 178.001 75.0476C178.001 72.9642 179.91 71.5103 182.493 71.5103C184.989 71.5103 186.302 72.7255 186.855 74.4291L185.086 74.8848C184.75 74.0168 184.066 73.1704 182.504 73.1704C181.061 73.1704 179.976 73.9191 179.976 74.9282C179.976 75.8288 180.594 76.328 182.016 76.6643L183.849 77.0984C186.052 77.6192 187.083 78.7151 187.083 80.3753C187.083 82.502 185.141 84.0537 182.298 84.0537Z" fill="#CED4DB"/>
<path d="M194.678 71.6622V73.3332H192.182V80.6465C192.182 81.7316 192.584 82.209 193.615 82.209C193.864 82.209 194.287 82.1439 194.613 82.0788L195.014 83.7281C194.613 83.8692 194.059 83.9451 193.56 83.9451C191.466 83.9451 190.229 82.7841 190.229 80.7984V73.3332H188.406V71.6622H190.229V68.7759H192.182V71.6622H194.678Z" fill="#CED4DB"/>
<path d="M366 24C366 22.4087 366.632 20.8826 367.757 19.7574C368.883 18.6322 370.409 18 372 18H580C581.591 18 583.117 18.6322 584.243 19.7574C585.368 20.8826 586 22.4087 586 24V201.98C586 203.571 585.368 205.097 584.243 206.223C583.117 207.348 581.591 207.98 580 207.98H372C370.409 207.98 368.883 207.348 367.757 206.223C366.632 205.097 366 203.571 366 201.98V24Z" stroke="#CED4DB"/>
<path d="M378.564 51.5279L384.435 35.3604H386.822L392.768 51.5279H390.598L388.981 47.014H382.319L380.756 51.5279H378.564ZM382.948 45.2128H388.341C387.223 42.0661 386.768 40.981 385.617 37.0097C384.446 41.1004 384.044 42.001 382.948 45.2128Z" fill="#CED4DB"/>
<path d="M399.593 51.7883C396.566 51.7883 394.461 49.3577 394.461 45.4949C394.461 41.6538 396.577 39.2449 399.604 39.2449C401.97 39.2449 402.718 40.6989 403.12 41.3391H403.272V35.3604H405.225V51.5279H403.337V49.6507H403.12C402.718 50.3235 401.905 51.7883 399.593 51.7883ZM399.886 50.0413C402.089 50.0413 403.293 48.175 403.293 45.4732C403.293 42.7931 402.122 40.9919 399.886 40.9919C397.586 40.9919 396.447 42.9558 396.447 45.4732C396.447 48.0231 397.618 50.0413 399.886 50.0413Z" fill="#CED4DB"/>
<path d="M413.2 51.7883C410.172 51.7883 408.067 49.3577 408.067 45.4949C408.067 41.6538 410.183 39.2449 413.211 39.2449C415.576 39.2449 416.325 40.6989 416.726 41.3391H416.878V35.3604H418.831V51.5279H416.943V49.6507H416.726C416.325 50.3235 415.511 51.7883 413.2 51.7883ZM413.493 50.0413C415.695 50.0413 416.9 48.175 416.9 45.4732C416.9 42.7931 415.728 40.9919 413.493 40.9919C411.192 40.9919 410.053 42.9558 410.053 45.4732C410.053 48.0231 411.225 50.0413 413.493 50.0413Z" fill="#CED4DB"/>
<path d="M422.26 51.5278V39.3968H424.148V41.2631H424.278C424.723 40.0369 425.982 39.2231 427.425 39.2231C427.707 39.2231 428.184 39.2448 428.412 39.2557V41.2197C428.293 41.198 427.761 41.1112 427.24 41.1112C425.493 41.1112 424.213 42.2939 424.213 43.9323V51.5278H422.26Z" fill="#CED4DB"/>
<path d="M435.357 51.7885C431.841 51.7885 429.671 49.2929 429.671 45.5602C429.671 41.8384 431.819 39.2451 435.129 39.2451C437.7 39.2451 440.413 40.8293 440.413 45.3107V46.1245H431.646C431.743 48.6635 433.219 50.0524 435.368 50.0524C436.8 50.0524 437.874 49.4231 438.33 48.1861L440.218 48.7069C439.654 50.5407 437.841 51.7885 435.357 51.7885ZM431.657 44.4752H438.427C438.243 42.4135 437.125 40.9812 435.129 40.9812C433.045 40.9812 431.776 42.6197 431.657 44.4752Z" fill="#CED4DB"/>
<path d="M447.336 51.7885C444.84 51.7885 443.104 50.6817 442.67 48.5876L444.525 48.1427C444.873 49.4773 445.86 50.0741 447.314 50.0741C449.007 50.0741 450.092 49.2386 450.092 48.2403C450.092 47.4048 449.506 46.8515 448.312 46.5693L446.294 46.0919C444.091 45.5711 443.039 44.486 443.039 42.7824C443.039 40.6991 444.949 39.2451 447.531 39.2451C450.027 39.2451 451.34 40.4604 451.893 42.164L450.124 42.6197C449.788 41.7516 449.104 40.9053 447.542 40.9053C446.099 40.9053 445.014 41.654 445.014 42.6631C445.014 43.5637 445.632 44.0628 447.054 44.3992L448.887 44.8332C451.09 45.3541 452.121 46.45 452.121 48.1101C452.121 50.2369 450.179 51.7885 447.336 51.7885Z" fill="#CED4DB"/>
<path d="M459.066 51.7885C456.571 51.7885 454.834 50.6817 454.4 48.5876L456.256 48.1427C456.603 49.4773 457.59 50.0741 459.044 50.0741C460.737 50.0741 461.822 49.2386 461.822 48.2403C461.822 47.4048 461.236 46.8515 460.043 46.5693L458.025 46.0919C455.822 45.5711 454.769 44.486 454.769 42.7824C454.769 40.6991 456.679 39.2451 459.262 39.2451C461.757 39.2451 463.07 40.4604 463.623 42.164L461.855 42.6197C461.518 41.7516 460.835 40.9053 459.272 40.9053C457.829 40.9053 456.744 41.654 456.744 42.6631C456.744 43.5637 457.363 44.0628 458.784 44.3992L460.618 44.8332C462.821 45.3541 463.851 46.45 463.851 48.1101C463.851 50.2369 461.909 51.7885 459.066 51.7885Z" fill="#CED4DB"/>
<path d="M468.158 51.6688C467.344 51.6688 466.693 51.0178 466.693 50.204C466.693 49.3902 467.344 48.7391 468.158 48.7391C468.972 48.7391 469.623 49.3902 469.623 50.204C469.623 51.0178 468.972 51.6688 468.158 51.6688ZM468.158 42.8906C467.344 42.8906 466.693 42.2396 466.693 41.4258C466.693 40.612 467.344 39.9609 468.158 39.9609C468.972 39.9609 469.623 40.612 469.623 41.4258C469.623 42.2396 468.972 42.8906 468.158 42.8906Z" fill="#CED4DB"/>
<path d="M484.402 51.7444C481.559 51.7444 479.433 49.9215 479.324 47.4475H481.321C481.451 48.8907 482.775 49.9323 484.402 49.9323C486.355 49.9323 487.777 48.4458 487.777 46.395C487.777 44.3117 486.301 42.76 484.272 42.76C483.274 42.76 482.145 43.1181 481.505 43.6064L479.574 43.3677L480.529 35.3599H489.036V37.1719H482.265L481.711 41.892H481.798C482.46 41.3386 483.534 40.948 484.652 40.948C487.614 40.948 489.795 43.2375 489.795 46.3625C489.795 49.4658 487.516 51.7444 484.402 51.7444Z" fill="#CED4DB"/>
<path d="M498.128 51.7446C495.426 51.7446 492.442 50.0194 492.442 44.0623C492.442 38.3766 494.71 35.1431 498.378 35.1431C501.09 35.1431 503.054 36.89 503.445 39.4291H501.427C501.069 38.0294 500.06 36.966 498.378 36.966C495.893 36.966 494.396 39.2229 494.396 43.1075H494.526C495.394 41.762 496.826 40.959 498.508 40.959C501.275 40.959 503.575 43.1834 503.575 46.3084C503.575 49.3249 501.427 51.7446 498.128 51.7446ZM498.128 49.9326C500.07 49.9326 501.579 48.3267 501.579 46.3084C501.579 44.3336 500.136 42.7494 498.182 42.7494C496.218 42.7494 494.688 44.4421 494.688 46.3301C494.688 48.2399 496.142 49.9326 498.128 49.9326Z" fill="#CED4DB"/>
<path d="M507.07 51.5274L514.253 37.3021V37.1719H505.963V35.3599H516.412V37.2804L509.24 51.5274H507.07Z" fill="#CED4DB"/>
<path d="M524.029 51.7446C520.741 51.7446 518.484 49.8675 518.484 47.2307C518.484 45.1908 519.83 43.4547 521.642 43.1292V43.0424C520.069 42.6409 519.07 41.1544 519.07 39.4399C519.07 36.9768 521.154 35.1431 524.029 35.1431C526.861 35.1431 528.977 36.9768 528.977 39.4399C528.977 41.1544 527.957 42.6409 526.427 43.0424V43.1292C528.185 43.4547 529.585 45.1908 529.585 47.2307C529.585 49.8675 527.284 51.7446 524.029 51.7446ZM524.029 49.9543C526.167 49.9543 527.523 48.8366 527.523 47.1222C527.523 45.3319 526.026 44.0515 524.029 44.0515C521.989 44.0515 520.513 45.3319 520.513 47.1222C520.513 48.8366 521.848 49.9543 524.029 49.9543ZM524.029 42.3262C525.733 42.3262 526.98 41.2303 526.98 39.5919C526.98 37.9751 525.787 36.9226 524.029 36.9226C522.239 36.9226 521.067 37.9751 521.067 39.5919C521.067 41.2303 522.282 42.3262 524.029 42.3262Z" fill="#CED4DB"/>
<path d="M385.129 84.0754C381.624 84.0754 379.443 82.2741 379.259 79.5615H381.375C381.537 81.3952 383.23 82.2307 385.129 82.2307C387.321 82.2307 388.992 81.0806 388.992 79.3553C389.046 77.1526 385.802 76.7728 383.838 76.1761C381.244 75.384 379.715 74.1036 379.715 71.9551C379.715 69.2208 382.145 67.4087 385.27 67.4087C388.46 67.4087 390.685 69.2642 390.782 71.7056H388.764C388.58 70.1322 387.126 69.2316 385.205 69.2316C383.111 69.2316 381.722 70.3384 381.722 71.8575C381.722 73.5502 383.621 74.147 384.803 74.4725L386.42 74.9174C388.156 75.3948 390.999 76.3714 390.999 79.3879C390.999 82.0354 388.862 84.0754 385.129 84.0754Z" fill="#CED4DB"/>
<path d="M398.746 71.6622V73.3332H396.251V80.6465C396.251 81.7316 396.652 82.209 397.683 82.209C397.933 82.209 398.356 82.1439 398.681 82.0788L399.083 83.7281C398.681 83.8692 398.128 83.9451 397.629 83.9451C395.535 83.9451 394.298 82.7841 394.298 80.7984V73.3332H392.475V71.6622H394.298V68.7759H396.251V71.6622H398.746Z" fill="#CED4DB"/>
<path d="M404.747 84.0754C402.447 84.0754 400.613 82.7299 400.613 80.3427C400.613 77.5649 403.087 77.055 405.333 76.7728C407.525 76.4799 408.447 76.5992 408.447 75.601C408.447 74.0927 407.59 73.2247 405.908 73.2247C404.161 73.2247 403.217 74.1578 402.838 75.0042L400.961 74.3857C401.894 72.183 403.977 71.5103 405.854 71.5103C407.482 71.5103 410.401 72.0094 410.401 75.7963V83.7932H408.48V82.1439H408.35C407.938 83.0011 406.798 84.0754 404.747 84.0754ZM405.084 82.3501C407.243 82.3501 408.447 80.8961 408.447 79.4096V77.7277C408.122 78.1075 405.995 78.3245 405.247 78.4221C403.825 78.6066 402.577 79.0623 402.577 80.4404C402.577 81.6991 403.63 82.3501 405.084 82.3501Z" fill="#CED4DB"/>
<path d="M418.604 71.6622V73.3332H416.108V80.6465C416.108 81.7316 416.51 82.209 417.54 82.209C417.79 82.209 418.213 82.1439 418.539 82.0788L418.94 83.7281C418.539 83.8692 417.985 83.9451 417.486 83.9451C415.392 83.9451 414.155 82.7841 414.155 80.7984V73.3332H412.332V71.6622H414.155V68.7759H416.108V71.6622H418.604Z" fill="#CED4DB"/>
<path d="M425.211 83.9451C422.759 83.9451 421.099 82.4368 421.099 79.3661V71.6621H423.052V79.2033C423.052 81.0697 424.104 82.1873 425.797 82.1873C427.533 82.1873 428.846 81.0046 428.846 78.9321V71.6621H430.81V83.7932H428.922V81.5254C428.13 83.2941 426.806 83.9451 425.211 83.9451Z" fill="#CED4DB"/>
<path d="M438.362 84.0537C435.866 84.0537 434.13 82.9469 433.696 80.8527L435.552 80.4078C435.899 81.7425 436.886 82.3392 438.34 82.3392C440.033 82.3392 441.118 81.5037 441.118 80.5055C441.118 79.67 440.532 79.1166 439.339 78.8345L437.32 78.357C435.118 77.8362 434.065 76.7511 434.065 75.0476C434.065 72.9642 435.975 71.5103 438.557 71.5103C441.053 71.5103 442.366 72.7255 442.919 74.4291L441.151 74.8848C440.814 74.0168 440.131 73.1704 438.568 73.1704C437.125 73.1704 436.04 73.9191 436.04 74.9282C436.04 75.8288 436.659 76.328 438.08 76.6643L439.914 77.0984C442.116 77.6192 443.147 78.7151 443.147 80.3753C443.147 82.502 441.205 84.0537 438.362 84.0537Z" fill="#CED4DB"/>
<path d="M447.455 83.9345C446.641 83.9345 445.99 83.2834 445.99 82.4696C445.99 81.6558 446.641 81.0048 447.455 81.0048C448.269 81.0048 448.92 81.6558 448.92 82.4696C448.92 83.2834 448.269 83.9345 447.455 83.9345ZM447.455 75.1562C446.641 75.1562 445.99 74.5052 445.99 73.6914C445.99 72.8776 446.641 72.2266 447.455 72.2266C448.269 72.2266 448.92 72.8776 448.92 73.6914C448.92 74.5052 448.269 75.1562 447.455 75.1562Z" fill="#CED4DB"/>
<path d="M460.574 76.5233V83.7932H458.621V71.6622H460.498L460.509 73.9083C461.29 72.1938 462.592 71.5103 464.22 71.5103C466.672 71.5103 468.322 73.0185 468.322 76.0892V83.7932H466.368V76.252C466.368 74.3857 465.327 73.2681 463.634 73.2681C461.887 73.2681 460.574 74.4508 460.574 76.5233Z" fill="#CED4DB"/>
<path d="M476.687 84.0537C473.388 84.0537 471.164 81.5471 471.164 77.8037C471.164 74.0059 473.388 71.5103 476.687 71.5103C479.997 71.5103 482.232 74.0059 482.232 77.8037C482.232 81.5471 479.997 84.0537 476.687 84.0537ZM476.687 82.3067C479.139 82.3067 480.257 80.1908 480.257 77.8037C480.257 75.3948 479.139 73.2572 476.687 73.2572C474.267 73.2572 473.15 75.384 473.15 77.8037C473.15 80.1908 474.267 82.3067 476.687 82.3067Z" fill="#CED4DB"/>
<path d="M487.028 76.5233V83.7932H485.075V71.6622H486.952L486.963 73.9083C487.744 72.1938 489.047 71.5103 490.674 71.5103C493.126 71.5103 494.776 73.0185 494.776 76.0892V83.7932H492.823V76.252C492.823 74.3857 491.781 73.2681 490.088 73.2681C488.341 73.2681 487.028 74.4508 487.028 76.5233Z" fill="#CED4DB"/>
<path d="M503.304 84.0537C499.788 84.0537 497.618 81.558 497.618 77.8254C497.618 74.1036 499.767 71.5103 503.076 71.5103C505.648 71.5103 508.36 73.0945 508.36 77.5758V78.3896H499.593C499.691 80.9287 501.166 82.3175 503.315 82.3175C504.747 82.3175 505.821 81.6882 506.277 80.4512L508.165 80.9721C507.601 82.8058 505.789 84.0537 503.304 84.0537ZM499.604 76.7403H506.375C506.19 74.6787 505.073 73.2464 503.076 73.2464C500.993 73.2464 499.723 74.8848 499.604 76.7403Z" fill="#CED4DB"/>
<path d="M509.652 83.7937L513.917 77.5654L509.902 71.6626H512.181C513.135 73.1383 514.264 74.8853 515.078 76.3826C515.805 74.8419 516.987 73.1057 517.942 71.6626H520.178L516.119 77.6739L520.373 83.7937H518.105C517.085 82.2312 515.87 80.43 514.991 78.8241C514.199 80.4517 512.918 82.2529 511.909 83.7937H509.652Z" fill="#CED4DB"/>
<path d="M522.792 83.7935V71.6624H524.745V83.7935H522.792ZM523.779 69.6767C523.041 69.6767 522.423 69.1016 522.423 68.3855C522.423 67.6693 523.041 67.0942 523.779 67.0942C524.528 67.0942 525.146 67.6693 525.146 68.3855C525.146 69.1016 524.528 69.6767 523.779 69.6767Z" fill="#CED4DB"/>
<path d="M532.298 84.0537C529.802 84.0537 528.066 82.9469 527.632 80.8527L529.487 80.4078C529.835 81.7425 530.822 82.3392 532.276 82.3392C533.969 82.3392 535.054 81.5037 535.054 80.5055C535.054 79.67 534.468 79.1166 533.274 78.8345L531.256 78.357C529.053 77.8362 528.001 76.7511 528.001 75.0476C528.001 72.9642 529.91 71.5103 532.493 71.5103C534.989 71.5103 536.302 72.7255 536.855 74.4291L535.086 74.8848C534.75 74.0168 534.066 73.1704 532.504 73.1704C531.061 73.1704 529.976 73.9191 529.976 74.9282C529.976 75.8288 530.594 76.328 532.016 76.6643L533.849 77.0984C536.052 77.6192 537.083 78.7151 537.083 80.3753C537.083 82.502 535.141 84.0537 532.298 84.0537Z" fill="#CED4DB"/>
<path d="M544.678 71.6622V73.3332H542.182V80.6465C542.182 81.7316 542.584 82.209 543.615 82.209C543.864 82.209 544.287 82.1439 544.613 82.0788L545.014 83.7281C544.613 83.8692 544.059 83.9451 543.56 83.9451C541.466 83.9451 540.229 82.7841 540.229 80.7984V73.3332H538.406V71.6622H540.229V68.7759H542.182V71.6622H544.678Z" fill="#CED4DB"/>
<path d="M379.953 116.059V99.8916H385.682C389.057 99.8916 390.652 101.812 390.652 104.178C390.652 106.25 389.415 107.194 388.004 107.574V107.726C389.513 107.823 391.281 109.212 391.281 111.751C391.281 114.193 389.675 116.059 385.867 116.059H379.953ZM382.015 114.236H385.812C388.33 114.236 389.296 113.129 389.296 111.73C389.296 110.113 387.993 108.724 385.921 108.724H382.015V114.236ZM382.015 106.988H385.574C387.31 106.988 388.677 105.892 388.677 104.221C388.677 102.821 387.733 101.715 385.639 101.715H382.015V106.988Z" fill="#CED4DB"/>
<path d="M397.651 116.341C395.35 116.341 393.517 114.996 393.517 112.609C393.517 109.831 395.991 109.321 398.237 109.039C400.428 108.746 401.351 108.865 401.351 107.867C401.351 106.359 400.494 105.491 398.812 105.491C397.065 105.491 396.121 106.424 395.741 107.27L393.864 106.652C394.797 104.449 396.88 103.776 398.757 103.776C400.385 103.776 403.304 104.275 403.304 108.062V116.059H401.383V114.41H401.253C400.841 115.267 399.701 116.341 397.651 116.341ZM397.987 114.616C400.146 114.616 401.351 113.162 401.351 111.676V109.994C401.025 110.374 398.899 110.591 398.15 110.688C396.728 110.873 395.481 111.328 395.481 112.706C395.481 113.965 396.533 114.616 397.987 114.616Z" fill="#CED4DB"/>
<path d="M408.686 99.8916V116.059H406.732V99.8916H408.686Z" fill="#CED4DB"/>
<path d="M415.511 116.341C413.211 116.341 411.377 114.996 411.377 112.609C411.377 109.831 413.851 109.321 416.097 109.039C418.289 108.746 419.211 108.865 419.211 107.867C419.211 106.359 418.354 105.491 416.672 105.491C414.925 105.491 413.981 106.424 413.601 107.27L411.724 106.652C412.657 104.449 414.741 103.776 416.618 103.776C418.245 103.776 421.164 104.275 421.164 108.062V116.059H419.244V114.41H419.113C418.701 115.267 417.562 116.341 415.511 116.341ZM415.847 114.616C418.007 114.616 419.211 113.162 419.211 111.676V109.994C418.886 110.374 416.759 110.591 416.01 110.688C414.589 110.873 413.341 111.328 413.341 112.706C413.341 113.965 414.393 114.616 415.847 114.616Z" fill="#CED4DB"/>
<path d="M426.546 108.789V116.059H424.593V103.928H426.47L426.481 106.174C427.262 104.46 428.564 103.776 430.192 103.776C432.644 103.776 434.293 105.285 434.293 108.355V116.059H432.34V108.518C432.34 106.652 431.299 105.534 429.606 105.534C427.859 105.534 426.546 106.717 426.546 108.789Z" fill="#CED4DB"/>
<path d="M442.66 116.32C439.361 116.32 437.137 113.813 437.137 110.07C437.137 106.272 439.361 103.776 442.66 103.776C445.003 103.776 446.913 105.013 447.575 107.129L445.698 107.661C445.34 106.413 444.255 105.523 442.66 105.523C440.24 105.523 439.122 107.65 439.122 110.07C439.122 112.457 440.24 114.573 442.66 114.573C444.287 114.573 445.394 113.65 445.752 112.338L447.618 112.869C446.967 115.029 445.036 116.32 442.66 116.32Z" fill="#CED4DB"/>
<path d="M455.518 116.32C452.002 116.32 449.832 113.824 449.832 110.091C449.832 106.37 451.98 103.776 455.29 103.776C457.862 103.776 460.574 105.361 460.574 109.842V110.656H451.807C451.905 113.195 453.38 114.584 455.529 114.584C456.961 114.584 458.035 113.954 458.491 112.717L460.379 113.238C459.815 115.072 458.003 116.32 455.518 116.32ZM451.818 109.006H458.589C458.404 106.945 457.286 105.512 455.29 105.512C453.207 105.512 451.937 107.151 451.818 109.006Z" fill="#CED4DB"/>
<path d="M464.859 116.2C464.046 116.2 463.395 115.549 463.395 114.735C463.395 113.921 464.046 113.27 464.859 113.27C465.673 113.27 466.324 113.921 466.324 114.735C466.324 115.549 465.673 116.2 464.859 116.2ZM464.859 107.422C464.046 107.422 463.395 106.771 463.395 105.957C463.395 105.143 464.046 104.492 464.859 104.492C465.673 104.492 466.324 105.143 466.324 105.957C466.324 106.771 465.673 107.422 464.859 107.422Z" fill="#CED4DB"/>
<path d="M481.396 99.8911V116.059H479.367V101.801H479.259L475.353 104.698V102.484L478.868 99.8911H481.396Z" fill="#CED4DB"/>
<path d="M490.359 116.276C486.756 116.276 484.673 113.259 484.673 107.986C484.673 102.745 486.778 99.6743 490.359 99.6743C493.939 99.6743 496.044 102.745 496.044 107.986C496.044 113.249 493.972 116.276 490.359 116.276ZM490.359 114.475C492.724 114.475 494.059 112.088 494.059 107.986C494.059 103.863 492.724 101.465 490.359 101.465C487.993 101.465 486.659 103.874 486.659 107.986C486.659 112.088 487.993 114.475 490.359 114.475Z" fill="#CED4DB"/>
<path d="M504.378 116.276C500.776 116.276 498.692 113.259 498.692 107.986C498.692 102.745 500.797 99.6743 504.378 99.6743C507.959 99.6743 510.064 102.745 510.064 107.986C510.064 113.249 507.991 116.276 504.378 116.276ZM504.378 114.475C506.744 114.475 508.078 112.088 508.078 107.986C508.078 103.863 506.744 101.465 504.378 101.465C502.013 101.465 500.678 103.874 500.678 107.986C500.678 112.088 502.013 114.475 504.378 114.475Z" fill="#CED4DB"/>
<path d="M518.398 116.276C514.795 116.276 512.712 113.259 512.712 107.986C512.712 102.745 514.817 99.6743 518.398 99.6743C521.978 99.6743 524.083 102.745 524.083 107.986C524.083 113.249 522.011 116.276 518.398 116.276ZM518.398 114.475C520.763 114.475 522.098 112.088 522.098 107.986C522.098 103.863 520.763 101.465 518.398 101.465C516.032 101.465 514.698 103.874 514.698 107.986C514.698 112.088 516.032 114.475 518.398 114.475Z" fill="#CED4DB"/>
<path d="M716 24C716 22.4087 716.632 20.8826 717.757 19.7574C718.883 18.6322 720.409 18 722 18H950C951.591 18 953.117 18.6322 954.243 19.7574C955.368 20.8826 956 22.4087 956 24V201.98C956 203.571 955.368 205.097 954.243 206.223C953.117 207.348 951.591 207.98 950 207.98H722C720.409 207.98 718.883 207.348 717.757 206.223C716.632 205.097 716 203.571 716 201.98V24Z" stroke="#CED4DB"/>
<path d="M728.564 51.5279L734.435 35.3604H736.822L742.768 51.5279H740.598L738.981 47.014H732.319L730.756 51.5279H728.564ZM732.948 45.2128H738.341C737.223 42.0661 736.768 40.981 735.617 37.0097C734.446 41.1004 734.044 42.001 732.948 45.2128Z" fill="#CED4DB"/>
<path d="M749.593 51.7883C746.566 51.7883 744.461 49.3577 744.461 45.4949C744.461 41.6538 746.577 39.2449 749.604 39.2449C751.97 39.2449 752.718 40.6989 753.12 41.3391H753.272V35.3604H755.225V51.5279H753.337V49.6507H753.12C752.718 50.3235 751.905 51.7883 749.593 51.7883ZM749.886 50.0413C752.089 50.0413 753.293 48.175 753.293 45.4732C753.293 42.7931 752.122 40.9919 749.886 40.9919C747.586 40.9919 746.447 42.9558 746.447 45.4732C746.447 48.0231 747.618 50.0413 749.886 50.0413Z" fill="#CED4DB"/>
<path d="M763.2 51.7883C760.172 51.7883 758.067 49.3577 758.067 45.4949C758.067 41.6538 760.183 39.2449 763.211 39.2449C765.576 39.2449 766.325 40.6989 766.726 41.3391H766.878V35.3604H768.831V51.5279H766.943V49.6507H766.726C766.325 50.3235 765.511 51.7883 763.2 51.7883ZM763.493 50.0413C765.695 50.0413 766.9 48.175 766.9 45.4732C766.9 42.7931 765.728 40.9919 763.493 40.9919C761.192 40.9919 760.053 42.9558 760.053 45.4732C760.053 48.0231 761.225 50.0413 763.493 50.0413Z" fill="#CED4DB"/>
<path d="M772.26 51.5278V39.3968H774.148V41.2631H774.278C774.723 40.0369 775.982 39.2231 777.425 39.2231C777.707 39.2231 778.184 39.2448 778.412 39.2557V41.2197C778.293 41.198 777.761 41.1112 777.24 41.1112C775.493 41.1112 774.213 42.2939 774.213 43.9323V51.5278H772.26Z" fill="#CED4DB"/>
<path d="M785.357 51.7885C781.841 51.7885 779.671 49.2929 779.671 45.5602C779.671 41.8384 781.819 39.2451 785.129 39.2451C787.7 39.2451 790.413 40.8293 790.413 45.3107V46.1245H781.646C781.743 48.6635 783.219 50.0524 785.368 50.0524C786.8 50.0524 787.874 49.4231 788.33 48.1861L790.218 48.7069C789.654 50.5407 787.841 51.7885 785.357 51.7885ZM781.657 44.4752H788.427C788.243 42.4135 787.125 40.9812 785.129 40.9812C783.045 40.9812 781.776 42.6197 781.657 44.4752Z" fill="#CED4DB"/>
<path d="M797.336 51.7885C794.84 51.7885 793.104 50.6817 792.67 48.5876L794.525 48.1427C794.873 49.4773 795.86 50.0741 797.314 50.0741C799.007 50.0741 800.092 49.2386 800.092 48.2403C800.092 47.4048 799.506 46.8515 798.312 46.5693L796.294 46.0919C794.091 45.5711 793.039 44.486 793.039 42.7824C793.039 40.6991 794.949 39.2451 797.531 39.2451C800.027 39.2451 801.34 40.4604 801.893 42.164L800.124 42.6197C799.788 41.7516 799.104 40.9053 797.542 40.9053C796.099 40.9053 795.014 41.654 795.014 42.6631C795.014 43.5637 795.632 44.0628 797.054 44.3992L798.887 44.8332C801.09 45.3541 802.121 46.45 802.121 48.1101C802.121 50.2369 800.179 51.7885 797.336 51.7885Z" fill="#CED4DB"/>
<path d="M809.066 51.7885C806.571 51.7885 804.834 50.6817 804.4 48.5876L806.256 48.1427C806.603 49.4773 807.59 50.0741 809.044 50.0741C810.737 50.0741 811.822 49.2386 811.822 48.2403C811.822 47.4048 811.236 46.8515 810.043 46.5693L808.025 46.0919C805.822 45.5711 804.769 44.486 804.769 42.7824C804.769 40.6991 806.679 39.2451 809.262 39.2451C811.757 39.2451 813.07 40.4604 813.623 42.164L811.855 42.6197C811.518 41.7516 810.835 40.9053 809.272 40.9053C807.829 40.9053 806.744 41.654 806.744 42.6631C806.744 43.5637 807.363 44.0628 808.784 44.3992L810.618 44.8332C812.821 45.3541 813.851 46.45 813.851 48.1101C813.851 50.2369 811.909 51.7885 809.066 51.7885Z" fill="#CED4DB"/>
<path d="M818.158 51.6688C817.344 51.6688 816.693 51.0178 816.693 50.204C816.693 49.3902 817.344 48.7391 818.158 48.7391C818.972 48.7391 819.623 49.3902 819.623 50.204C819.623 51.0178 818.972 51.6688 818.158 51.6688ZM818.158 42.8906C817.344 42.8906 816.693 42.2396 816.693 41.4258C816.693 40.612 817.344 39.9609 818.158 39.9609C818.972 39.9609 819.623 40.612 819.623 41.4258C819.623 42.2396 818.972 42.8906 818.158 42.8906Z" fill="#CED4DB"/>
<path d="M834.153 51.745C831.408 51.745 829.444 49.9981 829.064 47.4156H831.104C831.44 48.8479 832.449 49.9221 834.153 49.9221C836.616 49.9221 838.135 47.676 838.135 43.7589H838.005C837.137 45.0827 835.715 45.9182 834.023 45.9182C831.234 45.9182 828.934 43.683 828.934 40.5688C828.934 37.5523 831.104 35.0892 834.424 35.1435C837.082 35.1869 840.066 36.8579 840.066 42.804C840.066 48.5224 837.809 51.745 834.153 51.745ZM834.326 44.117C836.29 44.117 837.842 42.4134 837.842 40.5146C837.842 38.6591 836.377 36.9555 834.391 36.9555C832.438 36.9555 830.952 38.5614 830.952 40.558C830.952 42.5436 832.373 44.117 834.326 44.117Z" fill="#CED4DB"/>
<path d="M848.4 51.7451C844.797 51.7451 842.714 48.7286 842.714 43.4552C842.714 38.2143 844.819 35.1436 848.4 35.1436C851.98 35.1436 854.085 38.2143 854.085 43.4552C854.085 48.7178 852.013 51.7451 848.4 51.7451ZM848.4 49.9439C850.765 49.9439 852.1 47.5567 852.1 43.4552C852.1 39.3319 850.765 36.9339 848.4 36.9339C846.034 36.9339 844.7 39.3428 844.7 43.4552C844.7 47.5567 846.034 49.9439 848.4 49.9439Z" fill="#CED4DB"/>
<path d="M862.495 35.3604V51.5279H860.466V37.2701H860.357L856.451 40.1672V37.9537L859.967 35.3604H862.495Z" fill="#CED4DB"/>
<path d="M866.119 51.5281V50.0416L871.49 44.2147C873.281 42.2725 874.192 41.1657 874.192 39.6791C874.192 37.9864 872.879 36.9339 871.154 36.9339C869.309 36.9339 868.137 38.1275 868.137 39.9504H866.163C866.163 37.0858 868.333 35.1436 871.208 35.1436C874.094 35.1436 876.145 37.1292 876.145 39.6574C876.145 41.4044 875.353 42.7824 872.499 45.8206L868.962 49.5858V49.716H876.416V51.5281H866.119Z" fill="#CED4DB"/>
<path d="M735.129 84.0754C731.624 84.0754 729.443 82.2741 729.259 79.5615H731.375C731.537 81.3952 733.23 82.2307 735.129 82.2307C737.321 82.2307 738.992 81.0806 738.992 79.3553C739.046 77.1526 735.802 76.7728 733.838 76.1761C731.244 75.384 729.715 74.1036 729.715 71.9551C729.715 69.2208 732.145 67.4087 735.27 67.4087C738.46 67.4087 740.685 69.2642 740.782 71.7056H738.764C738.58 70.1322 737.126 69.2316 735.205 69.2316C733.111 69.2316 731.722 70.3384 731.722 71.8575C731.722 73.5502 733.621 74.147 734.803 74.4725L736.42 74.9174C738.156 75.3948 740.999 76.3714 740.999 79.3879C740.999 82.0354 738.862 84.0754 735.129 84.0754Z" fill="#CED4DB"/>
<path d="M748.746 71.6622V73.3332H746.251V80.6465C746.251 81.7316 746.652 82.209 747.683 82.209C747.933 82.209 748.356 82.1439 748.681 82.0788L749.083 83.7281C748.681 83.8692 748.128 83.9451 747.629 83.9451C745.535 83.9451 744.298 82.7841 744.298 80.7984V73.3332H742.475V71.6622H744.298V68.7759H746.251V71.6622H748.746Z" fill="#CED4DB"/>
<path d="M754.747 84.0754C752.447 84.0754 750.613 82.7299 750.613 80.3427C750.613 77.5649 753.087 77.055 755.333 76.7728C757.525 76.4799 758.447 76.5992 758.447 75.601C758.447 74.0927 757.59 73.2247 755.908 73.2247C754.161 73.2247 753.217 74.1578 752.838 75.0042L750.961 74.3857C751.894 72.183 753.977 71.5103 755.854 71.5103C757.482 71.5103 760.401 72.0094 760.401 75.7963V83.7932H758.48V82.1439H758.35C757.938 83.0011 756.798 84.0754 754.747 84.0754ZM755.084 82.3501C757.243 82.3501 758.447 80.8961 758.447 79.4096V77.7277C758.122 78.1075 755.995 78.3245 755.247 78.4221C753.825 78.6066 752.577 79.0623 752.577 80.4404C752.577 81.6991 753.63 82.3501 755.084 82.3501Z" fill="#CED4DB"/>
<path d="M768.604 71.6622V73.3332H766.108V80.6465C766.108 81.7316 766.51 82.209 767.54 82.209C767.79 82.209 768.213 82.1439 768.539 82.0788L768.94 83.7281C768.539 83.8692 767.985 83.9451 767.486 83.9451C765.392 83.9451 764.155 82.7841 764.155 80.7984V73.3332H762.332V71.6622H764.155V68.7759H766.108V71.6622H768.604Z" fill="#CED4DB"/>
<path d="M775.211 83.9451C772.759 83.9451 771.099 82.4368 771.099 79.3661V71.6621H773.052V79.2033C773.052 81.0697 774.104 82.1873 775.797 82.1873C777.533 82.1873 778.846 81.0046 778.846 78.9321V71.6621H780.81V83.7932H778.922V81.5254C778.13 83.2941 776.806 83.9451 775.211 83.9451Z" fill="#CED4DB"/>
<path d="M788.362 84.0537C785.866 84.0537 784.13 82.9469 783.696 80.8527L785.552 80.4078C785.899 81.7425 786.886 82.3392 788.34 82.3392C790.033 82.3392 791.118 81.5037 791.118 80.5055C791.118 79.67 790.532 79.1166 789.339 78.8345L787.32 78.357C785.118 77.8362 784.065 76.7511 784.065 75.0476C784.065 72.9642 785.975 71.5103 788.557 71.5103C791.053 71.5103 792.366 72.7255 792.919 74.4291L791.151 74.8848C790.814 74.0168 790.131 73.1704 788.568 73.1704C787.125 73.1704 786.04 73.9191 786.04 74.9282C786.04 75.8288 786.659 76.328 788.08 76.6643L789.914 77.0984C792.116 77.6192 793.147 78.7151 793.147 80.3753C793.147 82.502 791.205 84.0537 788.362 84.0537Z" fill="#CED4DB"/>
<path d="M797.455 83.9345C796.641 83.9345 795.99 83.2834 795.99 82.4696C795.99 81.6558 796.641 81.0048 797.455 81.0048C798.269 81.0048 798.92 81.6558 798.92 82.4696C798.92 83.2834 798.269 83.9345 797.455 83.9345ZM797.455 75.1562C796.641 75.1562 795.99 74.5052 795.99 73.6914C795.99 72.8776 796.641 72.2266 797.455 72.2266C798.269 72.2266 798.92 72.8776 798.92 73.6914C798.92 74.5052 798.269 75.1562 797.455 75.1562Z" fill="#CED4DB"/>
<path d="M812.017 84.0754C809.717 84.0754 807.883 82.7299 807.883 80.3427C807.883 77.5649 810.357 77.055 812.603 76.7728C814.795 76.4799 815.717 76.5992 815.717 75.601C815.717 74.0927 814.86 73.2247 813.178 73.2247C811.431 73.2247 810.487 74.1578 810.107 75.0042L808.23 74.3857C809.163 72.183 811.247 71.5103 813.124 71.5103C814.751 71.5103 817.67 72.0094 817.67 75.7963V83.7932H815.75V82.1439H815.619C815.207 83.0011 814.068 84.0754 812.017 84.0754ZM812.353 82.3501C814.513 82.3501 815.717 80.8961 815.717 79.4096V77.7277C815.391 78.1075 813.265 78.3245 812.516 78.4221C811.095 78.6066 809.847 79.0623 809.847 80.4404C809.847 81.6991 810.899 82.3501 812.353 82.3501Z" fill="#CED4DB"/>
<path d="M826.036 84.0537C822.737 84.0537 820.513 81.5471 820.513 77.8037C820.513 74.0059 822.737 71.5103 826.036 71.5103C828.379 71.5103 830.289 72.7472 830.951 74.8631L829.074 75.3948C828.716 74.147 827.631 73.2572 826.036 73.2572C823.616 73.2572 822.498 75.384 822.498 77.8037C822.498 80.1908 823.616 82.3067 826.036 82.3067C827.663 82.3067 828.77 81.3844 829.128 80.0715L830.994 80.6031C830.343 82.7624 828.412 84.0537 826.036 84.0537Z" fill="#CED4DB"/>
<path d="M838.569 71.6622V73.3332H836.073V80.6465C836.073 81.7316 836.474 82.209 837.505 82.209C837.755 82.209 838.178 82.1439 838.503 82.0788L838.905 83.7281C838.503 83.8692 837.95 83.9451 837.451 83.9451C835.357 83.9451 834.12 82.7841 834.12 80.7984V73.3332H832.297V71.6622H834.12V68.7759H836.073V71.6622H838.569Z" fill="#CED4DB"/>
<path d="M841.064 83.7935V71.6624H843.017V83.7935H841.064ZM842.052 69.6767C841.314 69.6767 840.695 69.1016 840.695 68.3855C840.695 67.6693 841.314 67.0942 842.052 67.0942C842.8 67.0942 843.419 67.6693 843.419 68.3855C843.419 69.1016 842.8 69.6767 842.052 69.6767Z" fill="#CED4DB"/>
<path d="M849.951 83.7937L845.317 71.6626H847.455C848.616 75.0697 850.016 78.39 850.981 81.9816C851.925 78.39 853.336 75.0697 854.497 71.6626H856.635L852.001 83.7937H849.951Z" fill="#CED4DB"/>
<path d="M863.601 84.0537C860.085 84.0537 857.915 81.558 857.915 77.8254C857.915 74.1036 860.063 71.5103 863.373 71.5103C865.945 71.5103 868.657 73.0945 868.657 77.5758V78.3896H859.89C859.988 80.9287 861.463 82.3175 863.612 82.3175C865.044 82.3175 866.118 81.6882 866.574 80.4512L868.462 80.9721C867.898 82.8058 866.086 84.0537 863.601 84.0537ZM859.901 76.7403H866.672C866.487 74.6787 865.369 73.2464 863.373 73.2464C861.29 73.2464 860.02 74.8848 859.901 76.7403Z" fill="#CED4DB"/>
<path d="M729.953 116.059V99.8916H735.682C739.057 99.8916 740.652 101.812 740.652 104.178C740.652 106.25 739.415 107.194 738.004 107.574V107.726C739.513 107.823 741.281 109.212 741.281 111.751C741.281 114.193 739.675 116.059 735.867 116.059H729.953ZM732.015 114.236H735.812C738.33 114.236 739.296 113.129 739.296 111.73C739.296 110.113 737.993 108.724 735.921 108.724H732.015V114.236ZM732.015 106.988H735.574C737.31 106.988 738.677 105.892 738.677 104.221C738.677 102.821 737.733 101.715 735.639 101.715H732.015V106.988Z" fill="#CED4DB"/>
<path d="M747.651 116.341C745.35 116.341 743.517 114.996 743.517 112.609C743.517 109.831 745.991 109.321 748.237 109.039C750.428 108.746 751.351 108.865 751.351 107.867C751.351 106.359 750.494 105.491 748.812 105.491C747.065 105.491 746.121 106.424 745.741 107.27L743.864 106.652C744.797 104.449 746.88 103.776 748.757 103.776C750.385 103.776 753.304 104.275 753.304 108.062V116.059H751.383V114.41H751.253C750.841 115.267 749.701 116.341 747.651 116.341ZM747.987 114.616C750.146 114.616 751.351 113.162 751.351 111.676V109.994C751.025 110.374 748.899 110.591 748.15 110.688C746.728 110.873 745.481 111.328 745.481 112.706C745.481 113.965 746.533 114.616 747.987 114.616Z" fill="#CED4DB"/>
<path d="M758.686 99.8916V116.059H756.732V99.8916H758.686Z" fill="#CED4DB"/>
<path d="M765.511 116.341C763.211 116.341 761.377 114.996 761.377 112.609C761.377 109.831 763.851 109.321 766.097 109.039C768.289 108.746 769.211 108.865 769.211 107.867C769.211 106.359 768.354 105.491 766.672 105.491C764.925 105.491 763.981 106.424 763.601 107.27L761.724 106.652C762.657 104.449 764.741 103.776 766.618 103.776C768.245 103.776 771.164 104.275 771.164 108.062V116.059H769.244V114.41H769.113C768.701 115.267 767.562 116.341 765.511 116.341ZM765.847 114.616C768.007 114.616 769.211 113.162 769.211 111.676V109.994C768.886 110.374 766.759 110.591 766.01 110.688C764.589 110.873 763.341 111.328 763.341 112.706C763.341 113.965 764.393 114.616 765.847 114.616Z" fill="#CED4DB"/>
<path d="M776.546 108.789V116.059H774.593V103.928H776.47L776.481 106.174C777.262 104.46 778.564 103.776 780.192 103.776C782.644 103.776 784.293 105.285 784.293 108.355V116.059H782.34V108.518C782.34 106.652 781.299 105.534 779.606 105.534C777.859 105.534 776.546 106.717 776.546 108.789Z" fill="#CED4DB"/>
<path d="M792.66 116.32C789.361 116.32 787.137 113.813 787.137 110.07C787.137 106.272 789.361 103.776 792.66 103.776C795.003 103.776 796.913 105.013 797.575 107.129L795.698 107.661C795.34 106.413 794.255 105.523 792.66 105.523C790.24 105.523 789.122 107.65 789.122 110.07C789.122 112.457 790.24 114.573 792.66 114.573C794.287 114.573 795.394 113.65 795.752 112.338L797.618 112.869C796.967 115.029 795.036 116.32 792.66 116.32Z" fill="#CED4DB"/>
<path d="M805.518 116.32C802.002 116.32 799.832 113.824 799.832 110.091C799.832 106.37 801.98 103.776 805.29 103.776C807.862 103.776 810.574 105.361 810.574 109.842V110.656H801.807C801.905 113.195 803.38 114.584 805.529 114.584C806.961 114.584 808.035 113.954 808.491 112.717L810.379 113.238C809.815 115.072 808.003 116.32 805.518 116.32ZM801.818 109.006H808.589C808.404 106.945 807.286 105.512 805.29 105.512C803.207 105.512 801.937 107.151 801.818 109.006Z" fill="#CED4DB"/>
<path d="M814.859 116.2C814.046 116.2 813.395 115.549 813.395 114.735C813.395 113.921 814.046 113.27 814.859 113.27C815.673 113.27 816.324 113.921 816.324 114.735C816.324 115.549 815.673 116.2 814.859 116.2ZM814.859 107.422C814.046 107.422 813.395 106.771 813.395 105.957C813.395 105.143 814.046 104.492 814.859 104.492C815.673 104.492 816.324 105.143 816.324 105.957C816.324 106.771 815.673 107.422 814.859 107.422Z" fill="#CED4DB"/>
<path d="M831.396 99.8911V116.059H829.367V101.801H829.259L825.353 104.698V102.484L828.868 99.8911H831.396Z" fill="#CED4DB"/>
<path d="M840.359 116.276C836.756 116.276 834.673 113.259 834.673 107.986C834.673 102.745 836.778 99.6743 840.359 99.6743C843.939 99.6743 846.044 102.745 846.044 107.986C846.044 113.249 843.972 116.276 840.359 116.276ZM840.359 114.475C842.724 114.475 844.059 112.088 844.059 107.986C844.059 103.863 842.724 101.465 840.359 101.465C837.993 101.465 836.659 103.874 836.659 107.986C836.659 112.088 837.993 114.475 840.359 114.475Z" fill="#CED4DB"/>
<path d="M854.378 116.276C850.776 116.276 848.692 113.259 848.692 107.986C848.692 102.745 850.797 99.6743 854.378 99.6743C857.959 99.6743 860.064 102.745 860.064 107.986C860.064 113.249 857.991 116.276 854.378 116.276ZM854.378 114.475C856.744 114.475 858.078 112.088 858.078 107.986C858.078 103.863 856.744 101.465 854.378 101.465C852.013 101.465 850.678 103.874 850.678 107.986C850.678 112.088 852.013 114.475 854.378 114.475Z" fill="#CED4DB"/>
<path d="M237 113H349.12" stroke="#CED4DB"/>
<path d="M237 113.46H236.5V112.51H237V113.46Z" fill="#CED4DB" stroke="#CED4DB" stroke-width="0.05"/>
<path d="M363.88 113L349.62 117.62V108.35L363.88 113Z" fill="#CED4DB" stroke="#CED4DB"/>
<path d="M587 113H699.12" stroke="#CED4DB"/>
<path d="M587 113.46H586.5V112.51H587V113.46Z" fill="#CED4DB" stroke="#CED4DB" stroke-width="0.05"/>
<path d="M713.88 113L699.62 117.62V108.35L713.88 113Z" fill="#CED4DB" stroke="#CED4DB"/>
<path d="M776 133.98C776 132.389 776.632 130.863 777.757 129.737C778.883 128.612 780.409 127.98 782 127.98H950C951.591 127.98 953.117 128.612 954.243 129.737C955.368 130.863 956 132.389 956 133.98V201.98C956 203.571 955.368 205.097 954.243 206.223C953.117 207.348 951.591 207.98 950 207.98H782C780.409 207.98 778.883 207.348 777.757 206.223C776.632 205.097 776 203.571 776 201.98V133.98Z" stroke="#CED4DB"/>
<path d="M796.497 161.72C792.352 161.72 789.324 158.552 789.324 153.43C789.324 148.298 792.352 145.119 796.497 145.119C799.773 145.119 802.443 147.093 803.018 150.425H800.956C800.5 148.211 798.602 147.028 796.497 147.028C793.589 147.028 791.332 149.285 791.332 153.43C791.332 157.564 793.599 159.81 796.497 159.81C798.612 159.81 800.5 158.617 800.956 156.414H803.018C802.454 159.702 799.806 161.72 796.497 161.72Z" fill="#CED4DB"/>
<path d="M810.884 161.764C807.586 161.764 805.361 159.257 805.361 155.514C805.361 151.716 807.586 149.22 810.884 149.22C814.194 149.22 816.429 151.716 816.429 155.514C816.429 159.257 814.194 161.764 810.884 161.764ZM810.884 160.017C813.337 160.017 814.454 157.901 814.454 155.514C814.454 153.105 813.337 150.967 810.884 150.967C808.465 150.967 807.347 153.094 807.347 155.514C807.347 157.901 808.465 160.017 810.884 160.017Z" fill="#CED4DB"/>
<path d="M821.226 154.233V161.503H819.272V149.372H821.15L821.16 151.618C821.942 149.904 823.244 149.22 824.871 149.22C827.324 149.22 828.973 150.728 828.973 153.799V161.503H827.02V153.962C827.02 152.096 825.978 150.978 824.285 150.978C822.539 150.978 821.226 152.161 821.226 154.233Z" fill="#CED4DB"/>
<path d="M837.176 149.372V151.043H834.68V158.356C834.68 159.442 835.082 159.919 836.113 159.919C836.362 159.919 836.785 159.854 837.111 159.789L837.512 161.438C837.111 161.579 836.558 161.655 836.058 161.655C833.964 161.655 832.727 160.494 832.727 158.508V151.043H830.904V149.372H832.727V146.486H834.68V149.372H837.176Z" fill="#CED4DB"/>
<path d="M839.672 161.503V149.372H841.56V151.239H841.69C842.135 150.013 843.394 149.199 844.837 149.199C845.119 149.199 845.596 149.22 845.824 149.231V151.195C845.705 151.174 845.173 151.087 844.652 151.087C842.905 151.087 841.625 152.269 841.625 153.908V161.503H839.672Z" fill="#CED4DB"/>
<path d="M851.434 161.785C849.134 161.785 847.3 160.44 847.3 158.053C847.3 155.275 849.774 154.765 852.02 154.483C854.212 154.19 855.134 154.309 855.134 153.311C855.134 151.803 854.277 150.935 852.595 150.935C850.848 150.935 849.904 151.868 849.524 152.714L847.647 152.096C848.58 149.893 850.664 149.22 852.541 149.22C854.168 149.22 857.087 149.719 857.087 153.506V161.503H855.167V159.854H855.036C854.624 160.711 853.485 161.785 851.434 161.785ZM851.77 160.06C853.93 160.06 855.134 158.606 855.134 157.12V155.438C854.808 155.817 852.682 156.034 851.933 156.132C850.512 156.317 849.264 156.772 849.264 158.15C849.264 159.409 850.316 160.06 851.77 160.06Z" fill="#CED4DB"/>
<path d="M865.453 161.764C862.154 161.764 859.93 159.257 859.93 155.514C859.93 151.716 862.154 149.22 865.453 149.22C867.796 149.22 869.706 150.457 870.368 152.573L868.491 153.105C868.133 151.857 867.048 150.967 865.453 150.967C863.033 150.967 861.915 153.094 861.915 155.514C861.915 157.901 863.033 160.017 865.453 160.017C867.08 160.017 868.187 159.094 868.545 157.781L870.411 158.313C869.76 160.472 867.829 161.764 865.453 161.764Z" fill="#CED4DB"/>
<path d="M877.986 149.372V151.043H875.49V158.356C875.49 159.442 875.891 159.919 876.922 159.919C877.172 159.919 877.595 159.854 877.92 159.789L878.322 161.438C877.92 161.579 877.367 161.655 876.868 161.655C874.774 161.655 873.537 160.494 873.537 158.508V151.043H871.714V149.372H873.537V146.486H875.49V149.372H877.986Z" fill="#CED4DB"/>
<path d="M790.453 196.796V176.614H794.772V178.274H792.319V195.136H794.772V196.796H790.453Z" fill="#CED4DB"/>
<path d="M802.508 194.029C799.21 194.029 796.985 191.523 796.985 187.779C796.985 183.981 799.21 181.486 802.508 181.486C804.852 181.486 806.762 182.723 807.424 184.839L805.547 185.37C805.188 184.123 804.103 183.233 802.508 183.233C800.089 183.233 798.971 185.36 798.971 187.779C798.971 190.166 800.089 192.282 802.508 192.282C804.136 192.282 805.243 191.36 805.601 190.047L807.467 190.579C806.816 192.738 804.885 194.029 802.508 194.029Z" fill="#CED4DB"/>
<path d="M815.204 194.029C811.905 194.029 809.681 191.523 809.681 187.779C809.681 183.981 811.905 181.486 815.204 181.486C818.513 181.486 820.748 183.981 820.748 187.779C820.748 191.523 818.513 194.029 815.204 194.029ZM815.204 192.282C817.656 192.282 818.774 190.166 818.774 187.779C818.774 185.37 817.656 183.233 815.204 183.233C812.784 183.233 811.666 185.36 811.666 187.779C811.666 190.166 812.784 192.282 815.204 192.282Z" fill="#CED4DB"/>
<path d="M828.137 194.029C825.11 194.029 823.005 191.598 823.005 187.736C823.005 183.894 825.121 181.486 828.148 181.486C830.514 181.486 831.262 182.94 831.664 183.58H831.816V177.601H833.769V193.769H831.881V191.891H831.664C831.262 192.564 830.448 194.029 828.137 194.029ZM828.43 192.282C830.633 192.282 831.837 190.416 831.837 187.714C831.837 185.034 830.665 183.233 828.43 183.233C826.13 183.233 824.991 185.197 824.991 187.714C824.991 190.264 826.162 192.282 828.43 192.282Z" fill="#CED4DB"/>
<path d="M842.298 194.029C838.782 194.029 836.612 191.534 836.612 187.801C836.612 184.079 838.761 181.486 842.07 181.486C844.642 181.486 847.354 183.07 847.354 187.551V188.365H838.587C838.685 190.904 840.16 192.293 842.309 192.293C843.741 192.293 844.815 191.664 845.271 190.427L847.159 190.948C846.595 192.781 844.783 194.029 842.298 194.029ZM838.598 186.716H845.369C845.184 184.654 844.067 183.222 842.07 183.222C839.987 183.222 838.717 184.86 838.598 186.716Z" fill="#CED4DB"/>
<path d="M849.524 196.796V195.136H851.977V178.274H849.524V176.614H853.843V196.796H849.524Z" fill="#CED4DB"/>
<path d="M864.997 196.796V176.614H869.316V178.274H866.863V195.136H869.316V196.796H864.997Z" fill="#CED4DB"/>
<path d="M876.662 194.029C873.634 194.029 871.529 191.598 871.529 187.736C871.529 183.894 873.645 181.486 876.673 181.486C879.038 181.486 879.787 182.94 880.188 183.58H880.34V177.601H882.293V193.769H880.405V191.891H880.188C879.787 192.564 878.973 194.029 876.662 194.029ZM876.955 192.282C879.157 192.282 880.362 190.416 880.362 187.714C880.362 185.034 879.19 183.233 876.955 183.233C874.654 183.233 873.515 185.197 873.515 187.714C873.515 190.264 874.687 192.282 876.955 192.282Z" fill="#CED4DB"/>
<path d="M889.118 194.051C886.818 194.051 884.984 192.705 884.984 190.318C884.984 187.541 887.458 187.031 889.704 186.748C891.896 186.455 892.819 186.575 892.819 185.577C892.819 184.068 891.961 183.2 890.28 183.2C888.533 183.2 887.589 184.133 887.209 184.98L885.332 184.361C886.265 182.159 888.348 181.486 890.225 181.486C891.853 181.486 894.772 181.985 894.772 185.772V193.769H892.851V192.12H892.721C892.309 192.977 891.169 194.051 889.118 194.051ZM889.455 192.326C891.614 192.326 892.819 190.872 892.819 189.385V187.703C892.493 188.083 890.366 188.3 889.618 188.398C888.196 188.582 886.948 189.038 886.948 190.416C886.948 191.675 888.001 192.326 889.455 192.326Z" fill="#CED4DB"/>
<path d="M902.975 181.638V183.309H900.479V190.622C900.479 191.707 900.881 192.185 901.911 192.185C902.161 192.185 902.584 192.12 902.91 192.054L903.311 193.704C902.91 193.845 902.356 193.921 901.857 193.921C899.763 193.921 898.526 192.76 898.526 190.774V183.309H896.703V181.638H898.526V178.751H900.479V181.638H902.975Z" fill="#CED4DB"/>
<path d="M908.975 194.051C906.675 194.051 904.841 192.705 904.841 190.318C904.841 187.541 907.315 187.031 909.561 186.748C911.753 186.455 912.675 186.575 912.675 185.577C912.675 184.068 911.818 183.2 910.136 183.2C908.389 183.2 907.445 184.133 907.065 184.98L905.188 184.361C906.121 182.159 908.205 181.486 910.082 181.486C911.709 181.486 914.628 181.985 914.628 185.772V193.769H912.708V192.12H912.577C912.165 192.977 911.026 194.051 908.975 194.051ZM909.311 192.326C911.471 192.326 912.675 190.872 912.675 189.385V187.703C912.35 188.083 910.223 188.3 909.474 188.398C908.053 188.582 906.805 189.038 906.805 190.416C906.805 191.675 907.857 192.326 909.311 192.326Z" fill="#CED4DB"/>
<path d="M917.677 196.796V195.136H920.129V178.274H917.677V176.614H921.995V196.796H917.677Z" fill="#CED4DB"/>
</svg>
