<svg width="970" height="222" viewBox="0 0 970 222" fill="none" xmlns="http://www.w3.org/2000/svg">
<path d="M17 25C17 23.4087 17.6321 21.8826 18.7574 20.7574C19.8826 19.6322 21.4087 19 23 19H231C232.591 19 234.117 19.6322 235.243 20.7574C236.368 21.8826 237 23.4087 237 25V202.98C237 204.571 236.368 206.097 235.243 207.223C234.117 208.348 232.591 208.98 231 208.98H23C21.4087 208.98 19.8826 208.348 18.7574 207.223C17.6321 206.097 17 204.571 17 202.98V25Z" stroke="#4C535D"/>
<path d="M29.5645 52.5279L35.4347 36.3604H37.8218L43.768 52.5279H41.5979L39.9811 48.014H33.3188L31.7563 52.5279H29.5645ZM33.9481 46.2128H39.3409C38.2233 43.0661 37.7676 41.981 36.6174 38.0097C35.4455 42.1004 35.0441 43.001 33.9481 46.2128Z" fill="#4C535D"/>
<path d="M50.5933 52.7883C47.566 52.7883 45.4609 50.3577 45.4609 46.4949C45.4609 42.6538 47.5768 40.2449 50.6042 40.2449C52.9696 40.2449 53.7183 41.6989 54.1198 42.3391H54.2717V36.3604H56.2248V52.5279H54.3368V50.6507H54.1198C53.7183 51.3235 52.9045 52.7883 50.5933 52.7883ZM50.8863 51.0413C53.089 51.0413 54.2934 49.175 54.2934 46.4732C54.2934 43.7931 53.1215 41.9919 50.8863 41.9919C48.5859 41.9919 47.4466 43.9558 47.4466 46.4732C47.4466 49.0231 48.6185 51.0413 50.8863 51.0413Z" fill="#4C535D"/>
<path d="M64.1998 52.7883C61.1724 52.7883 59.0674 50.3577 59.0674 46.4949C59.0674 42.6538 61.1833 40.2449 64.2106 40.2449C66.5761 40.2449 67.3248 41.6989 67.7262 42.3391H67.8781V36.3604H69.8313V52.5279H67.9433V50.6507H67.7262C67.3248 51.3235 66.511 52.7883 64.1998 52.7883ZM64.4927 51.0413C66.6954 51.0413 67.8998 49.175 67.8998 46.4732C67.8998 43.7931 66.728 41.9919 64.4927 41.9919C62.1924 41.9919 61.0531 43.9558 61.0531 46.4732C61.0531 49.0231 62.2249 51.0413 64.4927 51.0413Z" fill="#4C535D"/>
<path d="M73.2598 52.5278V40.3968H75.1478V42.2631H75.278C75.7229 41.0369 76.9816 40.2231 78.4247 40.2231C78.7068 40.2231 79.1842 40.2448 79.4121 40.2557V42.2197C79.2928 42.198 78.7611 42.1112 78.2402 42.1112C76.4933 42.1112 75.2129 43.2939 75.2129 44.9323V52.5278H73.2598Z" fill="#4C535D"/>
<path d="M86.3567 52.7885C82.841 52.7885 80.6709 50.2929 80.6709 46.5602C80.6709 42.8384 82.8193 40.2451 86.1288 40.2451C88.7004 40.2451 91.4131 41.8293 91.4131 46.3107V47.1245H82.6457C82.7434 49.6635 84.2191 51.0524 86.3675 51.0524C87.7998 51.0524 88.874 50.4231 89.3298 49.1861L91.2178 49.7069C90.6535 51.5407 88.8415 52.7885 86.3567 52.7885ZM82.6566 45.4752H89.4274C89.2429 43.4135 88.1253 41.9812 86.1288 41.9812C84.0455 41.9812 82.7759 43.6197 82.6566 45.4752Z" fill="#4C535D"/>
<path d="M98.3357 52.7885C95.8401 52.7885 94.1039 51.6817 93.6699 49.5876L95.5254 49.1427C95.8726 50.4773 96.86 51.0741 98.314 51.0741C100.007 51.0741 101.092 50.2386 101.092 49.2403C101.092 48.4048 100.506 47.8515 99.3123 47.5693L97.2941 47.0919C95.0914 46.5711 94.0388 45.486 94.0388 43.7824C94.0388 41.6991 95.9486 40.2451 98.531 40.2451C101.027 40.2451 102.34 41.4604 102.893 43.164L101.124 43.6197C100.788 42.7516 100.104 41.9053 98.5419 41.9053C97.0987 41.9053 96.0137 42.654 96.0137 43.6631C96.0137 44.5637 96.6322 45.0628 98.0536 45.3992L99.8874 45.8332C102.09 46.3541 103.121 47.45 103.121 49.1101C103.121 51.2369 101.179 52.7885 98.3357 52.7885Z" fill="#4C535D"/>
<path d="M110.066 52.7885C107.571 52.7885 105.834 51.6817 105.4 49.5876L107.256 49.1427C107.603 50.4773 108.59 51.0741 110.044 51.0741C111.737 51.0741 112.822 50.2386 112.822 49.2403C112.822 48.4048 112.236 47.8515 111.043 47.5693L109.025 47.0919C106.822 46.5711 105.769 45.486 105.769 43.7824C105.769 41.6991 107.679 40.2451 110.262 40.2451C112.757 40.2451 114.07 41.4604 114.623 43.164L112.855 43.6197C112.518 42.7516 111.835 41.9053 110.272 41.9053C108.829 41.9053 107.744 42.654 107.744 43.6631C107.744 44.5637 108.363 45.0628 109.784 45.3992L111.618 45.8332C113.821 46.3541 114.851 47.45 114.851 49.1101C114.851 51.2369 112.909 52.7885 110.066 52.7885Z" fill="#4C535D"/>
<path d="M119.158 52.6688C118.344 52.6688 117.693 52.0178 117.693 51.204C117.693 50.3902 118.344 49.7391 119.158 49.7391C119.972 49.7391 120.623 50.3902 120.623 51.204C120.623 52.0178 119.972 52.6688 119.158 52.6688ZM119.158 43.8906C118.344 43.8906 117.693 43.2396 117.693 42.4258C117.693 41.612 118.344 40.9609 119.158 40.9609C119.972 40.9609 120.623 41.612 120.623 42.4258C120.623 43.2396 119.972 43.8906 119.158 43.8906Z" fill="#4C535D"/>
<path d="M135.695 36.3599V52.5274H133.666V38.2696H133.558L129.651 41.1667V38.9532L133.167 36.3599H135.695Z" fill="#4C535D"/>
<path d="M139.319 52.5276V51.0411L144.69 45.2142C146.481 43.272 147.392 42.1652 147.392 40.6787C147.392 38.9859 146.079 37.9334 144.354 37.9334C142.509 37.9334 141.338 39.127 141.338 40.9499H139.363C139.363 38.0853 141.533 36.1431 144.408 36.1431C147.295 36.1431 149.345 38.1287 149.345 40.657C149.345 42.4039 148.553 43.782 145.7 46.8201L142.162 50.5853V50.7155H149.617V52.5276H139.319Z" fill="#4C535D"/>
<path d="M158.091 52.7446C154.923 52.7446 152.666 51.0085 152.558 48.4478H154.641C154.76 49.9886 156.214 50.9326 158.059 50.9326C160.088 50.9326 161.564 49.7932 161.564 48.1114C161.564 46.3644 160.207 45.1383 157.809 45.1383H156.496V43.3479H157.809C159.697 43.3479 160.999 42.2629 160.999 40.5919C160.999 38.9859 159.871 37.9334 158.113 37.9334C156.464 37.9334 154.956 38.8557 154.891 40.4291H152.905C152.992 37.89 155.314 36.1431 158.157 36.1431C161.173 36.1431 163.018 38.183 163.018 40.4833C163.018 42.3063 161.987 43.6409 160.338 44.1292V44.2594C162.399 44.5958 163.604 46.0932 163.604 48.1331C163.604 50.7807 161.26 52.7446 158.091 52.7446Z" fill="#4C535D"/>
<path d="M166.229 49.2396V47.5578L173.304 36.3599H175.811V47.4276H178.002V49.2396H175.811V52.5274H173.836V49.2396H166.229ZM173.847 47.4276V38.9423H173.716L168.432 47.2974V47.4276H173.847Z" fill="#4C535D"/>
<path d="M36.129 85.0754C32.6242 85.0754 30.4433 83.2741 30.2588 80.5615H32.3747C32.5374 82.3952 34.2301 83.2307 36.129 83.2307C38.3209 83.2307 39.9919 82.0806 39.9919 80.3553C40.0461 78.1526 36.8018 77.7728 34.8378 77.1761C32.2445 76.384 30.7145 75.1036 30.7145 72.9551C30.7145 70.2208 33.1451 68.4087 36.2701 68.4087C39.4602 68.4087 41.6846 70.2642 41.7822 72.7056H39.764C39.5795 71.1322 38.1255 70.2316 36.205 70.2316C34.1108 70.2316 32.7219 71.3384 32.7219 72.8575C32.7219 74.5502 34.6208 75.147 35.8035 75.4725L37.4202 75.9174C39.1564 76.3948 41.9992 77.3714 41.9992 80.3879C41.9992 83.0354 39.8617 85.0754 36.129 85.0754Z" fill="#4C535D"/>
<path d="M49.7463 72.6622V74.3332H47.2507V81.6465C47.2507 82.7316 47.6521 83.209 48.6829 83.209C48.9325 83.209 49.3557 83.1439 49.6812 83.0788L50.0827 84.7281C49.6812 84.8692 49.1278 84.9451 48.6287 84.9451C46.5345 84.9451 45.2975 83.7841 45.2975 81.7984V74.3332H43.4746V72.6622H45.2975V69.7759H47.2507V72.6622H49.7463Z" fill="#4C535D"/>
<path d="M55.7474 85.0754C53.447 85.0754 51.6133 83.7299 51.6133 81.3427C51.6133 78.5649 54.0872 78.055 56.3333 77.7728C58.5252 77.4799 59.4475 77.5992 59.4475 76.601C59.4475 75.0927 58.5903 74.2247 56.9084 74.2247C55.1615 74.2247 54.2174 75.1578 53.8377 76.0042L51.9605 75.3857C52.8937 73.183 54.977 72.5103 56.8542 72.5103C58.4818 72.5103 61.4006 73.0094 61.4006 76.7963V84.7932H59.48V83.1439H59.3498C58.9375 84.0011 57.7982 85.0754 55.7474 85.0754ZM56.0838 83.3501C58.2431 83.3501 59.4475 81.8961 59.4475 80.4096V78.7277C59.122 79.1075 56.9952 79.3245 56.2465 79.4221C54.8251 79.6066 53.5773 80.0623 53.5773 81.4404C53.5773 82.6991 54.6298 83.3501 56.0838 83.3501Z" fill="#4C535D"/>
<path d="M69.6037 72.6622V74.3332H67.1081V81.6465C67.1081 82.7316 67.5095 83.209 68.5404 83.209C68.7899 83.209 69.2131 83.1439 69.5386 83.0788L69.9401 84.7281C69.5386 84.8692 68.9852 84.9451 68.4861 84.9451C66.3919 84.9451 65.1549 83.7841 65.1549 81.7984V74.3332H63.332V72.6622H65.1549V69.7759H67.1081V72.6622H69.6037Z" fill="#4C535D"/>
<path d="M76.211 84.9451C73.7588 84.9451 72.0986 83.4368 72.0986 80.3661V72.6621H74.0518V80.2033C74.0518 82.0697 75.1043 83.1873 76.797 83.1873C78.5331 83.1873 79.846 82.0046 79.846 79.9321V72.6621H81.81V84.7932H79.922V82.5254C79.1299 84.2941 77.8061 84.9451 76.211 84.9451Z" fill="#4C535D"/>
<path d="M89.3621 85.0537C86.8664 85.0537 85.1303 83.9469 84.6963 81.8527L86.5518 81.4078C86.899 82.7425 87.8864 83.3392 89.3404 83.3392C91.0331 83.3392 92.1182 82.5037 92.1182 81.5055C92.1182 80.67 91.5322 80.1166 90.3386 79.8345L88.3204 79.357C86.1177 78.8362 85.0652 77.7511 85.0652 76.0476C85.0652 73.9642 86.9749 72.5103 89.5574 72.5103C92.0531 72.5103 93.366 73.7255 93.9194 75.4291L92.1507 75.8848C91.8143 75.0168 91.1308 74.1704 89.5683 74.1704C88.1251 74.1704 87.04 74.9191 87.04 75.9282C87.04 76.8288 87.6585 77.328 89.08 77.6643L90.9137 78.0984C93.1164 78.6192 94.1472 79.7151 94.1472 81.3753C94.1472 83.502 92.205 85.0537 89.3621 85.0537Z" fill="#4C535D"/>
<path d="M98.4551 84.9345C97.6413 84.9345 96.9902 84.2834 96.9902 83.4696C96.9902 82.6558 97.6413 82.0048 98.4551 82.0048C99.2689 82.0048 99.9199 82.6558 99.9199 83.4696C99.9199 84.2834 99.2689 84.9345 98.4551 84.9345ZM98.4551 76.1562C97.6413 76.1562 96.9902 75.5052 96.9902 74.6914C96.9902 73.8776 97.6413 73.2266 98.4551 73.2266C99.2689 73.2266 99.9199 73.8776 99.9199 74.6914C99.9199 75.5052 99.2689 76.1562 98.4551 76.1562Z" fill="#4C535D"/>
<path d="M111.574 77.5233V84.7932H109.621V72.6622H111.498L111.509 74.9083C112.29 73.1938 113.592 72.5103 115.22 72.5103C117.672 72.5103 119.322 74.0185 119.322 77.0892V84.7932H117.368V77.252C117.368 75.3857 116.327 74.2681 114.634 74.2681C112.887 74.2681 111.574 75.4508 111.574 77.5233Z" fill="#4C535D"/>
<path d="M127.687 85.0537C124.388 85.0537 122.164 82.5471 122.164 78.8037C122.164 75.0059 124.388 72.5103 127.687 72.5103C130.997 72.5103 133.232 75.0059 133.232 78.8037C133.232 82.5471 130.997 85.0537 127.687 85.0537ZM127.687 83.3067C130.139 83.3067 131.257 81.1908 131.257 78.8037C131.257 76.3948 130.139 74.2572 127.687 74.2572C125.267 74.2572 124.15 76.384 124.15 78.8037C124.15 81.1908 125.267 83.3067 127.687 83.3067Z" fill="#4C535D"/>
<path d="M138.028 77.5233V84.7932H136.075V72.6622H137.952L137.963 74.9083C138.744 73.1938 140.047 72.5103 141.674 72.5103C144.126 72.5103 145.776 74.0185 145.776 77.0892V84.7932H143.823V77.252C143.823 75.3857 142.781 74.2681 141.088 74.2681C139.341 74.2681 138.028 75.4508 138.028 77.5233Z" fill="#4C535D"/>
<path d="M154.304 85.0537C150.788 85.0537 148.618 82.558 148.618 78.8254C148.618 75.1036 150.767 72.5103 154.076 72.5103C156.648 72.5103 159.36 74.0945 159.36 78.5758V79.3896H150.593C150.691 81.9287 152.166 83.3175 154.315 83.3175C155.747 83.3175 156.821 82.6882 157.277 81.4512L159.165 81.9721C158.601 83.8058 156.789 85.0537 154.304 85.0537ZM150.604 77.7403H157.375C157.19 75.6787 156.073 74.2464 154.076 74.2464C151.993 74.2464 150.723 75.8848 150.604 77.7403Z" fill="#4C535D"/>
<path d="M160.652 84.7937L164.917 78.5654L160.902 72.6626H163.181C164.135 74.1383 165.264 75.8853 166.078 77.3826C166.805 75.8419 167.987 74.1057 168.942 72.6626H171.178L167.119 78.6739L171.373 84.7937H169.105C168.085 83.2312 166.87 81.43 165.991 79.8241C165.199 81.4517 163.918 83.2529 162.909 84.7937H160.652Z" fill="#4C535D"/>
<path d="M173.792 84.7935V72.6624H175.745V84.7935H173.792ZM174.779 70.6767C174.041 70.6767 173.423 70.1016 173.423 69.3855C173.423 68.6693 174.041 68.0942 174.779 68.0942C175.528 68.0942 176.146 68.6693 176.146 69.3855C176.146 70.1016 175.528 70.6767 174.779 70.6767Z" fill="#4C535D"/>
<path d="M183.298 85.0537C180.802 85.0537 179.066 83.9469 178.632 81.8527L180.487 81.4078C180.835 82.7425 181.822 83.3392 183.276 83.3392C184.969 83.3392 186.054 82.5037 186.054 81.5055C186.054 80.67 185.468 80.1166 184.274 79.8345L182.256 79.357C180.053 78.8362 179.001 77.7511 179.001 76.0476C179.001 73.9642 180.91 72.5103 183.493 72.5103C185.989 72.5103 187.302 73.7255 187.855 75.4291L186.086 75.8848C185.75 75.0168 185.066 74.1704 183.504 74.1704C182.061 74.1704 180.976 74.9191 180.976 75.9282C180.976 76.8288 181.594 77.328 183.016 77.6643L184.849 78.0984C187.052 78.6192 188.083 79.7151 188.083 81.3753C188.083 83.502 186.141 85.0537 183.298 85.0537Z" fill="#4C535D"/>
<path d="M195.678 72.6622V74.3332H193.182V81.6465C193.182 82.7316 193.584 83.209 194.615 83.209C194.864 83.209 195.287 83.1439 195.613 83.0788L196.014 84.7281C195.613 84.8692 195.059 84.9451 194.56 84.9451C192.466 84.9451 191.229 83.7841 191.229 81.7984V74.3332H189.406V72.6622H191.229V69.7759H193.182V72.6622H195.678Z" fill="#4C535D"/>
<path d="M367 25C367 23.4087 367.632 21.8826 368.757 20.7574C369.883 19.6322 371.409 19 373 19H581C582.591 19 584.117 19.6322 585.243 20.7574C586.368 21.8826 587 23.4087 587 25V202.98C587 204.571 586.368 206.097 585.243 207.223C584.117 208.348 582.591 208.98 581 208.98H373C371.409 208.98 369.883 208.348 368.757 207.223C367.632 206.097 367 204.571 367 202.98V25Z" stroke="#4C535D"/>
<path d="M379.564 52.5279L385.435 36.3604H387.822L393.768 52.5279H391.598L389.981 48.014H383.319L381.756 52.5279H379.564ZM383.948 46.2128H389.341C388.223 43.0661 387.768 41.981 386.617 38.0097C385.446 42.1004 385.044 43.001 383.948 46.2128Z" fill="#4C535D"/>
<path d="M400.593 52.7883C397.566 52.7883 395.461 50.3577 395.461 46.4949C395.461 42.6538 397.577 40.2449 400.604 40.2449C402.97 40.2449 403.718 41.6989 404.12 42.3391H404.272V36.3604H406.225V52.5279H404.337V50.6507H404.12C403.718 51.3235 402.905 52.7883 400.593 52.7883ZM400.886 51.0413C403.089 51.0413 404.293 49.175 404.293 46.4732C404.293 43.7931 403.122 41.9919 400.886 41.9919C398.586 41.9919 397.447 43.9558 397.447 46.4732C397.447 49.0231 398.618 51.0413 400.886 51.0413Z" fill="#4C535D"/>
<path d="M414.2 52.7883C411.172 52.7883 409.067 50.3577 409.067 46.4949C409.067 42.6538 411.183 40.2449 414.211 40.2449C416.576 40.2449 417.325 41.6989 417.726 42.3391H417.878V36.3604H419.831V52.5279H417.943V50.6507H417.726C417.325 51.3235 416.511 52.7883 414.2 52.7883ZM414.493 51.0413C416.695 51.0413 417.9 49.175 417.9 46.4732C417.9 43.7931 416.728 41.9919 414.493 41.9919C412.192 41.9919 411.053 43.9558 411.053 46.4732C411.053 49.0231 412.225 51.0413 414.493 51.0413Z" fill="#4C535D"/>
<path d="M423.26 52.5278V40.3968H425.148V42.2631H425.278C425.723 41.0369 426.982 40.2231 428.425 40.2231C428.707 40.2231 429.184 40.2448 429.412 40.2557V42.2197C429.293 42.198 428.761 42.1112 428.24 42.1112C426.493 42.1112 425.213 43.2939 425.213 44.9323V52.5278H423.26Z" fill="#4C535D"/>
<path d="M436.357 52.7885C432.841 52.7885 430.671 50.2929 430.671 46.5602C430.671 42.8384 432.819 40.2451 436.129 40.2451C438.7 40.2451 441.413 41.8293 441.413 46.3107V47.1245H432.646C432.743 49.6635 434.219 51.0524 436.368 51.0524C437.8 51.0524 438.874 50.4231 439.33 49.1861L441.218 49.7069C440.654 51.5407 438.841 52.7885 436.357 52.7885ZM432.657 45.4752H439.427C439.243 43.4135 438.125 41.9812 436.129 41.9812C434.045 41.9812 432.776 43.6197 432.657 45.4752Z" fill="#4C535D"/>
<path d="M448.336 52.7885C445.84 52.7885 444.104 51.6817 443.67 49.5876L445.525 49.1427C445.873 50.4773 446.86 51.0741 448.314 51.0741C450.007 51.0741 451.092 50.2386 451.092 49.2403C451.092 48.4048 450.506 47.8515 449.312 47.5693L447.294 47.0919C445.091 46.5711 444.039 45.486 444.039 43.7824C444.039 41.6991 445.949 40.2451 448.531 40.2451C451.027 40.2451 452.34 41.4604 452.893 43.164L451.124 43.6197C450.788 42.7516 450.104 41.9053 448.542 41.9053C447.099 41.9053 446.014 42.654 446.014 43.6631C446.014 44.5637 446.632 45.0628 448.054 45.3992L449.887 45.8332C452.09 46.3541 453.121 47.45 453.121 49.1101C453.121 51.2369 451.179 52.7885 448.336 52.7885Z" fill="#4C535D"/>
<path d="M460.066 52.7885C457.571 52.7885 455.834 51.6817 455.4 49.5876L457.256 49.1427C457.603 50.4773 458.59 51.0741 460.044 51.0741C461.737 51.0741 462.822 50.2386 462.822 49.2403C462.822 48.4048 462.236 47.8515 461.043 47.5693L459.025 47.0919C456.822 46.5711 455.769 45.486 455.769 43.7824C455.769 41.6991 457.679 40.2451 460.262 40.2451C462.757 40.2451 464.07 41.4604 464.623 43.164L462.855 43.6197C462.518 42.7516 461.835 41.9053 460.272 41.9053C458.829 41.9053 457.744 42.654 457.744 43.6631C457.744 44.5637 458.363 45.0628 459.784 45.3992L461.618 45.8332C463.821 46.3541 464.851 47.45 464.851 49.1101C464.851 51.2369 462.909 52.7885 460.066 52.7885Z" fill="#4C535D"/>
<path d="M469.158 52.6688C468.344 52.6688 467.693 52.0178 467.693 51.204C467.693 50.3902 468.344 49.7391 469.158 49.7391C469.972 49.7391 470.623 50.3902 470.623 51.204C470.623 52.0178 469.972 52.6688 469.158 52.6688ZM469.158 43.8906C468.344 43.8906 467.693 43.2396 467.693 42.4258C467.693 41.612 468.344 40.9609 469.158 40.9609C469.972 40.9609 470.623 41.612 470.623 42.4258C470.623 43.2396 469.972 43.8906 469.158 43.8906Z" fill="#4C535D"/>
<path d="M485.402 52.7444C482.559 52.7444 480.433 50.9215 480.324 48.4475H482.321C482.451 49.8907 483.775 50.9323 485.402 50.9323C487.355 50.9323 488.777 49.4458 488.777 47.395C488.777 45.3117 487.301 43.76 485.272 43.76C484.274 43.76 483.145 44.1181 482.505 44.6064L480.574 44.3677L481.529 36.3599H490.036V38.1719H483.265L482.711 42.892H482.798C483.46 42.3386 484.534 41.948 485.652 41.948C488.614 41.948 490.795 44.2375 490.795 47.3625C490.795 50.4658 488.516 52.7444 485.402 52.7444Z" fill="#4C535D"/>
<path d="M499.128 52.7446C496.426 52.7446 493.442 51.0194 493.442 45.0623C493.442 39.3766 495.71 36.1431 499.378 36.1431C502.09 36.1431 504.054 37.89 504.445 40.4291H502.427C502.069 39.0294 501.06 37.966 499.378 37.966C496.893 37.966 495.396 40.2229 495.396 44.1075H495.526C496.394 42.762 497.826 41.959 499.508 41.959C502.275 41.959 504.575 44.1834 504.575 47.3084C504.575 50.3249 502.427 52.7446 499.128 52.7446ZM499.128 50.9326C501.07 50.9326 502.579 49.3267 502.579 47.3084C502.579 45.3336 501.136 43.7494 499.182 43.7494C497.218 43.7494 495.688 45.4421 495.688 47.3301C495.688 49.2399 497.142 50.9326 499.128 50.9326Z" fill="#4C535D"/>
<path d="M508.07 52.5274L515.253 38.3021V38.1719H506.963V36.3599H517.412V38.2804L510.24 52.5274H508.07Z" fill="#4C535D"/>
<path d="M525.029 52.7446C521.741 52.7446 519.484 50.8675 519.484 48.2307C519.484 46.1908 520.83 44.4547 522.642 44.1292V44.0424C521.069 43.6409 520.07 42.1544 520.07 40.4399C520.07 37.9768 522.154 36.1431 525.029 36.1431C527.861 36.1431 529.977 37.9768 529.977 40.4399C529.977 42.1544 528.957 43.6409 527.427 44.0424V44.1292C529.185 44.4547 530.585 46.1908 530.585 48.2307C530.585 50.8675 528.284 52.7446 525.029 52.7446ZM525.029 50.9543C527.167 50.9543 528.523 49.8366 528.523 48.1222C528.523 46.3319 527.026 45.0515 525.029 45.0515C522.989 45.0515 521.513 46.3319 521.513 48.1222C521.513 49.8366 522.848 50.9543 525.029 50.9543ZM525.029 43.3262C526.733 43.3262 527.98 42.2303 527.98 40.5919C527.98 38.9751 526.787 37.9226 525.029 37.9226C523.239 37.9226 522.067 38.9751 522.067 40.5919C522.067 42.2303 523.282 43.3262 525.029 43.3262Z" fill="#4C535D"/>
<path d="M386.129 85.0754C382.624 85.0754 380.443 83.2741 380.259 80.5615H382.375C382.537 82.3952 384.23 83.2307 386.129 83.2307C388.321 83.2307 389.992 82.0806 389.992 80.3553C390.046 78.1526 386.802 77.7728 384.838 77.1761C382.244 76.384 380.715 75.1036 380.715 72.9551C380.715 70.2208 383.145 68.4087 386.27 68.4087C389.46 68.4087 391.685 70.2642 391.782 72.7056H389.764C389.58 71.1322 388.126 70.2316 386.205 70.2316C384.111 70.2316 382.722 71.3384 382.722 72.8575C382.722 74.5502 384.621 75.147 385.803 75.4725L387.42 75.9174C389.156 76.3948 391.999 77.3714 391.999 80.3879C391.999 83.0354 389.862 85.0754 386.129 85.0754Z" fill="#4C535D"/>
<path d="M399.746 72.6622V74.3332H397.251V81.6465C397.251 82.7316 397.652 83.209 398.683 83.209C398.933 83.209 399.356 83.1439 399.681 83.0788L400.083 84.7281C399.681 84.8692 399.128 84.9451 398.629 84.9451C396.535 84.9451 395.298 83.7841 395.298 81.7984V74.3332H393.475V72.6622H395.298V69.7759H397.251V72.6622H399.746Z" fill="#4C535D"/>
<path d="M405.747 85.0754C403.447 85.0754 401.613 83.7299 401.613 81.3427C401.613 78.5649 404.087 78.055 406.333 77.7728C408.525 77.4799 409.447 77.5992 409.447 76.601C409.447 75.0927 408.59 74.2247 406.908 74.2247C405.161 74.2247 404.217 75.1578 403.838 76.0042L401.961 75.3857C402.894 73.183 404.977 72.5103 406.854 72.5103C408.482 72.5103 411.401 73.0094 411.401 76.7963V84.7932H409.48V83.1439H409.35C408.938 84.0011 407.798 85.0754 405.747 85.0754ZM406.084 83.3501C408.243 83.3501 409.447 81.8961 409.447 80.4096V78.7277C409.122 79.1075 406.995 79.3245 406.247 79.4221C404.825 79.6066 403.577 80.0623 403.577 81.4404C403.577 82.6991 404.63 83.3501 406.084 83.3501Z" fill="#4C535D"/>
<path d="M419.604 72.6622V74.3332H417.108V81.6465C417.108 82.7316 417.51 83.209 418.54 83.209C418.79 83.209 419.213 83.1439 419.539 83.0788L419.94 84.7281C419.539 84.8692 418.985 84.9451 418.486 84.9451C416.392 84.9451 415.155 83.7841 415.155 81.7984V74.3332H413.332V72.6622H415.155V69.7759H417.108V72.6622H419.604Z" fill="#4C535D"/>
<path d="M426.211 84.9451C423.759 84.9451 422.099 83.4368 422.099 80.3661V72.6621H424.052V80.2033C424.052 82.0697 425.104 83.1873 426.797 83.1873C428.533 83.1873 429.846 82.0046 429.846 79.9321V72.6621H431.81V84.7932H429.922V82.5254C429.13 84.2941 427.806 84.9451 426.211 84.9451Z" fill="#4C535D"/>
<path d="M439.362 85.0537C436.866 85.0537 435.13 83.9469 434.696 81.8527L436.552 81.4078C436.899 82.7425 437.886 83.3392 439.34 83.3392C441.033 83.3392 442.118 82.5037 442.118 81.5055C442.118 80.67 441.532 80.1166 440.339 79.8345L438.32 79.357C436.118 78.8362 435.065 77.7511 435.065 76.0476C435.065 73.9642 436.975 72.5103 439.557 72.5103C442.053 72.5103 443.366 73.7255 443.919 75.4291L442.151 75.8848C441.814 75.0168 441.131 74.1704 439.568 74.1704C438.125 74.1704 437.04 74.9191 437.04 75.9282C437.04 76.8288 437.659 77.328 439.08 77.6643L440.914 78.0984C443.116 78.6192 444.147 79.7151 444.147 81.3753C444.147 83.502 442.205 85.0537 439.362 85.0537Z" fill="#4C535D"/>
<path d="M448.455 84.9345C447.641 84.9345 446.99 84.2834 446.99 83.4696C446.99 82.6558 447.641 82.0048 448.455 82.0048C449.269 82.0048 449.92 82.6558 449.92 83.4696C449.92 84.2834 449.269 84.9345 448.455 84.9345ZM448.455 76.1562C447.641 76.1562 446.99 75.5052 446.99 74.6914C446.99 73.8776 447.641 73.2266 448.455 73.2266C449.269 73.2266 449.92 73.8776 449.92 74.6914C449.92 75.5052 449.269 76.1562 448.455 76.1562Z" fill="#4C535D"/>
<path d="M461.574 77.5233V84.7932H459.621V72.6622H461.498L461.509 74.9083C462.29 73.1938 463.592 72.5103 465.22 72.5103C467.672 72.5103 469.322 74.0185 469.322 77.0892V84.7932H467.368V77.252C467.368 75.3857 466.327 74.2681 464.634 74.2681C462.887 74.2681 461.574 75.4508 461.574 77.5233Z" fill="#4C535D"/>
<path d="M477.687 85.0537C474.388 85.0537 472.164 82.5471 472.164 78.8037C472.164 75.0059 474.388 72.5103 477.687 72.5103C480.997 72.5103 483.232 75.0059 483.232 78.8037C483.232 82.5471 480.997 85.0537 477.687 85.0537ZM477.687 83.3067C480.139 83.3067 481.257 81.1908 481.257 78.8037C481.257 76.3948 480.139 74.2572 477.687 74.2572C475.267 74.2572 474.15 76.384 474.15 78.8037C474.15 81.1908 475.267 83.3067 477.687 83.3067Z" fill="#4C535D"/>
<path d="M488.028 77.5233V84.7932H486.075V72.6622H487.952L487.963 74.9083C488.744 73.1938 490.047 72.5103 491.674 72.5103C494.126 72.5103 495.776 74.0185 495.776 77.0892V84.7932H493.823V77.252C493.823 75.3857 492.781 74.2681 491.088 74.2681C489.341 74.2681 488.028 75.4508 488.028 77.5233Z" fill="#4C535D"/>
<path d="M504.304 85.0537C500.788 85.0537 498.618 82.558 498.618 78.8254C498.618 75.1036 500.767 72.5103 504.076 72.5103C506.648 72.5103 509.36 74.0945 509.36 78.5758V79.3896H500.593C500.691 81.9287 502.166 83.3175 504.315 83.3175C505.747 83.3175 506.821 82.6882 507.277 81.4512L509.165 81.9721C508.601 83.8058 506.789 85.0537 504.304 85.0537ZM500.604 77.7403H507.375C507.19 75.6787 506.073 74.2464 504.076 74.2464C501.993 74.2464 500.723 75.8848 500.604 77.7403Z" fill="#4C535D"/>
<path d="M510.652 84.7937L514.917 78.5654L510.902 72.6626H513.181C514.135 74.1383 515.264 75.8853 516.078 77.3826C516.805 75.8419 517.987 74.1057 518.942 72.6626H521.178L517.119 78.6739L521.373 84.7937H519.105C518.085 83.2312 516.87 81.43 515.991 79.8241C515.199 81.4517 513.918 83.2529 512.909 84.7937H510.652Z" fill="#4C535D"/>
<path d="M523.792 84.7935V72.6624H525.745V84.7935H523.792ZM524.779 70.6767C524.041 70.6767 523.423 70.1016 523.423 69.3855C523.423 68.6693 524.041 68.0942 524.779 68.0942C525.528 68.0942 526.146 68.6693 526.146 69.3855C526.146 70.1016 525.528 70.6767 524.779 70.6767Z" fill="#4C535D"/>
<path d="M533.298 85.0537C530.802 85.0537 529.066 83.9469 528.632 81.8527L530.487 81.4078C530.835 82.7425 531.822 83.3392 533.276 83.3392C534.969 83.3392 536.054 82.5037 536.054 81.5055C536.054 80.67 535.468 80.1166 534.274 79.8345L532.256 79.357C530.053 78.8362 529.001 77.7511 529.001 76.0476C529.001 73.9642 530.91 72.5103 533.493 72.5103C535.989 72.5103 537.302 73.7255 537.855 75.4291L536.086 75.8848C535.75 75.0168 535.066 74.1704 533.504 74.1704C532.061 74.1704 530.976 74.9191 530.976 75.9282C530.976 76.8288 531.594 77.328 533.016 77.6643L534.849 78.0984C537.052 78.6192 538.083 79.7151 538.083 81.3753C538.083 83.502 536.141 85.0537 533.298 85.0537Z" fill="#4C535D"/>
<path d="M545.678 72.6622V74.3332H543.182V81.6465C543.182 82.7316 543.584 83.209 544.615 83.209C544.864 83.209 545.287 83.1439 545.613 83.0788L546.014 84.7281C545.613 84.8692 545.059 84.9451 544.56 84.9451C542.466 84.9451 541.229 83.7841 541.229 81.7984V74.3332H539.406V72.6622H541.229V69.7759H543.182V72.6622H545.678Z" fill="#4C535D"/>
<path d="M380.953 117.059V100.892H386.682C390.057 100.892 391.652 102.812 391.652 105.178C391.652 107.25 390.415 108.194 389.004 108.574V108.726C390.513 108.823 392.281 110.212 392.281 112.751C392.281 115.193 390.675 117.059 386.867 117.059H380.953ZM383.015 115.236H386.812C389.33 115.236 390.296 114.129 390.296 112.73C390.296 111.113 388.993 109.724 386.921 109.724H383.015V115.236ZM383.015 107.988H386.574C388.31 107.988 389.677 106.892 389.677 105.221C389.677 103.821 388.733 102.715 386.639 102.715H383.015V107.988Z" fill="#4C535D"/>
<path d="M398.651 117.341C396.35 117.341 394.517 115.996 394.517 113.609C394.517 110.831 396.991 110.321 399.237 110.039C401.428 109.746 402.351 109.865 402.351 108.867C402.351 107.359 401.494 106.491 399.812 106.491C398.065 106.491 397.121 107.424 396.741 108.27L394.864 107.652C395.797 105.449 397.88 104.776 399.757 104.776C401.385 104.776 404.304 105.275 404.304 109.062V117.059H402.383V115.41H402.253C401.841 116.267 400.701 117.341 398.651 117.341ZM398.987 115.616C401.146 115.616 402.351 114.162 402.351 112.676V110.994C402.025 111.374 399.899 111.591 399.15 111.688C397.728 111.873 396.481 112.328 396.481 113.706C396.481 114.965 397.533 115.616 398.987 115.616Z" fill="#4C535D"/>
<path d="M409.686 100.892V117.059H407.732V100.892H409.686Z" fill="#4C535D"/>
<path d="M416.511 117.341C414.211 117.341 412.377 115.996 412.377 113.609C412.377 110.831 414.851 110.321 417.097 110.039C419.289 109.746 420.211 109.865 420.211 108.867C420.211 107.359 419.354 106.491 417.672 106.491C415.925 106.491 414.981 107.424 414.601 108.27L412.724 107.652C413.657 105.449 415.741 104.776 417.618 104.776C419.245 104.776 422.164 105.275 422.164 109.062V117.059H420.244V115.41H420.113C419.701 116.267 418.562 117.341 416.511 117.341ZM416.847 115.616C419.007 115.616 420.211 114.162 420.211 112.676V110.994C419.886 111.374 417.759 111.591 417.01 111.688C415.589 111.873 414.341 112.328 414.341 113.706C414.341 114.965 415.393 115.616 416.847 115.616Z" fill="#4C535D"/>
<path d="M427.546 109.789V117.059H425.593V104.928H427.47L427.481 107.174C428.262 105.46 429.564 104.776 431.192 104.776C433.644 104.776 435.293 106.285 435.293 109.355V117.059H433.34V109.518C433.34 107.652 432.299 106.534 430.606 106.534C428.859 106.534 427.546 107.717 427.546 109.789Z" fill="#4C535D"/>
<path d="M443.66 117.32C440.361 117.32 438.137 114.813 438.137 111.07C438.137 107.272 440.361 104.776 443.66 104.776C446.003 104.776 447.913 106.013 448.575 108.129L446.698 108.661C446.34 107.413 445.255 106.523 443.66 106.523C441.24 106.523 440.122 108.65 440.122 111.07C440.122 113.457 441.24 115.573 443.66 115.573C445.287 115.573 446.394 114.65 446.752 113.338L448.618 113.869C447.967 116.029 446.036 117.32 443.66 117.32Z" fill="#4C535D"/>
<path d="M456.518 117.32C453.002 117.32 450.832 114.824 450.832 111.091C450.832 107.37 452.98 104.776 456.29 104.776C458.862 104.776 461.574 106.361 461.574 110.842V111.656H452.807C452.905 114.195 454.38 115.584 456.529 115.584C457.961 115.584 459.035 114.954 459.491 113.717L461.379 114.238C460.815 116.072 459.003 117.32 456.518 117.32ZM452.818 110.006H459.589C459.404 107.945 458.286 106.512 456.29 106.512C454.207 106.512 452.937 108.151 452.818 110.006Z" fill="#4C535D"/>
<path d="M465.859 117.2C465.046 117.2 464.395 116.549 464.395 115.735C464.395 114.921 465.046 114.27 465.859 114.27C466.673 114.27 467.324 114.921 467.324 115.735C467.324 116.549 466.673 117.2 465.859 117.2ZM465.859 108.422C465.046 108.422 464.395 107.771 464.395 106.957C464.395 106.143 465.046 105.492 465.859 105.492C466.673 105.492 467.324 106.143 467.324 106.957C467.324 107.771 466.673 108.422 465.859 108.422Z" fill="#4C535D"/>
<path d="M482.396 100.891V117.059H480.367V102.801H480.259L476.353 105.698V103.484L479.868 100.891H482.396Z" fill="#4C535D"/>
<path d="M491.359 117.276C487.756 117.276 485.673 114.259 485.673 108.986C485.673 103.745 487.778 100.674 491.359 100.674C494.939 100.674 497.044 103.745 497.044 108.986C497.044 114.249 494.972 117.276 491.359 117.276ZM491.359 115.475C493.724 115.475 495.059 113.088 495.059 108.986C495.059 104.863 493.724 102.465 491.359 102.465C488.993 102.465 487.659 104.874 487.659 108.986C487.659 113.088 488.993 115.475 491.359 115.475Z" fill="#4C535D"/>
<path d="M505.378 117.276C501.776 117.276 499.692 114.259 499.692 108.986C499.692 103.745 501.797 100.674 505.378 100.674C508.959 100.674 511.064 103.745 511.064 108.986C511.064 114.249 508.991 117.276 505.378 117.276ZM505.378 115.475C507.744 115.475 509.078 113.088 509.078 108.986C509.078 104.863 507.744 102.465 505.378 102.465C503.013 102.465 501.678 104.874 501.678 108.986C501.678 113.088 503.013 115.475 505.378 115.475Z" fill="#4C535D"/>
<path d="M519.398 117.276C515.795 117.276 513.712 114.259 513.712 108.986C513.712 103.745 515.817 100.674 519.398 100.674C522.978 100.674 525.083 103.745 525.083 108.986C525.083 114.249 523.011 117.276 519.398 117.276ZM519.398 115.475C521.763 115.475 523.098 113.088 523.098 108.986C523.098 104.863 521.763 102.465 519.398 102.465C517.032 102.465 515.698 104.874 515.698 108.986C515.698 113.088 517.032 115.475 519.398 115.475Z" fill="#4C535D"/>
<path d="M717 25C717 23.4087 717.632 21.8826 718.757 20.7574C719.883 19.6322 721.409 19 723 19H951C952.591 19 954.117 19.6322 955.243 20.7574C956.368 21.8826 957 23.4087 957 25V202.98C957 204.571 956.368 206.097 955.243 207.223C954.117 208.348 952.591 208.98 951 208.98H723C721.409 208.98 719.883 208.348 718.757 207.223C717.632 206.097 717 204.571 717 202.98V25Z" stroke="#4C535D"/>
<path d="M729.564 52.5279L735.435 36.3604H737.822L743.768 52.5279H741.598L739.981 48.014H733.319L731.756 52.5279H729.564ZM733.948 46.2128H739.341C738.223 43.0661 737.768 41.981 736.617 38.0097C735.446 42.1004 735.044 43.001 733.948 46.2128Z" fill="#4C535D"/>
<path d="M750.593 52.7883C747.566 52.7883 745.461 50.3577 745.461 46.4949C745.461 42.6538 747.577 40.2449 750.604 40.2449C752.97 40.2449 753.718 41.6989 754.12 42.3391H754.272V36.3604H756.225V52.5279H754.337V50.6507H754.12C753.718 51.3235 752.905 52.7883 750.593 52.7883ZM750.886 51.0413C753.089 51.0413 754.293 49.175 754.293 46.4732C754.293 43.7931 753.122 41.9919 750.886 41.9919C748.586 41.9919 747.447 43.9558 747.447 46.4732C747.447 49.0231 748.618 51.0413 750.886 51.0413Z" fill="#4C535D"/>
<path d="M764.2 52.7883C761.172 52.7883 759.067 50.3577 759.067 46.4949C759.067 42.6538 761.183 40.2449 764.211 40.2449C766.576 40.2449 767.325 41.6989 767.726 42.3391H767.878V36.3604H769.831V52.5279H767.943V50.6507H767.726C767.325 51.3235 766.511 52.7883 764.2 52.7883ZM764.493 51.0413C766.695 51.0413 767.9 49.175 767.9 46.4732C767.9 43.7931 766.728 41.9919 764.493 41.9919C762.192 41.9919 761.053 43.9558 761.053 46.4732C761.053 49.0231 762.225 51.0413 764.493 51.0413Z" fill="#4C535D"/>
<path d="M773.26 52.5278V40.3968H775.148V42.2631H775.278C775.723 41.0369 776.982 40.2231 778.425 40.2231C778.707 40.2231 779.184 40.2448 779.412 40.2557V42.2197C779.293 42.198 778.761 42.1112 778.24 42.1112C776.493 42.1112 775.213 43.2939 775.213 44.9323V52.5278H773.26Z" fill="#4C535D"/>
<path d="M786.357 52.7885C782.841 52.7885 780.671 50.2929 780.671 46.5602C780.671 42.8384 782.819 40.2451 786.129 40.2451C788.7 40.2451 791.413 41.8293 791.413 46.3107V47.1245H782.646C782.743 49.6635 784.219 51.0524 786.368 51.0524C787.8 51.0524 788.874 50.4231 789.33 49.1861L791.218 49.7069C790.654 51.5407 788.841 52.7885 786.357 52.7885ZM782.657 45.4752H789.427C789.243 43.4135 788.125 41.9812 786.129 41.9812C784.045 41.9812 782.776 43.6197 782.657 45.4752Z" fill="#4C535D"/>
<path d="M798.336 52.7885C795.84 52.7885 794.104 51.6817 793.67 49.5876L795.525 49.1427C795.873 50.4773 796.86 51.0741 798.314 51.0741C800.007 51.0741 801.092 50.2386 801.092 49.2403C801.092 48.4048 800.506 47.8515 799.312 47.5693L797.294 47.0919C795.091 46.5711 794.039 45.486 794.039 43.7824C794.039 41.6991 795.949 40.2451 798.531 40.2451C801.027 40.2451 802.34 41.4604 802.893 43.164L801.124 43.6197C800.788 42.7516 800.104 41.9053 798.542 41.9053C797.099 41.9053 796.014 42.654 796.014 43.6631C796.014 44.5637 796.632 45.0628 798.054 45.3992L799.887 45.8332C802.09 46.3541 803.121 47.45 803.121 49.1101C803.121 51.2369 801.179 52.7885 798.336 52.7885Z" fill="#4C535D"/>
<path d="M810.066 52.7885C807.571 52.7885 805.834 51.6817 805.4 49.5876L807.256 49.1427C807.603 50.4773 808.59 51.0741 810.044 51.0741C811.737 51.0741 812.822 50.2386 812.822 49.2403C812.822 48.4048 812.236 47.8515 811.043 47.5693L809.025 47.0919C806.822 46.5711 805.769 45.486 805.769 43.7824C805.769 41.6991 807.679 40.2451 810.262 40.2451C812.757 40.2451 814.07 41.4604 814.623 43.164L812.855 43.6197C812.518 42.7516 811.835 41.9053 810.272 41.9053C808.829 41.9053 807.744 42.654 807.744 43.6631C807.744 44.5637 808.363 45.0628 809.784 45.3992L811.618 45.8332C813.821 46.3541 814.851 47.45 814.851 49.1101C814.851 51.2369 812.909 52.7885 810.066 52.7885Z" fill="#4C535D"/>
<path d="M819.158 52.6688C818.344 52.6688 817.693 52.0178 817.693 51.204C817.693 50.3902 818.344 49.7391 819.158 49.7391C819.972 49.7391 820.623 50.3902 820.623 51.204C820.623 52.0178 819.972 52.6688 819.158 52.6688ZM819.158 43.8906C818.344 43.8906 817.693 43.2396 817.693 42.4258C817.693 41.612 818.344 40.9609 819.158 40.9609C819.972 40.9609 820.623 41.612 820.623 42.4258C820.623 43.2396 819.972 43.8906 819.158 43.8906Z" fill="#4C535D"/>
<path d="M835.153 52.745C832.408 52.745 830.444 50.9981 830.064 48.4156H832.104C832.44 49.8479 833.449 50.9221 835.153 50.9221C837.616 50.9221 839.135 48.676 839.135 44.7589H839.005C838.137 46.0827 836.715 46.9182 835.023 46.9182C832.234 46.9182 829.934 44.683 829.934 41.5688C829.934 38.5523 832.104 36.0892 835.424 36.1435C838.082 36.1869 841.066 37.8579 841.066 43.804C841.066 49.5224 838.809 52.745 835.153 52.745ZM835.326 45.117C837.29 45.117 838.842 43.4134 838.842 41.5146C838.842 39.6591 837.377 37.9555 835.391 37.9555C833.438 37.9555 831.952 39.5614 831.952 41.558C831.952 43.5436 833.373 45.117 835.326 45.117Z" fill="#4C535D"/>
<path d="M849.4 52.7451C845.797 52.7451 843.714 49.7286 843.714 44.4552C843.714 39.2143 845.819 36.1436 849.4 36.1436C852.98 36.1436 855.085 39.2143 855.085 44.4552C855.085 49.7178 853.013 52.7451 849.4 52.7451ZM849.4 50.9439C851.765 50.9439 853.1 48.5567 853.1 44.4552C853.1 40.3319 851.765 37.9339 849.4 37.9339C847.034 37.9339 845.7 40.3428 845.7 44.4552C845.7 48.5567 847.034 50.9439 849.4 50.9439Z" fill="#4C535D"/>
<path d="M863.495 36.3604V52.5279H861.466V38.2701H861.357L857.451 41.1672V38.9537L860.967 36.3604H863.495Z" fill="#4C535D"/>
<path d="M867.119 52.5281V51.0416L872.49 45.2147C874.281 43.2725 875.192 42.1657 875.192 40.6791C875.192 38.9864 873.879 37.9339 872.154 37.9339C870.309 37.9339 869.137 39.1275 869.137 40.9504H867.163C867.163 38.0858 869.333 36.1436 872.208 36.1436C875.094 36.1436 877.145 38.1292 877.145 40.6574C877.145 42.4044 876.353 43.7824 873.499 46.8206L869.962 50.5858V50.716H877.416V52.5281H867.119Z" fill="#4C535D"/>
<path d="M736.129 85.0754C732.624 85.0754 730.443 83.2741 730.259 80.5615H732.375C732.537 82.3952 734.23 83.2307 736.129 83.2307C738.321 83.2307 739.992 82.0806 739.992 80.3553C740.046 78.1526 736.802 77.7728 734.838 77.1761C732.244 76.384 730.715 75.1036 730.715 72.9551C730.715 70.2208 733.145 68.4087 736.27 68.4087C739.46 68.4087 741.685 70.2642 741.782 72.7056H739.764C739.58 71.1322 738.126 70.2316 736.205 70.2316C734.111 70.2316 732.722 71.3384 732.722 72.8575C732.722 74.5502 734.621 75.147 735.803 75.4725L737.42 75.9174C739.156 76.3948 741.999 77.3714 741.999 80.3879C741.999 83.0354 739.862 85.0754 736.129 85.0754Z" fill="#4C535D"/>
<path d="M749.746 72.6622V74.3332H747.251V81.6465C747.251 82.7316 747.652 83.209 748.683 83.209C748.933 83.209 749.356 83.1439 749.681 83.0788L750.083 84.7281C749.681 84.8692 749.128 84.9451 748.629 84.9451C746.535 84.9451 745.298 83.7841 745.298 81.7984V74.3332H743.475V72.6622H745.298V69.7759H747.251V72.6622H749.746Z" fill="#4C535D"/>
<path d="M755.747 85.0754C753.447 85.0754 751.613 83.7299 751.613 81.3427C751.613 78.5649 754.087 78.055 756.333 77.7728C758.525 77.4799 759.447 77.5992 759.447 76.601C759.447 75.0927 758.59 74.2247 756.908 74.2247C755.161 74.2247 754.217 75.1578 753.838 76.0042L751.961 75.3857C752.894 73.183 754.977 72.5103 756.854 72.5103C758.482 72.5103 761.401 73.0094 761.401 76.7963V84.7932H759.48V83.1439H759.35C758.938 84.0011 757.798 85.0754 755.747 85.0754ZM756.084 83.3501C758.243 83.3501 759.447 81.8961 759.447 80.4096V78.7277C759.122 79.1075 756.995 79.3245 756.247 79.4221C754.825 79.6066 753.577 80.0623 753.577 81.4404C753.577 82.6991 754.63 83.3501 756.084 83.3501Z" fill="#4C535D"/>
<path d="M769.604 72.6622V74.3332H767.108V81.6465C767.108 82.7316 767.51 83.209 768.54 83.209C768.79 83.209 769.213 83.1439 769.539 83.0788L769.94 84.7281C769.539 84.8692 768.985 84.9451 768.486 84.9451C766.392 84.9451 765.155 83.7841 765.155 81.7984V74.3332H763.332V72.6622H765.155V69.7759H767.108V72.6622H769.604Z" fill="#4C535D"/>
<path d="M776.211 84.9451C773.759 84.9451 772.099 83.4368 772.099 80.3661V72.6621H774.052V80.2033C774.052 82.0697 775.104 83.1873 776.797 83.1873C778.533 83.1873 779.846 82.0046 779.846 79.9321V72.6621H781.81V84.7932H779.922V82.5254C779.13 84.2941 777.806 84.9451 776.211 84.9451Z" fill="#4C535D"/>
<path d="M789.362 85.0537C786.866 85.0537 785.13 83.9469 784.696 81.8527L786.552 81.4078C786.899 82.7425 787.886 83.3392 789.34 83.3392C791.033 83.3392 792.118 82.5037 792.118 81.5055C792.118 80.67 791.532 80.1166 790.339 79.8345L788.32 79.357C786.118 78.8362 785.065 77.7511 785.065 76.0476C785.065 73.9642 786.975 72.5103 789.557 72.5103C792.053 72.5103 793.366 73.7255 793.919 75.4291L792.151 75.8848C791.814 75.0168 791.131 74.1704 789.568 74.1704C788.125 74.1704 787.04 74.9191 787.04 75.9282C787.04 76.8288 787.659 77.328 789.08 77.6643L790.914 78.0984C793.116 78.6192 794.147 79.7151 794.147 81.3753C794.147 83.502 792.205 85.0537 789.362 85.0537Z" fill="#4C535D"/>
<path d="M798.455 84.9345C797.641 84.9345 796.99 84.2834 796.99 83.4696C796.99 82.6558 797.641 82.0048 798.455 82.0048C799.269 82.0048 799.92 82.6558 799.92 83.4696C799.92 84.2834 799.269 84.9345 798.455 84.9345ZM798.455 76.1562C797.641 76.1562 796.99 75.5052 796.99 74.6914C796.99 73.8776 797.641 73.2266 798.455 73.2266C799.269 73.2266 799.92 73.8776 799.92 74.6914C799.92 75.5052 799.269 76.1562 798.455 76.1562Z" fill="#4C535D"/>
<path d="M813.017 85.0754C810.717 85.0754 808.883 83.7299 808.883 81.3427C808.883 78.5649 811.357 78.055 813.603 77.7728C815.795 77.4799 816.717 77.5992 816.717 76.601C816.717 75.0927 815.86 74.2247 814.178 74.2247C812.431 74.2247 811.487 75.1578 811.107 76.0042L809.23 75.3857C810.163 73.183 812.247 72.5103 814.124 72.5103C815.751 72.5103 818.67 73.0094 818.67 76.7963V84.7932H816.75V83.1439H816.619C816.207 84.0011 815.068 85.0754 813.017 85.0754ZM813.353 83.3501C815.513 83.3501 816.717 81.8961 816.717 80.4096V78.7277C816.391 79.1075 814.265 79.3245 813.516 79.4221C812.095 79.6066 810.847 80.0623 810.847 81.4404C810.847 82.6991 811.899 83.3501 813.353 83.3501Z" fill="#4C535D"/>
<path d="M827.036 85.0537C823.737 85.0537 821.513 82.5471 821.513 78.8037C821.513 75.0059 823.737 72.5103 827.036 72.5103C829.379 72.5103 831.289 73.7472 831.951 75.8631L830.074 76.3948C829.716 75.147 828.631 74.2572 827.036 74.2572C824.616 74.2572 823.498 76.384 823.498 78.8037C823.498 81.1908 824.616 83.3067 827.036 83.3067C828.663 83.3067 829.77 82.3844 830.128 81.0715L831.994 81.6031C831.343 83.7624 829.412 85.0537 827.036 85.0537Z" fill="#4C535D"/>
<path d="M839.569 72.6622V74.3332H837.073V81.6465C837.073 82.7316 837.474 83.209 838.505 83.209C838.755 83.209 839.178 83.1439 839.503 83.0788L839.905 84.7281C839.503 84.8692 838.95 84.9451 838.451 84.9451C836.357 84.9451 835.12 83.7841 835.12 81.7984V74.3332H833.297V72.6622H835.12V69.7759H837.073V72.6622H839.569Z" fill="#4C535D"/>
<path d="M842.064 84.7935V72.6624H844.017V84.7935H842.064ZM843.052 70.6767C842.314 70.6767 841.695 70.1016 841.695 69.3855C841.695 68.6693 842.314 68.0942 843.052 68.0942C843.8 68.0942 844.419 68.6693 844.419 69.3855C844.419 70.1016 843.8 70.6767 843.052 70.6767Z" fill="#4C535D"/>
<path d="M850.951 84.7937L846.317 72.6626H848.455C849.616 76.0697 851.016 79.39 851.981 82.9816C852.925 79.39 854.336 76.0697 855.497 72.6626H857.635L853.001 84.7937H850.951Z" fill="#4C535D"/>
<path d="M864.601 85.0537C861.085 85.0537 858.915 82.558 858.915 78.8254C858.915 75.1036 861.063 72.5103 864.373 72.5103C866.945 72.5103 869.657 74.0945 869.657 78.5758V79.3896H860.89C860.988 81.9287 862.463 83.3175 864.612 83.3175C866.044 83.3175 867.118 82.6882 867.574 81.4512L869.462 81.9721C868.898 83.8058 867.086 85.0537 864.601 85.0537ZM860.901 77.7403H867.672C867.487 75.6787 866.369 74.2464 864.373 74.2464C862.29 74.2464 861.02 75.8848 860.901 77.7403Z" fill="#4C535D"/>
<path d="M730.953 117.059V100.892H736.682C740.057 100.892 741.652 102.812 741.652 105.178C741.652 107.25 740.415 108.194 739.004 108.574V108.726C740.513 108.823 742.281 110.212 742.281 112.751C742.281 115.193 740.675 117.059 736.867 117.059H730.953ZM733.015 115.236H736.812C739.33 115.236 740.296 114.129 740.296 112.73C740.296 111.113 738.993 109.724 736.921 109.724H733.015V115.236ZM733.015 107.988H736.574C738.31 107.988 739.677 106.892 739.677 105.221C739.677 103.821 738.733 102.715 736.639 102.715H733.015V107.988Z" fill="#4C535D"/>
<path d="M748.651 117.341C746.35 117.341 744.517 115.996 744.517 113.609C744.517 110.831 746.991 110.321 749.237 110.039C751.428 109.746 752.351 109.865 752.351 108.867C752.351 107.359 751.494 106.491 749.812 106.491C748.065 106.491 747.121 107.424 746.741 108.27L744.864 107.652C745.797 105.449 747.88 104.776 749.757 104.776C751.385 104.776 754.304 105.275 754.304 109.062V117.059H752.383V115.41H752.253C751.841 116.267 750.701 117.341 748.651 117.341ZM748.987 115.616C751.146 115.616 752.351 114.162 752.351 112.676V110.994C752.025 111.374 749.899 111.591 749.15 111.688C747.728 111.873 746.481 112.328 746.481 113.706C746.481 114.965 747.533 115.616 748.987 115.616Z" fill="#4C535D"/>
<path d="M759.686 100.892V117.059H757.732V100.892H759.686Z" fill="#4C535D"/>
<path d="M766.511 117.341C764.211 117.341 762.377 115.996 762.377 113.609C762.377 110.831 764.851 110.321 767.097 110.039C769.289 109.746 770.211 109.865 770.211 108.867C770.211 107.359 769.354 106.491 767.672 106.491C765.925 106.491 764.981 107.424 764.601 108.27L762.724 107.652C763.657 105.449 765.741 104.776 767.618 104.776C769.245 104.776 772.164 105.275 772.164 109.062V117.059H770.244V115.41H770.113C769.701 116.267 768.562 117.341 766.511 117.341ZM766.847 115.616C769.007 115.616 770.211 114.162 770.211 112.676V110.994C769.886 111.374 767.759 111.591 767.01 111.688C765.589 111.873 764.341 112.328 764.341 113.706C764.341 114.965 765.393 115.616 766.847 115.616Z" fill="#4C535D"/>
<path d="M777.546 109.789V117.059H775.593V104.928H777.47L777.481 107.174C778.262 105.46 779.564 104.776 781.192 104.776C783.644 104.776 785.293 106.285 785.293 109.355V117.059H783.34V109.518C783.34 107.652 782.299 106.534 780.606 106.534C778.859 106.534 777.546 107.717 777.546 109.789Z" fill="#4C535D"/>
<path d="M793.66 117.32C790.361 117.32 788.137 114.813 788.137 111.07C788.137 107.272 790.361 104.776 793.66 104.776C796.003 104.776 797.913 106.013 798.575 108.129L796.698 108.661C796.34 107.413 795.255 106.523 793.66 106.523C791.24 106.523 790.122 108.65 790.122 111.07C790.122 113.457 791.24 115.573 793.66 115.573C795.287 115.573 796.394 114.65 796.752 113.338L798.618 113.869C797.967 116.029 796.036 117.32 793.66 117.32Z" fill="#4C535D"/>
<path d="M806.518 117.32C803.002 117.32 800.832 114.824 800.832 111.091C800.832 107.37 802.98 104.776 806.29 104.776C808.862 104.776 811.574 106.361 811.574 110.842V111.656H802.807C802.905 114.195 804.38 115.584 806.529 115.584C807.961 115.584 809.035 114.954 809.491 113.717L811.379 114.238C810.815 116.072 809.003 117.32 806.518 117.32ZM802.818 110.006H809.589C809.404 107.945 808.286 106.512 806.29 106.512C804.207 106.512 802.937 108.151 802.818 110.006Z" fill="#4C535D"/>
<path d="M815.859 117.2C815.046 117.2 814.395 116.549 814.395 115.735C814.395 114.921 815.046 114.27 815.859 114.27C816.673 114.27 817.324 114.921 817.324 115.735C817.324 116.549 816.673 117.2 815.859 117.2ZM815.859 108.422C815.046 108.422 814.395 107.771 814.395 106.957C814.395 106.143 815.046 105.492 815.859 105.492C816.673 105.492 817.324 106.143 817.324 106.957C817.324 107.771 816.673 108.422 815.859 108.422Z" fill="#4C535D"/>
<path d="M832.396 100.891V117.059H830.367V102.801H830.259L826.353 105.698V103.484L829.868 100.891H832.396Z" fill="#4C535D"/>
<path d="M841.359 117.276C837.756 117.276 835.673 114.259 835.673 108.986C835.673 103.745 837.778 100.674 841.359 100.674C844.939 100.674 847.044 103.745 847.044 108.986C847.044 114.249 844.972 117.276 841.359 117.276ZM841.359 115.475C843.724 115.475 845.059 113.088 845.059 108.986C845.059 104.863 843.724 102.465 841.359 102.465C838.993 102.465 837.659 104.874 837.659 108.986C837.659 113.088 838.993 115.475 841.359 115.475Z" fill="#4C535D"/>
<path d="M855.378 117.276C851.776 117.276 849.692 114.259 849.692 108.986C849.692 103.745 851.797 100.674 855.378 100.674C858.959 100.674 861.064 103.745 861.064 108.986C861.064 114.249 858.991 117.276 855.378 117.276ZM855.378 115.475C857.744 115.475 859.078 113.088 859.078 108.986C859.078 104.863 857.744 102.465 855.378 102.465C853.013 102.465 851.678 104.874 851.678 108.986C851.678 113.088 853.013 115.475 855.378 115.475Z" fill="#4C535D"/>
<path d="M238 114H350.12" stroke="#4C535D"/>
<path d="M238 114.46H237.5V113.51H238V114.46Z" fill="#4C535D" stroke="#4C535D" stroke-width="0.05"/>
<path d="M364.88 114L350.62 118.62V109.35L364.88 114Z" fill="#4C535D" stroke="#4C535D"/>
<path d="M588 114H700.12" stroke="#4C535D"/>
<path d="M588 114.46H587.5V113.51H588V114.46Z" fill="#4C535D" stroke="#4C535D" stroke-width="0.05"/>
<path d="M714.88 114L700.62 118.62V109.35L714.88 114Z" fill="#4C535D" stroke="#4C535D"/>
<path d="M777 134.98C777 133.389 777.632 131.863 778.757 130.737C779.883 129.612 781.409 128.98 783 128.98H951C952.591 128.98 954.117 129.612 955.243 130.737C956.368 131.863 957 133.389 957 134.98V202.98C957 204.571 956.368 206.097 955.243 207.223C954.117 208.348 952.591 208.98 951 208.98H783C781.409 208.98 779.883 208.348 778.757 207.223C777.632 206.097 777 204.571 777 202.98V134.98Z" stroke="#4C535D"/>
<path d="M797.497 162.72C793.352 162.72 790.324 159.552 790.324 154.43C790.324 149.298 793.352 146.119 797.497 146.119C800.773 146.119 803.443 148.093 804.018 151.425H801.956C801.5 149.211 799.602 148.028 797.497 148.028C794.589 148.028 792.332 150.285 792.332 154.43C792.332 158.564 794.599 160.81 797.497 160.81C799.612 160.81 801.5 159.617 801.956 157.414H804.018C803.454 160.702 800.806 162.72 797.497 162.72Z" fill="#4C535D"/>
<path d="M811.884 162.764C808.586 162.764 806.361 160.257 806.361 156.514C806.361 152.716 808.586 150.22 811.884 150.22C815.194 150.22 817.429 152.716 817.429 156.514C817.429 160.257 815.194 162.764 811.884 162.764ZM811.884 161.017C814.337 161.017 815.454 158.901 815.454 156.514C815.454 154.105 814.337 151.967 811.884 151.967C809.465 151.967 808.347 154.094 808.347 156.514C808.347 158.901 809.465 161.017 811.884 161.017Z" fill="#4C535D"/>
<path d="M822.226 155.233V162.503H820.272V150.372H822.15L822.16 152.618C822.942 150.904 824.244 150.22 825.871 150.22C828.324 150.22 829.973 151.728 829.973 154.799V162.503H828.02V154.962C828.02 153.096 826.978 151.978 825.285 151.978C823.539 151.978 822.226 153.161 822.226 155.233Z" fill="#4C535D"/>
<path d="M838.176 150.372V152.043H835.68V159.356C835.68 160.442 836.082 160.919 837.113 160.919C837.362 160.919 837.785 160.854 838.111 160.789L838.512 162.438C838.111 162.579 837.558 162.655 837.058 162.655C834.964 162.655 833.727 161.494 833.727 159.508V152.043H831.904V150.372H833.727V147.486H835.68V150.372H838.176Z" fill="#4C535D"/>
<path d="M840.672 162.503V150.372H842.56V152.239H842.69C843.135 151.013 844.394 150.199 845.837 150.199C846.119 150.199 846.596 150.22 846.824 150.231V152.195C846.705 152.174 846.173 152.087 845.652 152.087C843.905 152.087 842.625 153.269 842.625 154.908V162.503H840.672Z" fill="#4C535D"/>
<path d="M852.434 162.785C850.134 162.785 848.3 161.44 848.3 159.053C848.3 156.275 850.774 155.765 853.02 155.483C855.212 155.19 856.134 155.309 856.134 154.311C856.134 152.803 855.277 151.935 853.595 151.935C851.848 151.935 850.904 152.868 850.524 153.714L848.647 153.096C849.58 150.893 851.664 150.22 853.541 150.22C855.168 150.22 858.087 150.719 858.087 154.506V162.503H856.167V160.854H856.036C855.624 161.711 854.485 162.785 852.434 162.785ZM852.77 161.06C854.93 161.06 856.134 159.606 856.134 158.12V156.438C855.808 156.817 853.682 157.034 852.933 157.132C851.512 157.317 850.264 157.772 850.264 159.15C850.264 160.409 851.316 161.06 852.77 161.06Z" fill="#4C535D"/>
<path d="M866.453 162.764C863.154 162.764 860.93 160.257 860.93 156.514C860.93 152.716 863.154 150.22 866.453 150.22C868.796 150.22 870.706 151.457 871.368 153.573L869.491 154.105C869.133 152.857 868.048 151.967 866.453 151.967C864.033 151.967 862.915 154.094 862.915 156.514C862.915 158.901 864.033 161.017 866.453 161.017C868.08 161.017 869.187 160.094 869.545 158.781L871.411 159.313C870.76 161.472 868.829 162.764 866.453 162.764Z" fill="#4C535D"/>
<path d="M878.986 150.372V152.043H876.49V159.356C876.49 160.442 876.891 160.919 877.922 160.919C878.172 160.919 878.595 160.854 878.92 160.789L879.322 162.438C878.92 162.579 878.367 162.655 877.868 162.655C875.774 162.655 874.537 161.494 874.537 159.508V152.043H872.714V150.372H874.537V147.486H876.49V150.372H878.986Z" fill="#4C535D"/>
<path d="M791.453 197.796V177.614H795.772V179.274H793.319V196.136H795.772V197.796H791.453Z" fill="#4C535D"/>
<path d="M803.508 195.029C800.21 195.029 797.985 192.523 797.985 188.779C797.985 184.981 800.21 182.486 803.508 182.486C805.852 182.486 807.762 183.723 808.424 185.839L806.547 186.37C806.188 185.123 805.103 184.233 803.508 184.233C801.089 184.233 799.971 186.36 799.971 188.779C799.971 191.166 801.089 193.282 803.508 193.282C805.136 193.282 806.243 192.36 806.601 191.047L808.467 191.579C807.816 193.738 805.885 195.029 803.508 195.029Z" fill="#4C535D"/>
<path d="M816.204 195.029C812.905 195.029 810.681 192.523 810.681 188.779C810.681 184.981 812.905 182.486 816.204 182.486C819.513 182.486 821.748 184.981 821.748 188.779C821.748 192.523 819.513 195.029 816.204 195.029ZM816.204 193.282C818.656 193.282 819.774 191.166 819.774 188.779C819.774 186.37 818.656 184.233 816.204 184.233C813.784 184.233 812.666 186.36 812.666 188.779C812.666 191.166 813.784 193.282 816.204 193.282Z" fill="#4C535D"/>
<path d="M829.137 195.029C826.11 195.029 824.005 192.598 824.005 188.736C824.005 184.894 826.121 182.486 829.148 182.486C831.514 182.486 832.262 183.94 832.664 184.58H832.816V178.601H834.769V194.769H832.881V192.891H832.664C832.262 193.564 831.448 195.029 829.137 195.029ZM829.43 193.282C831.633 193.282 832.837 191.416 832.837 188.714C832.837 186.034 831.665 184.233 829.43 184.233C827.13 184.233 825.991 186.197 825.991 188.714C825.991 191.264 827.162 193.282 829.43 193.282Z" fill="#4C535D"/>
<path d="M843.298 195.029C839.782 195.029 837.612 192.534 837.612 188.801C837.612 185.079 839.761 182.486 843.07 182.486C845.642 182.486 848.354 184.07 848.354 188.551V189.365H839.587C839.685 191.904 841.16 193.293 843.309 193.293C844.741 193.293 845.815 192.664 846.271 191.427L848.159 191.948C847.595 193.781 845.783 195.029 843.298 195.029ZM839.598 187.716H846.369C846.184 185.654 845.067 184.222 843.07 184.222C840.987 184.222 839.717 185.86 839.598 187.716Z" fill="#4C535D"/>
<path d="M850.524 197.796V196.136H852.977V179.274H850.524V177.614H854.843V197.796H850.524Z" fill="#4C535D"/>
<path d="M865.997 197.796V177.614H870.316V179.274H867.863V196.136H870.316V197.796H865.997Z" fill="#4C535D"/>
<path d="M877.662 195.029C874.634 195.029 872.529 192.598 872.529 188.736C872.529 184.894 874.645 182.486 877.673 182.486C880.038 182.486 880.787 183.94 881.188 184.58H881.34V178.601H883.293V194.769H881.405V192.891H881.188C880.787 193.564 879.973 195.029 877.662 195.029ZM877.955 193.282C880.157 193.282 881.362 191.416 881.362 188.714C881.362 186.034 880.19 184.233 877.955 184.233C875.654 184.233 874.515 186.197 874.515 188.714C874.515 191.264 875.687 193.282 877.955 193.282Z" fill="#4C535D"/>
<path d="M890.118 195.051C887.818 195.051 885.984 193.705 885.984 191.318C885.984 188.541 888.458 188.031 890.704 187.748C892.896 187.455 893.819 187.575 893.819 186.577C893.819 185.068 892.961 184.2 891.28 184.2C889.533 184.2 888.589 185.133 888.209 185.98L886.332 185.361C887.265 183.159 889.348 182.486 891.225 182.486C892.853 182.486 895.772 182.985 895.772 186.772V194.769H893.851V193.12H893.721C893.309 193.977 892.169 195.051 890.118 195.051ZM890.455 193.326C892.614 193.326 893.819 191.872 893.819 190.385V188.703C893.493 189.083 891.366 189.3 890.618 189.398C889.196 189.582 887.948 190.038 887.948 191.416C887.948 192.675 889.001 193.326 890.455 193.326Z" fill="#4C535D"/>
<path d="M903.975 182.638V184.309H901.479V191.622C901.479 192.707 901.881 193.185 902.911 193.185C903.161 193.185 903.584 193.12 903.91 193.054L904.311 194.704C903.91 194.845 903.356 194.921 902.857 194.921C900.763 194.921 899.526 193.76 899.526 191.774V184.309H897.703V182.638H899.526V179.751H901.479V182.638H903.975Z" fill="#4C535D"/>
<path d="M909.975 195.051C907.675 195.051 905.841 193.705 905.841 191.318C905.841 188.541 908.315 188.031 910.561 187.748C912.753 187.455 913.675 187.575 913.675 186.577C913.675 185.068 912.818 184.2 911.136 184.2C909.389 184.2 908.445 185.133 908.065 185.98L906.188 185.361C907.121 183.159 909.205 182.486 911.082 182.486C912.709 182.486 915.628 182.985 915.628 186.772V194.769H913.708V193.12H913.577C913.165 193.977 912.026 195.051 909.975 195.051ZM910.311 193.326C912.471 193.326 913.675 191.872 913.675 190.385V188.703C913.35 189.083 911.223 189.3 910.474 189.398C909.053 189.582 907.805 190.038 907.805 191.416C907.805 192.675 908.857 193.326 910.311 193.326Z" fill="#4C535D"/>
<path d="M918.677 197.796V196.136H921.129V179.274H918.677V177.614H922.995V197.796H918.677Z" fill="#4C535D"/>
</svg>
