<svg xmlns="http://www.w3.org/2000/svg" xmlns:xlink="http://www.w3.org/1999/xlink" xmlns:lucid="lucid" width="761" height="361"><g transform="translate(1920.5 280.5)" lucid:page-tab-id="M.wZzVy0bzTW"><path d="M-2000-500h1000V500h-1000z" fill="#fff"/><path d="M-1760 20c0 33.14-35.82 60-80 60s-80-26.86-80-60 35.82-60 80-60 80 26.86 80 60z" stroke="#3a414a" fill-opacity="0"/><use xlink:href="#a" transform="matrix(1,0,0,1,-1920,-40) translate(55.946840277777774 65.97222222222223)"/><use xlink:href="#b" transform="matrix(1,0,0,1,-1920,-40) translate(96.83225694444445 65.97222222222223)"/><path d="M-1560 20c0 33.14-35.82 60-80 60s-80-26.86-80-60 35.82-60 80-60 80 26.86 80 60z" stroke="#3a414a" fill-opacity="0"/><use xlink:href="#a" transform="matrix(1,0,0,1,-1720,-40) translate(54.14128472222222 65.97222222222223)"/><use xlink:href="#c" transform="matrix(1,0,0,1,-1720,-40) translate(95.02670138888888 65.97222222222223)"/><path d="M-1160 20c0 33.14-35.82 60-80 60s-80-26.86-80-60 35.82-60 80-60 80 26.86 80 60z" stroke="#3a414a" fill-opacity="0"/><use xlink:href="#a" transform="matrix(1,0,0,1,-1320,-40) translate(54.31055555555555 65.97222222222223)"/><use xlink:href="#d" transform="matrix(1,0,0,1,-1320,-40) translate(95.19597222222222 65.97222222222223)"/><path d="M-1452.7 10.24a6 6 0 0 1 6-6h13.4a6 6 0 0 1 6 6v19.52a6 6 0 0 1-6 6h-13.4a6 6 0 0 1-6-6z" fill="none"/><use xlink:href="#e" transform="matrix(1,0,0,1,-1447.6872916666666,9.239791666666662) translate(0.3177083333333339 17.46701388888889)"/><path d="M-1460-220c0 33.14-35.82 60-80 60s-80-26.86-80-60 35.82-60 80-60 80 26.86 80 60z" stroke="#3a414a" fill-opacity="0"/><use xlink:href="#f" transform="matrix(1,0,0,1,-1620,-280) translate(39.388680555555545 65.97222222222223)"/><path d="M-1636.88-219.48l-7.9.5-11.9 1.25-11.67 1.72-11.36 2.15-11.02 2.6-10.62 2.95-10.2 3.3-9.74 3.63-9.28 3.9-8.8 4.15-8.34 4.35-7.87 4.54-7.4 4.7-6.97 4.84-6.53 4.97-6.13 5.06-5.73 5.16-5.35 5.23-5 5.32-4.65 5.4-4.33 5.46-4.02 5.54-3.73 5.6-3.45 5.7-3.17 5.75-2.9 5.84-2.64 5.94-2.4 6.05-2.14 6.15-1.9 6.28-1.64 6.42-1.4 6.58-1.14 6.74-.87 6.92-.16 1.92" stroke="#3a414a" stroke-linejoin="round" fill="none"/><path d="M-1622.12-219.95l-14.1 5.08-.3-9.26zM-1839.92-42.12l-3.95-14.47 9.26.46z" stroke="#3a414a" fill="#3a414a"/><path d="M-1602.78-161.33l-4.6 7.1-7.27 12.35-5.07 9.5-3.9 8.1-3.14 7.35-2.63 6.93-2.24 6.76-1.95 6.77-1.67 6.97-1.46 7.35-1.23 7.95-1 8.85-.58 8.47" stroke="#3a414a" stroke-linejoin="round" fill="none"/><path d="M-1594.75-173.72l-3.87 14.5-7.78-5.05zM-1639.95-42.12l-4.23-14.4 9.26.27z" stroke="#3a414a" fill="#3a414a"/><path d="M-1443.12-219.48l7.9.5 11.9 1.25 11.67 1.72 11.36 2.15 11.02 2.6 10.62 2.95 10.2 3.3 9.74 3.63 9.28 3.9 8.8 4.15 8.34 4.35 7.87 4.54 7.4 4.7 6.97 4.84 6.53 4.97 6.13 5.06 5.73 5.16 5.35 5.23 5 5.32 4.65 5.4 4.33 5.46 4.02 5.54 3.73 5.6 3.45 5.7 3.17 5.75 2.9 5.84 2.64 5.94 2.4 6.05 2.14 6.15 1.9 6.28 1.64 6.42 1.4 6.58 1.14 6.74.87 6.92.16 1.92" stroke="#3a414a" stroke-linejoin="round" fill="none"/><path d="M-1457.88-219.95l14.4-4.18-.3 9.26zM-1240.08-42.12l-5.3-14.02 9.25-.45z" stroke="#3a414a" fill="#3a414a"/><defs><path fill="#3a414a" d="M158 0v-1118h180V0H158zm91-1301c-68 0-125-53-125-119s57-119 125-119c69 0 126 53 126 119s-57 119-126 119" id="g"/><path fill="#3a414a" d="M598-1118v154H368v674c0 100 37 144 132 144 23 0 62-6 92-12L629-6c-37 13-88 20-134 20-193 0-307-107-307-290v-688H20v-154h168v-266h180v266h230" id="h"/><path fill="#3a414a" d="M628 24c-324 0-524-230-524-574 0-343 198-582 503-582 237 0 487 146 487 559v75H286c9 234 145 362 343 362 132 0 231-58 273-172l174 48C1024-91 857 24 628 24zM287-650h624c-17-190-120-322-304-322-192 0-309 151-320 322" id="i"/><path fill="#3a414a" d="M158 0v-1118h175l1 205c55-151 181-225 313-225 147 0 245 90 285 228 53-141 190-228 352-228 194 0 352 125 352 384V0h-181v-749c0-161-105-225-225-225-151 0-243 103-243 244V0H807v-767c0-124-93-207-219-207-131 0-250 92-250 270V0H158" id="j"/><g id="a"><use transform="matrix(0.008680555555555556,0,0,0.008680555555555556,0,0)" xlink:href="#g"/><use transform="matrix(0.008680555555555556,0,0,0.008680555555555556,4.305555555555555,0)" xlink:href="#h"/><use transform="matrix(0.008680555555555556,0,0,0.008680555555555556,9.947916666666668,0)" xlink:href="#i"/><use transform="matrix(0.008680555555555556,0,0,0.008680555555555556,20.3125,0)" xlink:href="#j"/></g><path fill="#3a414a" d="M653-1490V0H466v-1314h-10L96-1047v-204l324-239h233" id="k"/><use transform="matrix(0.008680555555555556,0,0,0.008680555555555556,0,0)" xlink:href="#k" id="b"/><path fill="#3a414a" d="M154 0v-137l495-537c165-179 249-281 249-418 0-156-121-253-280-253-170 0-278 110-278 278H158c0-264 200-443 465-443 266 0 455 183 455 416 0 161-73 288-336 568L416-179v12h687V0H154" id="l"/><use transform="matrix(0.008680555555555556,0,0,0.008680555555555556,0,0)" xlink:href="#l" id="c"/><path fill="#3a414a" d="M338-670V0H158v-1118h173l1 207c72-158 192-221 342-221 226 0 378 139 378 422V0H872v-695c0-172-96-275-252-275-161 0-282 109-282 300" id="m"/><use transform="matrix(0.008680555555555556,0,0,0.008680555555555556,0,0)" xlink:href="#m" id="d"/><path fill="#3a414a" d="M295 13c-75 0-135-60-135-135s60-135 135-135 135 60 135 135S370 13 295 13" id="n"/><g id="e"><use transform="matrix(0.008680555555555556,0,0,0.008680555555555556,0,0)" xlink:href="#n"/><use transform="matrix(0.008680555555555556,0,0,0.008680555555555556,5.121527777777778,0)" xlink:href="#n"/><use transform="matrix(0.008680555555555556,0,0,0.008680555555555556,10.243055555555555,0)" xlink:href="#n"/></g><path fill="#3a414a" d="M613 24c-304 0-509-231-509-576 0-350 205-580 509-580 216 0 392 114 453 309l-173 49c-33-115-133-197-280-197-223 0-326 196-326 419 0 220 103 415 326 415 150 0 252-85 285-206l172 49C1010-95 832 24 613 24" id="o"/><path fill="#3a414a" d="M613 24c-304 0-509-231-509-576 0-350 205-580 509-580 305 0 511 230 511 580 0 345-206 576-511 576zm0-161c226 0 329-195 329-415 0-222-103-419-329-419-223 0-326 196-326 419 0 220 103 415 326 415" id="p"/><path fill="#3a414a" d="M338-1490V0H158v-1490h180" id="q"/><g id="f"><use transform="matrix(0.008680555555555556,0,0,0.008680555555555556,0,0)" xlink:href="#o"/><use transform="matrix(0.008680555555555556,0,0,0.008680555555555556,10.15625,0)" xlink:href="#p"/><use transform="matrix(0.008680555555555556,0,0,0.008680555555555556,20.81597222222222,0)" xlink:href="#q"/><use transform="matrix(0.008680555555555556,0,0,0.008680555555555556,25.12152777777778,0)" xlink:href="#q"/><use transform="matrix(0.008680555555555556,0,0,0.008680555555555556,29.427083333333336,0)" xlink:href="#i"/><use transform="matrix(0.008680555555555556,0,0,0.008680555555555556,39.79166666666667,0)" xlink:href="#o"/><use transform="matrix(0.008680555555555556,0,0,0.008680555555555556,49.94791666666667,0)" xlink:href="#h"/><use transform="matrix(0.008680555555555556,0,0,0.008680555555555556,55.76388888888889,0)" xlink:href="#g"/><use transform="matrix(0.008680555555555556,0,0,0.008680555555555556,60.06944444444445,0)" xlink:href="#p"/><use transform="matrix(0.008680555555555556,0,0,0.008680555555555556,70.72916666666667,0)" xlink:href="#m"/></g></defs></g></svg>