<svg xmlns="http://www.w3.org/2000/svg" xmlns:xlink="http://www.w3.org/1999/xlink" xmlns:lucid="lucid" width="940.5" height="569.67"><g transform="translate(-1420.0000042899678 -7.083333320059321)" lucid:page-tab-id="MUxZPul9YGgR"><path d="M1580.5 67.58c0 33.14-35.82 60-80 60s-80-26.86-80-60c0-33.13 35.82-60 80-60s80 26.87 80 60z" stroke="#ced4db" fill-opacity="0"/><use xlink:href="#a" transform="matrix(1,0,0,1,1420.5000042899678,7.5833333333332575) translate(61.528437499999995 65.97222222222223)"/><path d="M1970.25 67.58c0 33.14-35.82 60-80 60s-80-26.86-80-60c0-33.13 35.82-60 80-60s80 26.87 80 60z" stroke="#ced4db" fill-opacity="0"/><use xlink:href="#b" transform="matrix(1,0,0,1,1810.250002144984,7.5833333333332575) translate(39.388680555555545 65.97222222222223)"/><path d="M1657.2 68.06h-75.7v-.95h75.7zm136.17 0h-59.8v-.95h59.8z" stroke="#ced4db" stroke-width=".05" fill="#ced4db"/><path d="M1581.5 68.06h-.52l.02-.47v-.4l.5-.1z" fill="#ced4db"/><path stroke="#ced4db" stroke-width=".05" fill="#ced4db"/><path d="M1808.13 67.58l-14.26 4.64v-9.27z" fill="#ced4db"/><path d="M1809.67 67.58l-16.28 5.3v-10.6zm-15.33 3.98l12.26-3.98-12.26-3.98z" stroke="#ced4db" stroke-width=".05" fill="#ced4db"/><use xlink:href="#c" transform="matrix(1,0,0,1,1657.1935796063647,56.82812499999993) translate(0 17.22222222222222)"/><path d="M1971.25 67.58h211.87" stroke="#ced4db" fill="none"/><path d="M1971.26 68.06h-.53l.02-.47v-.5h.5z" stroke="#ced4db" stroke-width=".05" fill="#ced4db"/><path d="M2197.88 67.58l-14.26 4.64v-9.27z" stroke="#ced4db" fill="#ced4db"/><path d="M2200 13.58a6 6 0 0 1 6-6h148a6 6 0 0 1 6 6v108a6 6 0 0 1-6 6h-148a6 6 0 0 1-6-6z" fill-opacity="0"/><path d="M2203.7 8.06l.45-.18.9-.22.95-.08h1.95m3.9 0h3.9m3.88 0h3.9m3.9 0h3.9m3.88 0h3.9m3.9 0h3.9m3.9 0h3.88m3.9 0h3.9m3.9 0h3.88m3.9 0h3.9m3.9 0h3.88m3.9 0h3.9m3.9 0h3.88m3.9 0h3.9m3.9 0h3.88m3.9 0h3.9m3.88 0h3.9m3.9 0h3.9m3.88 0h3.9m3.9 0h1.94l.94.08.9.22.45.18m3.23 3.23l.18.43.23.9.07.95v1.93m0 3.87v3.86m0 3.85v3.86m0 3.86v3.86m0 3.85v3.87m0 3.86v3.85m0 3.86v3.86m0 3.86v3.85m0 3.87v3.86m0 3.85v3.86m0 3.86v3.86m0 3.85v3.87m0 3.86v3.85m0 3.86v3.86m0 3.86v1.92l-.07.94-.22.92-.17.43m-3.24 3.24l-.45.2-.9.2-.95.08h-1.95m-3.9 0h-3.9m-3.88 0h-3.9m-3.9 0h-3.9m-3.88 0h-3.9m-3.9 0h-3.9m-3.9 0h-3.88m-3.9 0h-3.9m-3.9 0h-3.88m-3.9 0h-3.9m-3.9 0h-3.88m-3.9 0h-3.9m-3.9 0h-3.88m-3.9 0h-3.9m-3.9 0H2243m-3.9 0h-3.9m-3.88 0h-3.9m-3.9 0h-3.9m-3.88 0h-3.9m-3.9 0H2206l-.94-.07-.9-.2-.45-.2m-3.23-3.23l-.18-.43-.23-.92-.07-.94v-1.92m0-3.86v-3.86m0-3.86v-3.85m0-3.86V96.5m0-3.84V88.8m0-3.86v-3.86m0-3.85v-3.86m0-3.86v-3.84m0-3.86v-3.86m0-3.86v-3.85m0-3.86V42.5m0-3.84V34.8m0-3.86v-3.86m0-3.85v-3.86m0-3.86V13.6l.07-.94.22-.9.17-.45" stroke="#ced4db" fill="none"/><use xlink:href="#d" transform="matrix(1,0,0,1,2212,19.583333333333258) translate(29.875 41.22222222222222)"/><use xlink:href="#e" transform="matrix(1,0,0,1,2212,19.583333333333258) translate(70.23958333333334 41.22222222222222)"/><use xlink:href="#f" transform="matrix(1,0,0,1,2212,19.583333333333258) translate(34.35850694444444 67.03472222222223)"/><path d="M1581 291.92c0 33.13-35.82 60-80 60s-80-26.87-80-60c0-33.14 35.82-60 80-60s80 26.86 80 60z" stroke="#ced4db" fill-opacity="0"/><use xlink:href="#a" transform="matrix(1,0,0,1,1421.0000085255365,231.91671666666662) translate(61.528437499999995 65.97222222222223)"/><path d="M1970.25 291.92c0 33.13-35.82 60-80 60s-80-26.87-80-60c0-33.14 35.82-60 80-60s80 26.86 80 60z" stroke="#ced4db" fill-opacity="0"/><use xlink:href="#d" transform="matrix(1,0,0,1,1810.250002144984,231.91671666666662) translate(41.879999999999995 65.97222222222223)"/><use xlink:href="#g" transform="matrix(1,0,0,1,1810.250002144984,231.91671666666662) translate(82.24458333333334 65.97222222222223)"/><path d="M1582 291.92h211.37" stroke="#ced4db" fill="none"/><path d="M1582 292.4h-.52l.02-.48V291.44h.5z" stroke="#ced4db" stroke-width=".05" fill="#ced4db"/><path d="M1808.13 291.92l-14.26 4.63v-9.27z" stroke="#ced4db" fill="#ced4db"/><path d="M1971.25 291.92h211.87" stroke="#ced4db" fill="none"/><path d="M1971.26 292.4h-.53l.02-.48V291.44h.5z" stroke="#ced4db" stroke-width=".05" fill="#ced4db"/><path d="M2197.88 291.92l-14.26 4.63v-9.27z" stroke="#ced4db" fill="#ced4db"/><path d="M2200 237.92a6 6 0 0 1 6-6h148a6 6 0 0 1 6 6v108a6 6 0 0 1-6 6h-148a6 6 0 0 1-6-6z" fill-opacity="0"/><path d="M2203.7 232.4l.45-.2.9-.2.95-.08h1.95m3.9 0h3.9m3.88 0h3.9m3.9 0h3.9m3.88 0h3.9m3.9 0h3.9m3.9 0h3.88m3.9 0h3.9m3.9 0h3.88m3.9 0h3.9m3.9 0h3.88m3.9 0h3.9m3.9 0h3.88m3.9 0h3.9m3.9 0h3.88m3.9 0h3.9m3.88 0h3.9m3.9 0h3.9m3.88 0h3.9m3.9 0h1.94l.94.07.9.2.45.2m3.23 3.23l.18.43.23.92.07.94v1.93m0 3.85v3.86m0 3.86v3.85m0 3.86V263m0 3.85v3.85m0 3.86v3.86m0 3.85v3.86m0 3.86v3.85m0 3.85v3.86m0 3.86v3.85m0 3.86V317m0 3.85v3.85m0 3.86v3.86m0 3.85v3.86m0 3.86v1.92l-.07.94-.22.9-.17.45m-3.24 3.24l-.45.18-.9.22-.95.08h-1.95m-3.9 0h-3.9m-3.88 0h-3.9m-3.9 0h-3.9m-3.88 0h-3.9m-3.9 0h-3.9m-3.9 0h-3.88m-3.9 0h-3.9m-3.9 0h-3.88m-3.9 0h-3.9m-3.9 0h-3.88m-3.9 0h-3.9m-3.9 0h-3.88m-3.9 0h-3.9m-3.9 0H2243m-3.9 0h-3.9m-3.88 0h-3.9m-3.9 0h-3.9m-3.88 0h-3.9m-3.9 0H2206l-.94-.08-.9-.22-.45-.18m-3.23-3.23l-.18-.43-.23-.9-.07-.95V344m0-3.87v-3.86m0-3.85v-3.86m0-3.86v-3.85m0-3.86v-3.87m0-3.86v-3.85m0-3.86v-3.86m0-3.85V290m0-3.87v-3.86m0-3.85v-3.86m0-3.86v-3.85m0-3.86v-3.87m0-3.86v-3.85m0-3.86v-3.86m0-3.85v-1.93l.07-.94.22-.92.17-.43" stroke="#ced4db" fill="none"/><use xlink:href="#h" transform="matrix(1,0,0,1,2212,243.91671666666662) translate(28.00868055555555 41.22222222222222)"/><use xlink:href="#i" transform="matrix(1,0,0,1,2212,243.91671666666662) translate(36.17708333333333 67.03472222222223)"/><path d="M1581.25 516.25c0 33.14-35.82 60-80 60s-80-26.86-80-60 35.82-60 80-60 80 26.86 80 60z" stroke="#ced4db" fill-opacity="0"/><use xlink:href="#a" transform="matrix(1,0,0,1,1421.2500106433208,456.2501) translate(61.528437499999995 65.97222222222223)"/><path d="M1970.63 516.25c0 33.14-35.82 60-80 60-44.2 0-80-26.86-80-60s35.8-60 80-60c44.18 0 80 26.86 80 60z" stroke="#ced4db" fill-opacity="0"/><use xlink:href="#b" transform="matrix(1,0,0,1,1810.6250053216604,456.2501) translate(39.388680555555545 65.97222222222223)"/><path d="M1631.7 516.73h-49.45v-.96h49.46zm162.04 0h-33.58v-.96h33.58z" stroke="#ced4db" stroke-width=".05" fill="#ced4db"/><path d="M1582.26 516.73h-.53l.02-.47v-.4l.5-.1z" fill="#ced4db"/><path stroke="#ced4db" stroke-width=".05" fill="#ced4db"/><path d="M1808.5 516.25l-14.26 4.63v-9.26z" fill="#ced4db"/><path d="M1810.04 516.25l-16.27 5.3v-10.6zm-15.32 3.98l12.25-3.98-12.25-3.98z" stroke="#ced4db" stroke-width=".05" fill="#ced4db"/><use xlink:href="#j" transform="matrix(1,0,0,1,1631.7144177047128,492.58864166666666) translate(23.48590277777779 17.22222222222222)"/><use xlink:href="#k" transform="matrix(1,0,0,1,1631.7144177047128,492.58864166666666) translate(0.0049999999999954525 43.034722222222214)"/><path d="M2200 462.25a6 6 0 0 1 6-6h148a6 6 0 0 1 6 6v108a6 6 0 0 1-6 6h-148a6 6 0 0 1-6-6z" fill-opacity="0"/><path d="M2203.7 456.72l.45-.18.9-.22.95-.07h1.95m3.9 0h3.9m3.88 0h3.9m3.9 0h3.9m3.88 0h3.9m3.9 0h3.9m3.9 0h3.88m3.9 0h3.9m3.9 0h3.88m3.9 0h3.9m3.9 0h3.88m3.9 0h3.9m3.9 0h3.88m3.9 0h3.9m3.9 0h3.88m3.9 0h3.9m3.88 0h3.9m3.9 0h3.9m3.88 0h3.9m3.9 0h1.94l.94.07.9.22.45.18m3.23 3.24l.18.44.23.9.07.95v1.93m0 3.86v3.85m0 3.85v3.86m0 3.86v3.86m0 3.86v3.86m0 3.85v3.85m0 3.86v3.86m0 3.86v3.86m0 3.86v3.85m0 3.85v3.86m0 3.86v3.86m0 3.86v3.86m0 3.85v3.85m0 3.86v3.86m0 3.86v1.93l-.07.94-.22.9-.17.44m-3.24 3.24l-.45.18-.9.22-.95.07h-1.95m-3.9 0h-3.9m-3.88 0h-3.9m-3.9 0h-3.9m-3.88 0h-3.9m-3.9 0h-3.9m-3.9 0h-3.88m-3.9 0h-3.9m-3.9 0h-3.88m-3.9 0h-3.9m-3.9 0h-3.88m-3.9 0h-3.9m-3.9 0h-3.88m-3.9 0h-3.9m-3.9 0H2243m-3.9 0h-3.9m-3.88 0h-3.9m-3.9 0h-3.9m-3.88 0h-3.9m-3.9 0H2206l-.94-.07-.9-.22-.45-.18m-3.23-3.24l-.18-.44-.23-.9-.07-.95v-1.93m0-3.86v-3.85m0-3.85v-3.86m0-3.86v-3.86m0-3.86v-3.86m0-3.85v-3.85m0-3.86v-3.86m0-3.86v-3.86m0-3.86v-3.85m0-3.85v-3.86m0-3.86v-3.86m0-3.86v-3.86m0-3.85v-3.85m0-3.86v-3.86m0-3.86v-1.93l.07-.94.22-.9.17-.44" stroke="#ced4db" fill="none"/><use xlink:href="#l" transform="matrix(1,0,0,1,2212,468.2501) translate(12.865451388888879 41.22222222222222)"/><use xlink:href="#m" transform="matrix(1,0,0,1,2212,468.2501) translate(46.88454861111111 41.22222222222222)"/><use xlink:href="#e" transform="matrix(1,0,0,1,2212,468.2501) translate(87.24913194444446 41.22222222222222)"/><use xlink:href="#n" transform="matrix(1,0,0,1,2212,468.2501) translate(28.71180555555555 67.03472222222223)"/><path d="M1971.63 516.25h211.5" stroke="#ced4db" fill="none"/><path d="M1971.64 516.73h-.53l.03-.47v-.5h.5z" stroke="#ced4db" stroke-width=".05" fill="#ced4db"/><path d="M2197.88 516.25l-14.26 4.63v-9.26z" stroke="#ced4db" fill="#ced4db"/><path d="M1501.47 215.03h-.94v-1.83h.94zm0-5.5h-.94v-3.65h.94zm0-7.3h-.94v-3.67h.94zm0-7.33h-.94v-3.66h.94zm.44-11.26l-.15.4-.2.85-.08.87v1.8h-.94v-1.84l.07-1 .24-.98.2-.47zm7.1-3.4l-1.98-.02-.88.07-.85.2-.4.16-.37-.88.47-.2 1-.23.98-.07h2.02zm767.47-.53l-.47.2-1 .25-.98.07H2272v-.94h1.98l.88-.07.85-.2.4-.16zm-8.46.53h-4v-.95h4zm-7.98 0h-4v-.95h4zm-8 0h-4v-.95h4zm-7.98 0h-4v-.95h4zm-8 0h-4v-.95h4zm-7.98 0h-4v-.95h4zm-8 0h-3.98v-.95h4zm-7.98 0h-4v-.95h4zm-8 0h-3.98v-.95h4zm-7.98 0h-4v-.95h4zm-8 0h-3.98v-.95h4zm-7.98 0h-4v-.95h4zm-8 0h-3.98v-.95h4zm-7.98 0h-4v-.95h4zm-8 0h-3.98v-.95h4zm-7.98 0h-4v-.95h4zm-8 0h-3.98v-.95h4zm-7.97 0h-4v-.95h4zm-8 0h-4v-.95h4zm-8 0h-4v-.95h4zm-7.98 0h-4v-.95h4zm-8 0h-4v-.95h4zm-7.98 0h-4v-.95h4zm-8 0h-4v-.95h4zm-7.98 0h-4v-.95h4zm-8 0h-4v-.95h4zm-7.98 0h-4v-.95h4zm-8 0h-4v-.95h4zm-7.98 0h-4v-.95h4zm-8 0h-3.98v-.95h4zm-7.98 0h-4v-.95h4zm-8 0h-3.98v-.95h4zm-7.98 0h-4v-.95h4zm-8 0h-3.98v-.95h4zm-7.98 0h-4v-.95h4zm-8 0h-3.98v-.95h4zm-7.98 0h-4v-.95h4zm-8 0h-3.98v-.95h4zm-159.78 0h-4v-.95h4zm-8 0h-3.98v-.95h4zm-7.98 0h-4v-.95h4zm-8 0h-3.98v-.95h4zm-7.98 0h-4v-.95h4zm-8 0h-3.98v-.95h4zm-7.98 0h-4v-.95h4zm-8 0h-3.98v-.95h4zm-7.98 0h-4v-.95h4zm-8 0h-3.98v-.95h4zm-7.97 0h-4v-.95h4zm-7.98 0h-4v-.95h4zm-8 0h-4v-.95h4zm-7.98 0h-4v-.95h4zm-8 0h-4v-.95h4zm-7.98 0h-4v-.95h4zm-8 0h-4v-.95h4zm-7.98 0h-4v-.95h4zm-8 0h-4v-.95h4zm-7.98 0h-4v-.95h4zm-8 0h-3.98v-.95h4zm-7.98 0h-4v-.95h4zm-8 0h-3.98v-.95h4zm-7.98 0h-4v-.95h4zm-8 0h-3.98v-.95h4zm-7.98 0h-4v-.95h4zm-8 0h-3.98v-.95h4zm-7.98 0h-4v-.95h4zm-8 0h-3.98v-.95h4zm-7.98 0h-4v-.95h4zm-8 0h-3.98v-.95h4zm-7.98 0h-4v-.95h4zm-8 0h-3.98v-.95h4zm-7.98 0h-4v-.95h4zm-7.98 0h-4v-.95h4zm-8 0h-4v-.95h4zm-7.98 0h-4v-.95h4zm-8 0h-4v-.95h4zm763.5-6.46l-.08 1-.24.98-.2.47-.87-.36.15-.4.2-.85.08-.87v-1.86h.94zm0-5.67h-.95v-3.76h.94zm0-7.52h-.95v-3.77h.94zm0-7.53h-.95v-3.77h.94zm0-7.53h-.95v-3.76h.94zm0-7.53h-.95v-3.77h.94zm0-7.53h-.95v-1.9h.94z" stroke="#ced4db" stroke-width=".05" fill="#ced4db"/><path d="M2280.47 128.6h-.94v-.52h.94z" fill="#ced4db"/><path stroke="#ced4db" stroke-width=".05" fill="#ced4db"/><path d="M1501 229.8l-4.63-14.27h9.27z" fill="#ced4db"/><path d="M1501 231.34l-5.3-16.28h10.6zm-3.98-15.33l3.98 12.26 3.98-12.25z" stroke="#ced4db" stroke-width=".05" fill="#ced4db"/><g><use xlink:href="#o" transform="matrix(1,0,0,1,1816.3550389849904,168.99478952818149) translate(0 17.22222222222222)"/><use xlink:href="#p" transform="matrix(1,0,0,1,1816.3550389849904,168.99478952818149) translate(50.60763888888889 17.22222222222222)"/></g><path d="M1501.72 439.37h-.94v-1.83h.94zm0-5.5h-.94v-3.66h.94zm0-7.3h-.94v-3.68h.94zm0-7.34h-.94v-3.66h.94zm.44-11.25l-.16.4-.2.84-.08.88v1.8h-.94v-1.83l.07-1 .24-1 .2-.46zm7.1-3.42h-2l-.87.07-.86.2-.4.17-.36-.88.47-.2 1-.23.98-.1h2.02zm767.2-.5l-.46.18-1 .24-.98.08H2272v-.95h1.98l.88-.06.85-.2.4-.17zm-8.45.5h-3.98v-.95h4zm-7.98 0h-4v-.95h4zm-7.98 0h-4v-.95h4zm-8 0h-4v-.95h4zm-7.98 0h-4v-.95h4zm-8 0h-3.98v-.95h4zm-7.97 0h-4v-.95h4zm-8 0h-4v-.95h4zm-8 0h-3.98v-.95h4zm-7.97 0h-4v-.95h4zm-8 0h-3.98v-.95h4zm-7.98 0h-4v-.95h4zm-7.98 0h-4v-.95h4zm-8 0h-3.98v-.95h3.98zm-7.98 0h-4v-.95h4zm-8 0h-4v-.95h4zm-7.98 0h-4v-.95h4zm-8 0h-3.98v-.95h4zm-7.98 0h-4v-.95h4zm-7.98 0h-4v-.95h4zm-8 0h-3.98v-.95h4zm-7.98 0h-4v-.95h4zm-7.98 0h-4v-.95h4zm-8 0h-3.98v-.95h4zm-7.98 0h-4v-.95h4zm-8 0h-3.98v-.95h4zm-7.97 0h-4v-.95h4zm-8 0h-3.98v-.95h4zm-7.98 0h-4v-.95h4zm-7.98 0h-4v-.95h4zm-8 0h-4v-.95h4zm-8 0h-3.98v-.95h4zm-7.97 0h-4v-.95h4zm-8 0h-3.98v-.95h4zm-7.98 0h-4v-.95h4zm-8 0h-3.98v-.95h4zm-7.97 0h-4v-.95h4zm-8 0h-3.98v-.95h4zm-159.73 0h-4v-.95h4zm-7.98 0h-4v-.95h4zm-8 0h-3.98v-.95h3.98zm-7.98 0h-4v-.95h4zm-8 0h-4v-.95h4zm-7.98 0h-4v-.95h4zm-8 0h-3.98v-.95h4zm-7.98 0h-4v-.95h4zm-7.98 0h-4v-.95h4zm-8 0h-3.98v-.95h4zm-7.98 0h-4v-.95h4zm-8 0h-3.98v-.95h4zm-7.97 0h-4v-.95h4zm-7.98 0h-4v-.95h4zm-8 0h-3.98v-.95h4zm-7.97 0h-4v-.95h4zm-8 0h-3.98v-.95h4zm-7.98 0h-4v-.95h4zm-7.98 0h-4v-.95h4zm-8 0h-4v-.95h4zm-8 0h-3.98v-.95h4zm-7.97 0h-4v-.95h4zm-8 0h-3.98v-.95h4zm-7.98 0h-4v-.95h4zm-8 0h-3.98v-.95h4zm-7.97 0h-4v-.95h4zm-8 0h-3.98v-.95h4zm-7.98 0h-4v-.95h4zm-7.98 0h-4v-.95h4zm-8 0h-3.98v-.95h4zm-7.98 0h-4v-.95h4zm-7.98 0h-4v-.95h4zm-8 0h-4v-.95h4zm-7.98 0h-4v-.95h4zm-8 0h-3.98v-.95h4zm-7.97 0h-4v-.95h4zm-7.98 0h-4v-.95h4zm-8 0h-3.98v-.95h4zm763.25-6.46l-.07 1-.24.98-.2.47-.87-.36.15-.4.2-.85.08-.88v-1.87h.94zm0-5.66h-.94v-3.77h.94zm0-7.53h-.94v-3.75h.94zm0-7.52h-.94v-3.76h.94zm0-7.53h-.94v-3.76h.94zm0-7.52h-.94v-3.77h.94zm0-7.53h-.94v-1.88h.94z" stroke="#ced4db" stroke-width=".05" fill="#ced4db"/><path d="M2280.47 352.93h-.94v-.5h.94z" fill="#ced4db"/><path stroke="#ced4db" stroke-width=".05" fill="#ced4db"/><path d="M1501.25 454.13l-4.63-14.26h9.27z" fill="#ced4db"/><path d="M1501.25 455.67l-5.3-16.28h10.6zm-3.98-15.33l3.98 12.26 3.98-12.26z" stroke="#ced4db" stroke-width=".05" fill="#ced4db"/><g><use xlink:href="#o" transform="matrix(1,0,0,1,1816.5972275438826,393.3281728615148) translate(0 17.22222222222222)"/><use xlink:href="#q" transform="matrix(1,0,0,1,1816.5972275438826,393.3281728615148) translate(50.60763888888889 17.22222222222222)"/></g><defs><path fill="#ced4db" d="M537 14c-226 0-379-139-379-422v-710h180v695c0 172 97 275 253 275 160 0 281-109 281-300v-670h181V0H879v-209C806-46 684 14 537 14" id="r"/><path fill="#ced4db" d="M538 24C308 24 148-78 108-271l171-41c32 123 123 178 257 178 156 0 256-77 256-169 0-77-54-128-164-154l-186-44c-203-48-300-148-300-305 0-192 176-326 414-326 230 0 351 112 402 269l-163 42c-31-80-94-158-238-158-133 0-233 69-233 162 0 83 57 129 188 160l169 40c203 48 298 149 298 302 0 196-179 339-441 339" id="s"/><path fill="#ced4db" d="M628 24c-324 0-524-230-524-574 0-343 198-582 503-582 237 0 487 146 487 559v75H286c9 234 145 362 343 362 132 0 231-58 273-172l174 48C1024-91 857 24 628 24zM287-650h624c-17-190-120-322-304-322-192 0-309 151-320 322" id="t"/><path fill="#ced4db" d="M158 0v-1118h174v172h12c41-113 157-188 290-188 26 0 70 2 91 3v181c-11-2-60-10-108-10-161 0-279 109-279 260V0H158" id="u"/><g id="a"><use transform="matrix(0.008680555555555556,0,0,0.008680555555555556,0,0)" xlink:href="#r"/><use transform="matrix(0.008680555555555556,0,0,0.008680555555555556,10.512152777777779,0)" xlink:href="#s"/><use transform="matrix(0.008680555555555556,0,0,0.008680555555555556,19.895833333333336,0)" xlink:href="#t"/><use transform="matrix(0.008680555555555556,0,0,0.008680555555555556,30.26041666666667,0)" xlink:href="#u"/></g><path fill="#ced4db" d="M613 24c-304 0-509-231-509-576 0-350 205-580 509-580 216 0 392 114 453 309l-173 49c-33-115-133-197-280-197-223 0-326 196-326 419 0 220 103 415 326 415 150 0 252-85 285-206l172 49C1010-95 832 24 613 24" id="v"/><path fill="#ced4db" d="M613 24c-304 0-509-231-509-576 0-350 205-580 509-580 305 0 511 230 511 580 0 345-206 576-511 576zm0-161c226 0 329-195 329-415 0-222-103-419-329-419-223 0-326 196-326 419 0 220 103 415 326 415" id="w"/><path fill="#ced4db" d="M338-1490V0H158v-1490h180" id="x"/><path fill="#ced4db" d="M598-1118v154H368v674c0 100 37 144 132 144 23 0 62-6 92-12L629-6c-37 13-88 20-134 20-193 0-307-107-307-290v-688H20v-154h168v-266h180v266h230" id="y"/><path fill="#ced4db" d="M158 0v-1118h180V0H158zm91-1301c-68 0-125-53-125-119s57-119 125-119c69 0 126 53 126 119s-57 119-126 119" id="z"/><path fill="#ced4db" d="M338-670V0H158v-1118h173l1 207c72-158 192-221 342-221 226 0 378 139 378 422V0H872v-695c0-172-96-275-252-275-161 0-282 109-282 300" id="A"/><g id="b"><use transform="matrix(0.008680555555555556,0,0,0.008680555555555556,0,0)" xlink:href="#v"/><use transform="matrix(0.008680555555555556,0,0,0.008680555555555556,10.15625,0)" xlink:href="#w"/><use transform="matrix(0.008680555555555556,0,0,0.008680555555555556,20.81597222222222,0)" xlink:href="#x"/><use transform="matrix(0.008680555555555556,0,0,0.008680555555555556,25.12152777777778,0)" xlink:href="#x"/><use transform="matrix(0.008680555555555556,0,0,0.008680555555555556,29.427083333333336,0)" xlink:href="#t"/><use transform="matrix(0.008680555555555556,0,0,0.008680555555555556,39.79166666666667,0)" xlink:href="#v"/><use transform="matrix(0.008680555555555556,0,0,0.008680555555555556,49.94791666666667,0)" xlink:href="#y"/><use transform="matrix(0.008680555555555556,0,0,0.008680555555555556,55.76388888888889,0)" xlink:href="#z"/><use transform="matrix(0.008680555555555556,0,0,0.008680555555555556,60.06944444444445,0)" xlink:href="#w"/><use transform="matrix(0.008680555555555556,0,0,0.008680555555555556,70.72916666666667,0)" xlink:href="#A"/></g><path fill="#ced4db" d="M678-1118v154H420V0H240v-964H20v-154h220v-149c0-194 155-293 318-293 85 0 141 18 168 30l-50 154c-19-6-47-17-97-17-111 0-159 58-159 166v109h258" id="B"/><path fill="#ced4db" d="M934 0v166H0V0h934" id="C"/><path fill="#ced4db" d="M577 24c-279 0-473-224-473-580 0-354 195-576 474-576 218 0 287 134 324 193h14v-551h180V0H922v-173h-20C865-111 790 24 577 24zm27-161c203 0 314-172 314-421 0-247-108-413-314-413-212 0-317 181-317 413 0 235 108 421 317 421" id="D"/><path fill="#ced4db" d="M65 0l393-574-370-544h210c88 136 192 297 267 435 67-142 176-302 264-435h206L661-564 1053 0H844c-94-144-206-310-287-458C484-308 366-142 273 0H65" id="E"/><g id="c"><use transform="matrix(0.008680555555555556,0,0,0.008680555555555556,0,0)" xlink:href="#A"/><use transform="matrix(0.008680555555555556,0,0,0.008680555555555556,10.503472222222223,0)" xlink:href="#B"/><use transform="matrix(0.008680555555555556,0,0,0.008680555555555556,16.475694444444446,0)" xlink:href="#y"/><use transform="matrix(0.008680555555555556,0,0,0.008680555555555556,22.291666666666668,0)" xlink:href="#C"/><use transform="matrix(0.008680555555555556,0,0,0.008680555555555556,30.99826388888889,0)" xlink:href="#z"/><use transform="matrix(0.008680555555555556,0,0,0.008680555555555556,35.30381944444444,0)" xlink:href="#A"/><use transform="matrix(0.008680555555555556,0,0,0.008680555555555556,45.807291666666664,0)" xlink:href="#D"/><use transform="matrix(0.008680555555555556,0,0,0.008680555555555556,56.69270833333333,0)" xlink:href="#t"/><use transform="matrix(0.008680555555555556,0,0,0.008680555555555556,66.6579861111111,0)" xlink:href="#E"/></g><path fill="#ced4db" d="M180 0v-1490h224l606 953c40 63 108 177 176 312-27-437-7-821-13-1265h190V0h-226C860-448 622-778 356-1262c27 476 11 792 15 1262H180" id="F"/><path fill="#ced4db" d="M180 0v-1490h901v168H370v510h643v168H370V0H180" id="G"/><path fill="#ced4db" d="M98-1322v-168h1126v168H757V0H567v-1322H98" id="H"/><g id="d"><use transform="matrix(0.008680555555555556,0,0,0.008680555555555556,0,0)" xlink:href="#F"/><use transform="matrix(0.008680555555555556,0,0,0.008680555555555556,13.394097222222223,0)" xlink:href="#G"/><use transform="matrix(0.008680555555555556,0,0,0.008680555555555556,23.888888888888893,0)" xlink:href="#H"/></g><path fill="#ced4db" d="M158 0v-1118h175l1 205c55-151 181-225 313-225 147 0 245 90 285 228 53-141 190-228 352-228 194 0 352 125 352 384V0h-181v-749c0-161-105-225-225-225-151 0-243 103-243 244V0H807v-767c0-124-93-207-219-207-131 0-250 92-250 270V0H158" id="I"/><g id="e"><use transform="matrix(0.008680555555555556,0,0,0.008680555555555556,0,0)" xlink:href="#z"/><use transform="matrix(0.008680555555555556,0,0,0.008680555555555556,4.305555555555555,0)" xlink:href="#y"/><use transform="matrix(0.008680555555555556,0,0,0.008680555555555556,9.947916666666668,0)" xlink:href="#t"/><use transform="matrix(0.008680555555555556,0,0,0.008680555555555556,20.3125,0)" xlink:href="#I"/></g><path fill="#ced4db" d="M471 26C259 26 90-98 90-318c0-256 228-303 435-329 202-27 287-16 287-108 0-139-79-219-234-219-161 0-248 86-283 164l-173-57c86-203 278-265 451-265 150 0 419 46 419 395V0H815v-152h-12C765-73 660 26 471 26zm31-159c199 0 310-134 310-271v-155c-30 35-226 55-295 64-131 17-246 59-246 186 0 116 97 176 231 176" id="J"/><g id="f"><use transform="matrix(0.008680555555555556,0,0,0.008680555555555556,0,0)" xlink:href="#J"/><use transform="matrix(0.008680555555555556,0,0,0.008680555555555556,9.98263888888889,0)" xlink:href="#D"/><use transform="matrix(0.008680555555555556,0,0,0.008680555555555556,20.868055555555557,0)" xlink:href="#D"/><use transform="matrix(0.008680555555555556,0,0,0.008680555555555556,31.753472222222225,0)" xlink:href="#u"/><use transform="matrix(0.008680555555555556,0,0,0.008680555555555556,38.15104166666667,0)" xlink:href="#t"/><use transform="matrix(0.008680555555555556,0,0,0.008680555555555556,48.51562500000001,0)" xlink:href="#s"/><use transform="matrix(0.008680555555555556,0,0,0.008680555555555556,57.899305555555564,0)" xlink:href="#s"/></g><g id="g"><use transform="matrix(0.008680555555555556,0,0,0.008680555555555556,0,0)" xlink:href="#z"/><use transform="matrix(0.008680555555555556,0,0,0.008680555555555556,4.305555555555555,0)" xlink:href="#y"/><use transform="matrix(0.008680555555555556,0,0,0.008680555555555556,9.947916666666668,0)" xlink:href="#t"/><use transform="matrix(0.008680555555555556,0,0,0.008680555555555556,20.3125,0)" xlink:href="#I"/></g><path fill="#ced4db" d="M481 0L54-1118h197c107 314 236 620 325 951 87-331 217-637 324-951h197L670 0H481" id="K"/><g id="h"><use transform="matrix(0.008680555555555556,0,0,0.008680555555555556,0,0)" xlink:href="#z"/><use transform="matrix(0.008680555555555556,0,0,0.008680555555555556,4.305555555555555,0)" xlink:href="#A"/><use transform="matrix(0.008680555555555556,0,0,0.008680555555555556,14.809027777777779,0)" xlink:href="#D"/><use transform="matrix(0.008680555555555556,0,0,0.008680555555555556,25.694444444444446,0)" xlink:href="#z"/><use transform="matrix(0.008680555555555556,0,0,0.008680555555555556,30,0)" xlink:href="#K"/><use transform="matrix(0.008680555555555556,0,0,0.008680555555555556,39.99131944444444,0)" xlink:href="#z"/><use transform="matrix(0.008680555555555556,0,0,0.008680555555555556,44.296875,0)" xlink:href="#D"/><use transform="matrix(0.008680555555555556,0,0,0.008680555555555556,55.18229166666667,0)" xlink:href="#r"/><use transform="matrix(0.008680555555555556,0,0,0.008680555555555556,65.69444444444446,0)" xlink:href="#J"/><use transform="matrix(0.008680555555555556,0,0,0.008680555555555556,75.67708333333334,0)" xlink:href="#x"/></g><g id="i"><use transform="matrix(0.008680555555555556,0,0,0.008680555555555556,0,0)" xlink:href="#v"/><use transform="matrix(0.008680555555555556,0,0,0.008680555555555556,10.15625,0)" xlink:href="#w"/><use transform="matrix(0.008680555555555556,0,0,0.008680555555555556,20.81597222222222,0)" xlink:href="#A"/><use transform="matrix(0.008680555555555556,0,0,0.008680555555555556,31.319444444444443,0)" xlink:href="#y"/><use transform="matrix(0.008680555555555556,0,0,0.008680555555555556,36.96180555555556,0)" xlink:href="#t"/><use transform="matrix(0.008680555555555556,0,0,0.008680555555555556,47.32638888888889,0)" xlink:href="#A"/><use transform="matrix(0.008680555555555556,0,0,0.008680555555555556,57.829861111111114,0)" xlink:href="#y"/></g><path fill="#ced4db" d="M128 359l88-567h206L266 359H128" id="L"/><g id="j"><use transform="matrix(0.008680555555555556,0,0,0.008680555555555556,0,0)" xlink:href="#A"/><use transform="matrix(0.008680555555555556,0,0,0.008680555555555556,10.503472222222223,0)" xlink:href="#B"/><use transform="matrix(0.008680555555555556,0,0,0.008680555555555556,16.475694444444446,0)" xlink:href="#y"/><use transform="matrix(0.008680555555555556,0,0,0.008680555555555556,22.291666666666668,0)" xlink:href="#C"/><use transform="matrix(0.008680555555555556,0,0,0.008680555555555556,30.99826388888889,0)" xlink:href="#z"/><use transform="matrix(0.008680555555555556,0,0,0.008680555555555556,35.30381944444444,0)" xlink:href="#A"/><use transform="matrix(0.008680555555555556,0,0,0.008680555555555556,45.807291666666664,0)" xlink:href="#D"/><use transform="matrix(0.008680555555555556,0,0,0.008680555555555556,56.69270833333333,0)" xlink:href="#t"/><use transform="matrix(0.008680555555555556,0,0,0.008680555555555556,66.6579861111111,0)" xlink:href="#E"/><use transform="matrix(0.008680555555555556,0,0,0.008680555555555556,76.36284722222221,0)" xlink:href="#L"/></g><g id="k"><use transform="matrix(0.008680555555555556,0,0,0.008680555555555556,0,0)" xlink:href="#A"/><use transform="matrix(0.008680555555555556,0,0,0.008680555555555556,10.503472222222223,0)" xlink:href="#B"/><use transform="matrix(0.008680555555555556,0,0,0.008680555555555556,16.475694444444446,0)" xlink:href="#y"/><use transform="matrix(0.008680555555555556,0,0,0.008680555555555556,22.291666666666668,0)" xlink:href="#C"/><use transform="matrix(0.008680555555555556,0,0,0.008680555555555556,30.99826388888889,0)" xlink:href="#z"/><use transform="matrix(0.008680555555555556,0,0,0.008680555555555556,35.30381944444444,0)" xlink:href="#A"/><use transform="matrix(0.008680555555555556,0,0,0.008680555555555556,45.807291666666664,0)" xlink:href="#D"/><use transform="matrix(0.008680555555555556,0,0,0.008680555555555556,56.69270833333333,0)" xlink:href="#C"/><use transform="matrix(0.008680555555555556,0,0,0.008680555555555556,64.80034722222221,0)" xlink:href="#v"/><use transform="matrix(0.008680555555555556,0,0,0.008680555555555556,74.95659722222221,0)" xlink:href="#w"/><use transform="matrix(0.008680555555555556,0,0,0.008680555555555556,85.61631944444444,0)" xlink:href="#A"/><use transform="matrix(0.008680555555555556,0,0,0.008680555555555556,96.11979166666667,0)" xlink:href="#y"/><use transform="matrix(0.008680555555555556,0,0,0.008680555555555556,101.76215277777779,0)" xlink:href="#t"/><use transform="matrix(0.008680555555555556,0,0,0.008680555555555556,112.12673611111111,0)" xlink:href="#A"/><use transform="matrix(0.008680555555555556,0,0,0.008680555555555556,122.63020833333334,0)" xlink:href="#y"/></g><g id="l"><use transform="matrix(0.008680555555555556,0,0,0.008680555555555556,0,0)" xlink:href="#G"/><use transform="matrix(0.008680555555555556,0,0,0.008680555555555556,9.895833333333334,0)" xlink:href="#r"/><use transform="matrix(0.008680555555555556,0,0,0.008680555555555556,20.407986111111114,0)" xlink:href="#x"/><use transform="matrix(0.008680555555555556,0,0,0.008680555555555556,24.71354166666667,0)" xlink:href="#x"/></g><g id="m"><use transform="matrix(0.008680555555555556,0,0,0.008680555555555556,0,0)" xlink:href="#F"/><use transform="matrix(0.008680555555555556,0,0,0.008680555555555556,13.394097222222223,0)" xlink:href="#G"/><use transform="matrix(0.008680555555555556,0,0,0.008680555555555556,23.888888888888893,0)" xlink:href="#H"/></g><g id="n"><use transform="matrix(0.008680555555555556,0,0,0.008680555555555556,0,0)" xlink:href="#I"/><use transform="matrix(0.008680555555555556,0,0,0.008680555555555556,15.572916666666668,0)" xlink:href="#t"/><use transform="matrix(0.008680555555555556,0,0,0.008680555555555556,25.9375,0)" xlink:href="#y"/><use transform="matrix(0.008680555555555556,0,0,0.008680555555555556,31.84027777777778,0)" xlink:href="#J"/><use transform="matrix(0.008680555555555556,0,0,0.008680555555555556,41.82291666666667,0)" xlink:href="#D"/><use transform="matrix(0.008680555555555556,0,0,0.008680555555555556,52.70833333333334,0)" xlink:href="#J"/><use transform="matrix(0.008680555555555556,0,0,0.008680555555555556,62.69097222222223,0)" xlink:href="#y"/><use transform="matrix(0.008680555555555556,0,0,0.008680555555555556,68.59375000000001,0)" xlink:href="#J"/></g><path fill="#ced4db" d="M611 442c-248 0-391-105-460-228l146-94c47 65 117 165 314 165 178 0 307-82 307-266v-224h-17C863-141 792-18 576-18c-268 0-472-195-472-546 0-346 197-568 476-568 216 0 288 133 326 193h17v-179h175V29c0 289-215 413-487 413zm-5-620c203 0 314-146 314-390 0-237-108-403-314-403-213 0-319 180-319 403 0 230 109 390 319 390" id="M"/><g id="o"><use transform="matrix(0.008680555555555556,0,0,0.008680555555555556,0,0)" xlink:href="#r"/><use transform="matrix(0.008680555555555556,0,0,0.008680555555555556,10.512152777777779,0)" xlink:href="#s"/><use transform="matrix(0.008680555555555556,0,0,0.008680555555555556,19.895833333333336,0)" xlink:href="#z"/><use transform="matrix(0.008680555555555556,0,0,0.008680555555555556,24.201388888888893,0)" xlink:href="#A"/><use transform="matrix(0.008680555555555556,0,0,0.008680555555555556,34.704861111111114,0)" xlink:href="#M"/></g><g id="p"><use transform="matrix(0.008680555555555556,0,0,0.008680555555555556,0,0)" xlink:href="#A"/><use transform="matrix(0.008680555555555556,0,0,0.008680555555555556,10.503472222222223,0)" xlink:href="#B"/><use transform="matrix(0.008680555555555556,0,0,0.008680555555555556,16.475694444444446,0)" xlink:href="#y"/><use transform="matrix(0.008680555555555556,0,0,0.008680555555555556,22.291666666666668,0)" xlink:href="#C"/><use transform="matrix(0.008680555555555556,0,0,0.008680555555555556,30.399305555555557,0)" xlink:href="#J"/><use transform="matrix(0.008680555555555556,0,0,0.008680555555555556,40.38194444444444,0)" xlink:href="#D"/><use transform="matrix(0.008680555555555556,0,0,0.008680555555555556,51.267361111111114,0)" xlink:href="#D"/><use transform="matrix(0.008680555555555556,0,0,0.008680555555555556,62.152777777777786,0)" xlink:href="#u"/><use transform="matrix(0.008680555555555556,0,0,0.008680555555555556,68.55034722222223,0)" xlink:href="#t"/><use transform="matrix(0.008680555555555556,0,0,0.008680555555555556,78.91493055555556,0)" xlink:href="#s"/><use transform="matrix(0.008680555555555556,0,0,0.008680555555555556,88.29861111111111,0)" xlink:href="#s"/></g><g id="q"><use transform="matrix(0.008680555555555556,0,0,0.008680555555555556,0,0)" xlink:href="#z"/><use transform="matrix(0.008680555555555556,0,0,0.008680555555555556,4.305555555555555,0)" xlink:href="#A"/><use transform="matrix(0.008680555555555556,0,0,0.008680555555555556,14.809027777777779,0)" xlink:href="#D"/><use transform="matrix(0.008680555555555556,0,0,0.008680555555555556,25.694444444444446,0)" xlink:href="#C"/><use transform="matrix(0.008680555555555556,0,0,0.008680555555555556,33.802083333333336,0)" xlink:href="#v"/><use transform="matrix(0.008680555555555556,0,0,0.008680555555555556,43.958333333333336,0)" xlink:href="#w"/><use transform="matrix(0.008680555555555556,0,0,0.008680555555555556,54.61805555555556,0)" xlink:href="#A"/><use transform="matrix(0.008680555555555556,0,0,0.008680555555555556,65.12152777777779,0)" xlink:href="#y"/><use transform="matrix(0.008680555555555556,0,0,0.008680555555555556,70.7638888888889,0)" xlink:href="#t"/><use transform="matrix(0.008680555555555556,0,0,0.008680555555555556,81.12847222222223,0)" xlink:href="#A"/><use transform="matrix(0.008680555555555556,0,0,0.008680555555555556,91.63194444444447,0)" xlink:href="#y"/></g></defs></g></svg>