<svg xmlns="http://www.w3.org/2000/svg" xmlns:xlink="http://www.w3.org/1999/xlink" xmlns:lucid="lucid" width="881" height="121"><g transform="translate(2220.5 460.5)" lucid:page-tab-id="M.wZzVy0bzTW"><path d="M-2060-400c0 33.14-35.82 60-80 60s-80-26.86-80-60 35.82-60 80-60 80 26.86 80 60z" stroke="#ced4db" fill-opacity="0"/><use xlink:href="#a" transform="matrix(1,0,0,1,-2220,-460) translate(51.72355468749999 64.966875)"/><path d="M-1700-400c0 33.14-35.82 60-80 60s-80-26.86-80-60 35.82-60 80-60 80 26.86 80 60z" stroke="#ced4db" fill-opacity="0"/><use xlink:href="#b" transform="matrix(1,0,0,1,-1860,-460) translate(41.75965820312499 64.966875)"/><path d="M-1340-400c0 33.14-35.82 60-80 60s-80-26.86-80-60 35.82-60 80-60 80 26.86 80 60z" stroke="#ced4db" fill-opacity="0"/><use xlink:href="#c" transform="matrix(1,0,0,1,-1500,-460) translate(9.317734374999995 64.966875)"/><use xlink:href="#d" transform="matrix(1,0,0,1,-1500,-460) translate(47.32603515625 64.966875)"/><use xlink:href="#e" transform="matrix(1,0,0,1,-1500,-460) translate(85.824765625 64.966875)"/><path d="M-2016.38-399.52H-2059v-.96h42.62zm139.5 0h-26.74v-.96h26.74z" stroke="#ced4db" stroke-width=".05" fill="#ced4db"/><path d="M-2059-399.52h-.5v-.87l.5-.08z" fill="#ced4db"/><path stroke="#ced4db" stroke-width=".05" fill="#ced4db"/><path d="M-1862.12-400l-14.26 4.63v-9.26z" fill="#ced4db"/><path d="M-1860.58-400l-16.28 5.3v-10.6zm-15.33 3.98l12.25-3.98-12.26-3.98z" stroke="#ced4db" stroke-width=".05" fill="#ced4db"/><use xlink:href="#f" transform="matrix(1,0,0,1,-2016.3802083333333,-436.5677083333333) translate(31.142152777777792 17.22222222222222)"/><use xlink:href="#g" transform="matrix(1,0,0,1,-2016.3802083333333,-436.5677083333333) translate(0.005000000000002558 43.034722222222214)"/><use xlink:href="#h" transform="matrix(1,0,0,1,-2016.3802083333333,-436.5677083333333) translate(8.164722222222238 68.84722222222221)"/><path d="M-1661.58-399.52H-1699v-.96h37.42zm144.7 0h-21.54v-.96h21.54z" stroke="#ced4db" stroke-width=".05" fill="#ced4db"/><path d="M-1699-399.52h-.52l.02-.47v-.4l.5-.08z" fill="#ced4db"/><path stroke="#ced4db" stroke-width=".05" fill="#ced4db"/><path d="M-1502.12-400l-14.26 4.63v-9.26z" fill="#ced4db"/><path d="M-1500.58-400l-16.28 5.3v-10.6zm-15.33 3.98l12.25-3.98-12.26-3.98z" stroke="#ced4db" stroke-width=".05" fill="#ced4db"/><g><use xlink:href="#i" transform="matrix(1,0,0,1,-1661.584201388889,-423.6614583333333) translate(33.36003472222224 17.22222222222222)"/><use xlink:href="#j" transform="matrix(1,0,0,1,-1661.584201388889,-423.6614583333333) translate(0.005000000000002558 43.034722222222214)"/></g><defs><path fill="#ced4db" d="M613 24c-304 0-509-231-509-576 0-350 205-580 509-580 216 0 392 114 453 309l-173 49c-33-115-133-197-280-197-223 0-326 196-326 419 0 220 103 415 326 415 150 0 252-85 285-206l172 49C1010-95 832 24 613 24" id="k"/><path fill="#ced4db" d="M158 0v-1118h174v172h12c41-113 157-188 290-188 26 0 70 2 91 3v181c-11-2-60-10-108-10-161 0-279 109-279 260V0H158" id="l"/><path fill="#ced4db" d="M628 24c-324 0-524-230-524-574 0-343 198-582 503-582 237 0 487 146 487 559v75H286c9 234 145 362 343 362 132 0 231-58 273-172l174 48C1024-91 857 24 628 24zM287-650h624c-17-190-120-322-304-322-192 0-309 151-320 322" id="m"/><path fill="#ced4db" d="M471 26C259 26 90-98 90-318c0-256 228-303 435-329 202-27 287-16 287-108 0-139-79-219-234-219-161 0-248 86-283 164l-173-57c86-203 278-265 451-265 150 0 419 46 419 395V0H815v-152h-12C765-73 660 26 471 26zm31-159c199 0 310-134 310-271v-155c-30 35-226 55-295 64-131 17-246 59-246 186 0 116 97 176 231 176" id="n"/><path fill="#ced4db" d="M598-1118v154H368v674c0 100 37 144 132 144 23 0 62-6 92-12L629-6c-37 13-88 20-134 20-193 0-307-107-307-290v-688H20v-154h168v-266h180v266h230" id="o"/><path fill="#ced4db" d="M613 24c-304 0-509-231-509-576 0-350 205-580 509-580 305 0 511 230 511 580 0 345-206 576-511 576zm0-161c226 0 329-195 329-415 0-222-103-419-329-419-223 0-326 196-326 419 0 220 103 415 326 415" id="p"/><g id="a"><use transform="matrix(0.008173828125000001,0,0,0.008173828125000001,0,0)" xlink:href="#k"/><use transform="matrix(0.008173828125000001,0,0,0.008173828125000001,9.563378906250001,0)" xlink:href="#l"/><use transform="matrix(0.008173828125000001,0,0,0.008173828125000001,15.587490234375002,0)" xlink:href="#m"/><use transform="matrix(0.008173828125000001,0,0,0.008173828125000001,25.510517578125004,0)" xlink:href="#n"/><use transform="matrix(0.008173828125000001,0,0,0.008173828125000001,34.910419921875004,0)" xlink:href="#o"/><use transform="matrix(0.008173828125000001,0,0,0.008173828125000001,40.223408203125004,0)" xlink:href="#p"/><use transform="matrix(0.008173828125000001,0,0,0.008173828125000001,50.260869140625005,0)" xlink:href="#l"/></g><path fill="#ced4db" d="M338-1490V0H158v-1490h180" id="q"/><path fill="#ced4db" d="M158 0v-1118h180V0H158zm91-1301c-68 0-125-53-125-119s57-119 125-119c69 0 126 53 126 119s-57 119-126 119" id="r"/><path fill="#ced4db" d="M338-670V0H158v-1118h173l1 207c72-158 192-221 342-221 226 0 378 139 378 422V0H872v-695c0-172-96-275-252-275-161 0-282 109-282 300" id="s"/><g id="b"><use transform="matrix(0.008173828125000001,0,0,0.008173828125000001,0,0)" xlink:href="#k"/><use transform="matrix(0.008173828125000001,0,0,0.008173828125000001,9.563378906250001,0)" xlink:href="#p"/><use transform="matrix(0.008173828125000001,0,0,0.008173828125000001,19.600839843750002,0)" xlink:href="#q"/><use transform="matrix(0.008173828125000001,0,0,0.008173828125000001,23.655058593750002,0)" xlink:href="#q"/><use transform="matrix(0.008173828125000001,0,0,0.008173828125000001,27.709277343750003,0)" xlink:href="#m"/><use transform="matrix(0.008173828125000001,0,0,0.008173828125000001,37.468828125,0)" xlink:href="#k"/><use transform="matrix(0.008173828125000001,0,0,0.008173828125000001,47.03220703125,0)" xlink:href="#o"/><use transform="matrix(0.008173828125000001,0,0,0.008173828125000001,52.508671875000005,0)" xlink:href="#r"/><use transform="matrix(0.008173828125000001,0,0,0.008173828125000001,56.56289062500001,0)" xlink:href="#p"/><use transform="matrix(0.008173828125000001,0,0,0.008173828125000001,66.60035156250001,0)" xlink:href="#s"/></g><path fill="#ced4db" d="M180 0v-1490h224l606 953c40 63 108 177 176 312-27-437-7-821-13-1265h190V0h-226C860-448 622-778 356-1262c27 476 11 792 15 1262H180" id="t"/><path fill="#ced4db" d="M180 0v-1490h901v168H370v510h643v168H370V0H180" id="u"/><path fill="#ced4db" d="M98-1322v-168h1126v168H757V0H567v-1322H98" id="v"/><g id="c"><use transform="matrix(0.008173828125000001,0,0,0.008173828125000001,0,0)" xlink:href="#t"/><use transform="matrix(0.008173828125000001,0,0,0.008173828125000001,12.612216796875002,0)" xlink:href="#u"/><use transform="matrix(0.008173828125000001,0,0,0.008173828125000001,22.494375000000005,0)" xlink:href="#v"/></g><path fill="#ced4db" d="M158 0v-1118h175l1 205c55-151 181-225 313-225 147 0 245 90 285 228 53-141 190-228 352-228 194 0 352 125 352 384V0h-181v-749c0-161-105-225-225-225-151 0-243 103-243 244V0H807v-767c0-124-93-207-219-207-131 0-250 92-250 270V0H158" id="w"/><g id="d"><use transform="matrix(0.008173828125000001,0,0,0.008173828125000001,0,0)" xlink:href="#r"/><use transform="matrix(0.008173828125000001,0,0,0.008173828125000001,4.05421875,0)" xlink:href="#o"/><use transform="matrix(0.008173828125000001,0,0,0.008173828125000001,9.36720703125,0)" xlink:href="#m"/><use transform="matrix(0.008173828125000001,0,0,0.008173828125000001,19.126757812500003,0)" xlink:href="#w"/></g><path fill="#ced4db" d="M174-520v-126l944-476v196L406-588v12l712 338v194" id="x"/><path fill="#ced4db" d="M577 24c-279 0-473-224-473-580 0-354 195-576 474-576 218 0 287 134 324 193h14v-551h180V0H922v-173h-20C865-111 790 24 577 24zm27-161c203 0 314-172 314-421 0-247-108-413-314-413-212 0-317 181-317 413 0 235 108 421 317 421" id="y"/><path fill="#ced4db" d="M65 0l393-574-370-544h210c88 136 192 297 267 435 67-142 176-302 264-435h206L661-564 1053 0H844c-94-144-206-310-287-458C484-308 366-142 273 0H65" id="z"/><path fill="#ced4db" d="M1181-520L237-44v-194l712-338v-12L237-926v-196l944 476v126" id="A"/><g id="e"><use transform="matrix(0.008173828125000001,0,0,0.008173828125000001,0,0)" xlink:href="#x"/><use transform="matrix(0.008173828125000001,0,0,0.008173828125000001,11.075537109375002,0)" xlink:href="#r"/><use transform="matrix(0.008173828125000001,0,0,0.008173828125000001,15.129755859375003,0)" xlink:href="#s"/><use transform="matrix(0.008173828125000001,0,0,0.008173828125000001,25.020087890625003,0)" xlink:href="#y"/><use transform="matrix(0.008173828125000001,0,0,0.008173828125000001,35.270068359375,0)" xlink:href="#m"/><use transform="matrix(0.008173828125000001,0,0,0.008173828125000001,44.653623046875005,0)" xlink:href="#z"/><use transform="matrix(0.008173828125000001,0,0,0.008173828125000001,53.79196289062501,0)" xlink:href="#A"/></g><path fill="#ced4db" d="M128 359l88-567h206L266 359H128" id="B"/><g id="f"><use transform="matrix(0.008680555555555556,0,0,0.008680555555555556,0,0)" xlink:href="#r"/><use transform="matrix(0.008680555555555556,0,0,0.008680555555555556,4.305555555555555,0)" xlink:href="#s"/><use transform="matrix(0.008680555555555556,0,0,0.008680555555555556,14.809027777777779,0)" xlink:href="#y"/><use transform="matrix(0.008680555555555556,0,0,0.008680555555555556,25.694444444444446,0)" xlink:href="#m"/><use transform="matrix(0.008680555555555556,0,0,0.008680555555555556,35.65972222222222,0)" xlink:href="#z"/><use transform="matrix(0.008680555555555556,0,0,0.008680555555555556,45.36458333333333,0)" xlink:href="#B"/></g><path fill="#ced4db" d="M934 0v166H0V0h934" id="C"/><g id="g"><use transform="matrix(0.008680555555555556,0,0,0.008680555555555556,0,0)" xlink:href="#r"/><use transform="matrix(0.008680555555555556,0,0,0.008680555555555556,4.305555555555555,0)" xlink:href="#o"/><use transform="matrix(0.008680555555555556,0,0,0.008680555555555556,9.947916666666668,0)" xlink:href="#m"/><use transform="matrix(0.008680555555555556,0,0,0.008680555555555556,20.3125,0)" xlink:href="#w"/><use transform="matrix(0.008680555555555556,0,0,0.008680555555555556,35.88541666666667,0)" xlink:href="#C"/><use transform="matrix(0.008680555555555556,0,0,0.008680555555555556,43.99305555555556,0)" xlink:href="#k"/><use transform="matrix(0.008680555555555556,0,0,0.008680555555555556,54.14930555555556,0)" xlink:href="#p"/><use transform="matrix(0.008680555555555556,0,0,0.008680555555555556,64.80902777777779,0)" xlink:href="#s"/><use transform="matrix(0.008680555555555556,0,0,0.008680555555555556,75.31250000000001,0)" xlink:href="#o"/><use transform="matrix(0.008680555555555556,0,0,0.008680555555555556,80.95486111111113,0)" xlink:href="#m"/><use transform="matrix(0.008680555555555556,0,0,0.008680555555555556,91.31944444444447,0)" xlink:href="#s"/><use transform="matrix(0.008680555555555556,0,0,0.008680555555555556,101.82291666666669,0)" xlink:href="#o"/><use transform="matrix(0.008680555555555556,0,0,0.008680555555555556,107.63888888888891,0)" xlink:href="#B"/></g><path fill="#ced4db" d="M409 0L70-1118h191c89 329 165 560 243 925 75-353 154-601 240-925h192c85 325 161 564 235 922 77-354 157-598 244-922h191L1267 0h-179c-86-307-176-590-250-913C763-588 675-308 588 0H409" id="D"/><g id="h"><use transform="matrix(0.008680555555555556,0,0,0.008680555555555556,0,0)" xlink:href="#r"/><use transform="matrix(0.008680555555555556,0,0,0.008680555555555556,4.305555555555555,0)" xlink:href="#o"/><use transform="matrix(0.008680555555555556,0,0,0.008680555555555556,9.947916666666668,0)" xlink:href="#m"/><use transform="matrix(0.008680555555555556,0,0,0.008680555555555556,20.3125,0)" xlink:href="#w"/><use transform="matrix(0.008680555555555556,0,0,0.008680555555555556,35.88541666666667,0)" xlink:href="#C"/><use transform="matrix(0.008680555555555556,0,0,0.008680555555555556,43.99305555555556,0)" xlink:href="#p"/><use transform="matrix(0.008680555555555556,0,0,0.008680555555555556,54.33159722222222,0)" xlink:href="#D"/><use transform="matrix(0.008680555555555556,0,0,0.008680555555555556,68.88020833333333,0)" xlink:href="#s"/><use transform="matrix(0.008680555555555556,0,0,0.008680555555555556,79.38368055555556,0)" xlink:href="#m"/><use transform="matrix(0.008680555555555556,0,0,0.008680555555555556,89.7482638888889,0)" xlink:href="#l"/></g><g id="i"><use transform="matrix(0.008680555555555556,0,0,0.008680555555555556,0,0)" xlink:href="#p"/><use transform="matrix(0.008680555555555556,0,0,0.008680555555555556,10.338541666666668,0)" xlink:href="#D"/><use transform="matrix(0.008680555555555556,0,0,0.008680555555555556,24.88715277777778,0)" xlink:href="#s"/><use transform="matrix(0.008680555555555556,0,0,0.008680555555555556,35.390625,0)" xlink:href="#m"/><use transform="matrix(0.008680555555555556,0,0,0.008680555555555556,45.755208333333336,0)" xlink:href="#l"/><use transform="matrix(0.008680555555555556,0,0,0.008680555555555556,51.33680555555556,0)" xlink:href="#B"/></g><g id="j"><use transform="matrix(0.008680555555555556,0,0,0.008680555555555556,0,0)" xlink:href="#r"/><use transform="matrix(0.008680555555555556,0,0,0.008680555555555556,4.305555555555555,0)" xlink:href="#o"/><use transform="matrix(0.008680555555555556,0,0,0.008680555555555556,9.947916666666668,0)" xlink:href="#m"/><use transform="matrix(0.008680555555555556,0,0,0.008680555555555556,20.3125,0)" xlink:href="#w"/><use transform="matrix(0.008680555555555556,0,0,0.008680555555555556,35.88541666666667,0)" xlink:href="#C"/><use transform="matrix(0.008680555555555556,0,0,0.008680555555555556,44.5920138888889,0)" xlink:href="#w"/><use transform="matrix(0.008680555555555556,0,0,0.008680555555555556,60.16493055555557,0)" xlink:href="#m"/><use transform="matrix(0.008680555555555556,0,0,0.008680555555555556,70.5295138888889,0)" xlink:href="#o"/><use transform="matrix(0.008680555555555556,0,0,0.008680555555555556,76.43229166666669,0)" xlink:href="#n"/><use transform="matrix(0.008680555555555556,0,0,0.008680555555555556,86.41493055555557,0)" xlink:href="#y"/><use transform="matrix(0.008680555555555556,0,0,0.008680555555555556,97.30034722222224,0)" xlink:href="#n"/><use transform="matrix(0.008680555555555556,0,0,0.008680555555555556,107.28298611111113,0)" xlink:href="#o"/><use transform="matrix(0.008680555555555556,0,0,0.008680555555555556,113.18576388888891,0)" xlink:href="#n"/></g></defs></g></svg>