<svg xmlns="http://www.w3.org/2000/svg" xmlns:xlink="http://www.w3.org/1999/xlink" xmlns:lucid="lucid" width="1341.5" height="328.08"><g transform="translate(-1438.9999957100322 -112.41666666666674)" lucid:page-tab-id="MUxZPul9YGgR"><path d="M1640 180c0 33.14-35.82 60-80 60s-80-26.86-80-60 35.82-60 80-60 80 26.86 80 60z" stroke="#ced4db" fill-opacity="0"/><use xlink:href="#a" transform="matrix(1,0,0,1,1480,120) translate(61.528437499999995 65.97222222222223)"/><path d="M2020 180c0 33.14-35.82 60-80 60s-80-26.86-80-60 35.82-60 80-60 80 26.86 80 60z" stroke="#ced4db" fill-opacity="0"/><use xlink:href="#b" transform="matrix(1,0,0,1,1860,120) translate(39.388680555555545 65.97222222222223)"/><path d="M1641 180h202.12" stroke="#ced4db" fill="none"/><path d="M1641 180.47h-.52l.02-.46V179.54h.5z" stroke="#ced4db" stroke-width=".05" fill="#ced4db"/><path d="M1857.88 180l-14.26 4.63v-9.26z" stroke="#ced4db" fill="#ced4db"/><path d="M2400 380c0 33.14-35.82 60-80 60s-80-26.86-80-60 35.82-60 80-60 80 26.86 80 60z" stroke="#ced4db" fill-opacity="0"/><use xlink:href="#b" transform="matrix(1,0,0,1,2240,320) translate(39.388680555555545 65.97222222222223)"/><path d="M1640 118.42a6 6 0 0 1 6-6h188a6 6 0 0 1 6 6v68a6 6 0 0 1-6 6h-188a6 6 0 0 1-6-6z" fill="none"/><use xlink:href="#c" transform="matrix(1,0,0,1,1640,112.41666666666674) translate(74.20572916666666 33.56076388888889)"/><use xlink:href="#d" transform="matrix(1,0,0,1,1640,112.41666666666674) translate(20.73350694444444 59.37326388888889)"/><use xlink:href="#e" transform="matrix(1,0,0,1,1640,112.41666666666674) translate(36.84461805555555 59.37326388888889)"/><use xlink:href="#f" transform="matrix(1,0,0,1,1640,112.41666666666674) translate(77.20920138888889 59.37326388888889)"/><use xlink:href="#g" transform="matrix(1,0,0,1,1640,112.41666666666674) translate(118.09461805555556 59.37326388888889)"/><path d="M1640 380c0 33.14-35.82 60-80 60s-80-26.86-80-60 35.82-60 80-60 80 26.86 80 60z" stroke="#ced4db" fill-opacity="0"/><use xlink:href="#a" transform="matrix(1,0,0,1,1480,320) translate(61.528437499999995 65.97222222222223)"/><path d="M2410 306a6 6 0 0 1 6-6h188a6 6 0 0 1 6 6v68a6 6 0 0 1-6 6h-188a6 6 0 0 1-6-6z" fill="none"/><use xlink:href="#h" transform="matrix(1,0,0,1,2410,300) translate(70.39496527777777 20.654513888888893)"/><use xlink:href="#d" transform="matrix(1,0,0,1,2410,300) translate(15.08680555555554 46.467013888888886)"/><use xlink:href="#e" transform="matrix(1,0,0,1,2410,300) translate(31.19791666666665 46.467013888888886)"/><use xlink:href="#f" transform="matrix(1,0,0,1,2410,300) translate(71.56249999999999 46.467013888888886)"/><use xlink:href="#i" transform="matrix(1,0,0,1,2410,300) translate(112.44791666666666 46.467013888888886)"/><use xlink:href="#d" transform="matrix(1,0,0,1,2410,300) translate(11.18055555555554 72.27951388888889)"/><use xlink:href="#j" transform="matrix(1,0,0,1,2410,300) translate(27.29166666666665 72.27951388888889)"/><use xlink:href="#k" transform="matrix(1,0,0,1,2410,300) translate(116.35416666666666 72.27951388888889)"/><path d="M2020 380c0 33.14-35.82 60-80 60s-80-26.86-80-60 35.82-60 80-60 80 26.86 80 60z" stroke="#ced4db" fill-opacity="0"/><use xlink:href="#e" transform="matrix(1,0,0,1,1860,320) translate(41.879999999999995 65.97222222222223)"/><use xlink:href="#l" transform="matrix(1,0,0,1,1860,320) translate(82.24458333333334 65.97222222222223)"/><path d="M1641 380h202.12" stroke="#ced4db" fill="none"/><path d="M1641 380.48h-.52l.02-.47V379.53h.5z" stroke="#ced4db" stroke-width=".05" fill="#ced4db"/><path d="M1857.88 380l-14.26 4.63v-9.26z" stroke="#ced4db" fill="#ced4db"/><path d="M2021 380h202.12" stroke="#ced4db" fill="none"/><path d="M2021 380.48h-.52l.02-.47V379.53h.5z" stroke="#ced4db" stroke-width=".05" fill="#ced4db"/><path d="M2237.88 380l-14.26 4.63v-9.26z" stroke="#ced4db" fill="#ced4db"/><path d="M1444.64 379.46l.88.06h1.3v.96h-1.34l-1-.08-.5-.12.23-.93zm6.58 1.02h-2.64v-.96h2.64zm4.4 0H1453v-.96h2.63zm4.4 0h-2.63v-.96h2.63zm3.1 0h-1.32v-.96h1.32zm-22.1-3.23l.57.66.65.57.37.22-.5.8-.43-.26-.78-.66-.66-.77-.27-.43.8-.5zm-1.05-3.27l.07.88.1.43-.92.2-.12-.5-.07-.98v-1.5h.94zm0-3.4h-.94v-2.94h.94zm0-4.9h-.94v-2.92h.94zm0-4.88h-.94v-2.93h.94zm0-4.9h-.94V353h.94zm0-4.88h-.94v-2.93h.94zm0-4.9h-.94v-2.92h.94zm0-4.88h-.94v-2.93h.94zm0-4.88h-.94v-2.94h.94zm0-4.9h-.94v-2.93h.94zm0-4.88h-.94v-2.94h.94zm0-4.9h-.94v-2.92h.94zm0-4.88h-.94v-2.93h.94zm0-4.9h-.94V309h.94zm0-4.88h-.94v-2.93h.94zm0-4.9h-.94v-2.92h.94zm0-4.88h-.94v-2.93h.94zm0-4.88h-.94v-2.94h.94zm.18-7.65l-.1.44-.08.88v1.45h-.94v-1.5l.07-.98.12-.5zm2.47-3.4l-.37.23-.66.56-.57.65-.22.37-.8-.5.26-.43.66-.78.77-.66.43-.26zm4.38-.82h-1.48l-.88.06-.43.1-.2-.92.5-.12.98-.08h1.52zm609-.2l-.5.12-.98.08H2053v-.96h1.48l.88-.06.42-.1zm-5 .2h-3v-.96h3zm-5 0h-2.98v-.96h3zm-4.98 0h-3v-.96h3zm-5 0h-2.98v-.96h3zm-4.98 0h-3v-.96h3zm-5 0h-3v-.96h3zm-4.98 0h-3v-.96h3zm-5 0h-3v-.96h3zm-5 0h-2.98v-.96h3zm-4.98 0h-3v-.96h3zm-5 0h-3v-.96h3zm-4.98 0h-3v-.96h3zm-5 0h-3v-.96h3zm-5 0h-2.98v-.96h3zm-4.98 0h-3v-.96h3zm-5 0h-3v-.96h3zm-4.98 0h-3v-.96h3zm-5 0h-3v-.96h3zm-5 0h-2.98v-.96h3zm-4.98 0h-3v-.96h3zm-5 0h-3v-.96h3zm-4.98 0h-3v-.96h3zm-5 0h-3v-.96h3zm-5 0h-2.98v-.96h3zm-4.98 0h-3v-.96h3zm-5 0h-2.98v-.96h3zm-4.98 0h-3v-.96h3zm-5 0h-3v-.96h3zm-5 0h-2.98v-.96h3zm-4.98 0h-3v-.96h3zm-5 0h-2.98v-.96h3zm-4.98 0h-3v-.96h3zm-5 0h-3v-.96h3zm-4.98 0h-3v-.96h3zm-5 0h-3v-.96h3zm-5 0h-2.98v-.96h3zm-4.98 0h-3v-.96h3zm-5 0h-3v-.96h3zm-4.98 0h-3v-.96h3zm-5 0h-3v-.96h3zm-205.9 0h-1.75v-.96h1.76zm-3.75 0h-3v-.96h3zm-5 0h-3v-.96h3zm-4.98 0h-3v-.96h3zm-5 0h-3v-.96h3zm-5 0h-3v-.96h3zm-5 0h-2.98v-.96h3zm-4.98 0h-3v-.96h3zm-5 0h-3v-.96h3zm-5 0h-2.98v-.96h3zm-4.98 0h-3v-.96h3zm-5 0h-2.98v-.96h3zm-4.98 0h-3v-.96h3zm-5 0h-3v-.96h3zm-4.98 0h-3v-.96h3zm-5 0h-3v-.96h3zm-5 0h-2.98v-.96h3zm-4.98 0h-3v-.96h3zm-5 0h-3v-.96h3zm-4.98 0h-3v-.96h3zm-5 0h-3v-.96h3zm-5 0h-2.98v-.96h3zm-4.98 0h-3v-.96h3zm-5 0h-2.98v-.96h3zm-4.98 0h-3v-.96h3zm-5 0h-3v-.96h3zm-4.98 0h-3v-.96h3zm-5 0h-3v-.96h3zm-5 0h-2.98v-.96h3zm-4.98 0h-3v-.96h3zm-5 0h-3v-.96h3zm-4.98 0h-3v-.96h3zm-5 0h-3v-.96h3zm-5 0h-2.98v-.96h3zm-4.98 0h-3v-.96h3zm-5 0h-3v-.96h3zm-4.98 0h-3v-.96h3zm-5 0h-3v-.96h3zm-5 0H1459v-.96h3zm-4.98 0h-3v-.96h3zm-5 0h-3v-.96h3zm399.35 0h-1.76v-.96h1.76zm208.68-3.1l-.26.43-.66.78-.77.66-.43.26-.5-.8.38-.23.66-.56.57-.65.23-.37zm.97-3.36l-.07 1-.12.5-.93-.23.1-.44.08-.88v-1.45h.94zm0-3.44h-.94v-2.94h.94zm0-4.9h-.94v-2.92h.94zm0-4.88h-.94v-2.93h.94zm0-4.9h-.94V253h.94zm0-4.88h-.94v-2.93h.94zm0-4.9h-.94v-2.92h.94zm0-4.88h-.94v-2.93h.94zm0-4.88h-.94v-2.94h.94zm0-4.9h-.94v-2.93h.94zm0-4.88h-.94v-2.94h.94zm0-4.9h-.94v-2.92h.94zm0-4.88h-.94v-2.93h.94zm0-4.9h-.94V209h.94zm0-4.88h-.94v-2.93h.94zm0-4.9h-.94v-2.92h.94zm0-4.88h-.94v-2.93h.94zm0-4.88h-.94v-2.94h.94zm-.07-7.37l.07.98v1.5h-.94V186l-.07-.88-.1-.42.92-.23zm-2.6-4.24l.78.66.66.77.27.43-.8.5-.23-.38-.56-.66-.65-.57-.37-.22.5-.8zm-2.8-1.16l.5.12-.22.93-.42-.1-.88-.08h-1.42v-.94h1.46zm-33.06.88H2021v-.95h1.44zm4.78 0h-2.87v-.95h2.87zm4.8 0h-2.88v-.95h2.87zm4.77 0h-2.88v-.95h2.87zm4.78 0h-2.87v-.95h2.88zm4.78 0h-2.87v-.95h2.86zm4.8 0h-2.88v-.95h2.87z" stroke="#ced4db" stroke-width=".05" fill="#ced4db"/><path d="M2021 180.47h-.52l.02-.46v-.4l.5-.07z" fill="#ced4db"/><path stroke="#ced4db" stroke-width=".05" fill="#ced4db"/><path d="M1477.88 380l-14.26 4.63v-9.26z" fill="#ced4db"/><path d="M1479.42 380l-16.28 5.3v-10.6zm-15.33 3.98l12.25-3.98-12.26-3.98z" stroke="#ced4db" stroke-width=".05" fill="#ced4db"/><g><use xlink:href="#m" transform="matrix(1,0,0,1,1650.4296875,269.2447916666667) translate(0 17.22222222222222)"/><use xlink:href="#n" transform="matrix(1,0,0,1,1650.4296875,269.2447916666667) translate(50.60763888888889 17.22222222222222)"/><use xlink:href="#o" transform="matrix(1,0,0,1,1650.4296875,269.2447916666667) translate(90.97222222222223 17.22222222222222)"/><use xlink:href="#p" transform="matrix(1,0,0,1,1650.4296875,269.2447916666667) translate(131.8576388888889 17.22222222222222)"/></g><path d="M1650 326a6 6 0 0 1 6-6h188a6 6 0 0 1 6 6v48a6 6 0 0 1-6 6h-188a6 6 0 0 1-6-6z" fill="none"/><g><use xlink:href="#c" transform="matrix(1,0,0,1,1650,320) translate(74.20572916666666 23.560763888888893)"/><use xlink:href="#d" transform="matrix(1,0,0,1,1650,320) translate(15.08680555555554 49.37326388888889)"/><use xlink:href="#e" transform="matrix(1,0,0,1,1650,320) translate(31.19791666666665 49.37326388888889)"/><use xlink:href="#f" transform="matrix(1,0,0,1,1650,320) translate(71.56249999999999 49.37326388888889)"/><use xlink:href="#k" transform="matrix(1,0,0,1,1650,320) translate(112.44791666666666 49.37326388888889)"/></g><path d="M2780 380c0 33.14-35.82 60-80 60s-80-26.86-80-60 35.82-60 80-60 80 26.86 80 60z" stroke="#ced4db" fill-opacity="0"/><g><use xlink:href="#q" transform="matrix(1,0,0,1,2620,320) translate(46.97114583333333 54.72222222222222)"/><use xlink:href="#r" transform="matrix(1,0,0,1,2620,320) translate(77.67427083333334 54.72222222222222)"/><use xlink:href="#k" transform="matrix(1,0,0,1,2620,320) translate(40.716805555555545 76.23263888888889)"/></g><path d="M2030 326a6 6 0 0 1 6-6h188a6 6 0 0 1 6 6v48a6 6 0 0 1-6 6h-188a6 6 0 0 1-6-6z" fill="none"/><g><use xlink:href="#c" transform="matrix(1,0,0,1,2030,320) translate(74.20572916666666 23.560763888888893)"/><use xlink:href="#d" transform="matrix(1,0,0,1,2030,320) translate(10.09548611111111 49.37326388888889)"/><use xlink:href="#s" transform="matrix(1,0,0,1,2030,320) translate(26.20659722222222 49.37326388888889)"/><use xlink:href="#t" transform="matrix(1,0,0,1,2030,320) translate(31.20659722222222 49.37326388888889)"/><use xlink:href="#k" transform="matrix(1,0,0,1,2030,320) translate(117.43923611111111 49.37326388888889)"/></g><path d="M2401 380h202.12" stroke="#ced4db" fill="none"/><path d="M2401 380.48h-.5v-.95h.5z" stroke="#ced4db" stroke-width=".05" fill="#ced4db"/><path d="M2617.88 380l-14.26 4.63v-9.26z" stroke="#ced4db" fill="#ced4db"/><defs><path fill="#ced4db" d="M537 14c-226 0-379-139-379-422v-710h180v695c0 172 97 275 253 275 160 0 281-109 281-300v-670h181V0H879v-209C806-46 684 14 537 14" id="u"/><path fill="#ced4db" d="M538 24C308 24 148-78 108-271l171-41c32 123 123 178 257 178 156 0 256-77 256-169 0-77-54-128-164-154l-186-44c-203-48-300-148-300-305 0-192 176-326 414-326 230 0 351 112 402 269l-163 42c-31-80-94-158-238-158-133 0-233 69-233 162 0 83 57 129 188 160l169 40c203 48 298 149 298 302 0 196-179 339-441 339" id="v"/><path fill="#ced4db" d="M628 24c-324 0-524-230-524-574 0-343 198-582 503-582 237 0 487 146 487 559v75H286c9 234 145 362 343 362 132 0 231-58 273-172l174 48C1024-91 857 24 628 24zM287-650h624c-17-190-120-322-304-322-192 0-309 151-320 322" id="w"/><path fill="#ced4db" d="M158 0v-1118h174v172h12c41-113 157-188 290-188 26 0 70 2 91 3v181c-11-2-60-10-108-10-161 0-279 109-279 260V0H158" id="x"/><g id="a"><use transform="matrix(0.008680555555555556,0,0,0.008680555555555556,0,0)" xlink:href="#u"/><use transform="matrix(0.008680555555555556,0,0,0.008680555555555556,10.512152777777779,0)" xlink:href="#v"/><use transform="matrix(0.008680555555555556,0,0,0.008680555555555556,19.895833333333336,0)" xlink:href="#w"/><use transform="matrix(0.008680555555555556,0,0,0.008680555555555556,30.26041666666667,0)" xlink:href="#x"/></g><path fill="#ced4db" d="M613 24c-304 0-509-231-509-576 0-350 205-580 509-580 216 0 392 114 453 309l-173 49c-33-115-133-197-280-197-223 0-326 196-326 419 0 220 103 415 326 415 150 0 252-85 285-206l172 49C1010-95 832 24 613 24" id="y"/><path fill="#ced4db" d="M613 24c-304 0-509-231-509-576 0-350 205-580 509-580 305 0 511 230 511 580 0 345-206 576-511 576zm0-161c226 0 329-195 329-415 0-222-103-419-329-419-223 0-326 196-326 419 0 220 103 415 326 415" id="z"/><path fill="#ced4db" d="M338-1490V0H158v-1490h180" id="A"/><path fill="#ced4db" d="M598-1118v154H368v674c0 100 37 144 132 144 23 0 62-6 92-12L629-6c-37 13-88 20-134 20-193 0-307-107-307-290v-688H20v-154h168v-266h180v266h230" id="B"/><path fill="#ced4db" d="M158 0v-1118h180V0H158zm91-1301c-68 0-125-53-125-119s57-119 125-119c69 0 126 53 126 119s-57 119-126 119" id="C"/><path fill="#ced4db" d="M338-670V0H158v-1118h173l1 207c72-158 192-221 342-221 226 0 378 139 378 422V0H872v-695c0-172-96-275-252-275-161 0-282 109-282 300" id="D"/><g id="b"><use transform="matrix(0.008680555555555556,0,0,0.008680555555555556,0,0)" xlink:href="#y"/><use transform="matrix(0.008680555555555556,0,0,0.008680555555555556,10.15625,0)" xlink:href="#z"/><use transform="matrix(0.008680555555555556,0,0,0.008680555555555556,20.81597222222222,0)" xlink:href="#A"/><use transform="matrix(0.008680555555555556,0,0,0.008680555555555556,25.12152777777778,0)" xlink:href="#A"/><use transform="matrix(0.008680555555555556,0,0,0.008680555555555556,29.427083333333336,0)" xlink:href="#w"/><use transform="matrix(0.008680555555555556,0,0,0.008680555555555556,39.79166666666667,0)" xlink:href="#y"/><use transform="matrix(0.008680555555555556,0,0,0.008680555555555556,49.94791666666667,0)" xlink:href="#B"/><use transform="matrix(0.008680555555555556,0,0,0.008680555555555556,55.76388888888889,0)" xlink:href="#C"/><use transform="matrix(0.008680555555555556,0,0,0.008680555555555556,60.06944444444445,0)" xlink:href="#z"/><use transform="matrix(0.008680555555555556,0,0,0.008680555555555556,70.72916666666667,0)" xlink:href="#D"/></g><path fill="#ced4db" d="M180 0v-1490h901v168H370v510h643v168H370V0H180" id="E"/><path fill="#ced4db" d="M338-670V0H158v-1490h180v566c73-149 190-208 336-208 226 0 379 139 379 422V0H872v-695c0-172-96-275-252-275-161 0-282 109-282 300" id="F"/><path fill="#ced4db" d="M295 13c-75 0-135-60-135-135s60-135 135-135 135 60 135 135S370 13 295 13zm0-809c-75 0-135-60-135-135s60-135 135-135 135 60 135 135-60 135-135 135" id="G"/><g id="c"><use transform="matrix(0.008680555555555556,0,0,0.008680555555555556,0,0)" xlink:href="#E"/><use transform="matrix(0.008680555555555556,0,0,0.008680555555555556,9.791666666666668,0)" xlink:href="#w"/><use transform="matrix(0.008680555555555556,0,0,0.008680555555555556,20.15625,0)" xlink:href="#B"/><use transform="matrix(0.008680555555555556,0,0,0.008680555555555556,25.79861111111111,0)" xlink:href="#y"/><use transform="matrix(0.008680555555555556,0,0,0.008680555555555556,35.954861111111114,0)" xlink:href="#F"/><use transform="matrix(0.008680555555555556,0,0,0.008680555555555556,46.46701388888889,0)" xlink:href="#G"/></g><path fill="#ced4db" d="M576-274c-177 0-320-143-320-320s143-320 320-320 320 143 320 320-143 320-320 320" id="H"/><use transform="matrix(0.008680555555555556,0,0,0.008680555555555556,0,0)" xlink:href="#H" id="d"/><path fill="#ced4db" d="M180 0v-1490h224l606 953c40 63 108 177 176 312-27-437-7-821-13-1265h190V0h-226C860-448 622-778 356-1262c27 476 11 792 15 1262H180" id="I"/><path fill="#ced4db" d="M98-1322v-168h1126v168H757V0H567v-1322H98" id="J"/><g id="e"><use transform="matrix(0.008680555555555556,0,0,0.008680555555555556,0,0)" xlink:href="#I"/><use transform="matrix(0.008680555555555556,0,0,0.008680555555555556,13.394097222222223,0)" xlink:href="#E"/><use transform="matrix(0.008680555555555556,0,0,0.008680555555555556,23.888888888888893,0)" xlink:href="#J"/></g><path fill="#ced4db" d="M158 0v-1118h175l1 205c55-151 181-225 313-225 147 0 245 90 285 228 53-141 190-228 352-228 194 0 352 125 352 384V0h-181v-749c0-161-105-225-225-225-151 0-243 103-243 244V0H807v-767c0-124-93-207-219-207-131 0-250 92-250 270V0H158" id="K"/><g id="f"><use transform="matrix(0.008680555555555556,0,0,0.008680555555555556,0,0)" xlink:href="#C"/><use transform="matrix(0.008680555555555556,0,0,0.008680555555555556,4.305555555555555,0)" xlink:href="#B"/><use transform="matrix(0.008680555555555556,0,0,0.008680555555555556,9.947916666666668,0)" xlink:href="#w"/><use transform="matrix(0.008680555555555556,0,0,0.008680555555555556,20.3125,0)" xlink:href="#K"/></g><path fill="#ced4db" d="M471 26C259 26 90-98 90-318c0-256 228-303 435-329 202-27 287-16 287-108 0-139-79-219-234-219-161 0-248 86-283 164l-173-57c86-203 278-265 451-265 150 0 419 46 419 395V0H815v-152h-12C765-73 660 26 471 26zm31-159c199 0 310-134 310-271v-155c-30 35-226 55-295 64-131 17-246 59-246 186 0 116 97 176 231 176" id="L"/><path fill="#ced4db" d="M577 24c-279 0-473-224-473-580 0-354 195-576 474-576 218 0 287 134 324 193h14v-551h180V0H922v-173h-20C865-111 790 24 577 24zm27-161c203 0 314-172 314-421 0-247-108-413-314-413-212 0-317 181-317 413 0 235 108 421 317 421" id="M"/><g id="g"><use transform="matrix(0.008680555555555556,0,0,0.008680555555555556,0,0)" xlink:href="#L"/><use transform="matrix(0.008680555555555556,0,0,0.008680555555555556,9.98263888888889,0)" xlink:href="#M"/><use transform="matrix(0.008680555555555556,0,0,0.008680555555555556,20.868055555555557,0)" xlink:href="#M"/><use transform="matrix(0.008680555555555556,0,0,0.008680555555555556,31.753472222222225,0)" xlink:href="#x"/><use transform="matrix(0.008680555555555556,0,0,0.008680555555555556,38.15104166666667,0)" xlink:href="#w"/><use transform="matrix(0.008680555555555556,0,0,0.008680555555555556,48.51562500000001,0)" xlink:href="#v"/><use transform="matrix(0.008680555555555556,0,0,0.008680555555555556,57.899305555555564,0)" xlink:href="#v"/></g><path fill="#ced4db" d="M180 0v-1490h270l367 940c28 72 75 218 110 339 35-117 81-264 110-339l362-940h271V0h-187c2-448-5-837 7-1287-157 497-311 829-483 1287H842C666-458 514-784 354-1284c12 438 5 843 7 1284H180" id="N"/><path fill="#ced4db" d="M611 442c-248 0-391-105-460-228l146-94c47 65 117 165 314 165 178 0 307-82 307-266v-224h-17C863-141 792-18 576-18c-268 0-472-195-472-546 0-346 197-568 476-568 216 0 288 133 326 193h17v-179h175V29c0 289-215 413-487 413zm-5-620c203 0 314-146 314-390 0-237-108-403-314-403-213 0-319 180-319 403 0 230 109 390 319 390" id="O"/><g id="h"><use transform="matrix(0.008680555555555556,0,0,0.008680555555555556,0,0)" xlink:href="#N"/><use transform="matrix(0.008680555555555556,0,0,0.008680555555555556,16.05902777777778,0)" xlink:href="#w"/><use transform="matrix(0.008680555555555556,0,0,0.008680555555555556,26.423611111111118,0)" xlink:href="#x"/><use transform="matrix(0.008680555555555556,0,0,0.008680555555555556,32.82118055555556,0)" xlink:href="#O"/><use transform="matrix(0.008680555555555556,0,0,0.008680555555555556,43.723958333333336,0)" xlink:href="#w"/><use transform="matrix(0.008680555555555556,0,0,0.008680555555555556,54.08854166666667,0)" xlink:href="#G"/></g><g id="i"><use transform="matrix(0.008680555555555556,0,0,0.008680555555555556,0,0)" xlink:href="#K"/><use transform="matrix(0.008680555555555556,0,0,0.008680555555555556,15.572916666666668,0)" xlink:href="#w"/><use transform="matrix(0.008680555555555556,0,0,0.008680555555555556,25.9375,0)" xlink:href="#B"/><use transform="matrix(0.008680555555555556,0,0,0.008680555555555556,31.84027777777778,0)" xlink:href="#L"/><use transform="matrix(0.008680555555555556,0,0,0.008680555555555556,41.82291666666667,0)" xlink:href="#M"/><use transform="matrix(0.008680555555555556,0,0,0.008680555555555556,52.70833333333334,0)" xlink:href="#L"/><use transform="matrix(0.008680555555555556,0,0,0.008680555555555556,62.69097222222223,0)" xlink:href="#B"/><use transform="matrix(0.008680555555555556,0,0,0.008680555555555556,68.59375000000001,0)" xlink:href="#L"/></g><path fill="#ced4db" d="M783 20c-382 0-661-292-661-764 0-473 279-766 661-766 302 0 548 182 601 489h-190c-42-204-217-313-411-313-268 0-476 208-476 590 0 381 209 588 476 588 195 0 369-110 411-313h190c-52 303-296 489-601 489" id="P"/><g id="j"><use transform="matrix(0.008680555555555556,0,0,0.008680555555555556,0,0)" xlink:href="#P"/><use transform="matrix(0.008680555555555556,0,0,0.008680555555555556,12.986111111111112,0)" xlink:href="#z"/><use transform="matrix(0.008680555555555556,0,0,0.008680555555555556,23.645833333333336,0)" xlink:href="#A"/><use transform="matrix(0.008680555555555556,0,0,0.008680555555555556,27.951388888888893,0)" xlink:href="#A"/><use transform="matrix(0.008680555555555556,0,0,0.008680555555555556,32.25694444444445,0)" xlink:href="#w"/><use transform="matrix(0.008680555555555556,0,0,0.008680555555555556,42.621527777777786,0)" xlink:href="#y"/><use transform="matrix(0.008680555555555556,0,0,0.008680555555555556,52.777777777777786,0)" xlink:href="#B"/><use transform="matrix(0.008680555555555556,0,0,0.008680555555555556,58.59375000000001,0)" xlink:href="#C"/><use transform="matrix(0.008680555555555556,0,0,0.008680555555555556,62.899305555555564,0)" xlink:href="#z"/><use transform="matrix(0.008680555555555556,0,0,0.008680555555555556,73.55902777777779,0)" xlink:href="#D"/></g><g id="k"><use transform="matrix(0.008680555555555556,0,0,0.008680555555555556,0,0)" xlink:href="#K"/><use transform="matrix(0.008680555555555556,0,0,0.008680555555555556,15.572916666666668,0)" xlink:href="#w"/><use transform="matrix(0.008680555555555556,0,0,0.008680555555555556,25.9375,0)" xlink:href="#B"/><use transform="matrix(0.008680555555555556,0,0,0.008680555555555556,31.84027777777778,0)" xlink:href="#L"/><use transform="matrix(0.008680555555555556,0,0,0.008680555555555556,41.82291666666667,0)" xlink:href="#M"/><use transform="matrix(0.008680555555555556,0,0,0.008680555555555556,52.70833333333334,0)" xlink:href="#L"/><use transform="matrix(0.008680555555555556,0,0,0.008680555555555556,62.69097222222223,0)" xlink:href="#B"/><use transform="matrix(0.008680555555555556,0,0,0.008680555555555556,68.59375000000001,0)" xlink:href="#L"/></g><g id="l"><use transform="matrix(0.008680555555555556,0,0,0.008680555555555556,0,0)" xlink:href="#C"/><use transform="matrix(0.008680555555555556,0,0,0.008680555555555556,4.305555555555555,0)" xlink:href="#B"/><use transform="matrix(0.008680555555555556,0,0,0.008680555555555556,9.947916666666668,0)" xlink:href="#w"/><use transform="matrix(0.008680555555555556,0,0,0.008680555555555556,20.3125,0)" xlink:href="#K"/></g><g id="m"><use transform="matrix(0.008680555555555556,0,0,0.008680555555555556,0,0)" xlink:href="#u"/><use transform="matrix(0.008680555555555556,0,0,0.008680555555555556,10.512152777777779,0)" xlink:href="#v"/><use transform="matrix(0.008680555555555556,0,0,0.008680555555555556,19.895833333333336,0)" xlink:href="#C"/><use transform="matrix(0.008680555555555556,0,0,0.008680555555555556,24.201388888888893,0)" xlink:href="#D"/><use transform="matrix(0.008680555555555556,0,0,0.008680555555555556,34.704861111111114,0)" xlink:href="#O"/></g><g id="n"><use transform="matrix(0.008680555555555556,0,0,0.008680555555555556,0,0)" xlink:href="#I"/><use transform="matrix(0.008680555555555556,0,0,0.008680555555555556,13.394097222222223,0)" xlink:href="#E"/><use transform="matrix(0.008680555555555556,0,0,0.008680555555555556,23.888888888888893,0)" xlink:href="#J"/></g><g id="o"><use transform="matrix(0.008680555555555556,0,0,0.008680555555555556,0,0)" xlink:href="#C"/><use transform="matrix(0.008680555555555556,0,0,0.008680555555555556,4.305555555555555,0)" xlink:href="#B"/><use transform="matrix(0.008680555555555556,0,0,0.008680555555555556,9.947916666666668,0)" xlink:href="#w"/><use transform="matrix(0.008680555555555556,0,0,0.008680555555555556,20.3125,0)" xlink:href="#K"/></g><g id="p"><use transform="matrix(0.008680555555555556,0,0,0.008680555555555556,0,0)" xlink:href="#L"/><use transform="matrix(0.008680555555555556,0,0,0.008680555555555556,9.98263888888889,0)" xlink:href="#M"/><use transform="matrix(0.008680555555555556,0,0,0.008680555555555556,20.868055555555557,0)" xlink:href="#M"/><use transform="matrix(0.008680555555555556,0,0,0.008680555555555556,31.753472222222225,0)" xlink:href="#x"/><use transform="matrix(0.008680555555555556,0,0,0.008680555555555556,38.15104166666667,0)" xlink:href="#w"/><use transform="matrix(0.008680555555555556,0,0,0.008680555555555556,48.51562500000001,0)" xlink:href="#v"/><use transform="matrix(0.008680555555555556,0,0,0.008680555555555556,57.899305555555564,0)" xlink:href="#v"/></g><path fill="#ced4db" d="M678-1118v154H420V0H240v-964H20v-154h220v-149c0-194 155-293 318-293 85 0 141 18 168 30l-50 154c-19-6-47-17-97-17-111 0-159 58-159 166v109h258" id="Q"/><g id="q"><use transform="matrix(0.008680555555555556,0,0,0.008680555555555556,0,0)" xlink:href="#Q"/><use transform="matrix(0.008680555555555556,0,0,0.008680555555555556,6.579861111111112,0)" xlink:href="#u"/><use transform="matrix(0.008680555555555556,0,0,0.008680555555555556,17.09201388888889,0)" xlink:href="#A"/><use transform="matrix(0.008680555555555556,0,0,0.008680555555555556,21.397569444444443,0)" xlink:href="#A"/></g><g id="r"><use transform="matrix(0.008680555555555556,0,0,0.008680555555555556,0,0)" xlink:href="#I"/><use transform="matrix(0.008680555555555556,0,0,0.008680555555555556,13.394097222222223,0)" xlink:href="#E"/><use transform="matrix(0.008680555555555556,0,0,0.008680555555555556,23.888888888888893,0)" xlink:href="#J"/></g><g id="t"><use transform="matrix(0.008680555555555556,0,0,0.008680555555555556,0,0)" xlink:href="#y"/><use transform="matrix(0.008680555555555556,0,0,0.008680555555555556,10.15625,0)" xlink:href="#z"/><use transform="matrix(0.008680555555555556,0,0,0.008680555555555556,20.81597222222222,0)" xlink:href="#A"/><use transform="matrix(0.008680555555555556,0,0,0.008680555555555556,25.12152777777778,0)" xlink:href="#A"/><use transform="matrix(0.008680555555555556,0,0,0.008680555555555556,29.427083333333336,0)" xlink:href="#w"/><use transform="matrix(0.008680555555555556,0,0,0.008680555555555556,39.79166666666667,0)" xlink:href="#y"/><use transform="matrix(0.008680555555555556,0,0,0.008680555555555556,49.94791666666667,0)" xlink:href="#B"/><use transform="matrix(0.008680555555555556,0,0,0.008680555555555556,55.76388888888889,0)" xlink:href="#C"/><use transform="matrix(0.008680555555555556,0,0,0.008680555555555556,60.06944444444445,0)" xlink:href="#z"/><use transform="matrix(0.008680555555555556,0,0,0.008680555555555556,70.72916666666667,0)" xlink:href="#D"/></g></defs></g></svg>