<svg xmlns="http://www.w3.org/2000/svg" xmlns:xlink="http://www.w3.org/1999/xlink" xmlns:lucid="lucid" width="821" height="353.11"><g transform="translate(-179.5 -247.3928125)" lucid:page-tab-id="jGkZ0ZQa66uv"><path d="M180 253.9a6 6 0 0 1 6-6h288a6 6 0 0 1 6 6V594a6 6 0 0 1-6 6H186a6 6 0 0 1-6-6z" stroke="#3a414a" fill-opacity="0"/><path d="M195.03 262a6 6 0 0 1 6-6h257.94a6 6 0 0 1 6 6v323.9a6 6 0 0 1-6 6H201.03a6 6 0 0 1-6-6z" fill="none"/><use xlink:href="#a" transform="matrix(1,0,0,1,200.03406249999998,261) translate(0 12.975260416666668)"/><use xlink:href="#b" transform="matrix(1,0,0,1,200.03406249999998,261) translate(80.61848958333333 12.975260416666668)"/><use xlink:href="#c" transform="matrix(1,0,0,1,200.03406249999998,261) translate(93.97786458333333 12.975260416666668)"/><use xlink:href="#d" transform="matrix(1,0,0,1,200.03406249999998,261) translate(143.33984375 12.975260416666668)"/><use xlink:href="#e" transform="matrix(1,0,0,1,200.03406249999998,261) translate(0 32.33463541666667)"/><use xlink:href="#f" transform="matrix(1,0,0,1,200.03406249999998,261) translate(0 51.69401041666667)"/><use xlink:href="#g" transform="matrix(1,0,0,1,200.03406249999998,261) translate(13.014322916666668 51.69401041666667)"/><use xlink:href="#h" transform="matrix(1,0,0,1,200.03406249999998,261) translate(53.9453125 51.69401041666667)"/><use xlink:href="#i" transform="matrix(1,0,0,1,200.03406249999998,261) translate(116.32161458333334 51.69401041666667)"/><use xlink:href="#j" transform="matrix(1,0,0,1,200.03406249999998,261) translate(147.12890625 51.69401041666667)"/><use xlink:href="#k" transform="matrix(1,0,0,1,200.03406249999998,261) translate(0 71.05338541666667)"/><use xlink:href="#l" transform="matrix(1,0,0,1,200.03406249999998,261) translate(15.722656250000002 71.05338541666667)"/><use xlink:href="#m" transform="matrix(1,0,0,1,200.03406249999998,261) translate(59.80468750000001 71.05338541666667)"/><use xlink:href="#i" transform="matrix(1,0,0,1,200.03406249999998,261) translate(141.31510416666669 71.05338541666667)"/><use xlink:href="#n" transform="matrix(1,0,0,1,200.03406249999998,261) translate(172.12239583333337 71.05338541666667)"/><use xlink:href="#o" transform="matrix(1,0,0,1,200.03406249999998,261) translate(0 90.41276041666667)"/><use xlink:href="#l" transform="matrix(1,0,0,1,200.03406249999998,261) translate(15.52734375 90.41276041666667)"/><use xlink:href="#p" transform="matrix(1,0,0,1,200.03406249999998,261) translate(59.60937500000001 90.41276041666667)"/><use xlink:href="#q" transform="matrix(1,0,0,1,200.03406249999998,261) translate(110.64453125 90.41276041666667)"/><use xlink:href="#i" transform="matrix(1,0,0,1,200.03406249999998,261) translate(168.10546875 90.41276041666667)"/><use xlink:href="#r" transform="matrix(1,0,0,1,200.03406249999998,261) translate(198.91276041666669 90.41276041666667)"/><use xlink:href="#s" transform="matrix(1,0,0,1,200.03406249999998,261) translate(0 109.77213541666667)"/><use xlink:href="#l" transform="matrix(1,0,0,1,200.03406249999998,261) translate(15.755208333333334 109.77213541666667)"/><use xlink:href="#t" transform="matrix(1,0,0,1,200.03406249999998,261) translate(59.83723958333334 109.77213541666667)"/><use xlink:href="#u" transform="matrix(1,0,0,1,200.03406249999998,261) translate(129.4921875 109.77213541666667)"/><use xlink:href="#i" transform="matrix(1,0,0,1,200.03406249999998,261) translate(178.125 109.77213541666667)"/><use xlink:href="#v" transform="matrix(1,0,0,1,200.03406249999998,261) translate(208.93229166666669 109.77213541666667)"/><use xlink:href="#w" transform="matrix(1,0,0,1,200.03406249999998,261) translate(36.01 129.13151041666666)"/><use xlink:href="#x" transform="matrix(1,0,0,1,200.03406249999998,261) translate(45.8928125 129.13151041666666)"/><use xlink:href="#y" transform="matrix(1,0,0,1,200.03406249999998,261) translate(72.04515625 129.13151041666666)"/><use xlink:href="#z" transform="matrix(1,0,0,1,200.03406249999998,261) translate(96.01651041666668 129.13151041666666)"/><use xlink:href="#A" transform="matrix(1,0,0,1,200.03406249999998,261) translate(119.15453125000002 129.13151041666666)"/><use xlink:href="#B" transform="matrix(1,0,0,1,200.03406249999998,261) translate(136.58942708333336 129.13151041666666)"/><use xlink:href="#C" transform="matrix(1,0,0,1,200.03406249999998,261) translate(166.88239583333336 129.13151041666666)"/><use xlink:href="#D" transform="matrix(1,0,0,1,200.03406249999998,261) translate(176.76520833333336 129.13151041666666)"/><use xlink:href="#w" transform="matrix(1,0,0,1,200.03406249999998,261) translate(36.01 148.49088541666666)"/><use xlink:href="#x" transform="matrix(1,0,0,1,200.03406249999998,261) translate(45.8928125 148.49088541666666)"/><use xlink:href="#E" transform="matrix(1,0,0,1,200.03406249999998,261) translate(72.04515625 148.49088541666666)"/><use xlink:href="#F" transform="matrix(1,0,0,1,200.03406249999998,261) translate(105.20270833333333 148.49088541666666)"/><use xlink:href="#G" transform="matrix(1,0,0,1,200.03406249999998,261) translate(146.58942708333333 148.49088541666666)"/><use xlink:href="#H" transform="matrix(1,0,0,1,200.03406249999998,261) translate(172.8459375 148.49088541666666)"/><use xlink:href="#I" transform="matrix(1,0,0,1,200.03406249999998,261) translate(0 167.85026041666666)"/><use xlink:href="#l" transform="matrix(1,0,0,1,200.03406249999998,261) translate(15.338541666666666 167.85026041666666)"/><use xlink:href="#J" transform="matrix(1,0,0,1,200.03406249999998,261) translate(59.42057291666667 167.85026041666666)"/><use xlink:href="#K" transform="matrix(1,0,0,1,200.03406249999998,261) translate(116.58203125 167.85026041666666)"/><use xlink:href="#L" transform="matrix(1,0,0,1,200.03406249999998,261) translate(131.43880208333334 167.85026041666666)"/><use xlink:href="#i" transform="matrix(1,0,0,1,200.03406249999998,261) translate(207.74739583333337 167.85026041666666)"/><use xlink:href="#M" transform="matrix(1,0,0,1,200.03406249999998,261) translate(238.55468750000006 167.85026041666666)"/><use xlink:href="#N" transform="matrix(1,0,0,1,200.03406249999998,261) translate(0 187.20963541666666)"/><use xlink:href="#l" transform="matrix(1,0,0,1,200.03406249999998,261) translate(15.410156250000002 187.20963541666666)"/><use xlink:href="#J" transform="matrix(1,0,0,1,200.03406249999998,261) translate(59.49218750000001 187.20963541666666)"/><use xlink:href="#K" transform="matrix(1,0,0,1,200.03406249999998,261) translate(116.65364583333334 187.20963541666666)"/><use xlink:href="#O" transform="matrix(1,0,0,1,200.03406249999998,261) translate(131.51041666666669 187.20963541666666)"/><use xlink:href="#i" transform="matrix(1,0,0,1,200.03406249999998,261) translate(182.35026041666669 187.20963541666666)"/><use xlink:href="#P" transform="matrix(1,0,0,1,200.03406249999998,261) translate(213.15755208333337 187.20963541666666)"/><use xlink:href="#Q" transform="matrix(1,0,0,1,200.03406249999998,261) translate(0 206.56901041666666)"/><use xlink:href="#R" transform="matrix(1,0,0,1,200.03406249999998,261) translate(13.470052083333334 206.56901041666666)"/><use xlink:href="#J" transform="matrix(1,0,0,1,200.03406249999998,261) translate(49.296875 206.56901041666666)"/><use xlink:href="#S" transform="matrix(1,0,0,1,200.03406249999998,261) translate(106.45833333333333 206.56901041666666)"/><use xlink:href="#T" transform="matrix(1,0,0,1,200.03406249999998,261) translate(124.73307291666666 206.56901041666666)"/><use xlink:href="#U" transform="matrix(1,0,0,1,200.03406249999998,261) translate(0 225.92838541666666)"/><use xlink:href="#V" transform="matrix(1,0,0,1,200.03406249999998,261) translate(15.540364583333334 225.92838541666666)"/><use xlink:href="#W" transform="matrix(1,0,0,1,200.03406249999998,261) translate(67.97526041666666 225.92838541666666)"/><use xlink:href="#X" transform="matrix(1,0,0,1,200.03406249999998,261) translate(119.44661458333333 225.92838541666666)"/><use xlink:href="#Y" transform="matrix(1,0,0,1,200.03406249999998,261) translate(0 245.28776041666666)"/><use xlink:href="#Z" transform="matrix(1,0,0,1,200.03406249999998,261) translate(15.520833333333334 245.28776041666666)"/><use xlink:href="#aa" transform="matrix(1,0,0,1,200.03406249999998,261) translate(69.39453125 245.28776041666666)"/><use xlink:href="#i" transform="matrix(1,0,0,1,200.03406249999998,261) translate(185.3515625 245.28776041666666)"/><use xlink:href="#ab" transform="matrix(1,0,0,1,200.03406249999998,261) translate(216.15885416666669 245.28776041666666)"/><use xlink:href="#ac" transform="matrix(1,0,0,1,200.03406249999998,261) translate(0 264.6471354166667)"/><use xlink:href="#ad" transform="matrix(1,0,0,1,200.03406249999998,261) translate(21.087239583333332 264.6471354166667)"/><use xlink:href="#ae" transform="matrix(1,0,0,1,200.03406249999998,261) translate(57.20703125 264.6471354166667)"/><use xlink:href="#af" transform="matrix(1,0,0,1,200.03406249999998,261) translate(126.56901041666667 264.6471354166667)"/><use xlink:href="#ag" transform="matrix(1,0,0,1,200.03406249999998,261) translate(187.28515625 264.6471354166667)"/><use xlink:href="#ah" transform="matrix(1,0,0,1,200.03406249999998,261) translate(203.26171875 264.6471354166667)"/><use xlink:href="#ai" transform="matrix(1,0,0,1,200.03406249999998,261) translate(0 284.0065104166667)"/><use xlink:href="#aj" transform="matrix(1,0,0,1,200.03406249999998,261) translate(0 303.3658854166667)"/><use xlink:href="#ak" transform="matrix(1,0,0,1,200.03406249999998,261) translate(7.5 303.3658854166667)"/><use xlink:href="#al" transform="matrix(1,0,0,1,200.03406249999998,261) translate(23.040364583333336 303.3658854166667)"/><use xlink:href="#am" transform="matrix(1,0,0,1,200.03406249999998,261) translate(69.12760416666667 303.3658854166667)"/><use xlink:href="#an" transform="matrix(1,0,0,1,200.03406249999998,261) translate(136.92057291666669 303.3658854166667)"/><use xlink:href="#aj" transform="matrix(1,0,0,1,200.03406249999998,261) translate(0 322.7252604166667)"/><use xlink:href="#ak" transform="matrix(1,0,0,1,200.03406249999998,261) translate(7.5 322.7252604166667)"/><use xlink:href="#ao" transform="matrix(1,0,0,1,200.03406249999998,261) translate(23.040364583333336 322.7252604166667)"/><use xlink:href="#ap" transform="matrix(1,0,0,1,200.03406249999998,261) translate(76.02864583333334 322.7252604166667)"/><use xlink:href="#aq" transform="matrix(1,0,0,1,200.03406249999998,261) translate(133.6328125 322.7252604166667)"/><path d="M700 253.9a6 6 0 0 1 6-6h288a6 6 0 0 1 6 6V594a6 6 0 0 1-6 6H706a6 6 0 0 1-6-6z" stroke="#3a414a" fill-opacity="0"/><path d="M715.03 262a6 6 0 0 1 6-6h257.94a6 6 0 0 1 6 6v249.68a6 6 0 0 1-6 6H721.03a6 6 0 0 1-6-6z" fill="none"/><g><use xlink:href="#a" transform="matrix(1,0,0,1,720.0340625,261) translate(0 13.080729166666668)"/><use xlink:href="#ar" transform="matrix(1,0,0,1,720.0340625,261) translate(80.61848958333333 13.080729166666668)"/><use xlink:href="#as" transform="matrix(1,0,0,1,720.0340625,261) translate(92.17447916666666 13.080729166666668)"/><use xlink:href="#at" transform="matrix(1,0,0,1,720.0340625,261) translate(99.76562499999999 13.080729166666668)"/><use xlink:href="#au" transform="matrix(1,0,0,1,720.0340625,261) translate(150.44921874999997 13.080729166666668)"/><use xlink:href="#av" transform="matrix(1,0,0,1,720.0340625,261) translate(0 32.44010416666667)"/><use xlink:href="#aw" transform="matrix(1,0,0,1,720.0340625,261) translate(45.60546875 32.44010416666667)"/><use xlink:href="#ax" transform="matrix(1,0,0,1,720.0340625,261) translate(87.24609375 32.44010416666667)"/><use xlink:href="#ay" transform="matrix(1,0,0,1,720.0340625,261) translate(103.22265625 32.44010416666667)"/><use xlink:href="#az" transform="matrix(1,0,0,1,720.0340625,261) translate(0 51.79947916666667)"/><use xlink:href="#f" transform="matrix(1,0,0,1,720.0340625,261) translate(0 71.15885416666667)"/><use xlink:href="#Z" transform="matrix(1,0,0,1,720.0340625,261) translate(13.014322916666668 71.15885416666667)"/><use xlink:href="#aA" transform="matrix(1,0,0,1,720.0340625,261) translate(66.88802083333333 71.15885416666667)"/><use xlink:href="#aB" transform="matrix(1,0,0,1,720.0340625,261) translate(114.28385416666666 71.15885416666667)"/><use xlink:href="#aC" transform="matrix(1,0,0,1,720.0340625,261) translate(126.85546874999999 71.15885416666667)"/><use xlink:href="#k" transform="matrix(1,0,0,1,720.0340625,261) translate(0 90.51822916666667)"/><use xlink:href="#l" transform="matrix(1,0,0,1,720.0340625,261) translate(15.722656250000002 90.51822916666667)"/><use xlink:href="#aD" transform="matrix(1,0,0,1,720.0340625,261) translate(59.80468750000001 90.51822916666667)"/><use xlink:href="#aB" transform="matrix(1,0,0,1,720.0340625,261) translate(79.71354166666667 90.51822916666667)"/><use xlink:href="#aE" transform="matrix(1,0,0,1,720.0340625,261) translate(92.28515625 90.51822916666667)"/><use xlink:href="#o" transform="matrix(1,0,0,1,720.0340625,261) translate(0 106.65104166666667)"/><use xlink:href="#aF" transform="matrix(1,0,0,1,720.0340625,261) translate(15.52734375 106.65104166666667)"/><use xlink:href="#aG" transform="matrix(1,0,0,1,720.0340625,261) translate(63.678385416666664 106.65104166666667)"/><use xlink:href="#aH" transform="matrix(1,0,0,1,720.0340625,261) translate(105.99609375 106.65104166666667)"/><use xlink:href="#E" transform="matrix(1,0,0,1,720.0340625,261) translate(127.60416666666667 106.65104166666667)"/><use xlink:href="#aI" transform="matrix(1,0,0,1,720.0340625,261) translate(160.76171875 106.65104166666667)"/><use xlink:href="#s" transform="matrix(1,0,0,1,720.0340625,261) translate(0 122.78385416666667)"/><use xlink:href="#aJ" transform="matrix(1,0,0,1,720.0340625,261) translate(15.755208333333334 122.78385416666667)"/><use xlink:href="#aK" transform="matrix(1,0,0,1,720.0340625,261) translate(55.82031250000001 122.78385416666667)"/><use xlink:href="#aL" transform="matrix(1,0,0,1,720.0340625,261) translate(105.17578125 122.78385416666667)"/><use xlink:href="#aM" transform="matrix(1,0,0,1,720.0340625,261) translate(144.64192708333334 122.78385416666667)"/><use xlink:href="#I" transform="matrix(1,0,0,1,720.0340625,261) translate(0 138.91666666666666)"/><use xlink:href="#aN" transform="matrix(1,0,0,1,720.0340625,261) translate(15.338541666666666 138.91666666666666)"/><use xlink:href="#aO" transform="matrix(1,0,0,1,720.0340625,261) translate(67.16145833333333 138.91666666666666)"/><use xlink:href="#ap" transform="matrix(1,0,0,1,720.0340625,261) translate(102.4609375 138.91666666666666)"/><use xlink:href="#aP" transform="matrix(1,0,0,1,720.0340625,261) translate(160.06510416666666 138.91666666666666)"/><use xlink:href="#aQ" transform="matrix(1,0,0,1,720.0340625,261) translate(0 155.04947916666666)"/><use xlink:href="#aR" transform="matrix(1,0,0,1,720.0340625,261) translate(0 171.18229166666666)"/><use xlink:href="#aS" transform="matrix(1,0,0,1,720.0340625,261) translate(39.23828125 171.18229166666666)"/><use xlink:href="#aT" transform="matrix(1,0,0,1,720.0340625,261) translate(51.50390625 171.18229166666666)"/><use xlink:href="#aU" transform="matrix(1,0,0,1,720.0340625,261) translate(77.76692708333334 171.18229166666666)"/><use xlink:href="#aV" transform="matrix(1,0,0,1,720.0340625,261) translate(151.86848958333334 171.18229166666666)"/><use xlink:href="#aW" transform="matrix(1,0,0,1,720.0340625,261) translate(185.16927083333334 171.18229166666666)"/><use xlink:href="#am" transform="matrix(1,0,0,1,720.0340625,261) translate(0 190.54166666666666)"/><use xlink:href="#E" transform="matrix(1,0,0,1,720.0340625,261) translate(67.79296875 190.54166666666666)"/><use xlink:href="#aX" transform="matrix(1,0,0,1,720.0340625,261) translate(100.95052083333334 190.54166666666666)"/><use xlink:href="#aY" transform="matrix(1,0,0,1,720.0340625,261) translate(178.54166666666669 190.54166666666666)"/><use xlink:href="#aZ" transform="matrix(1,0,0,1,720.0340625,261) translate(187.71484375000003 190.54166666666666)"/><use xlink:href="#ba" transform="matrix(1,0,0,1,720.0340625,261) translate(0 209.90104166666666)"/><use xlink:href="#bb" transform="matrix(1,0,0,1,720.0340625,261) translate(38.75 209.90104166666666)"/><use xlink:href="#bc" transform="matrix(1,0,0,1,720.0340625,261) translate(63.235677083333336 209.90104166666666)"/><use xlink:href="#az" transform="matrix(1,0,0,1,720.0340625,261) translate(0 229.26041666666666)"/><use xlink:href="#bd" transform="matrix(1,0,0,1,720.0340625,261) translate(0 248.61979166666666)"/></g><path d="M481 423.95h202.12" stroke="#3a414a" stroke-linejoin="round" fill="none"/><path d="M481.02 424.42h-.52v-.95h.52z" stroke="#3a414a" stroke-width=".05" fill="#3a414a"/><path d="M697.88 423.95l-14.26 4.63v-9.27z" stroke="#3a414a" fill="#3a414a"/><defs><path fill="#3a414a" d="M75-1237v-253h1217v253H837V0H531v-1237H75" id="be"/><path fill="#3a414a" d="M128 0v-1118h290v195h12c54-169 184-238 367-200v268c-27-8-86-15-130-15-138 0-239 95-239 234V0H128" id="bf"/><path fill="#3a414a" d="M440 22C227 22 68-92 68-313c0-250 202-322 422-343 195-21 271-24 271-105 0-95-63-149-175-149-116 0-187 57-211 129l-275-46c57-194 237-305 487-305 240 0 474 108 474 379V0H777v-155h-10C713-51 605 22 440 22zm85-211c140 0 238-93 238-211v-121c-37 26-156 42-222 51-111 16-185 59-185 149 0 87 70 132 169 132" id="bg"/><path fill="#3a414a" d="M428-647V0H128v-1118h283l4 231c63-156 176-245 348-245 232 0 384 159 384 421V0H847v-659c0-139-76-222-202-222-128 0-217 86-217 234" id="bh"/><path fill="#3a414a" d="M572 22C302 22 117-98 78-306l279-48c29 105 101 156 224 156 114 0 185-48 185-115 0-118-228-130-337-155-215-49-322-150-322-317 0-215 187-347 470-347 265 0 424 116 466 298l-266 47c-24-76-87-130-196-130-98 0-174 46-174 113 0 56 38 95 144 117l201 40c216 44 320 143 320 302 0 220-207 367-500 367" id="bi"/><path fill="#3a414a" d="M628 22C291 22 81-210 81-554c0-346 210-578 547-578 265 0 455 142 497 372l-279 52c-25-116-99-188-215-188-160 0-244 139-244 341 0 200 84 341 244 341 116 0 193-74 217-195l279 51C1085-123 896 22 628 22" id="bj"/><path fill="#3a414a" d="M683-1118v229H474v562c0 71 29 104 102 104 23 0 73-7 95-13l43 225C647 9 580 16 520 16 296 16 174-96 174-301v-588H20v-229h154v-266h300v266h209" id="bk"/><path fill="#3a414a" d="M128 0v-1118h300V0H128zm150-1264c-91 0-165-68-165-154 0-85 74-154 165-154 90 0 165 69 165 154 0 86-75 154-165 154" id="bl"/><path fill="#3a414a" d="M628 22C291 22 81-210 81-554c0-346 210-578 547-578 336 0 547 232 547 578 0 344-211 576-547 576zm0-236c160 0 242-146 242-341 0-197-82-341-242-341S387-753 387-555c0 195 81 341 241 341" id="bm"/><g id="a"><use transform="matrix(0.006510416666666667,0,0,0.006510416666666667,0,0)" xlink:href="#be"/><use transform="matrix(0.006510416666666667,0,0,0.006510416666666667,8.14453125,0)" xlink:href="#bf"/><use transform="matrix(0.006510416666666667,0,0,0.006510416666666667,13.39192708333333,0)" xlink:href="#bg"/><use transform="matrix(0.006510416666666667,0,0,0.006510416666666667,21.1328125,0)" xlink:href="#bh"/><use transform="matrix(0.006510416666666667,0,0,0.006510416666666667,29.43359375,0)" xlink:href="#bi"/><use transform="matrix(0.006510416666666667,0,0,0.006510416666666667,36.901041666666664,0)" xlink:href="#bg"/><use transform="matrix(0.006510416666666667,0,0,0.006510416666666667,44.64192708333333,0)" xlink:href="#bj"/><use transform="matrix(0.006510416666666667,0,0,0.006510416666666667,52.486979166666664,0)" xlink:href="#bk"/><use transform="matrix(0.006510416666666667,0,0,0.006510416666666667,57.36979166666667,0)" xlink:href="#bl"/><use transform="matrix(0.006510416666666667,0,0,0.006510416666666667,60.98307291666667,0)" xlink:href="#bm"/><use transform="matrix(0.006510416666666667,0,0,0.006510416666666667,69.16015625,0)" xlink:href="#bh"/></g><path fill="#3a414a" d="M749-1490V0H444v-1221h-10L93-980v-279l329-231h327" id="bn"/><path fill="#3a414a" d="M342-723c-98 0-173-75-173-172s75-172 173-172 173 75 173 172-75 172-173 172zm0 742c-98 0-173-75-173-172s75-172 173-172 173 75 173 172S440 19 342 19" id="bo"/><g id="b"><use transform="matrix(0.006510416666666667,0,0,0.006510416666666667,0,0)" xlink:href="#bn"/><use transform="matrix(0.006510416666666667,0,0,0.006510416666666667,5.748697916666667,0)" xlink:href="#bo"/></g><path fill="#3a414a" d="M628 24c-324 0-524-230-524-574 0-343 198-582 503-582 237 0 487 146 487 559v75H286c9 234 145 362 343 362 132 0 231-58 273-172l174 48C1024-91 857 24 628 24zM287-650h624c-17-190-120-322-304-322-192 0-309 151-320 322" id="bp"/><path fill="#3a414a" d="M65 0l393-574-370-544h210c88 136 192 297 267 435 67-142 176-302 264-435h206L661-564 1053 0H844c-94-144-206-310-287-458C484-308 366-142 273 0H65" id="bq"/><path fill="#3a414a" d="M598-1118v154H368v674c0 100 37 144 132 144 23 0 62-6 92-12L629-6c-37 13-88 20-134 20-193 0-307-107-307-290v-688H20v-154h168v-266h180v266h230" id="br"/><path fill="#3a414a" d="M338-670V0H158v-1118h173l1 207c72-158 192-221 342-221 226 0 378 139 378 422V0H872v-695c0-172-96-275-252-275-161 0-282 109-282 300" id="bs"/><path fill="#3a414a" d="M471 26C259 26 90-98 90-318c0-256 228-303 435-329 202-27 287-16 287-108 0-139-79-219-234-219-161 0-248 86-283 164l-173-57c86-203 278-265 451-265 150 0 419 46 419 395V0H815v-152h-12C765-73 660 26 471 26zm31-159c199 0 310-134 310-271v-155c-30 35-226 55-295 64-131 17-246 59-246 186 0 116 97 176 231 176" id="bt"/><path fill="#3a414a" d="M338-1490V0H158v-1490h180" id="bu"/><g id="c"><use transform="matrix(0.006510416666666667,0,0,0.006510416666666667,0,0)" xlink:href="#bp"/><use transform="matrix(0.006510416666666667,0,0,0.006510416666666667,7.473958333333334,0)" xlink:href="#bq"/><use transform="matrix(0.006510416666666667,0,0,0.006510416666666667,15.013020833333334,0)" xlink:href="#br"/><use transform="matrix(0.006510416666666667,0,0,0.006510416666666667,19.244791666666668,0)" xlink:href="#bp"/><use transform="matrix(0.006510416666666667,0,0,0.006510416666666667,27.018229166666668,0)" xlink:href="#bs"/><use transform="matrix(0.006510416666666667,0,0,0.006510416666666667,34.895833333333336,0)" xlink:href="#bt"/><use transform="matrix(0.006510416666666667,0,0,0.006510416666666667,42.3828125,0)" xlink:href="#bu"/></g><path fill="#3a414a" d="M158 0v-1118h175l1 205c55-151 181-225 313-225 147 0 245 90 285 228 53-141 190-228 352-228 194 0 352 125 352 384V0h-181v-749c0-161-105-225-225-225-151 0-243 103-243 244V0H807v-767c0-124-93-207-219-207-131 0-250 92-250 270V0H158" id="bv"/><path fill="#3a414a" d="M538 24C308 24 148-78 108-271l171-41c32 123 123 178 257 178 156 0 256-77 256-169 0-77-54-128-164-154l-186-44c-203-48-300-148-300-305 0-192 176-326 414-326 230 0 351 112 402 269l-163 42c-31-80-94-158-238-158-133 0-233 69-233 162 0 83 57 129 188 160l169 40c203 48 298 149 298 302 0 196-179 339-441 339" id="bw"/><path fill="#3a414a" d="M611 442c-248 0-391-105-460-228l146-94c47 65 117 165 314 165 178 0 307-82 307-266v-224h-17C863-141 792-18 576-18c-268 0-472-195-472-546 0-346 197-568 476-568 216 0 288 133 326 193h17v-179h175V29c0 289-215 413-487 413zm-5-620c203 0 314-146 314-390 0-237-108-403-314-403-213 0-319 180-319 403 0 230 109 390 319 390" id="bx"/><g id="d"><use transform="matrix(0.006510416666666667,0,0,0.006510416666666667,0,0)" xlink:href="#bv"/><use transform="matrix(0.006510416666666667,0,0,0.006510416666666667,11.6796875,0)" xlink:href="#bp"/><use transform="matrix(0.006510416666666667,0,0,0.006510416666666667,19.453125,0)" xlink:href="#bw"/><use transform="matrix(0.006510416666666667,0,0,0.006510416666666667,26.490885416666668,0)" xlink:href="#bw"/><use transform="matrix(0.006510416666666667,0,0,0.006510416666666667,33.528645833333336,0)" xlink:href="#bt"/><use transform="matrix(0.006510416666666667,0,0,0.006510416666666667,41.015625,0)" xlink:href="#bx"/><use transform="matrix(0.006510416666666667,0,0,0.006510416666666667,49.192708333333336,0)" xlink:href="#bp"/></g><path fill="#3a414a" d="M653-1490V0H466v-1314h-10L96-1047v-204l324-239h233" id="by"/><path fill="#3a414a" d="M295 13c-75 0-135-60-135-135s60-135 135-135 135 60 135 135S370 13 295 13" id="bz"/><g id="f"><use transform="matrix(0.006510416666666667,0,0,0.006510416666666667,0,0)" xlink:href="#by"/><use transform="matrix(0.006510416666666667,0,0,0.006510416666666667,5.423177083333334,0)" xlink:href="#bz"/></g><path fill="#3a414a" d="M600 0L52-1490h200c166 485 304 806 458 1336 156-533 285-846 449-1336h202L819 0H600" id="bA"/><path fill="#3a414a" d="M158 0v-1118h174v172h12c41-113 157-188 290-188 26 0 70 2 91 3v181c-11-2-60-10-108-10-161 0-279 109-279 260V0H158" id="bB"/><path fill="#3a414a" d="M158 0v-1118h180V0H158zm91-1301c-68 0-125-53-125-119s57-119 125-119c69 0 126 53 126 119s-57 119-126 119" id="bC"/><path fill="#3a414a" d="M678-1118v154H420V0H240v-964H20v-154h220v-149c0-194 155-293 318-293 85 0 141 18 168 30l-50 154c-19-6-47-17-97-17-111 0-159 58-159 166v109h258" id="bD"/><path fill="#3a414a" d="M140 405l46-156c120 36 205 19 263-150l32-93L54-1118h197c107 313 237 620 324 950 87-331 219-637 326-950h196L606 167c-68 178-176 259-334 259-64 0-113-12-132-21" id="bE"/><g id="g"><use transform="matrix(0.006510416666666667,0,0,0.006510416666666667,0,0)" xlink:href="#bA"/><use transform="matrix(0.006510416666666667,0,0,0.006510416666666667,8.522135416666666,0)" xlink:href="#bp"/><use transform="matrix(0.006510416666666667,0,0,0.006510416666666667,16.295572916666664,0)" xlink:href="#bB"/><use transform="matrix(0.006510416666666667,0,0,0.006510416666666667,21.523437499999996,0)" xlink:href="#bC"/><use transform="matrix(0.006510416666666667,0,0,0.006510416666666667,24.752604166666664,0)" xlink:href="#bD"/><use transform="matrix(0.006510416666666667,0,0,0.006510416666666667,29.6875,0)" xlink:href="#bE"/></g><path fill="#3a414a" d="M537 14c-226 0-379-139-379-422v-710h180v695c0 172 97 275 253 275 160 0 281-109 281-300v-670h181V0H879v-209C806-46 684 14 537 14" id="bF"/><g id="h"><use transform="matrix(0.006510416666666667,0,0,0.006510416666666667,0,0)" xlink:href="#bw"/><use transform="matrix(0.006510416666666667,0,0,0.006510416666666667,7.037760416666667,0)" xlink:href="#bC"/><use transform="matrix(0.006510416666666667,0,0,0.006510416666666667,10.266927083333334,0)" xlink:href="#bx"/><use transform="matrix(0.006510416666666667,0,0,0.006510416666666667,18.444010416666668,0)" xlink:href="#bs"/><use transform="matrix(0.006510416666666667,0,0,0.006510416666666667,26.321614583333336,0)" xlink:href="#bt"/><use transform="matrix(0.006510416666666667,0,0,0.006510416666666667,33.80859375,0)" xlink:href="#br"/><use transform="matrix(0.006510416666666667,0,0,0.006510416666666667,38.170572916666664,0)" xlink:href="#bF"/><use transform="matrix(0.006510416666666667,0,0,0.006510416666666667,46.0546875,0)" xlink:href="#bB"/><use transform="matrix(0.006510416666666667,0,0,0.006510416666666667,50.852864583333336,0)" xlink:href="#bp"/></g><path fill="#3a414a" d="M218-607c0-325 108-727 258-974h175c-155 315-250 682-250 974 0 265 78 531 250 886H476C306-10 218-315 218-607" id="bG"/><g id="i"><use transform="matrix(0.006510416666666667,0,0,0.006510416666666667,0,0)" xlink:href="#bG"/><use transform="matrix(0.006510416666666667,0,0,0.006510416666666667,4.713541666666667,0)" xlink:href="#bp"/><use transform="matrix(0.006510416666666667,0,0,0.006510416666666667,12.1875,0)" xlink:href="#bq"/><use transform="matrix(0.006510416666666667,0,0,0.006510416666666667,19.466145833333336,0)" xlink:href="#bC"/><use transform="matrix(0.006510416666666667,0,0,0.006510416666666667,22.695312500000004,0)" xlink:href="#br"/></g><path fill="#3a414a" d="M635 20c-292 0-500-160-510-396h192c11 142 145 229 315 229 187 0 323-105 323-260 0-161-125-274-346-274H488v-165h121c174 0 294-100 294-254 0-148-104-245-266-245-152 0-291 85-297 230H157c8-234 222-395 484-395 278 0 448 188 448 400 0 168-95 291-247 336v12c190 31 301 169 301 357 0 244-216 425-508 425" id="bH"/><path fill="#3a414a" d="M96 279C273-86 346-350 346-607c0-292-95-659-250-974h175c150 246 258 650 258 974 0 297-91 602-258 886H96" id="bI"/><g id="j"><use transform="matrix(0.006510416666666667,0,0,0.006510416666666667,0,0)" xlink:href="#bH"/><use transform="matrix(0.006510416666666667,0,0,0.006510416666666667,8.235677083333334,0)" xlink:href="#bH"/><use transform="matrix(0.006510416666666667,0,0,0.006510416666666667,16.471354166666668,0)" xlink:href="#bI"/></g><path fill="#3a414a" d="M154 0v-137l495-537c165-179 249-281 249-418 0-156-121-253-280-253-170 0-278 110-278 278H158c0-264 200-443 465-443 266 0 455 183 455 416 0 161-73 288-336 568L416-179v12h687V0H154" id="bJ"/><g id="k"><use transform="matrix(0.006510416666666667,0,0,0.006510416666666667,0,0)" xlink:href="#bJ"/><use transform="matrix(0.006510416666666667,0,0,0.006510416666666667,8.131510416666668,0)" xlink:href="#bz"/></g><path fill="#3a414a" d="M783 20c-382 0-661-292-661-764 0-473 279-766 661-766 302 0 548 182 601 489h-190c-42-204-217-313-411-313-268 0-476 208-476 590 0 381 209 588 476 588 195 0 369-110 411-313h190c-52 303-296 489-601 489" id="bK"/><path fill="#3a414a" d="M338-670V0H158v-1490h180v566c73-149 190-208 336-208 226 0 379 139 379 422V0H872v-695c0-172-96-275-252-275-161 0-282 109-282 300" id="bL"/><path fill="#3a414a" d="M613 24c-304 0-509-231-509-576 0-350 205-580 509-580 216 0 392 114 453 309l-173 49c-33-115-133-197-280-197-223 0-326 196-326 419 0 220 103 415 326 415 150 0 252-85 285-206l172 49C1010-95 832 24 613 24" id="bM"/><path fill="#3a414a" d="M158 0v-1490h180v865h22l478-493h223L593-638 1096 0H865L456-523 338-412V0H158" id="bN"/><g id="l"><use transform="matrix(0.006510416666666667,0,0,0.006510416666666667,0,0)" xlink:href="#bK"/><use transform="matrix(0.006510416666666667,0,0,0.006510416666666667,9.739583333333334,0)" xlink:href="#bL"/><use transform="matrix(0.006510416666666667,0,0,0.006510416666666667,17.623697916666668,0)" xlink:href="#bp"/><use transform="matrix(0.006510416666666667,0,0,0.006510416666666667,25.397135416666668,0)" xlink:href="#bM"/><use transform="matrix(0.006510416666666667,0,0,0.006510416666666667,33.01432291666667,0)" xlink:href="#bN"/></g><path fill="#3a414a" d="M677 24c-213 0-288-135-325-197h-20V0H158v-1490h180v551h14c37-59 106-193 324-193 279 0 474 222 474 576 0 356-194 580-473 580zm-27-161c209 0 317-186 317-421 0-232-105-413-317-413-206 0-314 166-314 413 0 249 111 421 314 421" id="bO"/><path fill="#3a414a" d="M409 0L70-1118h191c89 329 165 560 243 925 75-353 154-601 240-925h192c85 325 161 564 235 922 77-354 157-598 244-922h191L1267 0h-179c-86-307-176-590-250-913C763-588 675-308 588 0H409" id="bP"/><path fill="#3a414a" d="M934 0v166H0V0h934" id="bQ"/><path fill="#3a414a" d="M577 24c-279 0-473-224-473-580 0-354 195-576 474-576 218 0 287 134 324 193h14v-551h180V0H922v-173h-20C865-111 790 24 577 24zm27-161c203 0 314-172 314-421 0-247-108-413-314-413-212 0-317 181-317 413 0 235 108 421 317 421" id="bR"/><g id="m"><use transform="matrix(0.006510416666666667,0,0,0.006510416666666667,0,0)" xlink:href="#bw"/><use transform="matrix(0.006510416666666667,0,0,0.006510416666666667,7.037760416666667,0)" xlink:href="#bF"/><use transform="matrix(0.006510416666666667,0,0,0.006510416666666667,14.921875,0)" xlink:href="#bO"/><use transform="matrix(0.006510416666666667,0,0,0.006510416666666667,22.845052083333336,0)" xlink:href="#bP"/><use transform="matrix(0.006510416666666667,0,0,0.006510416666666667,33.75651041666667,0)" xlink:href="#bt"/><use transform="matrix(0.006510416666666667,0,0,0.006510416666666667,41.243489583333336,0)" xlink:href="#bu"/><use transform="matrix(0.006510416666666667,0,0,0.006510416666666667,44.47265625,0)" xlink:href="#bu"/><use transform="matrix(0.006510416666666667,0,0,0.006510416666666667,47.701822916666664,0)" xlink:href="#bp"/><use transform="matrix(0.006510416666666667,0,0,0.006510416666666667,55.47526041666667,0)" xlink:href="#br"/><use transform="matrix(0.006510416666666667,0,0,0.006510416666666667,59.83723958333332,0)" xlink:href="#bQ"/><use transform="matrix(0.006510416666666667,0,0,0.006510416666666667,66.3671875,0)" xlink:href="#bC"/><use transform="matrix(0.006510416666666667,0,0,0.006510416666666667,69.59635416666667,0)" xlink:href="#bR"/></g><path fill="#3a414a" d="M120-303v-155l652-1032h231v1020h202v167h-202V0H821v-303H120zm702-167v-782h-12L323-482v12h499" id="bS"/><g id="n"><use transform="matrix(0.006510416666666667,0,0,0.006510416666666667,0,0)" xlink:href="#bH"/><use transform="matrix(0.006510416666666667,0,0,0.006510416666666667,8.235677083333334,0)" xlink:href="#bS"/><use transform="matrix(0.006510416666666667,0,0,0.006510416666666667,16.848958333333336,0)" xlink:href="#bI"/></g><g id="o"><use transform="matrix(0.006510416666666667,0,0,0.006510416666666667,0,0)" xlink:href="#bH"/><use transform="matrix(0.006510416666666667,0,0,0.006510416666666667,7.936197916666667,0)" xlink:href="#bz"/></g><path fill="#3a414a" d="M613 24c-304 0-509-231-509-576 0-350 205-580 509-580 305 0 511 230 511 580 0 345-206 576-511 576zm0-161c226 0 329-195 329-415 0-222-103-419-329-419-223 0-326 196-326 419 0 220 103 415 326 415" id="bT"/><g id="p"><use transform="matrix(0.006510416666666667,0,0,0.006510416666666667,0,0)" xlink:href="#br"/><use transform="matrix(0.006510416666666667,0,0,0.006510416666666667,4.361979166666667,0)" xlink:href="#bC"/><use transform="matrix(0.006510416666666667,0,0,0.006510416666666667,7.591145833333334,0)" xlink:href="#bv"/><use transform="matrix(0.006510416666666667,0,0,0.006510416666666667,19.270833333333336,0)" xlink:href="#bp"/><use transform="matrix(0.006510416666666667,0,0,0.006510416666666667,27.044270833333336,0)" xlink:href="#bT"/><use transform="matrix(0.006510416666666667,0,0,0.006510416666666667,35.0390625,0)" xlink:href="#bF"/><use transform="matrix(0.006510416666666667,0,0,0.006510416666666667,42.923177083333336,0)" xlink:href="#br"/></g><g id="q"><use transform="matrix(0.006510416666666667,0,0,0.006510416666666667,0,0)" xlink:href="#bv"/><use transform="matrix(0.006510416666666667,0,0,0.006510416666666667,11.6796875,0)" xlink:href="#bt"/><use transform="matrix(0.006510416666666667,0,0,0.006510416666666667,19.166666666666668,0)" xlink:href="#br"/><use transform="matrix(0.006510416666666667,0,0,0.006510416666666667,23.398437500000004,0)" xlink:href="#bM"/><use transform="matrix(0.006510416666666667,0,0,0.006510416666666667,31.015625,0)" xlink:href="#bL"/><use transform="matrix(0.006510416666666667,0,0,0.006510416666666667,38.899739583333336,0)" xlink:href="#bp"/><use transform="matrix(0.006510416666666667,0,0,0.006510416666666667,46.673177083333336,0)" xlink:href="#bw"/></g><path fill="#3a414a" d="M633 20c-303 0-511-173-511-416 0-188 124-348 291-378v-8c-145-37-237-174-237-332 0-227 192-396 457-396 261 0 456 169 456 396 0 158-94 295-235 332v8c162 30 291 190 291 378 0 243-212 416-512 416zm0-165c197 0 322-103 322-261 0-165-138-283-322-283-188 0-324 118-324 283 0 158 123 261 324 261zm0-703c157 0 272-101 272-252 0-149-110-246-272-246-165 0-273 97-273 246 0 151 112 252 273 252" id="bU"/><g id="r"><use transform="matrix(0.006510416666666667,0,0,0.006510416666666667,0,0)" xlink:href="#bH"/><use transform="matrix(0.006510416666666667,0,0,0.006510416666666667,8.235677083333334,0)" xlink:href="#bU"/><use transform="matrix(0.006510416666666667,0,0,0.006510416666666667,16.484375,0)" xlink:href="#bI"/></g><g id="s"><use transform="matrix(0.006510416666666667,0,0,0.006510416666666667,0,0)" xlink:href="#bS"/><use transform="matrix(0.006510416666666667,0,0,0.006510416666666667,8.1640625,0)" xlink:href="#bz"/></g><g id="t"><use transform="matrix(0.006510416666666667,0,0,0.006510416666666667,0,0)" xlink:href="#bM"/><use transform="matrix(0.006510416666666667,0,0,0.006510416666666667,7.6171875,0)" xlink:href="#bB"/><use transform="matrix(0.006510416666666667,0,0,0.006510416666666667,12.415364583333332,0)" xlink:href="#bp"/><use transform="matrix(0.006510416666666667,0,0,0.006510416666666667,20.319010416666664,0)" xlink:href="#bt"/><use transform="matrix(0.006510416666666667,0,0,0.006510416666666667,27.805989583333336,0)" xlink:href="#br"/><use transform="matrix(0.006510416666666667,0,0,0.006510416666666667,32.037760416666664,0)" xlink:href="#bp"/><use transform="matrix(0.006510416666666667,0,0,0.006510416666666667,39.811197916666664,0)" xlink:href="#bR"/><use transform="matrix(0.006510416666666667,0,0,0.006510416666666667,47.975260416666664,0)" xlink:href="#bQ"/><use transform="matrix(0.006510416666666667,0,0,0.006510416666666667,54.05598958333332,0)" xlink:href="#bt"/><use transform="matrix(0.006510416666666667,0,0,0.006510416666666667,61.54296874999999,0)" xlink:href="#br"/></g><path fill="#3a414a" d="M481 0L54-1118h197c107 314 236 620 325 951 87-331 217-637 324-951h197L670 0H481" id="bV"/><g id="u"><use transform="matrix(0.006510416666666667,0,0,0.006510416666666667,0,0)" xlink:href="#bV"/><use transform="matrix(0.006510416666666667,0,0,0.006510416666666667,7.428385416666667,0)" xlink:href="#bt"/><use transform="matrix(0.006510416666666667,0,0,0.006510416666666667,14.915364583333334,0)" xlink:href="#bu"/><use transform="matrix(0.006510416666666667,0,0,0.006510416666666667,18.14453125,0)" xlink:href="#bC"/><use transform="matrix(0.006510416666666667,0,0,0.006510416666666667,21.373697916666668,0)" xlink:href="#bR"/><use transform="matrix(0.006510416666666667,0,0,0.006510416666666667,29.537760416666668,0)" xlink:href="#bC"/><use transform="matrix(0.006510416666666667,0,0,0.006510416666666667,32.766927083333336,0)" xlink:href="#br"/><use transform="matrix(0.006510416666666667,0,0,0.006510416666666667,37.389322916666664,0)" xlink:href="#bE"/></g><path fill="#3a414a" d="M626 20c-262 0-458-168-468-396h184c12 133 134 229 284 229 180 0 311-137 311-326 0-192-136-335-323-335-92 0-196 33-255 78l-178-22 88-738h784v167H429l-51 435h8c61-51 160-87 263-87 273 0 474 211 474 499 0 286-210 496-497 496" id="bW"/><g id="v"><use transform="matrix(0.006510416666666667,0,0,0.006510416666666667,0,0)" xlink:href="#bH"/><use transform="matrix(0.006510416666666667,0,0,0.006510416666666667,8.235677083333334,0)" xlink:href="#bW"/><use transform="matrix(0.006510416666666667,0,0,0.006510416666666667,16.341145833333336,0)" xlink:href="#bI"/></g><path fill="#3a414a" d="M798-719v166H144v-166h654" id="bX"/><use transform="matrix(0.006510416666666667,0,0,0.006510416666666667,0,0)" xlink:href="#bX" id="w"/><path fill="#3a414a" d="M180 0v-1490h224l606 953c40 63 108 177 176 312-27-437-7-821-13-1265h190V0h-226C860-448 622-778 356-1262c27 476 11 792 15 1262H180" id="bY"/><g id="x"><use transform="matrix(0.006510416666666667,0,0,0.006510416666666667,0,0)" xlink:href="#bY"/><use transform="matrix(0.006510416666666667,0,0,0.006510416666666667,10.045572916666668,0)" xlink:href="#bT"/><use transform="matrix(0.006510416666666667,0,0,0.006510416666666667,18.040364583333336,0)" xlink:href="#br"/></g><g id="y"><use transform="matrix(0.006510416666666667,0,0,0.006510416666666667,0,0)" xlink:href="#br"/><use transform="matrix(0.006510416666666667,0,0,0.006510416666666667,4.231770833333334,0)" xlink:href="#bT"/><use transform="matrix(0.006510416666666667,0,0,0.006510416666666667,12.2265625,0)" xlink:href="#bT"/></g><g id="z"><use transform="matrix(0.006510416666666667,0,0,0.006510416666666667,0,0)" xlink:href="#bT"/><use transform="matrix(0.006510416666666667,0,0,0.006510416666666667,7.994791666666667,0)" xlink:href="#bu"/><use transform="matrix(0.006510416666666667,0,0,0.006510416666666667,11.223958333333334,0)" xlink:href="#bR"/></g><path fill="#3a414a" d="M1181-520L237-44v-194l712-338v-12L237-926v-196l944 476v126" id="bZ"/><g id="A"><use transform="matrix(0.006510416666666667,0,0,0.006510416666666667,0,0)" xlink:href="#bG"/><use transform="matrix(0.006510416666666667,0,0,0.006510416666666667,4.86328125,0)" xlink:href="#bZ"/></g><g id="B"><use transform="matrix(0.006510416666666667,0,0,0.006510416666666667,0,0)" xlink:href="#bs"/><use transform="matrix(0.006510416666666667,0,0,0.006510416666666667,7.877604166666667,0)" xlink:href="#bT"/><use transform="matrix(0.006510416666666667,0,0,0.006510416666666667,15.631510416666668,0)" xlink:href="#bP"/></g><use transform="matrix(0.006510416666666667,0,0,0.006510416666666667,0,0)" xlink:href="#bX" id="C"/><g id="D"><use transform="matrix(0.006510416666666667,0,0,0.006510416666666667,0,0)" xlink:href="#br"/><use transform="matrix(0.006510416666666667,0,0,0.006510416666666667,4.361979166666667,0)" xlink:href="#bC"/><use transform="matrix(0.006510416666666667,0,0,0.006510416666666667,7.591145833333334,0)" xlink:href="#bv"/><use transform="matrix(0.006510416666666667,0,0,0.006510416666666667,19.270833333333336,0)" xlink:href="#bp"/><use transform="matrix(0.006510416666666667,0,0,0.006510416666666667,27.044270833333336,0)" xlink:href="#bT"/><use transform="matrix(0.006510416666666667,0,0,0.006510416666666667,35.0390625,0)" xlink:href="#bF"/><use transform="matrix(0.006510416666666667,0,0,0.006510416666666667,42.923177083333336,0)" xlink:href="#br"/><use transform="matrix(0.006510416666666667,0,0,0.006510416666666667,47.28515625,0)" xlink:href="#bI"/></g><g id="E"><use transform="matrix(0.006510416666666667,0,0,0.006510416666666667,0,0)" xlink:href="#bD"/><use transform="matrix(0.006510416666666667,0,0,0.006510416666666667,4.934895833333334,0)" xlink:href="#bB"/><use transform="matrix(0.006510416666666667,0,0,0.006510416666666667,9.733072916666668,0)" xlink:href="#bT"/><use transform="matrix(0.006510416666666667,0,0,0.006510416666666667,17.727864583333336,0)" xlink:href="#bv"/></g><g id="F"><use transform="matrix(0.006510416666666667,0,0,0.006510416666666667,0,0)" xlink:href="#bD"/><use transform="matrix(0.006510416666666667,0,0,0.006510416666666667,4.934895833333334,0)" xlink:href="#bF"/><use transform="matrix(0.006510416666666667,0,0,0.006510416666666667,12.819010416666668,0)" xlink:href="#br"/><use transform="matrix(0.006510416666666667,0,0,0.006510416666666667,17.180989583333336,0)" xlink:href="#bF"/><use transform="matrix(0.006510416666666667,0,0,0.006510416666666667,25.06510416666667,0)" xlink:href="#bB"/><use transform="matrix(0.006510416666666667,0,0,0.006510416666666667,29.86328125,0)" xlink:href="#bp"/></g><path fill="#3a414a" d="M174-520v-126l944-476v196L406-588v12l712 338v194" id="ca"/><path fill="#3a414a" d="M226-283v-166h904v166H226zm0-434v-166h904v166H226" id="cb"/><g id="G"><use transform="matrix(0.006510416666666667,0,0,0.006510416666666667,0,0)" xlink:href="#bG"/><use transform="matrix(0.006510416666666667,0,0,0.006510416666666667,4.86328125,0)" xlink:href="#ca"/><use transform="matrix(0.006510416666666667,0,0,0.006510416666666667,13.684895833333334,0)" xlink:href="#cb"/></g><g id="H"><use transform="matrix(0.006510416666666667,0,0,0.006510416666666667,0,0)" xlink:href="#bs"/><use transform="matrix(0.006510416666666667,0,0,0.006510416666666667,7.877604166666667,0)" xlink:href="#bT"/><use transform="matrix(0.006510416666666667,0,0,0.006510416666666667,15.631510416666668,0)" xlink:href="#bP"/><use transform="matrix(0.006510416666666667,0,0,0.006510416666666667,26.54296875,0)" xlink:href="#bI"/></g><g id="I"><use transform="matrix(0.006510416666666667,0,0,0.006510416666666667,0,0)" xlink:href="#bW"/><use transform="matrix(0.006510416666666667,0,0,0.006510416666666667,7.747395833333334,0)" xlink:href="#bz"/></g><path fill="#3a414a" d="M1096 418H916v-591h-14C865-111 790 24 577 24c-279 0-473-224-473-580 0-354 195-576 474-576 218 0 287 134 324 193h20v-179h174V418zM604-137c203 0 314-172 314-421 0-247-108-413-314-413-212 0-317 181-317 413 0 235 108 421 317 421" id="cc"/><g id="J"><use transform="matrix(0.006510416666666667,0,0,0.006510416666666667,0,0)" xlink:href="#cc"/><use transform="matrix(0.006510416666666667,0,0,0.006510416666666667,8.1640625,0)" xlink:href="#bF"/><use transform="matrix(0.006510416666666667,0,0,0.006510416666666667,16.048177083333336,0)" xlink:href="#bp"/><use transform="matrix(0.006510416666666667,0,0,0.006510416666666667,23.821614583333336,0)" xlink:href="#bB"/><use transform="matrix(0.006510416666666667,0,0,0.006510416666666667,29.049479166666668,0)" xlink:href="#bE"/><use transform="matrix(0.006510416666666667,0,0,0.006510416666666667,35.48828125,0)" xlink:href="#bQ"/><use transform="matrix(0.006510416666666667,0,0,0.006510416666666667,42.018229166666664,0)" xlink:href="#bC"/><use transform="matrix(0.006510416666666667,0,0,0.006510416666666667,45.24739583333333,0)" xlink:href="#bR"/></g><g id="K"><use transform="matrix(0.006510416666666667,0,0,0.006510416666666667,0,0)" xlink:href="#bC"/><use transform="matrix(0.006510416666666667,0,0,0.006510416666666667,3.229166666666667,0)" xlink:href="#bs"/></g><g id="L"><use transform="matrix(0.006510416666666667,0,0,0.006510416666666667,0,0)" xlink:href="#bT"/><use transform="matrix(0.006510416666666667,0,0,0.006510416666666667,7.994791666666667,0)" xlink:href="#bu"/><use transform="matrix(0.006510416666666667,0,0,0.006510416666666667,11.223958333333334,0)" xlink:href="#bR"/><use transform="matrix(0.006510416666666667,0,0,0.006510416666666667,19.388020833333336,0)" xlink:href="#bQ"/><use transform="matrix(0.006510416666666667,0,0,0.006510416666666667,25.468750000000004,0)" xlink:href="#cc"/><use transform="matrix(0.006510416666666667,0,0,0.006510416666666667,33.6328125,0)" xlink:href="#bF"/><use transform="matrix(0.006510416666666667,0,0,0.006510416666666667,41.516927083333336,0)" xlink:href="#bp"/><use transform="matrix(0.006510416666666667,0,0,0.006510416666666667,49.290364583333336,0)" xlink:href="#bB"/><use transform="matrix(0.006510416666666667,0,0,0.006510416666666667,54.51822916666667,0)" xlink:href="#bC"/><use transform="matrix(0.006510416666666667,0,0,0.006510416666666667,57.747395833333336,0)" xlink:href="#bp"/><use transform="matrix(0.006510416666666667,0,0,0.006510416666666667,65.52083333333334,0)" xlink:href="#bw"/></g><path fill="#3a414a" d="M646 20c-249 0-524-159-524-708 0-524 209-822 547-822 250 0 431 161 467 395H950c-33-129-126-227-281-227-229 0-367 208-367 566h12c80-124 212-198 367-198 255 0 467 205 467 493 0 278-198 501-502 501zm0-167c179 0 318-148 318-334 0-182-133-328-313-328-181 0-322 156-322 330 0 176 134 332 317 332" id="cd"/><g id="M"><use transform="matrix(0.006510416666666667,0,0,0.006510416666666667,0,0)" xlink:href="#bH"/><use transform="matrix(0.006510416666666667,0,0,0.006510416666666667,8.235677083333334,0)" xlink:href="#cd"/><use transform="matrix(0.006510416666666667,0,0,0.006510416666666667,16.50390625,0)" xlink:href="#bI"/></g><g id="N"><use transform="matrix(0.006510416666666667,0,0,0.006510416666666667,0,0)" xlink:href="#cd"/><use transform="matrix(0.006510416666666667,0,0,0.006510416666666667,7.819010416666669,0)" xlink:href="#bz"/></g><g id="O"><use transform="matrix(0.006510416666666667,0,0,0.006510416666666667,0,0)" xlink:href="#cc"/><use transform="matrix(0.006510416666666667,0,0,0.006510416666666667,8.1640625,0)" xlink:href="#bF"/><use transform="matrix(0.006510416666666667,0,0,0.006510416666666667,16.048177083333336,0)" xlink:href="#bp"/><use transform="matrix(0.006510416666666667,0,0,0.006510416666666667,23.821614583333336,0)" xlink:href="#bB"/><use transform="matrix(0.006510416666666667,0,0,0.006510416666666667,29.049479166666668,0)" xlink:href="#bC"/><use transform="matrix(0.006510416666666667,0,0,0.006510416666666667,32.278645833333336,0)" xlink:href="#bp"/><use transform="matrix(0.006510416666666667,0,0,0.006510416666666667,40.052083333333336,0)" xlink:href="#bw"/></g><g id="P"><use transform="matrix(0.006510416666666667,0,0,0.006510416666666667,0,0)" xlink:href="#bH"/><use transform="matrix(0.006510416666666667,0,0,0.006510416666666667,8.235677083333334,0)" xlink:href="#cd"/><use transform="matrix(0.006510416666666667,0,0,0.006510416666666667,16.50390625,0)" xlink:href="#bI"/></g><path fill="#3a414a" d="M200 0l662-1311v-12H98v-167h963v177L400 0H200" id="ce"/><g id="Q"><use transform="matrix(0.006510416666666667,0,0,0.006510416666666667,0,0)" xlink:href="#ce"/><use transform="matrix(0.006510416666666667,0,0,0.006510416666666667,5.87890625,0)" xlink:href="#bz"/></g><path fill="#3a414a" d="M180 0v-1490h270l367 940c28 72 75 218 110 339 35-117 81-264 110-339l362-940h271V0h-187c2-448-5-837 7-1287-157 497-311 829-483 1287H842C666-458 514-784 354-1284c12 438 5 843 7 1284H180" id="cf"/><g id="R"><use transform="matrix(0.006510416666666667,0,0,0.006510416666666667,0,0)" xlink:href="#cf"/><use transform="matrix(0.006510416666666667,0,0,0.006510416666666667,12.044270833333334,0)" xlink:href="#bt"/><use transform="matrix(0.006510416666666667,0,0,0.006510416666666667,19.53125,0)" xlink:href="#bB"/><use transform="matrix(0.006510416666666667,0,0,0.006510416666666667,24.759114583333332,0)" xlink:href="#bN"/></g><g id="S"><use transform="matrix(0.006510416666666667,0,0,0.006510416666666667,0,0)" xlink:href="#bt"/><use transform="matrix(0.006510416666666667,0,0,0.006510416666666667,7.486979166666667,0)" xlink:href="#bw"/></g><path fill="#3a414a" d="M158 418v-1536h174v179h20c37-59 106-193 324-193 279 0 474 222 474 576 0 356-194 580-473 580-213 0-288-135-325-197h-14v591H158zm492-555c209 0 317-186 317-421 0-232-105-413-317-413-206 0-314 166-314 413 0 249 111 421 314 421" id="cg"/><g id="T"><use transform="matrix(0.006510416666666667,0,0,0.006510416666666667,0,0)" xlink:href="#cg"/><use transform="matrix(0.006510416666666667,0,0,0.006510416666666667,8.1640625,0)" xlink:href="#bB"/><use transform="matrix(0.006510416666666667,0,0,0.006510416666666667,12.962239583333332,0)" xlink:href="#bT"/><use transform="matrix(0.006510416666666667,0,0,0.006510416666666667,20.95703125,0)" xlink:href="#bM"/><use transform="matrix(0.006510416666666667,0,0,0.006510416666666667,28.57421875,0)" xlink:href="#bp"/><use transform="matrix(0.006510416666666667,0,0,0.006510416666666667,36.34765625,0)" xlink:href="#bw"/><use transform="matrix(0.006510416666666667,0,0,0.006510416666666667,43.385416666666664,0)" xlink:href="#bw"/><use transform="matrix(0.006510416666666667,0,0,0.006510416666666667,50.42317708333333,0)" xlink:href="#bp"/><use transform="matrix(0.006510416666666667,0,0,0.006510416666666667,58.19661458333332,0)" xlink:href="#bR"/></g><g id="U"><use transform="matrix(0.006510416666666667,0,0,0.006510416666666667,0,0)" xlink:href="#bU"/><use transform="matrix(0.006510416666666667,0,0,0.006510416666666667,7.94921875,0)" xlink:href="#bz"/></g><g id="V"><use transform="matrix(0.006510416666666667,0,0,0.006510416666666667,0,0)" xlink:href="#bK"/><use transform="matrix(0.006510416666666667,0,0,0.006510416666666667,9.739583333333334,0)" xlink:href="#bT"/><use transform="matrix(0.006510416666666667,0,0,0.006510416666666667,17.734375,0)" xlink:href="#bv"/><use transform="matrix(0.006510416666666667,0,0,0.006510416666666667,29.4140625,0)" xlink:href="#bv"/><use transform="matrix(0.006510416666666667,0,0,0.006510416666666667,41.09375,0)" xlink:href="#bC"/><use transform="matrix(0.006510416666666667,0,0,0.006510416666666667,44.322916666666664,0)" xlink:href="#br"/></g><g id="W"><use transform="matrix(0.006510416666666667,0,0,0.006510416666666667,0,0)" xlink:href="#bw"/><use transform="matrix(0.006510416666666667,0,0,0.006510416666666667,7.037760416666667,0)" xlink:href="#br"/><use transform="matrix(0.006510416666666667,0,0,0.006510416666666667,11.26953125,0)" xlink:href="#bT"/><use transform="matrix(0.006510416666666667,0,0,0.006510416666666667,19.264322916666668,0)" xlink:href="#bB"/><use transform="matrix(0.006510416666666667,0,0,0.006510416666666667,24.283854166666668,0)" xlink:href="#bt"/><use transform="matrix(0.006510416666666667,0,0,0.006510416666666667,31.770833333333336,0)" xlink:href="#bx"/><use transform="matrix(0.006510416666666667,0,0,0.006510416666666667,39.94791666666667,0)" xlink:href="#bp"/></g><g id="X"><use transform="matrix(0.006510416666666667,0,0,0.006510416666666667,0,0)" xlink:href="#bM"/><use transform="matrix(0.006510416666666667,0,0,0.006510416666666667,7.6171875,0)" xlink:href="#bL"/><use transform="matrix(0.006510416666666667,0,0,0.006510416666666667,15.501302083333334,0)" xlink:href="#bt"/><use transform="matrix(0.006510416666666667,0,0,0.006510416666666667,22.98828125,0)" xlink:href="#bs"/><use transform="matrix(0.006510416666666667,0,0,0.006510416666666667,30.865885416666668,0)" xlink:href="#bx"/><use transform="matrix(0.006510416666666667,0,0,0.006510416666666667,39.04296875,0)" xlink:href="#bp"/><use transform="matrix(0.006510416666666667,0,0,0.006510416666666667,46.81640625,0)" xlink:href="#bw"/></g><path fill="#3a414a" d="M603 20c-253 0-434-161-469-399h188c31 132 124 231 281 231 227 0 367-207 367-568h-12c-80 122-211 199-367 199-257 0-469-206-469-493 0-278 200-505 506-500 245 4 520 158 520 706 0 527-208 824-545 824zm16-703c181 0 324-157 324-332 0-171-135-328-318-328-180 0-317 148-317 332 0 183 131 328 311 328" id="ch"/><g id="Y"><use transform="matrix(0.006510416666666667,0,0,0.006510416666666667,0,0)" xlink:href="#ch"/><use transform="matrix(0.006510416666666667,0,0,0.006510416666666667,7.9296875,0)" xlink:href="#bz"/></g><g id="Z"><use transform="matrix(0.006510416666666667,0,0,0.006510416666666667,0,0)" xlink:href="#bA"/><use transform="matrix(0.006510416666666667,0,0,0.006510416666666667,8.522135416666666,0)" xlink:href="#bt"/><use transform="matrix(0.006510416666666667,0,0,0.006510416666666667,16.009114583333332,0)" xlink:href="#bu"/><use transform="matrix(0.006510416666666667,0,0,0.006510416666666667,19.23828125,0)" xlink:href="#bC"/><use transform="matrix(0.006510416666666667,0,0,0.006510416666666667,22.467447916666668,0)" xlink:href="#bR"/><use transform="matrix(0.006510416666666667,0,0,0.006510416666666667,30.631510416666668,0)" xlink:href="#bt"/><use transform="matrix(0.006510416666666667,0,0,0.006510416666666667,38.118489583333336,0)" xlink:href="#br"/><use transform="matrix(0.006510416666666667,0,0,0.006510416666666667,42.350260416666664,0)" xlink:href="#bp"/></g><g id="aa"><use transform="matrix(0.006510416666666667,0,0,0.006510416666666667,0,0)" xlink:href="#bv"/><use transform="matrix(0.006510416666666667,0,0,0.006510416666666667,11.6796875,0)" xlink:href="#bp"/><use transform="matrix(0.006510416666666667,0,0,0.006510416666666667,19.453125,0)" xlink:href="#bw"/><use transform="matrix(0.006510416666666667,0,0,0.006510416666666667,26.490885416666668,0)" xlink:href="#bw"/><use transform="matrix(0.006510416666666667,0,0,0.006510416666666667,33.528645833333336,0)" xlink:href="#bt"/><use transform="matrix(0.006510416666666667,0,0,0.006510416666666667,41.015625,0)" xlink:href="#bx"/><use transform="matrix(0.006510416666666667,0,0,0.006510416666666667,49.192708333333336,0)" xlink:href="#bp"/><use transform="matrix(0.006510416666666667,0,0,0.006510416666666667,56.966145833333336,0)" xlink:href="#bQ"/><use transform="matrix(0.006510416666666667,0,0,0.006510416666666667,63.046875,0)" xlink:href="#br"/><use transform="matrix(0.006510416666666667,0,0,0.006510416666666667,67.27864583333333,0)" xlink:href="#bT"/><use transform="matrix(0.006510416666666667,0,0,0.006510416666666667,75.2734375,0)" xlink:href="#bQ"/><use transform="matrix(0.006510416666666667,0,0,0.006510416666666667,81.35416666666667,0)" xlink:href="#bw"/><use transform="matrix(0.006510416666666667,0,0,0.006510416666666667,88.39192708333334,0)" xlink:href="#bp"/><use transform="matrix(0.006510416666666667,0,0,0.006510416666666667,96.16536458333334,0)" xlink:href="#bs"/><use transform="matrix(0.006510416666666667,0,0,0.006510416666666667,104.04296875000001,0)" xlink:href="#bR"/></g><g id="ab"><use transform="matrix(0.006510416666666667,0,0,0.006510416666666667,0,0)" xlink:href="#bH"/><use transform="matrix(0.006510416666666667,0,0,0.006510416666666667,8.235677083333334,0)" xlink:href="#ce"/><use transform="matrix(0.006510416666666667,0,0,0.006510416666666667,15.78125,0)" xlink:href="#bI"/></g><path fill="#3a414a" d="M646 20c-332 0-524-278-524-764 0-483 194-766 524-766s524 283 524 766c0 485-191 764-524 764zm0-166c218 0 341-220 341-598 0-380-123-601-341-601s-341 222-341 601c0 378 123 598 341 598" id="ci"/><g id="ac"><use transform="matrix(0.006510416666666667,0,0,0.006510416666666667,0,0)" xlink:href="#by"/><use transform="matrix(0.006510416666666667,0,0,0.006510416666666667,5.423177083333334,0)" xlink:href="#ci"/><use transform="matrix(0.006510416666666667,0,0,0.006510416666666667,13.49609375,0)" xlink:href="#bz"/></g><path fill="#3a414a" d="M657 26c-323 0-524-166-541-416h195c15 169 171 246 346 246 202 0 356-106 356-265 5-203-294-238-475-293-239-73-380-191-380-389 0-252 224-419 512-419 294 0 499 171 508 396H992c-17-145-151-228-328-228-193 0-321 102-321 242 0 156 175 211 284 241l149 41c160 44 422 134 422 412 0 244-197 432-541 432" id="cj"/><g id="ad"><use transform="matrix(0.006510416666666667,0,0,0.006510416666666667,0,0)" xlink:href="#cj"/><use transform="matrix(0.006510416666666667,0,0,0.006510416666666667,8.5546875,0)" xlink:href="#bp"/><use transform="matrix(0.006510416666666667,0,0,0.006510416666666667,16.328125,0)" xlink:href="#bs"/><use transform="matrix(0.006510416666666667,0,0,0.006510416666666667,24.205729166666668,0)" xlink:href="#bR"/></g><path fill="#3a414a" d="M370-1490V0H180v-1490h190" id="ck"/><path fill="#3a414a" d="M98-1322v-168h1126v168H757V0H567v-1322H98" id="cl"/><path fill="#3a414a" d="M180 0v-1490h908v168H370v486h669v168H370v500h727V0H180" id="cm"/><path fill="#3a414a" d="M180 0v-1490h510c348 0 508 194 508 460 0 198-88 351-276 417L1256 0h-220L726-579c-117 2-238 0-356 1V0H180zm190-747h312c235 0 327-108 327-283 0-177-92-293-329-293H370v576" id="cn"/><path fill="#3a414a" d="M52 0l541-1490h220L1361 0h-200l-149-416H398L254 0H52zm404-582h497c-103-290-145-390-251-756-108 377-145 460-246 756" id="co"/><path fill="#3a414a" d="M180 0v-1490h190v1322h690V0H180" id="cp"/><g id="ae"><use transform="matrix(0.006510416666666667,0,0,0.006510416666666667,0,0)" xlink:href="#ck"/><use transform="matrix(0.006510416666666667,0,0,0.006510416666666667,3.580729166666667,0)" xlink:href="#bY"/><use transform="matrix(0.006510416666666667,0,0,0.006510416666666667,13.626302083333337,0)" xlink:href="#cl"/><use transform="matrix(0.006510416666666667,0,0,0.006510416666666667,22.23307291666667,0)" xlink:href="#cm"/><use transform="matrix(0.006510416666666667,0,0,0.006510416666666667,30.24739583333334,0)" xlink:href="#cn"/><use transform="matrix(0.006510416666666667,0,0,0.006510416666666667,38.82812500000001,0)" xlink:href="#bY"/><use transform="matrix(0.006510416666666667,0,0,0.006510416666666667,48.87369791666667,0)" xlink:href="#co"/><use transform="matrix(0.006510416666666667,0,0,0.006510416666666667,58.07291666666667,0)" xlink:href="#cp"/></g><g id="af"><use transform="matrix(0.006510416666666667,0,0,0.006510416666666667,0,0)" xlink:href="#bv"/><use transform="matrix(0.006510416666666667,0,0,0.006510416666666667,11.6796875,0)" xlink:href="#bp"/><use transform="matrix(0.006510416666666667,0,0,0.006510416666666667,19.453125,0)" xlink:href="#bw"/><use transform="matrix(0.006510416666666667,0,0,0.006510416666666667,26.490885416666668,0)" xlink:href="#bw"/><use transform="matrix(0.006510416666666667,0,0,0.006510416666666667,33.528645833333336,0)" xlink:href="#bt"/><use transform="matrix(0.006510416666666667,0,0,0.006510416666666667,41.015625,0)" xlink:href="#bx"/><use transform="matrix(0.006510416666666667,0,0,0.006510416666666667,49.192708333333336,0)" xlink:href="#bp"/></g><g id="ag"><use transform="matrix(0.006510416666666667,0,0,0.006510416666666667,0,0)" xlink:href="#br"/><use transform="matrix(0.006510416666666667,0,0,0.006510416666666667,4.231770833333334,0)" xlink:href="#bT"/></g><g id="ah"><use transform="matrix(0.006510416666666667,0,0,0.006510416666666667,0,0)" xlink:href="#bw"/><use transform="matrix(0.006510416666666667,0,0,0.006510416666666667,7.037760416666667,0)" xlink:href="#bp"/><use transform="matrix(0.006510416666666667,0,0,0.006510416666666667,14.811197916666668,0)" xlink:href="#bu"/><use transform="matrix(0.006510416666666667,0,0,0.006510416666666667,18.040364583333336,0)" xlink:href="#bD"/></g><path fill="#3a414a" d="M222-669l117-120 381 374 790-786 121 119-911 909" id="cq"/><use transform="matrix(0.006510416666666667,0,0,0.006510416666666667,0,0)" xlink:href="#cq" id="ak"/><g id="al"><use transform="matrix(0.006510416666666667,0,0,0.006510416666666667,0,0)" xlink:href="#cn"/><use transform="matrix(0.006510416666666667,0,0,0.006510416666666667,8.385416666666668,0)" xlink:href="#bp"/><use transform="matrix(0.006510416666666667,0,0,0.006510416666666667,16.158854166666668,0)" xlink:href="#cg"/><use transform="matrix(0.006510416666666667,0,0,0.006510416666666667,24.322916666666668,0)" xlink:href="#bu"/><use transform="matrix(0.006510416666666667,0,0,0.006510416666666667,27.552083333333336,0)" xlink:href="#bt"/><use transform="matrix(0.006510416666666667,0,0,0.006510416666666667,34.84375,0)" xlink:href="#bE"/></g><g id="am"><use transform="matrix(0.006510416666666667,0,0,0.006510416666666667,0,0)" xlink:href="#cg"/><use transform="matrix(0.006510416666666667,0,0,0.006510416666666667,8.1640625,0)" xlink:href="#bB"/><use transform="matrix(0.006510416666666667,0,0,0.006510416666666667,12.962239583333332,0)" xlink:href="#bT"/><use transform="matrix(0.006510416666666667,0,0,0.006510416666666667,20.95703125,0)" xlink:href="#br"/><use transform="matrix(0.006510416666666667,0,0,0.006510416666666667,25.188802083333336,0)" xlink:href="#bp"/><use transform="matrix(0.006510416666666667,0,0,0.006510416666666667,32.962239583333336,0)" xlink:href="#bM"/><use transform="matrix(0.006510416666666667,0,0,0.006510416666666667,40.579427083333336,0)" xlink:href="#br"/><use transform="matrix(0.006510416666666667,0,0,0.006510416666666667,44.94140625,0)" xlink:href="#bC"/><use transform="matrix(0.006510416666666667,0,0,0.006510416666666667,48.170572916666664,0)" xlink:href="#bT"/><use transform="matrix(0.006510416666666667,0,0,0.006510416666666667,56.16536458333332,0)" xlink:href="#bs"/></g><g id="an"><use transform="matrix(0.006510416666666667,0,0,0.006510416666666667,0,0)" xlink:href="#bt"/><use transform="matrix(0.006510416666666667,0,0,0.006510416666666667,7.486979166666667,0)" xlink:href="#cg"/><use transform="matrix(0.006510416666666667,0,0,0.006510416666666667,15.651041666666668,0)" xlink:href="#cg"/><use transform="matrix(0.006510416666666667,0,0,0.006510416666666667,23.815104166666668,0)" xlink:href="#bu"/><use transform="matrix(0.006510416666666667,0,0,0.006510416666666667,27.044270833333336,0)" xlink:href="#bC"/><use transform="matrix(0.006510416666666667,0,0,0.006510416666666667,30.2734375,0)" xlink:href="#bp"/><use transform="matrix(0.006510416666666667,0,0,0.006510416666666667,38.046875,0)" xlink:href="#bR"/></g><g id="ao"><use transform="matrix(0.006510416666666667,0,0,0.006510416666666667,0,0)" xlink:href="#cj"/><use transform="matrix(0.006510416666666667,0,0,0.006510416666666667,8.5546875,0)" xlink:href="#br"/><use transform="matrix(0.006510416666666667,0,0,0.006510416666666667,12.786458333333332,0)" xlink:href="#bT"/><use transform="matrix(0.006510416666666667,0,0,0.006510416666666667,20.78125,0)" xlink:href="#bB"/><use transform="matrix(0.006510416666666667,0,0,0.006510416666666667,25.80078125,0)" xlink:href="#bt"/><use transform="matrix(0.006510416666666667,0,0,0.006510416666666667,33.287760416666664,0)" xlink:href="#bx"/><use transform="matrix(0.006510416666666667,0,0,0.006510416666666667,41.46484375,0)" xlink:href="#bp"/></g><g id="ap"><use transform="matrix(0.006510416666666667,0,0,0.006510416666666667,0,0)" xlink:href="#bM"/><use transform="matrix(0.006510416666666667,0,0,0.006510416666666667,7.6171875,0)" xlink:href="#bL"/><use transform="matrix(0.006510416666666667,0,0,0.006510416666666667,15.501302083333334,0)" xlink:href="#bt"/><use transform="matrix(0.006510416666666667,0,0,0.006510416666666667,22.98828125,0)" xlink:href="#bs"/><use transform="matrix(0.006510416666666667,0,0,0.006510416666666667,30.865885416666668,0)" xlink:href="#bx"/><use transform="matrix(0.006510416666666667,0,0,0.006510416666666667,39.04296875,0)" xlink:href="#bp"/><use transform="matrix(0.006510416666666667,0,0,0.006510416666666667,46.81640625,0)" xlink:href="#bw"/></g><g id="aq"><use transform="matrix(0.006510416666666667,0,0,0.006510416666666667,0,0)" xlink:href="#bM"/><use transform="matrix(0.006510416666666667,0,0,0.006510416666666667,7.6171875,0)" xlink:href="#bT"/><use transform="matrix(0.006510416666666667,0,0,0.006510416666666667,15.611979166666668,0)" xlink:href="#bv"/><use transform="matrix(0.006510416666666667,0,0,0.006510416666666667,27.291666666666668,0)" xlink:href="#bv"/><use transform="matrix(0.006510416666666667,0,0,0.006510416666666667,38.97135416666667,0)" xlink:href="#bC"/><use transform="matrix(0.006510416666666667,0,0,0.006510416666666667,42.200520833333336,0)" xlink:href="#br"/><use transform="matrix(0.006510416666666667,0,0,0.006510416666666667,46.236979166666664,0)" xlink:href="#br"/><use transform="matrix(0.006510416666666667,0,0,0.006510416666666667,50.46874999999999,0)" xlink:href="#bp"/><use transform="matrix(0.006510416666666667,0,0,0.006510416666666667,58.24218749999999,0)" xlink:href="#bR"/></g><path fill="#3a414a" d="M124 0v-220l528-495c135-132 210-216 210-336 0-133-98-215-231-215-139 0-229 88-229 233H110c0-290 214-477 523-477 315 0 525 182 525 440 0 167-80 305-385 586L548-262v11h630V0H124" id="cr"/><use transform="matrix(0.006510416666666667,0,0,0.006510416666666667,0,0)" xlink:href="#cr" id="ar"/><path fill="#3a414a" d="M295 13c-75 0-135-60-135-135s60-135 135-135 135 60 135 135S370 13 295 13zm0-809c-75 0-135-60-135-135s60-135 135-135 135 60 135 135-60 135-135 135" id="cs"/><use transform="matrix(0.006510416666666667,0,0,0.006510416666666667,0,0)" xlink:href="#cs" id="as"/><g id="at"><use transform="matrix(0.006510416666666667,0,0,0.006510416666666667,0,0)" xlink:href="#bC"/><use transform="matrix(0.006510416666666667,0,0,0.006510416666666667,3.229166666666667,0)" xlink:href="#bs"/><use transform="matrix(0.006510416666666667,0,0,0.006510416666666667,11.106770833333334,0)" xlink:href="#br"/><use transform="matrix(0.006510416666666667,0,0,0.006510416666666667,15.338541666666668,0)" xlink:href="#bp"/><use transform="matrix(0.006510416666666667,0,0,0.006510416666666667,23.111979166666668,0)" xlink:href="#bB"/><use transform="matrix(0.006510416666666667,0,0,0.006510416666666667,28.33984375,0)" xlink:href="#bs"/><use transform="matrix(0.006510416666666667,0,0,0.006510416666666667,36.217447916666664,0)" xlink:href="#bt"/><use transform="matrix(0.006510416666666667,0,0,0.006510416666666667,43.70442708333333,0)" xlink:href="#bu"/></g><g id="au"><use transform="matrix(0.006510416666666667,0,0,0.006510416666666667,0,0)" xlink:href="#bv"/><use transform="matrix(0.006510416666666667,0,0,0.006510416666666667,11.6796875,0)" xlink:href="#bp"/><use transform="matrix(0.006510416666666667,0,0,0.006510416666666667,19.453125,0)" xlink:href="#bw"/><use transform="matrix(0.006510416666666667,0,0,0.006510416666666667,26.490885416666668,0)" xlink:href="#bw"/><use transform="matrix(0.006510416666666667,0,0,0.006510416666666667,33.528645833333336,0)" xlink:href="#bt"/><use transform="matrix(0.006510416666666667,0,0,0.006510416666666667,41.015625,0)" xlink:href="#bx"/><use transform="matrix(0.006510416666666667,0,0,0.006510416666666667,49.192708333333336,0)" xlink:href="#bp"/></g><g id="av"><use transform="matrix(0.006510416666666667,0,0,0.006510416666666667,0,0)" xlink:href="#bG"/><use transform="matrix(0.006510416666666667,0,0,0.006510416666666667,4.86328125,0)" xlink:href="#bP"/><use transform="matrix(0.006510416666666667,0,0,0.006510416666666667,15.774739583333334,0)" xlink:href="#bt"/><use transform="matrix(0.006510416666666667,0,0,0.006510416666666667,23.26171875,0)" xlink:href="#bu"/><use transform="matrix(0.006510416666666667,0,0,0.006510416666666667,26.490885416666668,0)" xlink:href="#bu"/><use transform="matrix(0.006510416666666667,0,0,0.006510416666666667,29.720052083333336,0)" xlink:href="#bp"/><use transform="matrix(0.006510416666666667,0,0,0.006510416666666667,37.493489583333336,0)" xlink:href="#br"/></g><g id="aw"><use transform="matrix(0.006510416666666667,0,0,0.006510416666666667,0,0)" xlink:href="#bw"/><use transform="matrix(0.006510416666666667,0,0,0.006510416666666667,7.037760416666667,0)" xlink:href="#bp"/><use transform="matrix(0.006510416666666667,0,0,0.006510416666666667,14.811197916666668,0)" xlink:href="#bs"/><use transform="matrix(0.006510416666666667,0,0,0.006510416666666667,22.688802083333336,0)" xlink:href="#bR"/><use transform="matrix(0.006510416666666667,0,0,0.006510416666666667,30.852864583333336,0)" xlink:href="#bw"/></g><g id="ax"><use transform="matrix(0.006510416666666667,0,0,0.006510416666666667,0,0)" xlink:href="#br"/><use transform="matrix(0.006510416666666667,0,0,0.006510416666666667,4.231770833333334,0)" xlink:href="#bT"/></g><g id="ay"><use transform="matrix(0.006510416666666667,0,0,0.006510416666666667,0,0)" xlink:href="#bC"/><use transform="matrix(0.006510416666666667,0,0,0.006510416666666667,3.229166666666667,0)" xlink:href="#br"/><use transform="matrix(0.006510416666666667,0,0,0.006510416666666667,7.4609375,0)" xlink:href="#bw"/><use transform="matrix(0.006510416666666667,0,0,0.006510416666666667,14.498697916666668,0)" xlink:href="#bp"/><use transform="matrix(0.006510416666666667,0,0,0.006510416666666667,22.272135416666668,0)" xlink:href="#bu"/><use transform="matrix(0.006510416666666667,0,0,0.006510416666666667,25.501302083333336,0)" xlink:href="#bD"/><use transform="matrix(0.006510416666666667,0,0,0.006510416666666667,30.436197916666675,0)" xlink:href="#bI"/></g><g id="aA"><use transform="matrix(0.006510416666666667,0,0,0.006510416666666667,0,0)" xlink:href="#bw"/><use transform="matrix(0.006510416666666667,0,0,0.006510416666666667,7.037760416666667,0)" xlink:href="#bp"/><use transform="matrix(0.006510416666666667,0,0,0.006510416666666667,14.811197916666668,0)" xlink:href="#bs"/><use transform="matrix(0.006510416666666667,0,0,0.006510416666666667,22.688802083333336,0)" xlink:href="#bR"/><use transform="matrix(0.006510416666666667,0,0,0.006510416666666667,30.852864583333336,0)" xlink:href="#bp"/><use transform="matrix(0.006510416666666667,0,0,0.006510416666666667,38.626302083333336,0)" xlink:href="#bB"/></g><use transform="matrix(0.006510416666666667,0,0,0.006510416666666667,0,0)" xlink:href="#cb" id="aB"/><g id="aC"><use transform="matrix(0.006510416666666667,0,0,0.006510416666666667,0,0)" xlink:href="#bw"/><use transform="matrix(0.006510416666666667,0,0,0.006510416666666667,7.037760416666667,0)" xlink:href="#bp"/><use transform="matrix(0.006510416666666667,0,0,0.006510416666666667,14.811197916666668,0)" xlink:href="#bu"/><use transform="matrix(0.006510416666666667,0,0,0.006510416666666667,18.040364583333336,0)" xlink:href="#bD"/></g><g id="aD"><use transform="matrix(0.006510416666666667,0,0,0.006510416666666667,0,0)" xlink:href="#bT"/><use transform="matrix(0.006510416666666667,0,0,0.006510416666666667,7.994791666666667,0)" xlink:href="#cg"/></g><g id="aE"><use transform="matrix(0.006510416666666667,0,0,0.006510416666666667,0,0)" xlink:href="#ci"/><use transform="matrix(0.006510416666666667,0,0,0.006510416666666667,8.411458333333334,0)" xlink:href="#bq"/><use transform="matrix(0.006510416666666667,0,0,0.006510416666666667,15.690104166666668,0)" xlink:href="#bt"/><use transform="matrix(0.006510416666666667,0,0,0.006510416666666667,23.177083333333336,0)" xlink:href="#bp"/><use transform="matrix(0.006510416666666667,0,0,0.006510416666666667,30.950520833333336,0)" xlink:href="#bS"/><use transform="matrix(0.006510416666666667,0,0,0.006510416666666667,39.563802083333336,0)" xlink:href="#bJ"/><use transform="matrix(0.006510416666666667,0,0,0.006510416666666667,47.6953125,0)" xlink:href="#bp"/><use transform="matrix(0.006510416666666667,0,0,0.006510416666666667,55.46875,0)" xlink:href="#bW"/><use transform="matrix(0.006510416666666667,0,0,0.006510416666666667,63.57421875,0)" xlink:href="#bt"/><use transform="matrix(0.006510416666666667,0,0,0.006510416666666667,71.06119791666667,0)" xlink:href="#bS"/></g><g id="aF"><use transform="matrix(0.006510416666666667,0,0,0.006510416666666667,0,0)" xlink:href="#cm"/><use transform="matrix(0.006510416666666667,0,0,0.006510416666666667,8.014322916666668,0)" xlink:href="#bq"/><use transform="matrix(0.006510416666666667,0,0,0.006510416666666667,15.553385416666668,0)" xlink:href="#br"/><use transform="matrix(0.006510416666666667,0,0,0.006510416666666667,19.915364583333336,0)" xlink:href="#bB"/><use transform="matrix(0.006510416666666667,0,0,0.006510416666666667,24.934895833333336,0)" xlink:href="#bt"/><use transform="matrix(0.006510416666666667,0,0,0.006510416666666667,32.421875,0)" xlink:href="#bM"/><use transform="matrix(0.006510416666666667,0,0,0.006510416666666667,40.0390625,0)" xlink:href="#br"/></g><g id="aG"><use transform="matrix(0.006510416666666667,0,0,0.006510416666666667,0,0)" xlink:href="#bt"/><use transform="matrix(0.006510416666666667,0,0,0.006510416666666667,7.486979166666667,0)" xlink:href="#bM"/><use transform="matrix(0.006510416666666667,0,0,0.006510416666666667,15.104166666666668,0)" xlink:href="#br"/><use transform="matrix(0.006510416666666667,0,0,0.006510416666666667,19.466145833333336,0)" xlink:href="#bC"/><use transform="matrix(0.006510416666666667,0,0,0.006510416666666667,22.695312500000004,0)" xlink:href="#bT"/><use transform="matrix(0.006510416666666667,0,0,0.006510416666666667,30.690104166666675,0)" xlink:href="#bs"/></g><g id="aH"><use transform="matrix(0.006510416666666667,0,0,0.006510416666666667,0,0)" xlink:href="#bu"/><use transform="matrix(0.006510416666666667,0,0,0.006510416666666667,3.229166666666667,0)" xlink:href="#bC"/><use transform="matrix(0.006510416666666667,0,0,0.006510416666666667,6.458333333333334,0)" xlink:href="#bw"/><use transform="matrix(0.006510416666666667,0,0,0.006510416666666667,13.49609375,0)" xlink:href="#br"/></g><g id="aI"><use transform="matrix(0.006510416666666667,0,0,0.006510416666666667,0,0)" xlink:href="#bv"/><use transform="matrix(0.006510416666666667,0,0,0.006510416666666667,11.6796875,0)" xlink:href="#bp"/><use transform="matrix(0.006510416666666667,0,0,0.006510416666666667,19.453125,0)" xlink:href="#bw"/><use transform="matrix(0.006510416666666667,0,0,0.006510416666666667,26.490885416666668,0)" xlink:href="#bw"/><use transform="matrix(0.006510416666666667,0,0,0.006510416666666667,33.528645833333336,0)" xlink:href="#bt"/><use transform="matrix(0.006510416666666667,0,0,0.006510416666666667,41.015625,0)" xlink:href="#bx"/><use transform="matrix(0.006510416666666667,0,0,0.006510416666666667,49.192708333333336,0)" xlink:href="#bp"/></g><g id="aJ"><use transform="matrix(0.006510416666666667,0,0,0.006510416666666667,0,0)" xlink:href="#co"/><use transform="matrix(0.006510416666666667,0,0,0.006510416666666667,9.19921875,0)" xlink:href="#cg"/><use transform="matrix(0.006510416666666667,0,0,0.006510416666666667,17.36328125,0)" xlink:href="#cg"/><use transform="matrix(0.006510416666666667,0,0,0.006510416666666667,25.52734375,0)" xlink:href="#bu"/><use transform="matrix(0.006510416666666667,0,0,0.006510416666666667,28.821614583333336,0)" xlink:href="#bE"/></g><g id="aK"><use transform="matrix(0.006510416666666667,0,0,0.006510416666666667,0,0)" xlink:href="#bt"/><use transform="matrix(0.006510416666666667,0,0,0.006510416666666667,7.486979166666667,0)" xlink:href="#bM"/><use transform="matrix(0.006510416666666667,0,0,0.006510416666666667,15.104166666666668,0)" xlink:href="#br"/><use transform="matrix(0.006510416666666667,0,0,0.006510416666666667,19.466145833333336,0)" xlink:href="#bC"/><use transform="matrix(0.006510416666666667,0,0,0.006510416666666667,22.695312500000004,0)" xlink:href="#bT"/><use transform="matrix(0.006510416666666667,0,0,0.006510416666666667,30.690104166666675,0)" xlink:href="#bs"/><use transform="matrix(0.006510416666666667,0,0,0.006510416666666667,38.567708333333336,0)" xlink:href="#bw"/></g><g id="aL"><use transform="matrix(0.006510416666666667,0,0,0.006510416666666667,0,0)" xlink:href="#bG"/><use transform="matrix(0.006510416666666667,0,0,0.006510416666666667,4.86328125,0)" xlink:href="#bw"/><use transform="matrix(0.006510416666666667,0,0,0.006510416666666667,11.901041666666668,0)" xlink:href="#bp"/><use transform="matrix(0.006510416666666667,0,0,0.006510416666666667,19.674479166666668,0)" xlink:href="#bs"/><use transform="matrix(0.006510416666666667,0,0,0.006510416666666667,27.552083333333336,0)" xlink:href="#bR"/></g><g id="aM"><use transform="matrix(0.006510416666666667,0,0,0.006510416666666667,0,0)" xlink:href="#bv"/><use transform="matrix(0.006510416666666667,0,0,0.006510416666666667,11.6796875,0)" xlink:href="#bp"/><use transform="matrix(0.006510416666666667,0,0,0.006510416666666667,19.453125,0)" xlink:href="#bw"/><use transform="matrix(0.006510416666666667,0,0,0.006510416666666667,26.490885416666668,0)" xlink:href="#bw"/><use transform="matrix(0.006510416666666667,0,0,0.006510416666666667,33.528645833333336,0)" xlink:href="#bt"/><use transform="matrix(0.006510416666666667,0,0,0.006510416666666667,41.015625,0)" xlink:href="#bx"/><use transform="matrix(0.006510416666666667,0,0,0.006510416666666667,49.192708333333336,0)" xlink:href="#bp"/><use transform="matrix(0.006510416666666667,0,0,0.006510416666666667,56.966145833333336,0)" xlink:href="#bw"/><use transform="matrix(0.006510416666666667,0,0,0.006510416666666667,64.00390625,0)" xlink:href="#bI"/></g><path fill="#3a414a" d="M180 0v-1490h510c348 0 508 209 508 474 0 266-160 477-507 477H370V0H180zm190-706h312c236 0 327-133 327-310 0-176-91-307-329-307H370v617" id="ct"/><g id="aN"><use transform="matrix(0.006510416666666667,0,0,0.006510416666666667,0,0)" xlink:href="#ct"/><use transform="matrix(0.006510416666666667,0,0,0.006510416666666667,8.515625,0)" xlink:href="#bB"/><use transform="matrix(0.006510416666666667,0,0,0.006510416666666667,13.313802083333334,0)" xlink:href="#bp"/><use transform="matrix(0.006510416666666667,0,0,0.006510416666666667,20.826822916666668,0)" xlink:href="#bV"/><use transform="matrix(0.006510416666666667,0,0,0.006510416666666667,28.059895833333336,0)" xlink:href="#bp"/><use transform="matrix(0.006510416666666667,0,0,0.006510416666666667,35.833333333333336,0)" xlink:href="#bs"/><use transform="matrix(0.006510416666666667,0,0,0.006510416666666667,43.7109375,0)" xlink:href="#br"/></g><g id="aO"><use transform="matrix(0.006510416666666667,0,0,0.006510416666666667,0,0)" xlink:href="#bM"/><use transform="matrix(0.006510416666666667,0,0,0.006510416666666667,7.6171875,0)" xlink:href="#bT"/><use transform="matrix(0.006510416666666667,0,0,0.006510416666666667,15.611979166666668,0)" xlink:href="#bR"/><use transform="matrix(0.006510416666666667,0,0,0.006510416666666667,23.776041666666668,0)" xlink:href="#bp"/></g><g id="aP"><use transform="matrix(0.006510416666666667,0,0,0.006510416666666667,0,0)" xlink:href="#bG"/><use transform="matrix(0.006510416666666667,0,0,0.006510416666666667,4.86328125,0)" xlink:href="#bw"/><use transform="matrix(0.006510416666666667,0,0,0.006510416666666667,11.901041666666668,0)" xlink:href="#bp"/><use transform="matrix(0.006510416666666667,0,0,0.006510416666666667,19.674479166666668,0)" xlink:href="#br"/><use transform="matrix(0.006510416666666667,0,0,0.006510416666666667,24.036458333333336,0)" xlink:href="#bQ"/><use transform="matrix(0.006510416666666667,0,0,0.006510416666666667,30.1171875,0)" xlink:href="#bM"/><use transform="matrix(0.006510416666666667,0,0,0.006510416666666667,37.734375,0)" xlink:href="#bT"/><use transform="matrix(0.006510416666666667,0,0,0.006510416666666667,45.729166666666664,0)" xlink:href="#bR"/><use transform="matrix(0.006510416666666667,0,0,0.006510416666666667,53.89322916666667,0)" xlink:href="#bp"/><use transform="matrix(0.006510416666666667,0,0,0.006510416666666667,61.51692708333332,0)" xlink:href="#bI"/></g><path fill="#3a414a" d="M135 0v-1490h340l471 754c59 97 122 210 187 365-32-387-14-721-19-1119h312V0h-341C855-382 627-689 427-1113c32 420 16 695 20 1113H135" id="cu"/><path fill="#3a414a" d="M633 22C291 22 81-200 81-553c0-345 210-579 537-579 292 0 525 185 525 567v84H378c7 183 109 277 260 277 105 0 184-46 216-132l272 51C1071-99 893 22 633 22zM380-669h474c-15-146-94-237-233-237-143 0-229 99-241 237" id="cv"/><g id="aR"><use transform="matrix(0.006510416666666667,0,0,0.006510416666666667,0,0)" xlink:href="#cu"/><use transform="matrix(0.006510416666666667,0,0,0.006510416666666667,10.162760416666668,0)" xlink:href="#bm"/><use transform="matrix(0.006510416666666667,0,0,0.006510416666666667,18.33984375,0)" xlink:href="#bk"/><use transform="matrix(0.006510416666666667,0,0,0.006510416666666667,23.092447916666668,0)" xlink:href="#cv"/><use transform="matrix(0.006510416666666667,0,0,0.006510416666666667,31.03515625,0)" xlink:href="#bo"/></g><g id="aS"><use transform="matrix(0.006510416666666667,0,0,0.006510416666666667,0,0)" xlink:href="#ck"/><use transform="matrix(0.006510416666666667,0,0,0.006510416666666667,3.580729166666667,0)" xlink:href="#bD"/></g><g id="aT"><use transform="matrix(0.006510416666666667,0,0,0.006510416666666667,0,0)" xlink:href="#br"/><use transform="matrix(0.006510416666666667,0,0,0.006510416666666667,4.361979166666667,0)" xlink:href="#bL"/><use transform="matrix(0.006510416666666667,0,0,0.006510416666666667,12.24609375,0)" xlink:href="#bC"/><use transform="matrix(0.006510416666666667,0,0,0.006510416666666667,15.475260416666668,0)" xlink:href="#bw"/></g><g id="aU"><use transform="matrix(0.006510416666666667,0,0,0.006510416666666667,0,0)" xlink:href="#br"/><use transform="matrix(0.006510416666666667,0,0,0.006510416666666667,4.361979166666667,0)" xlink:href="#bB"/><use transform="matrix(0.006510416666666667,0,0,0.006510416666666667,9.381510416666668,0)" xlink:href="#bt"/><use transform="matrix(0.006510416666666667,0,0,0.006510416666666667,16.868489583333336,0)" xlink:href="#bs"/><use transform="matrix(0.006510416666666667,0,0,0.006510416666666667,24.746093750000004,0)" xlink:href="#bw"/><use transform="matrix(0.006510416666666667,0,0,0.006510416666666667,31.783854166666675,0)" xlink:href="#bt"/><use transform="matrix(0.006510416666666667,0,0,0.006510416666666667,39.270833333333336,0)" xlink:href="#bM"/><use transform="matrix(0.006510416666666667,0,0,0.006510416666666667,46.888020833333336,0)" xlink:href="#br"/><use transform="matrix(0.006510416666666667,0,0,0.006510416666666667,51.25,0)" xlink:href="#bC"/><use transform="matrix(0.006510416666666667,0,0,0.006510416666666667,54.47916666666667,0)" xlink:href="#bT"/><use transform="matrix(0.006510416666666667,0,0,0.006510416666666667,62.47395833333332,0)" xlink:href="#bs"/></g><path fill="#3a414a" d="M128 359l88-567h206L266 359H128" id="cw"/><g id="aV"><use transform="matrix(0.006510416666666667,0,0,0.006510416666666667,0,0)" xlink:href="#bD"/><use transform="matrix(0.006510416666666667,0,0,0.006510416666666667,4.726562500000001,0)" xlink:href="#bt"/><use transform="matrix(0.006510416666666667,0,0,0.006510416666666667,12.213541666666668,0)" xlink:href="#bC"/><use transform="matrix(0.006510416666666667,0,0,0.006510416666666667,15.442708333333337,0)" xlink:href="#bu"/><use transform="matrix(0.006510416666666667,0,0,0.006510416666666667,18.671875000000004,0)" xlink:href="#bw"/><use transform="matrix(0.006510416666666667,0,0,0.006510416666666667,25.70963541666667,0)" xlink:href="#cw"/></g><g id="aW"><use transform="matrix(0.006510416666666667,0,0,0.006510416666666667,0,0)" xlink:href="#bB"/><use transform="matrix(0.006510416666666667,0,0,0.006510416666666667,4.798177083333333,0)" xlink:href="#bp"/><use transform="matrix(0.006510416666666667,0,0,0.006510416666666667,12.571614583333332,0)" xlink:href="#cg"/><use transform="matrix(0.006510416666666667,0,0,0.006510416666666667,20.735677083333332,0)" xlink:href="#bu"/><use transform="matrix(0.006510416666666667,0,0,0.006510416666666667,23.96484375,0)" xlink:href="#bt"/><use transform="matrix(0.006510416666666667,0,0,0.006510416666666667,31.256510416666668,0)" xlink:href="#bE"/></g><g id="aX"><use transform="matrix(0.006510416666666667,0,0,0.006510416666666667,0,0)" xlink:href="#cl"/><use transform="matrix(0.006510416666666667,0,0,0.006510416666666667,7.8515625,0)" xlink:href="#bB"/><use transform="matrix(0.006510416666666667,0,0,0.006510416666666667,12.87109375,0)" xlink:href="#bt"/><use transform="matrix(0.006510416666666667,0,0,0.006510416666666667,20.358072916666668,0)" xlink:href="#bs"/><use transform="matrix(0.006510416666666667,0,0,0.006510416666666667,28.235677083333336,0)" xlink:href="#bw"/><use transform="matrix(0.006510416666666667,0,0,0.006510416666666667,35.2734375,0)" xlink:href="#bt"/><use transform="matrix(0.006510416666666667,0,0,0.006510416666666667,42.760416666666664,0)" xlink:href="#bM"/><use transform="matrix(0.006510416666666667,0,0,0.006510416666666667,50.377604166666664,0)" xlink:href="#br"/><use transform="matrix(0.006510416666666667,0,0,0.006510416666666667,54.73958333333332,0)" xlink:href="#bC"/><use transform="matrix(0.006510416666666667,0,0,0.006510416666666667,57.96874999999999,0)" xlink:href="#bT"/><use transform="matrix(0.006510416666666667,0,0,0.006510416666666667,65.96354166666666,0)" xlink:href="#bs"/></g><use transform="matrix(0.006510416666666667,0,0,0.006510416666666667,0,0)" xlink:href="#by" id="aY"/><g id="aZ"><use transform="matrix(0.006510416666666667,0,0,0.006510416666666667,0,0)" xlink:href="#bB"/><use transform="matrix(0.006510416666666667,0,0,0.006510416666666667,4.798177083333333,0)" xlink:href="#bp"/><use transform="matrix(0.006510416666666667,0,0,0.006510416666666667,12.571614583333332,0)" xlink:href="#bv"/><use transform="matrix(0.006510416666666667,0,0,0.006510416666666667,24.251302083333332,0)" xlink:href="#bt"/><use transform="matrix(0.006510416666666667,0,0,0.006510416666666667,31.73828125,0)" xlink:href="#bC"/><use transform="matrix(0.006510416666666667,0,0,0.006510416666666667,34.967447916666664,0)" xlink:href="#bs"/><use transform="matrix(0.006510416666666667,0,0,0.006510416666666667,42.84505208333333,0)" xlink:href="#bw"/></g><g id="ba"><use transform="matrix(0.006510416666666667,0,0,0.006510416666666667,0,0)" xlink:href="#bC"/><use transform="matrix(0.006510416666666667,0,0,0.006510416666666667,3.229166666666667,0)" xlink:href="#bs"/><use transform="matrix(0.006510416666666667,0,0,0.006510416666666667,11.106770833333334,0)" xlink:href="#br"/><use transform="matrix(0.006510416666666667,0,0,0.006510416666666667,15.533854166666668,0)" xlink:href="#bt"/><use transform="matrix(0.006510416666666667,0,0,0.006510416666666667,23.020833333333336,0)" xlink:href="#bM"/><use transform="matrix(0.006510416666666667,0,0,0.006510416666666667,30.638020833333336,0)" xlink:href="#br"/></g><g id="bb"><use transform="matrix(0.006510416666666667,0,0,0.006510416666666667,0,0)" xlink:href="#bG"/><use transform="matrix(0.006510416666666667,0,0,0.006510416666666667,4.86328125,0)" xlink:href="#bs"/><use transform="matrix(0.006510416666666667,0,0,0.006510416666666667,12.740885416666668,0)" xlink:href="#bT"/></g><g id="bc"><use transform="matrix(0.006510416666666667,0,0,0.006510416666666667,0,0)" xlink:href="#bB"/><use transform="matrix(0.006510416666666667,0,0,0.006510416666666667,4.798177083333333,0)" xlink:href="#bT"/><use transform="matrix(0.006510416666666667,0,0,0.006510416666666667,12.79296875,0)" xlink:href="#bu"/><use transform="matrix(0.006510416666666667,0,0,0.006510416666666667,16.022135416666668,0)" xlink:href="#bu"/><use transform="matrix(0.006510416666666667,0,0,0.006510416666666667,19.251302083333336,0)" xlink:href="#bO"/><use transform="matrix(0.006510416666666667,0,0,0.006510416666666667,27.545572916666668,0)" xlink:href="#bt"/><use transform="matrix(0.006510416666666667,0,0,0.006510416666666667,35.032552083333336,0)" xlink:href="#bM"/><use transform="matrix(0.006510416666666667,0,0,0.006510416666666667,42.649739583333336,0)" xlink:href="#bN"/><use transform="matrix(0.006510416666666667,0,0,0.006510416666666667,49.96744791666667,0)" xlink:href="#bI"/></g></defs></g></svg>